<svg width="20" height="20" viewBox="0 0 20 20" fill="none" xmlns="http://www.w3.org/2000/svg">
<path fill-rule="evenodd" clip-rule="evenodd" d="M2 0C0.895431 0 0 0.895431 0 2V14C0 15.1046 0.895431 16 2 16H6H7.79615H12.1999H13H18C19.1046 16 20 15.1046 20 14V2C20 0.895431 19.1046 0 18 0H2ZM12.8665 17H10.4627L12.4628 20H14.8665L12.8665 17ZM9.53331 17H7.12948L5.12948 20H7.53323L9.53331 17ZM6.19008 3.43008C6 3.69255 6 4.14493 6 5.04969V10.9501C6 11.8548 6 12.3072 6.19008 12.5697C6.35588 12.7986 6.61085 12.9467 6.89189 12.9773C7.21405 13.0123 7.60699 12.7881 8.39285 12.3398L13.564 9.38962C14.3622 8.93428 14.7612 8.70661 14.8947 8.40849C15.0111 8.14851 15.0111 7.85124 14.8947 7.59126C14.7612 7.29314 14.3622 7.06547 13.564 6.61013L8.39286 3.65995C7.60699 3.21161 7.21405 2.98744 6.89189 3.02248C6.61085 3.05304 6.35588 3.20112 6.19008 3.43008Z" fill="#F32B2B"/>
</svg>
