<svg fill="none" height="102" viewBox="0 0 255 102" width="255" xmlns="http://www.w3.org/2000/svg"
  xmlns:xlink="http://www.w3.org/1999/xlink">
  <linearGradient id="b" gradientUnits="userSpaceOnUse" x1="0" x2="80" y1="21.545" y2="21.545">
    <stop offset="0" stop-color="#f22b2b" />
    <stop offset="1" stop-color="#ff5e5e" />
  </linearGradient>
  <path d="m117.845 57.12h7.56v7.68h3.16v-7.68h7.64v-3.04h-7.64v-7.6h-3.16v7.6h-7.56z" fill="#000" />
  <g clip-rule="evenodd" fill-rule="evenodd">
    <path
      d="m29.7954 69.8977 4.4092 2.2046c.9916.4958 1.7954 1.7976 1.7954 2.8889v24.0176c0 1.0992-.7963 1.5932-1.7954 1.0932l-4.4092-2.2043c-.9916-.4958-1.7954-1.7976-1.7954-2.8889v-24.0176c0-1.0997.7963-1.593 1.7954-1.0935zm1.159 21.098c-1.1843.431-1.6785 2.0605-1.1038 3.6396.5748 1.579 2.0007 2.5097 3.185 2.0786 1.1843-.431 1.6785-2.0605 1.1038-3.6396-.5748-1.579-2.0007-2.5097-3.185-2.0786z"
      fill="#4a4a4a" />
    <path d="m35.3 72.24-2 1v28l2-1z" fill="#4a4a4a" />
    <path d="m29.164 90.334-.228 4.404 2.843 3.58-3.676-.109-1.553-4.144.381-3.622z" fill="#4a4a4a" />
    <path
      d="m27.7954 70.8977 4.4092 2.2046c.9916.4958 1.7954 1.7976 1.7954 2.8889v24.0178c0 1.099-.7963 1.593-1.7954 1.093l-4.4092-2.2043c-.9916-.4958-1.7954-1.7976-1.7954-2.8889v-24.0176c0-1.0997.7963-1.593 1.7954-1.0935zm1.159 21.098c-1.1843.431-1.6785 2.0605-1.1038 3.6396.5748 1.579 2.0007 2.5097 3.185 2.0786 1.1843-.431 1.6785-2.0605 1.1038-3.6396-.5748-1.579-2.0008-2.5097-3.185-2.0786z"
      fill="#000" />
    <path
      d="m45.7954 61.8977 4.4092 2.2046c.9916.4958 1.7954 1.7976 1.7954 2.8889v24.0176c0 1.0997-.7963 1.593-1.7954 1.0935l-4.4092-2.2046c-.9916-.4958-1.7954-1.7976-1.7954-2.8889v-24.0176c0-1.0997.7963-1.593 1.7954-1.0935zm1.159 21.098c-1.1843.431-1.6785 2.0605-1.1038 3.6396.5748 1.579 2.0007 2.5097 3.185 2.0786 1.1843-.431 1.6785-2.0605 1.1038-3.6396-.5748-1.579-2.0007-2.5097-3.185-2.0786z"
      fill="#4a4a4a" />
    <path d="m51.3 64.24-2 1v28l2-1z" fill="#4a4a4a" />
    <path d="m45.164 82.334-.228 4.404 2.843 3.58-3.676-.109-1.553-4.144.381-3.622z" fill="#4a4a4a" />
    <path
      d="m43.7954 62.8977 4.4092 2.2046c.9916.4958 1.7954 1.7976 1.7954 2.8889v24.0176c0 1.0997-.7963 1.593-1.7954 1.0935l-4.4092-2.2046c-.9916-.4958-1.7954-1.7976-1.7954-2.8889v-24.0176c0-1.0997.7963-1.593 1.7954-1.0935zm1.159 21.098c-1.1843.431-1.6785 2.0605-1.1038 3.6396.5748 1.579 2.0007 2.5097 3.185 2.0786 1.1843-.431 1.6785-2.0605 1.1038-3.6396-.5748-1.579-2.0008-2.5097-3.185-2.0786z"
      fill="#000" />
    <path d="m0 20 40 19.998v50.002l-40-20z" fill="#f22b2b" />
    <path d="m80 20-40 19.998v50.002l40-20z" fill="#ff5e5e" />
    <path d="m40.5 2.39499-39.416 19.60501 38.916 19.852 38.212-19.852z" fill="#fff" />
    <path
      d="m66 61-6 3 .0024 4.0597c.0236.3708.2767 2.3008 2.9976.9403 2.8462-1.4231 2.9921-3.7462 2.9996-3.9808zm-10.6319-12.7588c-1.557-.5666-3.4316.6568-4.1872 2.7327-.7555 2.0759-.1059 4.2182 1.451 4.7849 1.557.5666 3.4316-.6568 4.1872-2.7327.7555-2.076.1059-4.2182-1.451-4.7849zm16-8c-1.557-.5666-3.4316.6568-4.1872 2.7327-.7555 2.0759-.1059 4.2182 1.451 4.7849 1.557.5666 3.4316-.6568 4.1872-2.7327.7555-2.076.1059-4.2182-1.451-4.7849zm-55.3681 22.2381v4l6 3-.0004-4.0193c-.0075-.2345-.1534-2.5576-2.9996-3.9807-3-1.5-3 1-3 1zm8-16.9768v9.995c0 .5537.3982 1.2016.8877 1.4464l2.2246 1.1122c.4903.2452.8877-.0119.8877-.5586v-9.995c0-.5537-.3982-1.2016-.8877-1.4464l-2.2246-1.1122c-.4902-.2452-.8877.0119-.8877.5586zm-14-7v9.995c0 .5537.3982 1.2016.8877 1.4464l2.2246 1.1122c.4902.2452.8877-.0119.8877-.5586v-9.995c0-.5537-.3982-1.2016-.8877-1.4464l-2.2246-1.1122c-.4902-.2452-.8877.0119-.8877.5586z"
      fill="#000" />
    <path d="m0 24 40-19.999 40 19.999v-4l-40.002-20-39.998 20z" fill="url(#b)" />
    <path
      d="m32 23c2.2091 0 4 1.3431 4 3s-1.7909 3-4 3-4-1.3431-4-3 1.7909-3 4-3zm16-8c2.2091 0 4 1.3431 4 3s-1.7909 3-4 3-4-1.3431-4-3 1.7909-3 4-3z"
      fill="#000" />
  </g>
  <mask id="mask0_801_209" style="mask-type:alpha" maskUnits="userSpaceOnUse" x="3" y="12" width="58" height="52">
<path d="M32.004 62.6066C32.004 62.6066 29.6781 64.0015 25.5291 63.9999C11.079 63.9999 -2.58423 32.1326 7.21615 19.1847C17.0163 6.23668 32.004 14.964 32.004 14.964C32.004 14.964 46.9914 6.23668 56.7918 19.1847C66.5922 32.1326 52.9289 63.9999 38.4787 63.9999C34.3297 64.0015 32.004 62.6066 32.004 62.6066Z" fill="white"/>
</mask>
  <g transform="translate(166 4),scale(1.4)">
  <g mask="url(#mask0_801_209)">
<path fill-rule="evenodd" clip-rule="evenodd" d="M29.6851 61.9554L40.06 54.8677L53.3214 56.1408L45.6406 65.0348L31.2598 66.0152L29.6851 61.9554Z" fill="#BF2D2E"/>
<path fill-rule="evenodd" clip-rule="evenodd" d="M40.0601 54.8676L50.1357 38.777L58.3753 47.8758L53.3214 56.1408L40.0601 54.8676Z" fill="#DD453E"/>
<path fill-rule="evenodd" clip-rule="evenodd" d="M50.1358 38.7771L34.6578 47.458L33.2598 41.7233L34.8551 29.9456L46.9482 32.216L51.0601 34.8512L50.1358 38.7771Z" fill="#EA8A3D"/>
<path fill-rule="evenodd" clip-rule="evenodd" d="M51.06 34.8511L57.454 12.5883C57.454 12.5883 64.434 28.8948 64.7607 29.3973C65.0876 29.8997 58.3753 47.8759 58.3753 47.8759L50.1357 38.777L51.06 34.8511Z" fill="#F1AA4D"/>
<path fill-rule="evenodd" clip-rule="evenodd" d="M57.4538 12.5883L53.3213 4.07959L33.1069 21.0334L34.8548 29.9455L46.9479 32.2159L51.0597 34.8511L57.4538 12.5883Z" fill="#FAD34A"/>
<path fill-rule="evenodd" clip-rule="evenodd" d="M19.7095 35.6046L22.5985 49.1832L35.1817 50.9808L34.6575 47.4579L33.2595 41.7232L34.8549 29.9455L33.107 21.0333L22.6592 21.047L19.7095 35.6046Z" fill="#92BE3F"/>
<path fill-rule="evenodd" clip-rule="evenodd" d="M29.1403 -0.117565L33.1072 21.0333L22.6594 21.0471L10.8755 7.02115L33.2597 -9.15747L29.1403 -0.117565Z" fill="#57A445"/>
<path fill-rule="evenodd" clip-rule="evenodd" d="M22.6591 21.0472L9.95287 35.9894L-4.85596 15.6823L10.8752 7.02124L22.6591 21.0472Z" fill="#3A7F3F"/>
<path fill-rule="evenodd" clip-rule="evenodd" d="M20.0175 37.0533L10.0977 36.545L10.8751 39.5305L22.5984 49.1832L20.0175 37.0533Z" fill="#3A7F3F"/>
<path fill-rule="evenodd" clip-rule="evenodd" d="M10.8755 39.5305L8.01511 50.167L0.210449 38.7018L2.70336 25.9204L9.95323 35.9893L10.8755 39.5305Z" fill="#262E5C"/>
<path fill-rule="evenodd" clip-rule="evenodd" d="M10.8755 39.5305L22.5988 49.1832L11.2952 60.4415L8.01514 50.167L10.8755 39.5305Z" fill="#327194"/>
<path fill-rule="evenodd" clip-rule="evenodd" d="M22.5985 49.1832L24.8863 65.0348L11.2949 60.4415L22.5985 49.1832Z" fill="#24A8BD"/>
<path fill-rule="evenodd" clip-rule="evenodd" d="M24.8864 65.0348L29.6851 61.9553L40.0601 54.8677L35.1819 50.9808L22.5986 49.1832L24.8864 65.0348Z" fill="#DE4477"/>
<path fill-rule="evenodd" clip-rule="evenodd" d="M9.32031 36.7334L22.659 21.0471L19.991 36.9288L9.32031 36.7334Z" fill="#57A445"/>
<path fill-rule="evenodd" clip-rule="evenodd" d="M24.8862 65.0347L33.6953 64.1879L30.6803 61.2753L24.8862 65.0347Z" fill="#E680A9"/>
<path fill-rule="evenodd" clip-rule="evenodd" d="M40.0599 54.8676L50.1356 38.777L40.7124 40.1039L33.5474 43.1092L35.1818 50.9808L40.0599 54.8676Z" fill="#922C55"/>
<path fill-rule="evenodd" clip-rule="evenodd" d="M29.1401 -0.117554L53.3214 4.07957L40.06 20.2501L33.107 21.0334L29.1401 -0.117554Z" fill="#F1AA4D"/>
</g>
<path fill-rule="evenodd" clip-rule="evenodd" d="M25.1641 12.5144C25.1641 12.5144 31.0194 19.1136 31.0194 21.0333C32.43 21.3956 31.7547 14.4676 31.7547 14.4676L29.6713 13.773L25.1641 12.5144Z" fill="#3A7F3F"/>
<path fill-rule="evenodd" clip-rule="evenodd" d="M33.1069 21.0334C33.1069 21.0334 33.7912 5.73645 25.997 0C22.9328 0.367674 21.0508 3.06917 21.0508 3.06917C21.0508 3.06917 32.2898 12.59 31.0193 21.0334C32.531 21.0334 33.1069 21.0334 33.1069 21.0334Z" fill="#57A445"/>
<path fill-rule="evenodd" clip-rule="evenodd" d="M60.0964 31.4065C59.8839 31.9057 59.5584 32.3578 59.107 32.7786C55.1272 36.49 43.8118 36.2503 39.7889 35.8488C38.8217 35.7483 37.895 36.3033 37.525 37.2093L35.5181 42.1213L30.6842 25.7385C30.431 24.8773 29.6803 24.256 28.7867 24.1671C27.9005 24.0772 27.0366 24.5388 26.6172 25.3335L20.6197 36.7028C16.6631 36.974 8.71075 36.8403 5.3783 33.849C4.39087 32.9635 3.92809 31.9169 3.91379 30.5672C3.8904 33.2088 4.21284 35.9851 4.83432 38.7681C11.1615 42.0745 21.0083 41.1253 22.2503 40.9898C22.9787 40.9098 23.6197 40.4743 23.9611 39.8259L27.9885 32.1914L33.0665 49.4028C33.3314 50.3017 34.1351 50.9348 35.0708 50.9826C35.1085 50.9843 35.1454 50.9853 35.1831 50.9853C36.0748 50.9853 36.8848 50.4456 37.2242 49.613L40.9992 40.3711C44.7747 40.6104 53.5975 40.7774 59.3608 37.864C59.799 35.6781 60.0567 33.5047 60.0964 31.4065Z" fill="#FFFFFE"/>
</g>
</svg>