<svg width="255" height="102" viewBox="0 0 255 102" fill="none" xmlns="http://www.w3.org/2000/svg">
<path d="M110.845 57.12H118.405V64.8H121.565V57.12H129.205V54.08H121.565V46.48H118.405V54.08H110.845V57.12Z" fill="black"/>
<path fill-rule="evenodd" clip-rule="evenodd" d="M29.7954 69.8978L34.2046 72.1024C35.1962 72.5982 36 73.9 36 74.9913V99.0089C36 100.108 35.2037 100.602 34.2046 100.102L29.7954 97.8978C28.8038 97.402 28 96.1002 28 95.0089V70.9913C28 69.8916 28.7963 69.3983 29.7954 69.8978ZM30.9544 90.9958C29.7701 91.4268 29.2759 93.0563 29.8506 94.6354C30.4254 96.2144 31.8513 97.1451 33.0356 96.714C34.2199 96.283 34.7141 94.6535 34.1394 93.0744C33.5646 91.4954 32.1387 90.5647 30.9544 90.9958Z" fill="#4A4A4A"/>
<path fill-rule="evenodd" clip-rule="evenodd" d="M35.2998 72.2402L33.2998 73.2402V101.24L35.2998 100.24V72.2402Z" fill="#4A4A4A"/>
<path fill-rule="evenodd" clip-rule="evenodd" d="M29.1638 90.334L28.9358 94.738L31.7788 98.318L28.1028 98.209L26.5498 94.065L26.9308 90.443L29.1638 90.334Z" fill="#4A4A4A"/>
<path fill-rule="evenodd" clip-rule="evenodd" d="M27.7954 70.8978L32.2046 73.1024C33.1962 73.5982 34 74.9 34 75.9913V100.009C34 101.108 33.2037 101.602 32.2046 101.102L27.7954 98.8978C26.8038 98.402 26 97.1002 26 96.0089V71.9913C26 70.8916 26.7963 70.3983 27.7954 70.8978ZM28.9544 91.9958C27.7701 92.4268 27.2759 94.0563 27.8506 95.6354C28.4254 97.2144 29.8513 98.1451 31.0356 97.714C32.2199 97.283 32.7141 95.6535 32.1394 94.0744C31.5646 92.4954 30.1386 91.5647 28.9544 91.9958Z" fill="black"/>
<path fill-rule="evenodd" clip-rule="evenodd" d="M45.7954 61.8978L50.2046 64.1024C51.1962 64.5982 52 65.9 52 66.9913V91.0089C52 92.1086 51.2037 92.6019 50.2046 92.1024L45.7954 89.8978C44.8038 89.402 44 88.1002 44 87.0089V62.9913C44 61.8916 44.7963 61.3983 45.7954 61.8978ZM46.9544 82.9958C45.7701 83.4268 45.2759 85.0563 45.8506 86.6354C46.4254 88.2144 47.8513 89.1451 49.0356 88.714C50.2199 88.283 50.7141 86.6535 50.1394 85.0744C49.5646 83.4954 48.1387 82.5647 46.9544 82.9958Z" fill="#4A4A4A"/>
<path fill-rule="evenodd" clip-rule="evenodd" d="M51.2998 64.2402L49.2998 65.2402V93.2402L51.2998 92.2402V64.2402Z" fill="#4A4A4A"/>
<path fill-rule="evenodd" clip-rule="evenodd" d="M45.1638 82.334L44.9358 86.738L47.7788 90.318L44.1028 90.209L42.5498 86.065L42.9308 82.443L45.1638 82.334Z" fill="#4A4A4A"/>
<path fill-rule="evenodd" clip-rule="evenodd" d="M43.7954 62.8978L48.2046 65.1024C49.1962 65.5982 50 66.9 50 67.9913V92.0089C50 93.1086 49.2037 93.6019 48.2046 93.1024L43.7954 90.8978C42.8038 90.402 42 89.1002 42 88.0089V63.9913C42 62.8916 42.7963 62.3983 43.7954 62.8978ZM44.9544 83.9958C43.7701 84.4268 43.2759 86.0563 43.8506 87.6354C44.4254 89.2144 45.8513 90.1451 47.0356 89.714C48.2199 89.283 48.7141 87.6535 48.1394 86.0744C47.5646 84.4954 46.1386 83.5647 44.9544 83.9958Z" fill="black"/>
<path fill-rule="evenodd" clip-rule="evenodd" d="M0 20L40 39.998V90L0 70V20Z" fill="#F22B2B"/>
<path fill-rule="evenodd" clip-rule="evenodd" d="M80 20L40 39.998V90L80 70V20Z" fill="#FF5E5E"/>
<path fill-rule="evenodd" clip-rule="evenodd" d="M40.5 2.39502L1.08398 22L40 41.852L78.212 22L40.5 2.39502Z" fill="white"/>
<path fill-rule="evenodd" clip-rule="evenodd" d="M66 60.9998L60 63.9998L60.0024 68.0595C60.026 68.4303 60.2791 70.3603 63 68.9998C65.8462 67.5767 65.9921 65.2536 65.9996 65.019L66 60.9998ZM55.3681 48.241C53.8111 47.6744 51.9365 48.8978 51.1809 50.9737C50.4254 53.0496 51.075 55.1919 52.6319 55.7586C54.1889 56.3252 56.0635 55.1018 56.8191 53.0259C57.5746 50.9499 56.925 48.8077 55.3681 48.241ZM71.3681 40.241C69.8111 39.6744 67.9365 40.8978 67.1809 42.9737C66.4254 45.0496 67.075 47.1919 68.6319 47.7586C70.1889 48.3252 72.0635 47.1018 72.8191 45.0259C73.5746 42.9499 72.925 40.8077 71.3681 40.241ZM16 62.4791V66.4791L22 69.4791L21.9996 65.4598C21.9921 65.2253 21.8462 62.9022 19 61.4791C16 59.9791 16 62.4791 16 62.4791ZM24 45.5023V55.4973C24 56.051 24.3982 56.6989 24.8877 56.9437L27.1123 58.0559C27.6026 58.3011 28 58.044 28 57.4973V47.5023C28 46.9486 27.6018 46.3007 27.1123 46.0559L24.8877 44.9437C24.3975 44.6985 24 44.9556 24 45.5023ZM10 38.5023V48.4973C10 49.051 10.3982 49.6989 10.8877 49.9437L13.1123 51.0559C13.6025 51.3011 14 51.044 14 50.4973V40.5023C14 39.9486 13.6018 39.3007 13.1123 39.0559L10.8877 37.9437C10.3975 37.6985 10 37.9556 10 38.5023Z" fill="black"/>
<path fill-rule="evenodd" clip-rule="evenodd" d="M0 24L40 4.001L80 24V20L39.998 0L0 20V24Z" fill="url(#paint0_linear_1301_218)"/>
<path fill-rule="evenodd" clip-rule="evenodd" d="M32 23C34.2091 23 36 24.3431 36 26C36 27.6569 34.2091 29 32 29C29.7909 29 28 27.6569 28 26C28 24.3431 29.7909 23 32 23ZM48 15C50.2091 15 52 16.3431 52 18C52 19.6569 50.2091 21 48 21C45.7909 21 44 19.6569 44 18C44 16.3431 45.7909 15 48 15Z" fill="black"/>
<path d="M204.483 2C194.696 2 185.129 4.90331 176.992 10.3428C168.854 15.7822 162.512 23.5136 158.767 32.5591C155.021 41.6046 154.042 51.558 155.951 61.1607C157.86 70.7633 162.573 79.5839 169.493 86.5071C176.413 93.4302 185.23 98.1449 194.829 100.055C204.428 101.965 214.377 100.985 223.419 97.238C232.46 93.4912 240.189 87.1463 245.626 79.0056C251.063 70.8648 253.965 61.2939 253.965 51.5031C253.968 45.0015 252.69 38.5631 250.204 32.5559C247.718 26.5487 244.073 21.0904 239.478 16.4931C234.883 11.8958 229.427 8.24949 223.422 5.76268C217.417 3.27588 210.981 1.99729 204.483 2ZM189.79 77.024H173.484V64.7184L189.86 60.4302V77.024H189.79ZM212.633 77.024H196.256V21.7579L212.633 16.8365V77.024ZM235.475 77.024H219.098V40.1029L235.475 35.1815V77.024Z" fill="#007ACC"/>
<defs>
<linearGradient id="paint0_linear_1301_218" x1="0" y1="21.545" x2="80" y2="21.545" gradientUnits="userSpaceOnUse">
<stop stop-color="#F22B2B"/>
<stop offset="1" stop-color="#FF5E5E"/>
</linearGradient>
</defs>
</svg>
