<svg fill="none" height="102" viewBox="0 0 255 102" width="255" xmlns="http://www.w3.org/2000/svg"
  xmlns:xlink="http://www.w3.org/1999/xlink">
  <linearGradient id="b" gradientUnits="userSpaceOnUse" x1="0" x2="80" y1="21.545" y2="21.545">
    <stop offset="0" stop-color="#f22b2b" />
    <stop offset="1" stop-color="#ff5e5e" />
  </linearGradient>
  <path d="m117.845 57.12h7.56v7.68h3.16v-7.68h7.64v-3.04h-7.64v-7.6h-3.16v7.6h-7.56z" fill="#000" />
  <g clip-rule="evenodd" fill-rule="evenodd">
    <path
      d="m29.7954 69.8977 4.4092 2.2046c.9916.4958 1.7954 1.7976 1.7954 2.8889v24.0176c0 1.0992-.7963 1.5932-1.7954 1.0932l-4.4092-2.2043c-.9916-.4958-1.7954-1.7976-1.7954-2.8889v-24.0176c0-1.0997.7963-1.593 1.7954-1.0935zm1.159 21.098c-1.1843.431-1.6785 2.0605-1.1038 3.6396.5748 1.579 2.0007 2.5097 3.185 2.0786 1.1843-.431 1.6785-2.0605 1.1038-3.6396-.5748-1.579-2.0007-2.5097-3.185-2.0786z"
      fill="#4a4a4a" />
    <path d="m35.3 72.24-2 1v28l2-1z" fill="#4a4a4a" />
    <path d="m29.164 90.334-.228 4.404 2.843 3.58-3.676-.109-1.553-4.144.381-3.622z" fill="#4a4a4a" />
    <path
      d="m27.7954 70.8977 4.4092 2.2046c.9916.4958 1.7954 1.7976 1.7954 2.8889v24.0178c0 1.099-.7963 1.593-1.7954 1.093l-4.4092-2.2043c-.9916-.4958-1.7954-1.7976-1.7954-2.8889v-24.0176c0-1.0997.7963-1.593 1.7954-1.0935zm1.159 21.098c-1.1843.431-1.6785 2.0605-1.1038 3.6396.5748 1.579 2.0007 2.5097 3.185 2.0786 1.1843-.431 1.6785-2.0605 1.1038-3.6396-.5748-1.579-2.0008-2.5097-3.185-2.0786z"
      fill="#000" />
    <path
      d="m45.7954 61.8977 4.4092 2.2046c.9916.4958 1.7954 1.7976 1.7954 2.8889v24.0176c0 1.0997-.7963 1.593-1.7954 1.0935l-4.4092-2.2046c-.9916-.4958-1.7954-1.7976-1.7954-2.8889v-24.0176c0-1.0997.7963-1.593 1.7954-1.0935zm1.159 21.098c-1.1843.431-1.6785 2.0605-1.1038 3.6396.5748 1.579 2.0007 2.5097 3.185 2.0786 1.1843-.431 1.6785-2.0605 1.1038-3.6396-.5748-1.579-2.0007-2.5097-3.185-2.0786z"
      fill="#4a4a4a" />
    <path d="m51.3 64.24-2 1v28l2-1z" fill="#4a4a4a" />
    <path d="m45.164 82.334-.228 4.404 2.843 3.58-3.676-.109-1.553-4.144.381-3.622z" fill="#4a4a4a" />
    <path
      d="m43.7954 62.8977 4.4092 2.2046c.9916.4958 1.7954 1.7976 1.7954 2.8889v24.0176c0 1.0997-.7963 1.593-1.7954 1.0935l-4.4092-2.2046c-.9916-.4958-1.7954-1.7976-1.7954-2.8889v-24.0176c0-1.0997.7963-1.593 1.7954-1.0935zm1.159 21.098c-1.1843.431-1.6785 2.0605-1.1038 3.6396.5748 1.579 2.0007 2.5097 3.185 2.0786 1.1843-.431 1.6785-2.0605 1.1038-3.6396-.5748-1.579-2.0008-2.5097-3.185-2.0786z"
      fill="#000" />
    <path d="m0 20 40 19.998v50.002l-40-20z" fill="#f22b2b" />
    <path d="m80 20-40 19.998v50.002l40-20z" fill="#ff5e5e" />
    <path d="m40.5 2.39499-39.416 19.60501 38.916 19.852 38.212-19.852z" fill="#fff" />
    <path
      d="m66 61-6 3 .0024 4.0597c.0236.3708.2767 2.3008 2.9976.9403 2.8462-1.4231 2.9921-3.7462 2.9996-3.9808zm-10.6319-12.7588c-1.557-.5666-3.4316.6568-4.1872 2.7327-.7555 2.0759-.1059 4.2182 1.451 4.7849 1.557.5666 3.4316-.6568 4.1872-2.7327.7555-2.076.1059-4.2182-1.451-4.7849zm16-8c-1.557-.5666-3.4316.6568-4.1872 2.7327-.7555 2.0759-.1059 4.2182 1.451 4.7849 1.557.5666 3.4316-.6568 4.1872-2.7327.7555-2.076.1059-4.2182-1.451-4.7849zm-55.3681 22.2381v4l6 3-.0004-4.0193c-.0075-.2345-.1534-2.5576-2.9996-3.9807-3-1.5-3 1-3 1zm8-16.9768v9.995c0 .5537.3982 1.2016.8877 1.4464l2.2246 1.1122c.4903.2452.8877-.0119.8877-.5586v-9.995c0-.5537-.3982-1.2016-.8877-1.4464l-2.2246-1.1122c-.4902-.2452-.8877.0119-.8877.5586zm-14-7v9.995c0 .5537.3982 1.2016.8877 1.4464l2.2246 1.1122c.4902.2452.8877-.0119.8877-.5586v-9.995c0-.5537-.3982-1.2016-.8877-1.4464l-2.2246-1.1122c-.4902-.2452-.8877.0119-.8877.5586z"
      fill="#000" />
    <path d="m0 24 40-19.999 40 19.999v-4l-40.002-20-39.998 20z" fill="url(#b)" />
    <path
      d="m32 23c2.2091 0 4 1.3431 4 3s-1.7909 3-4 3-4-1.3431-4-3 1.7909-3 4-3zm16-8c2.2091 0 4 1.3431 4 3s-1.7909 3-4 3-4-1.3431-4-3 1.7909-3 4-3z"
      fill="#000" />
  </g>
  <g transform="translate(166 10),scale(1.4)">
    <path d="M31.9282 16C36.3465 16 39.9282 12.4183 39.9282 8C39.9282 3.58172 36.3465 0 31.9282 0C27.5099 0 23.9282 3.58172 23.9282 8C23.9282 12.4183 27.5099 16 31.9282 16Z" fill="#FFB795"/>
    <path d="M31.9282 64C36.3465 64 39.9282 60.4183 39.9282 56C39.9282 51.5817 36.3465 48 31.9282 48C27.5099 48 23.9282 51.5817 23.9282 56C23.9282 60.4183 27.5099 64 31.9282 64Z" fill="#7477F1"/>
    <path fill-rule="evenodd" clip-rule="evenodd" d="M38.7897 20.1155C37.4736 22.4907 37.3999 25.4772 38.8565 28C40.3117 30.5205 42.9314 31.9496 45.6436 32.0001C42.9314 32.0505 40.3117 33.4795 38.8565 36C37.3999 38.5229 37.4736 41.5093 38.7897 43.8845L38.7701 43.8517C37.367 41.5425 34.8278 40 31.9283 40C29.0288 40 26.4895 41.5425 25.0865 43.8517L25.0669 43.8845C26.3829 41.5093 26.4566 38.5229 25.0001 36C23.5448 33.4795 20.9252 32.0505 18.2129 32C20.9252 31.9496 23.5448 30.5205 25.0001 28C26.4566 25.4772 26.3829 22.4907 25.0669 20.1155L25.0865 20.1483C26.4895 22.4575 29.0288 24 31.9283 24C34.8278 24 37.367 22.4575 38.7701 20.1483L38.7897 20.1155Z" fill="#828683"/>
    <path d="M45 24C47.2092 27.8263 52.1019 29.1373 55.9282 26.9282C59.7546 24.719 61.0656 19.8263 58.8564 16C56.6473 12.1736 51.7546 10.8626 47.9282 13.0718C44.1019 15.2809 42.7909 20.1736 45 24Z" fill="#FFB1B1"/>
    <path d="M5.00004 48C7.20918 51.8263 12.1019 53.1373 15.9282 50.9282C19.7546 48.719 21.0656 43.8263 18.8564 40C16.6473 36.1736 11.7546 34.8626 7.92824 37.0718C4.1019 39.2809 2.7909 44.1736 5.00004 48Z" fill="#5473EF"/>
    <path d="M18.8564 24C21.0655 20.1737 19.7545 15.281 15.9282 13.0718C12.1019 10.8627 7.20914 12.1737 5 16C2.79086 19.8264 4.10186 24.7191 7.9282 26.9282C11.7545 29.1374 16.6473 27.8264 18.8564 24Z" fill="#3365FF"/>
    <path d="M58.8564 48C61.0655 44.1736 59.7545 39.2809 55.9282 37.0718C52.1019 34.8626 47.2091 36.1736 45 40C42.7909 43.8263 44.1019 48.7191 47.9282 50.9282C51.7545 53.1373 56.6473 51.8263 58.8564 48Z" fill="#B38ECB"/>
  </g>
</svg>