<?xml version="1.0" encoding="UTF-8" standalone="no"?>
<svg width="293px" height="116px" viewBox="0 0 293 116" version="1.1" xmlns="http://www.w3.org/2000/svg" xmlns:xlink="http://www.w3.org/1999/xlink">
    <!-- Generator: Sketch 41.1 (35376) - http://www.bohemiancoding.com/sketch -->
    <title>Landing</title>
    <desc>Created with Sketch.</desc>
    <defs>
        <linearGradient x1="0%" y1="10.2291666%" x2="100%" y2="10.2291666%" id="linearGradient-1">
            <stop stop-color="#F22B2B" offset="0%"></stop>
            <stop stop-color="#FF5E5E" offset="100%"></stop>
        </linearGradient>
    </defs>
    <g id="Landing" stroke="none" stroke-width="1" fill="none" fill-rule="evenodd">
        <g transform="translate(-214.000000, -726.000000)" id="Slide-2">
            <g transform="translate(214.000000, 700.000000)">
                <g id="Logo" transform="translate(106.000000, 33.000000)">
                    <g id="Final">
                        <g id="Normal">
                            <g id="Group">
                                <g id="Leg" transform="translate(26.000000, 69.666667)">
                                    <path d="M2,1.32457764 C2,0.224843777 2.79631805,-0.26850764 3.79535615,0.23101141 L8.20464385,2.43565525 C9.19619167,2.93142917 10,4.23323085 10,5.32457764 L10,29.342089 C10,30.4418229 9.20368195,30.9351743 8.20464385,30.4356552 L3.79535615,28.2310114 C2.80380833,27.7352375 2,26.4334358 2,25.342089 L2,1.32457764 Z M3.85064042,24.9686095 C4.42537161,26.5476704 5.85134465,27.4783185 7.03564037,27.0472701 C8.21993608,26.6162217 8.71408576,24.9867061 8.13935458,23.4076452 C7.5646234,21.8285842 6.13865035,20.8979361 4.95435464,21.3289845 C3.77005892,21.7600329 3.27590924,23.3895485 3.85064042,24.9686095 Z" id="Combined-Shape" fill="#4A4A4A"></path>
                                    <polygon id="Rectangle-5" fill="#4A4A4A" points="9.30000305 2.57333119 7.30000305 3.57333119 7.30000305 31.5733312 9.30000305 30.5733312"></polygon>
                                    <polygon id="Path-6" fill="#4A4A4A" points="3.1640625 20.6674397 2.93615723 25.0710042 5.77941895 28.6509603 2.10302734 28.5424397 0.549926758 24.3981526 0.931030273 20.7759603"></polygon>
                                    <path d="M0,2.32457764 C0,1.22484377 0.796318054,0.731492363 1.79535615,1.23101141 L6.20464385,3.43565525 C7.19619167,3.93142917 8,5.23323085 8,6.32457764 L8,30.342089 C8,31.4418229 7.20368195,31.9351743 6.20464385,31.4356552 L1.79535615,29.2310114 C0.80380833,28.7352375 0,27.4334358 0,26.342089 L0,2.32457764 Z M1.85064042,25.9686095 C2.42537161,27.5476704 3.85134465,28.4783185 5.03564037,28.0472701 C6.21993608,27.6162217 6.71408576,25.9867061 6.13935458,24.4076452 C5.5646234,22.8285842 4.13865035,21.8979361 2.95435464,22.3289845 C1.77005892,22.7600329 1.27590924,24.3895485 1.85064042,25.9686095 Z" id="Combined-Shape" fill="#000000"></path>
                                </g>
                                <g id="Leg" transform="translate(42.000000, 61.666667)">
                                    <path d="M2,1.32457764 C2,0.224843777 2.79631805,-0.26850764 3.79535615,0.23101141 L8.20464385,2.43565525 C9.19619167,2.93142917 10,4.23323085 10,5.32457764 L10,29.342089 C10,30.4418229 9.20368195,30.9351743 8.20464385,30.4356552 L3.79535615,28.2310114 C2.80380833,27.7352375 2,26.4334358 2,25.342089 L2,1.32457764 Z M3.85064042,24.9686095 C4.42537161,26.5476704 5.85134465,27.4783185 7.03564037,27.0472701 C8.21993608,26.6162217 8.71408576,24.9867061 8.13935458,23.4076452 C7.5646234,21.8285842 6.13865035,20.8979361 4.95435464,21.3289845 C3.77005892,21.7600329 3.27590924,23.3895485 3.85064042,24.9686095 Z" id="Combined-Shape" fill="#4A4A4A"></path>
                                    <polygon id="Rectangle-5" fill="#4A4A4A" points="9.30000305 2.57333119 7.30000305 3.57333119 7.30000305 31.5733312 9.30000305 30.5733312"></polygon>
                                    <polygon id="Path-6" fill="#4A4A4A" points="3.1640625 20.6674397 2.93615723 25.0710042 5.77941895 28.6509603 2.10302734 28.5424397 0.549926758 24.3981526 0.931030273 20.7759603"></polygon>
                                    <path d="M0,2.32457764 C0,1.22484377 0.796318054,0.731492363 1.79535615,1.23101141 L6.20464385,3.43565525 C7.19619167,3.93142917 8,5.23323085 8,6.32457764 L8,30.342089 C8,31.4418229 7.20368195,31.9351743 6.20464385,31.4356552 L1.79535615,29.2310114 C0.80380833,28.7352375 0,27.4334358 0,26.342089 L0,2.32457764 Z M1.85064042,25.9686095 C2.42537161,27.5476704 3.85134465,28.4783185 5.03564037,28.0472701 C6.21993608,27.6162217 6.71408576,25.9867061 6.13935458,24.4076452 C5.5646234,22.8285842 4.13865035,21.8979361 2.95435464,22.3289845 C1.77005892,22.7600329 1.27590924,24.3895485 1.85064042,25.9686095 Z" id="Combined-Shape" fill="#000000"></path>
                                </g>
                                <polygon id="Combined-Shape" fill="#F32B2B" points="0 20 40 39.9980297 40 89.9999964 0 70"></polygon>
                                <polygon id="Combined-Shape" fill="#FF5E5E" transform="translate(60.000000, 54.999998) scale(-1, 1) translate(-60.000000, -54.999998) " points="40 20 80 39.9980297 80 89.9999964 40 70"></polygon>
                                <path d="M58,65 C58,65 58,67.5 61,69 C64,70.5 64,68 64,68 L64,64 L58,61 L58,65 Z M51.1809221,45.0260604 C51.9364922,47.101972 53.8111469,48.325448 55.3680806,47.7587705 C56.9250143,47.192093 57.5746479,45.0498512 56.8190779,42.9739396 C56.0635078,40.898028 54.1888531,39.674552 52.6319194,40.2412295 C51.0749857,40.807907 50.4253521,42.9501488 51.1809221,45.0260604 Z M67.1809221,53.0260604 C67.9364922,55.101972 69.8111469,56.325448 71.3680806,55.7587705 C72.9250143,55.192093 73.5746479,53.0498512 72.8190779,50.9739396 C72.0635078,48.898028 70.1888531,47.674552 68.6319194,48.2412295 C67.0749857,48.807907 66.4253521,50.9501488 67.1809221,53.0260604 Z" id="Combined-Shape" fill="#000000" transform="translate(62.000000, 54.791006) scale(-1, 1) translate(-62.000000, -54.791006) "></path>
                                <path d="M24,40.5024733 C24,39.9488226 24.398159,39.3009205 24.8877296,39.0561352 L27.1122704,37.9438648 C27.6025499,37.6987251 28,37.955761 28,38.5024733 L28,48.4975267 C28,49.0511774 27.601841,49.6990795 27.1122704,49.9438648 L24.8877296,51.0561352 C24.3974501,51.3012749 24,51.044239 24,50.4975267 L24,40.5024733 Z M10,47.5024733 C10,46.9488226 10.398159,46.3009205 10.8877296,46.0561352 L13.1122704,44.9438648 C13.6025499,44.6987251 14,44.955761 14,45.5024733 L14,55.4975267 C14,56.0511774 13.601841,56.6990795 13.1122704,56.9438648 L10.8877296,58.0561352 C10.3974501,58.3012749 10,58.044239 10,57.4975267 L10,47.5024733 Z M16,65.4792899 C16,65.4792899 16,62.9792899 19,61.4792899 C22,59.9792899 22,62.4792899 22,62.4792899 L22,66.4792899 L16,69.4792899 L16,65.4792899 Z" id="Combined-Shape" fill="#000000" transform="translate(19.000000, 53.665024) scale(-1, 1) translate(-19.000000, -53.665024) "></path>
                                <polygon id="Rectangle-2" fill="url(#linearGradient-1)" transform="translate(40.000000, 12.000000) scale(1, -1) translate(-40.000000, -12.000000) " points="0 0 40 19.9994016 80 0 80 4 39.9981059 24 0 4"></polygon>
                                <path d="M32,29 C34.209139,29 36,27.6568542 36,26 C36,24.3431458 34.209139,23 32,23 C29.790861,23 28,24.3431458 28,26 C28,27.6568542 29.790861,29 32,29 Z M48,21 C50.209139,21 52,19.6568542 52,18 C52,16.3431458 50.209139,15 48,15 C45.790861,15 44,16.3431458 44,18 C44,19.6568542 45.790861,21 48,21 Z" id="Combined-Shape" fill="#000000"></path>
                            </g>
                        </g>
                    </g>
                </g>
            </g>
        </g>
    </g>
</svg>