<svg width="34" height="32" viewBox="459 846 34 32" xmlns="http://www.w3.org/2000/svg"><path d="M465.953 877.99h-1.818l1.07-1.468c.81-1.11 1.34-2.526 1.61-4.314-5.047-2.256-7.815-6.57-7.815-12.222 0-8.627 6.515-13.986 17-13.986s17 5.36 17 13.986c0 8.757-6.355 13.986-17 13.986-.237 0-.471-.006-.704-.015-1.597 1.924-4.461 4.034-9.343 4.034zM476 847.85c-9.487 0-15.151 4.537-15.151 12.137 0 6.52 3.978 9.463 7.316 10.785l.656.26-.078.702c-.185 1.666-.555 3.09-1.123 4.308 3.413-.425 5.402-2.127 6.506-3.584l.292-.385.62.025c.318.013.637.026.962.026 13.674 0 15.151-8.488 15.151-12.137 0-7.6-5.664-12.137-15.151-12.137z" fill="#F64242" fill-rule="evenodd"/></svg>