<svg width="40" height="40" viewBox="0 0 40 40" fill="none" xmlns="http://www.w3.org/2000/svg">
<path fill-rule="evenodd" clip-rule="evenodd" d="M36.9305 0.801398C35.9528 0.278477 34.9829 0 32.3083 0L7.37878 0.00133451C4.9395 0.0226693 4.00813 0.299394 3.06946 0.801398C2.09169 1.32432 1.32432 2.09169 0.801398 3.06946C0.278477 4.04724 0 5.0171 0 7.69166L0.00133451 32.6212C0.0226693 35.0605 0.299394 35.9919 0.801398 36.9305C1.32432 37.9083 2.09169 38.6757 3.06946 39.1986C3.96902 39.6797 4.86187 39.9539 7.08162 39.9947L7.69166 40H32.3083C34.9829 40 35.9528 39.7215 36.9305 39.1986C37.9083 38.6757 38.6757 37.9083 39.1986 36.9305C39.6797 36.031 39.9539 35.1381 39.9947 32.9184L40 32.3083V7.69166C40 5.0171 39.7215 4.04724 39.1986 3.06946C38.6757 2.09169 37.9083 1.32432 36.9305 0.801398ZM9 5H6L5.5 6.5H7V9.5H5.5V11H10.5V9.5H9V5ZM15 13V17.5H16.5V19H11.5V17.5H13V14.5H11.5L12 13H15ZM7.40871 2.00092H32.5913C34.5141 2.01391 35.241 2.16589 35.9873 2.56502C36.6166 2.90155 37.0985 3.38342 37.435 4.01266C37.8531 4.79452 38 5.55514 38 7.69166L37.9991 32.5913C37.9861 34.5141 37.8341 35.241 37.435 35.9873C37.0985 36.6166 36.6166 37.0985 35.9873 37.435C35.2055 37.8531 34.4449 38 32.3083 38L7.40871 37.9991C5.48594 37.9861 4.75898 37.8341 4.01266 37.435C3.38342 37.0985 2.90155 36.6166 2.56502 35.9873C2.2079 35.3196 2.04865 34.6673 2.00977 33.1601L2.00092 32.5913V7.40871C2.01391 5.48594 2.16589 4.75898 2.56502 4.01266C2.90155 3.38342 3.38342 2.90155 4.01266 2.56502C4.68042 2.2079 5.33269 2.04865 6.83985 2.00977L7.40871 2.00092ZM5.5 30.5L6 29H9V33.5H10.5V35H5.5V33.5H7V30.5H5.5ZM21 33.5V29H18L17.5 30.5H19V33.5H17.5V35H22.5V33.5H21ZM23.5 30.5L24 29H27V33.5H28.5V35H23.5V33.5H25V30.5H23.5ZM21 25.5V21H18L17.5 22.5H19V25.5H17.5V27H22.5V25.5H21ZM17.5 14.5L18 13H21V17.5H22.5V19H17.5V17.5H19V14.5H17.5ZM27 5H24L23.5 6.5H25V9.5H23.5V11H28.5V9.5H27V5ZM30 5H33V9.5H34.5V11H29.5V9.5H31V6.5H29.5L30 5ZM33 13H30L29.5 14.5H31V17.5H29.5V19H34.5V17.5H33V13ZM13.5 5C12.3954 5 11.5 5.89543 11.5 7V9C11.5 10.1046 12.3954 11 13.5 11H14.5C15.6046 11 16.5 10.1046 16.5 9V7C16.5 5.89543 15.6046 5 14.5 5H13.5ZM14 6C13.7239 6 13.5 6.22386 13.5 6.5V9.5C13.5 9.77614 13.7239 10 14 10C14.2761 10 14.5 9.77614 14.5 9.5V6.5C14.5 6.22386 14.2761 6 14 6ZM5.5 15C5.5 13.8954 6.39543 13 7.5 13H8.5C9.60457 13 10.5 13.8954 10.5 15V17C10.5 18.1046 9.60457 19 8.5 19H7.5C6.39543 19 5.5 18.1046 5.5 17V15ZM7.5 14.5C7.5 14.2239 7.72386 14 8 14C8.27614 14 8.5 14.2239 8.5 14.5V17.5C8.5 17.7761 8.27614 18 8 18C7.72386 18 7.5 17.7761 7.5 17.5V14.5ZM7.5 21C6.39543 21 5.5 21.8954 5.5 23V25C5.5 26.1046 6.39543 27 7.5 27H8.5C9.60457 27 10.5 26.1046 10.5 25V23C10.5 21.8954 9.60457 21 8.5 21H7.5ZM8 22C7.72386 22 7.5 22.2239 7.5 22.5V25.5C7.5 25.7761 7.72386 26 8 26C8.27614 26 8.5 25.7761 8.5 25.5V22.5C8.5 22.2239 8.27614 22 8 22ZM11.5 23C11.5 21.8954 12.3954 21 13.5 21H14.5C15.6046 21 16.5 21.8954 16.5 23V25C16.5 26.1046 15.6046 27 14.5 27H13.5C12.3954 27 11.5 26.1046 11.5 25V23ZM13.5 22.5C13.5 22.2239 13.7239 22 14 22C14.2761 22 14.5 22.2239 14.5 22.5V25.5C14.5 25.7761 14.2761 26 14 26C13.7239 26 13.5 25.7761 13.5 25.5V22.5ZM13.5 29C12.3954 29 11.5 29.8954 11.5 31V33C11.5 34.1046 12.3954 35 13.5 35H14.5C15.6046 35 16.5 34.1046 16.5 33V31C16.5 29.8954 15.6046 29 14.5 29H13.5ZM14 30C13.7239 30 13.5 30.2239 13.5 30.5V33.5C13.5 33.7761 13.7239 34 14 34C14.2761 34 14.5 33.7761 14.5 33.5V30.5C14.5 30.2239 14.2761 30 14 30ZM29.5 31C29.5 29.8954 30.3954 29 31.5 29H32.5C33.6046 29 34.5 29.8954 34.5 31V33C34.5 34.1046 33.6046 35 32.5 35H31.5C30.3954 35 29.5 34.1046 29.5 33V31ZM31.5 30.5C31.5 30.2239 31.7239 30 32 30C32.2761 30 32.5 30.2239 32.5 30.5V33.5C32.5 33.7761 32.2761 34 32 34C31.7239 34 31.5 33.7761 31.5 33.5V30.5ZM31.5 21C30.3954 21 29.5 21.8954 29.5 23V25C29.5 26.1046 30.3954 27 31.5 27H32.5C33.6046 27 34.5 26.1046 34.5 25V23C34.5 21.8954 33.6046 21 32.5 21H31.5ZM32 22C31.7239 22 31.5 22.2239 31.5 22.5V25.5C31.5 25.7761 31.7239 26 32 26C32.2761 26 32.5 25.7761 32.5 25.5V22.5C32.5 22.2239 32.2761 22 32 22ZM23.5 23C23.5 21.8954 24.3954 21 25.5 21H26.5C27.6046 21 28.5 21.8954 28.5 23V25C28.5 26.1046 27.6046 27 26.5 27H25.5C24.3954 27 23.5 26.1046 23.5 25V23ZM25.5 22.5C25.5 22.2239 25.7239 22 26 22C26.2761 22 26.5 22.2239 26.5 22.5V25.5C26.5 25.7761 26.2761 26 26 26C25.7239 26 25.5 25.7761 25.5 25.5V22.5ZM25.5 13C24.3954 13 23.5 13.8954 23.5 15V17C23.5 18.1046 24.3954 19 25.5 19H26.5C27.6046 19 28.5 18.1046 28.5 17V15C28.5 13.8954 27.6046 13 26.5 13H25.5ZM26 14C25.7239 14 25.5 14.2239 25.5 14.5V17.5C25.5 17.7761 25.7239 18 26 18C26.2761 18 26.5 17.7761 26.5 17.5V14.5C26.5 14.2239 26.2761 14 26 14ZM17.5 7C17.5 5.89543 18.3954 5 19.5 5H20.5C21.6046 5 22.5 5.89543 22.5 7V9C22.5 10.1046 21.6046 11 20.5 11H19.5C18.3954 11 17.5 10.1046 17.5 9V7ZM19.5 6.5C19.5 6.22386 19.7239 6 20 6C20.2761 6 20.5 6.22386 20.5 6.5V9.5C20.5 9.77614 20.2761 10 20 10C19.7239 10 19.5 9.77614 19.5 9.5V6.5Z" fill="white"/>
</svg>
