<svg width="56" height="64" viewBox="0 0 56 64" fill="none" xmlns="http://www.w3.org/2000/svg">
<path fill-rule="evenodd" clip-rule="evenodd" d="M7.00008 20.0002L2.66431 32.0069C4.45545 30.7428 6.64105 30.0002 9.00008 30.0002C15.0752 30.0002 20.0001 34.925 20.0001 41.0002C20.0001 41.3342 19.9852 41.6647 19.9561 41.9911L20.0001 42.0002C22.0001 40.0001 26.0001 40.0001 28.0001 42.0002L28.0441 41.9911C28.015 41.6647 28.0001 41.3342 28.0001 41.0002C28.0001 34.925 32.925 30.0002 39.0001 30.0002C41.3591 30.0002 43.5447 30.7428 45.3359 32.0069L41.0001 20.0002C39.5001 16.0002 29.0001 16.0001 28.0001 22.0002C25.5001 20.5002 22.5001 20.5002 20.0001 22.0002C19.0001 16.0001 8.50008 16.0002 7.00008 20.0002ZM27.2191 29.6248C25.6195 27.6253 22.3805 27.6253 20.7809 29.6248C20.4359 30.0561 19.8066 30.126 19.3753 29.781C18.944 29.436 18.8741 28.8067 19.2191 28.3754C21.6195 25.3751 26.3805 25.3751 28.7809 28.3754C29.1259 28.8067 29.056 29.436 28.6247 29.781C28.1934 30.126 27.5641 30.0561 27.2191 29.6248ZM9 50.0001C13.9706 50.0001 18 45.9707 18 41.0001C18 36.0296 13.9706 32.0001 9 32.0001C4.02944 32.0001 0 36.0296 0 41.0001C0 45.9707 4.02944 50.0001 9 50.0001ZM6 44.0001H4V42.0001V40.0001H2V42.0001V44.0001H4V46.0001H6V48.0001H8H10V46.0001H8H6V44.0001ZM39 50.0001C43.9706 50.0001 48 45.9707 48 41.0001C48 36.0296 43.9706 32.0001 39 32.0001C34.0294 32.0001 30 36.0296 30 41.0001C30 45.9707 34.0294 50.0001 39 50.0001ZM36 44.0001H34V42.0001V40.0001H32V42.0001V44.0001H34V46.0001H36V48.0001H38H40V46.0001H38H36V44.0001Z" fill="black"/>
</svg>
