<svg width="24" height="24" viewBox="0 0 24 24" fill="none" xmlns="http://www.w3.org/2000/svg">
<path d="M19.6239 4.72354C18.2217 4.08015 16.7181 3.60613 15.1459 3.33463C15.1173 3.3294 15.0887 3.34249 15.0739 3.36868C14.8805 3.71263 14.6663 4.16133 14.5163 4.51401C12.8254 4.26086 11.1431 4.26086 9.48679 4.51401C9.33676 4.15349 9.11478 3.71263 8.92053 3.36868C8.90578 3.34336 8.87718 3.33027 8.84855 3.33463C7.27725 3.60526 5.7736 4.07928 4.37052 4.72354C4.35838 4.72878 4.34797 4.73752 4.34106 4.74886C1.48894 9.00985 0.707629 13.1661 1.09092 17.2709C1.09265 17.2909 1.10392 17.3101 1.11953 17.3224C3.00127 18.7043 4.82406 19.5432 6.61301 20.0993C6.64164 20.108 6.67197 20.0975 6.69019 20.074C7.11337 19.4961 7.49059 18.8867 7.81402 18.246C7.83311 18.2084 7.81489 18.1639 7.77588 18.1491C7.17754 17.9221 6.6078 17.6454 6.05975 17.3311C6.0164 17.3058 6.01293 17.2438 6.05281 17.2141C6.16814 17.1277 6.2835 17.0377 6.39363 16.947C6.41355 16.9304 6.44131 16.9269 6.46474 16.9374C10.0652 18.5812 13.9631 18.5812 17.521 16.9374C17.5445 16.926 17.5722 16.9295 17.593 16.9461C17.7032 17.0369 17.8185 17.1277 17.9347 17.2141C17.9746 17.2438 17.972 17.3058 17.9286 17.3311C17.3806 17.6515 16.8108 17.9221 16.2116 18.1482C16.1726 18.163 16.1553 18.2084 16.1744 18.246C16.5047 18.8858 16.882 19.4952 17.2973 20.0731C17.3147 20.0975 17.3459 20.108 17.3745 20.0993C19.1721 19.5432 20.9949 18.7043 22.8766 17.3224C22.8931 17.3101 22.9035 17.2918 22.9053 17.2717C23.364 12.5262 22.1369 8.40402 19.6525 4.74972C19.6465 4.73752 19.6361 4.72878 19.6239 4.72354ZM8.35169 14.7715C7.26771 14.7715 6.37454 13.7763 6.37454 12.5541C6.37454 11.332 7.25039 10.3368 8.35169 10.3368C9.46163 10.3368 10.3462 11.3407 10.3288 12.5541C10.3288 13.7763 9.45296 14.7715 8.35169 14.7715ZM15.6619 14.7715C14.5779 14.7715 13.6847 13.7763 13.6847 12.5541C13.6847 11.332 14.5606 10.3368 15.6619 10.3368C16.7718 10.3368 17.6563 11.3407 17.639 12.5541C17.639 13.7763 16.7718 14.7715 15.6619 14.7715Z" fill="#F64343"/>
</svg>
