<svg width="20" height="20" viewBox="0 0 20 20" fill="none" xmlns="http://www.w3.org/2000/svg">
<path fill-rule="evenodd" clip-rule="evenodd" d="M7.2 0H14V2.8C14 3.9201 14 4.48016 14.218 4.90798C14.4097 5.28431 14.7157 5.59027 15.092 5.78201C15.5198 6 16.0799 6 17.2 6H20V16.8C20 17.9201 20 18.4802 19.782 18.908C19.5903 19.2843 19.2843 19.5903 18.908 19.782C18.4802 20 17.9201 20 16.8 20H7.2C6.0799 20 5.51984 20 5.09202 19.782C4.71569 19.5903 4.40973 19.2843 4.21799 18.908C4 18.4802 4 17.9201 4 16.8V3.2C4 2.0799 4 1.51984 4.21799 1.09202C4.40973 0.715695 4.71569 0.409734 5.09202 0.217987C5.51984 0 6.0799 0 7.2 0ZM0 3.2C0 2.0799 0 1.51984 0.217987 1.09202C0.409734 0.715695 0.715695 0.409734 1.09202 0.217987C1.51984 0 2.0799 0 3.2 0H4.2C3.0799 0 2.51984 0 2.09202 0.217987C1.71569 0.409734 1.40973 0.715695 1.21799 1.09202C1 1.51984 1 2.0799 1 3.2V16.8C1 17.9201 1 18.4802 1.21799 18.908C1.40973 19.2843 1.71569 19.5903 2.09202 19.782C2.51984 20 3.0799 20 4.2 20H3.2C2.0799 20 1.51984 20 1.09202 19.782C0.715695 19.5903 0.409734 19.2843 0.217987 18.908C0 18.4802 0 17.9201 0 16.8V3.2ZM2.21799 1.09202C2 1.51984 2 2.0799 2 3.2V16.8C2 17.9201 2 18.4802 2.21799 18.908C2.40973 19.2843 2.71569 19.5903 3.09202 19.782C3.51984 20 4.0799 20 5.2 20H6.2C5.0799 20 4.51984 20 4.09202 19.782C3.71569 19.5903 3.40973 19.2843 3.21799 18.908C3 18.4802 3 17.9201 3 16.8V3.2C3 2.0799 3 1.51984 3.21799 1.09202C3.40973 0.715695 3.71569 0.409734 4.09202 0.217987C4.51984 0 5.0799 0 6.2 0H5.2C4.0799 0 3.51984 0 3.09202 0.217987C2.71569 0.409734 2.40973 0.715695 2.21799 1.09202ZM15.7071 0C15.3166 0 15 0.316582 15 0.707107V3.4C15 3.96005 15 4.24008 15.109 4.45399C15.2049 4.64215 15.3578 4.79513 15.546 4.89101C15.7599 5 16.0399 5 16.6 5H19.2929C19.6834 5 20 4.68342 20 4.29289C20 4.10536 19.9255 3.9255 19.7929 3.79289L16.2071 0.207107C16.0745 0.0744985 15.8946 0 15.7071 0Z" fill="currentColor"/>
</svg>
