<?xml version="1.0" encoding="UTF-8" standalone="no"?>
<svg width="122px" height="48px" viewBox="0 0 122 48" version="1.1" xmlns="http://www.w3.org/2000/svg" xmlns:xlink="http://www.w3.org/1999/xlink">
    <!-- Generator: Sketch 41.1 (35376) - http://www.bohemiancoding.com/sketch -->
    <title>Landing</title>
    <desc>Created with Sketch.</desc>
    <defs>
        <path d="M28.381,0.192 C20.836,0.192 16.513,4.518 16.513,12.06 L16.513,18.093 C14.257,18.552 12.556,20.55 12.556,22.938 C12.556,25.323 14.257,27.321 16.513,27.78 L16.513,51.618 C15.421,51.618 14.536,50.727 14.536,49.638 L14.536,52.773 C14.536,51.678 13.651,50.793 12.556,50.793 C11.464,50.793 10.579,51.678 10.579,52.773 L10.579,53.265 C10.579,53.538 10.36,53.76 10.087,53.76 C9.814,53.76 9.592,53.538 9.592,53.265 L9.592,52.773 C9.592,51.678 8.707,50.793 7.612,50.793 C6.52,50.793 5.632,51.678 5.632,52.773 L5.632,53.265 C5.632,53.538 5.413,53.76 5.14,53.76 C4.867,53.76 4.645,53.538 4.645,53.265 L4.645,52.773 C4.645,51.678 3.76,50.793 2.668,50.793 C1.684,50.793 0.868,51.513 0.715,52.455 C1.15,59.7 7.18,65.463 14.536,65.463 L16.513,65.463 L16.513,73.374 C16.513,74.463 15.625,75.351 14.536,75.351 L6.625,75.351 L6.625,96.528 L13.954,89.196 L16.513,89.196 C21.895,89.196 26.737,86.112 29.023,81.285 L48.157,81.285 C49.249,81.285 50.137,82.173 50.137,83.262 L50.137,91.173 L71.314,91.173 L63.979,83.841 L63.979,81.285 C63.979,74.4 58.84,68.55 52.114,67.584 L52.114,37.77 L47.17,37.77 L47.17,37.278 C47.17,36.456 46.507,35.793 45.685,35.793 C44.866,35.793 44.203,36.456 44.203,37.278 L44.203,37.77 L41.236,37.77 L41.236,37.278 C41.236,36.456 40.573,35.793 39.754,35.793 C38.932,35.793 38.269,36.456 38.269,37.278 L38.269,37.77 L35.305,37.77 L35.305,37.278 C35.305,36.456 34.639,35.793 33.82,35.793 C33.001,35.793 32.335,36.456 32.335,37.278 L32.335,37.77 L29.368,37.77 L29.368,37.278 C29.368,36.456 28.705,35.793 27.886,35.793 C27.067,35.793 26.401,36.456 26.401,37.278 L26.401,37.77 C24.22,37.77 22.447,35.997 22.447,33.816 C22.447,31.635 24.22,29.859 26.401,29.859 L29.368,29.859 L29.368,30.354 C29.368,31.173 30.034,31.836 30.853,31.836 C31.672,31.836 32.335,31.173 32.335,30.354 L32.335,29.859 L35.305,29.859 L35.305,30.354 C35.305,31.173 35.968,31.836 36.787,31.836 C37.603,31.836 38.269,31.173 38.269,30.354 L38.269,29.859 L41.236,29.859 L41.236,30.354 C41.236,31.173 41.899,31.836 42.721,31.836 C43.54,31.836 44.203,31.173 44.203,30.354 L44.203,29.859 L47.17,29.859 L47.17,30.354 C47.17,31.173 47.833,31.836 48.652,31.836 C49.474,31.836 50.137,31.173 50.137,30.354 L50.137,29.859 L52.114,29.859 L52.114,27.78 C54.37,27.321 56.071,25.323 56.071,22.938 C56.071,20.55 54.37,18.552 52.114,18.093 L52.114,12.06 C52.114,4.518 47.788,0.192 40.249,0.192 L28.381,0.192 Z M49.147,9.876 L49.147,11.274 L46.216,14.241 L43.216,11.274 L40.249,14.241 L37.279,11.271 L34.315,14.235 L31.348,11.262 L28.384,14.217 L25.423,11.226 L22.465,14.139 L19.516,11.07 L19.48,11.07 L19.48,9.876 L22.411,12.843 L25.414,9.876 L28.381,12.843 L31.345,9.876 L34.312,12.843 L37.279,9.876 L40.249,12.843 L43.216,9.876 L46.183,12.843 L49.147,9.876 Z M35.305,20.958 C35.305,18.234 37.522,16.014 40.249,16.014 C42.976,16.014 45.19,18.234 45.19,20.958 C45.19,23.685 42.976,25.905 40.249,25.905 C37.522,25.905 35.305,23.685 35.305,20.958 Z M23.434,20.958 C23.434,18.234 25.654,16.014 28.381,16.014 C31.105,16.014 33.325,18.234 33.325,20.958 C33.325,23.685 31.105,25.905 28.381,25.905 C25.654,25.905 23.434,23.685 23.434,20.958 Z M52.114,20.139 C53.266,20.547 54.094,21.648 54.094,22.938 C54.094,24.225 53.266,25.326 52.114,25.734 L52.114,20.139 Z M14.536,22.938 C14.536,21.648 15.361,20.547 16.513,20.139 L16.513,25.734 C15.361,25.326 14.536,24.225 14.536,22.938 Z M0.691,52.773 C0.691,52.665 0.7,52.557 0.715,52.455 C0.697,52.179 0.691,51.897 0.691,51.618 L0.691,52.773 Z" id="path-1"></path>
    </defs>
    <g id="Landing" stroke="none" stroke-width="1" fill="none" fill-rule="evenodd">
        <g transform="translate(-826.000000, -4172.000000)" id="Footer">
            <g transform="translate(0.000000, 4000.000000)">
                <g id="Page-1" transform="translate(836.000000, 174.000000)">
                    <g id="martian" fill="#F64242">
                        <path d="M22.2874,20.251 C25.0144,20.251 27.2314,22.468 27.2314,25.195 C27.2314,27.922 25.0144,30.139 22.2874,30.139 C19.5604,30.139 17.3434,27.922 17.3434,25.195 C17.3434,22.468 19.5604,20.251 22.2874,20.251 L22.2874,20.251 Z M34.1554,20.251 C36.8824,20.251 39.0994,22.468 39.0994,25.195 C39.0994,27.922 36.8824,30.139 34.1554,30.139 C31.4284,30.139 29.2114,27.922 29.2114,25.195 C29.2114,22.468 31.4284,20.251 34.1554,20.251 L34.1554,20.251 Z M71.5864,71.677 L65.8594,67.093 L72.8824,64.753 L65.8594,62.413 L71.5864,57.832 L46.0204,57.832 L46.0204,42.007 L45.0334,42.007 L43.0564,38.053 L41.0764,42.007 L39.0994,42.007 L37.1224,38.053 L35.1424,42.007 L33.1654,42.007 L31.1884,38.053 L29.2114,42.007 L27.2314,42.007 L25.2544,38.053 L23.2774,42.007 L21.2974,42.007 L19.3204,38.053 L17.7934,41.104 C16.9144,40.378 16.3534,39.28 16.3534,38.053 C16.3534,35.872 18.1294,34.096 20.3104,34.096 L22.2874,38.053 L24.2644,34.096 L26.2444,34.096 L28.2214,38.053 L30.1984,34.096 L32.1754,34.096 L34.1554,38.053 L36.1324,34.096 L38.1094,34.096 L40.0894,38.053 L42.0664,34.096 L46.0204,34.096 L46.0204,16.294 C46.0204,12.958 45.1714,10.255 43.5754,8.275 L46.1884,5.659 C46.9594,6.139 47.9104,6.406 48.9874,6.406 C49.5334,6.406 49.9774,5.962 49.9774,5.416 C49.9774,4.87 49.5334,4.429 48.9874,4.429 C47.1034,4.429 46.0204,3.346 46.0204,1.462 C46.0204,0.916 45.5794,0.472 45.0334,0.472 C44.4874,0.472 44.0434,0.916 44.0434,1.462 C44.0434,2.542 44.3104,3.49 44.7904,4.261 L42.1774,6.874 C40.1944,5.278 37.4914,4.429 34.1554,4.429 L22.2874,4.429 C18.9514,4.429 16.2484,5.278 14.2654,6.874 L11.6494,4.261 C12.1324,3.49 12.3994,2.542 12.3994,1.462 C12.3994,0.916 11.9554,0.472 11.4094,0.472 C10.8634,0.472 10.4194,0.916 10.4194,1.462 C10.4194,3.346 9.3394,4.429 7.4524,4.429 C6.9064,4.429 6.4654,4.87 6.4654,5.416 C6.4654,5.962 6.9064,6.406 7.4524,6.406 C8.5324,6.406 9.4804,6.139 10.2514,5.659 L12.8674,8.275 C11.2714,10.255 10.4194,12.958 10.4194,16.294 L10.4194,77.608 C10.4194,78.7 9.5344,79.588 8.4424,79.588 L0.5314,79.588 L0.5314,100.765 L7.8634,93.433 L10.4194,93.433 C15.8044,93.433 20.6434,90.349 22.9324,85.522 L42.0664,85.522 C43.1584,85.522 44.0434,86.407 44.0434,87.499 L44.0434,95.41 L65.2204,95.41 L57.8884,88.078 L57.8884,85.522 C57.8884,78.637 52.7464,72.787 46.0204,71.821 L46.0204,71.677 L71.5864,71.677 Z" id="Fill-7"></path>
                        <path d="M22.2874,23.218 C23.3794,23.218 24.2644,24.103 24.2644,25.195 C24.2644,26.287 23.3794,27.175 22.2874,27.175 C21.1954,27.175 20.3104,26.287 20.3104,25.195 C20.3104,24.103 21.1954,23.218 22.2874,23.218 M22.2874,28.162 C23.9224,28.162 25.2544,26.833 25.2544,25.195 C25.2544,23.56 23.9224,22.228 22.2874,22.228 C20.6524,22.228 19.3204,23.56 19.3204,25.195 C19.3204,26.833 20.6524,28.162 22.2874,28.162" id="Fill-12"></path>
                        <path d="M34.1545,23.218 C35.2465,23.218 36.1315,24.103 36.1315,25.195 C36.1315,26.287 35.2465,27.175 34.1545,27.175 C33.0625,27.175 32.1775,26.287 32.1775,25.195 C32.1775,24.103 33.0625,23.218 34.1545,23.218 M34.1545,28.162 C35.7895,28.162 37.1215,26.833 37.1215,25.195 C37.1215,23.56 35.7895,22.228 34.1545,22.228 C32.5195,22.228 31.1875,23.56 31.1875,25.195 C31.1875,26.833 32.5195,28.162 34.1545,28.162" id="Fill-17"></path>
                        <polygon id="Fill-1" points="0.4732 48.9304 8.4412 53.3584 8.4412 44.5024"></polygon>
                        <polygon id="Fill-2" points="0.4732 48.9304 8.4412 53.3584 8.4412 44.5024"></polygon>
                        <polygon id="Fill-5" points="0.4732 39.0403 8.4412 43.4683 8.4412 34.6123"></polygon>
                        <polygon id="Fill-6" points="0.4732 39.0403 8.4412 43.4683 8.4412 34.6123"></polygon>
                    </g>
                    <g id="Group-36" transform="translate(52.000000, 4.236700)">
                        <mask id="mask-2" fill="white">
                            <use xlink:href="#path-1"></use>
                        </mask>
                        <g id="Clip-35"></g>
                        <polygon id="Fill-34" fill="#FFFFFF" mask="url(#mask-2)" points="-1.7825 -2.2809 73.7875 -2.2809 73.7875 98.9991 -1.7825 113.9991"></polygon>
                    </g>
                    <path d="M92.2475,23.218 C93.3395,23.218 94.2245,24.103 94.2245,25.195 C94.2245,26.287 93.3395,27.175 92.2475,27.175 C91.1555,27.175 90.2705,26.287 90.2705,25.195 C90.2705,24.103 91.1555,23.218 92.2475,23.218 M92.2475,28.162 C93.8825,28.162 95.2145,26.833 95.2145,25.195 C95.2145,23.56 93.8825,22.228 92.2475,22.228 C90.6125,22.228 89.2805,23.56 89.2805,25.195 C89.2805,26.833 90.6125,28.162 92.2475,28.162" id="Fill-22" fill="#FFFFFF"></path>
                    <path d="M80.3801,23.218 C81.4721,23.218 82.3571,24.103 82.3571,25.195 C82.3571,26.287 81.4721,27.175 80.3801,27.175 C79.2881,27.175 78.4031,26.287 78.4031,25.195 C78.4031,24.103 79.2881,23.218 80.3801,23.218 M80.3801,28.162 C82.0151,28.162 83.3471,26.833 83.3471,25.195 C83.3471,23.56 82.0151,22.228 80.3801,22.228 C78.7451,22.228 77.4131,23.56 77.4131,25.195 C77.4131,26.833 78.7451,28.162 80.3801,28.162" id="Fill-27" fill="#FFFFFF"></path>
                </g>
            </g>
        </g>
    </g>
</svg>