<svg width="24" height="24" viewBox="0 0 24 24" fill="none" xmlns="http://www.w3.org/2000/svg">
<path d="M9.11577 22C9.11577 22 9.10407 19.3696 9.09876 18.3223C5.61161 19.0805 4.8758 16.8434 4.8758 16.8434C4.30564 15.3946 3.48411 15.0094 3.48411 15.0094C2.34693 14.2314 3.56983 14.2474 3.56983 14.2474C4.82852 14.3358 5.49129 15.5391 5.49129 15.5391C6.6092 17.4553 8.42351 16.9013 9.13877 16.5811C9.13877 15.7515 9.09876 15.284 8.86593 14.895C6.08195 14.578 4.22385 13.5132 4.22385 8.71047C4.22385 7.34208 4.7135 6.22387 5.51537 5.34611C5.38522 5.03035 4.95622 3.75554 5.63678 2.02902C5.63678 2.02902 6.68932 1.69214 9.0846 3.31386C10.0844 3.03605 11.1567 2.89685 12.2219 2.89214C13.2871 2.89685 14.3602 3.03605 15.3619 3.31386C17.7544 1.69214 18.8054 2.02902 18.8054 2.02902C19.4877 3.75554 19.0585 5.03035 18.9283 5.34611C19.7319 6.22387 20.2183 7.34198 20.2183 8.71047C20.2183 13.5246 18.3684 14.5847 15.5773 14.895C15.3451 15.284 15.3451 16.0468 15.3451 17.2161C15.3451 18.8932 15.3306 22 15.3306 22H9.11577Z" fill="#F64343"/>
</svg>
