<svg width="24" height="24" viewBox="0 0 24 24" fill="none" xmlns="http://www.w3.org/2000/svg">
<path fill-rule="evenodd" clip-rule="evenodd" d="M12.0091 1C5.92135 1 1 5.95763 1 12.0909C1 16.9936 4.15328 21.1435 8.52772 22.6124C9.07463 22.7228 9.27497 22.3737 9.27497 22.0801C9.27497 21.823 9.25694 20.9416 9.25694 20.0233C6.19447 20.6845 5.55674 18.7012 5.55674 18.7012C5.06458 17.4159 4.33536 17.0855 4.33536 17.0855C3.33302 16.4061 4.40837 16.4061 4.40837 16.4061C5.52024 16.4795 6.10366 17.5445 6.10366 17.5445C7.08775 19.2337 8.67352 18.7564 9.31147 18.4626C9.40251 17.7464 9.69434 17.2507 10.0042 16.9753C7.56165 16.7182 4.9918 15.7634 4.9918 11.5032C4.9918 10.2913 5.42897 9.29976 6.12169 8.52862C6.01239 8.25324 5.62953 7.11457 6.2312 5.59054C6.2312 5.59054 7.16076 5.29669 9.25671 6.729C10.1541 6.48622 11.0795 6.36272 12.0091 6.36168C12.9387 6.36168 13.8862 6.49035 14.7613 6.729C16.8574 5.29669 17.787 5.59054 17.787 5.59054C18.3887 7.11457 18.0056 8.25324 17.8963 8.52862C18.6073 9.29976 19.0264 10.2913 19.0264 11.5032C19.0264 15.7634 16.4565 16.6997 13.9958 16.9753C14.3969 17.3241 14.743 17.9851 14.743 19.0318C14.743 20.5191 14.725 21.7128 14.725 22.0799C14.725 22.3737 14.9255 22.7228 15.4722 22.6126C19.8467 21.1433 23 16.9936 23 12.0909C23.018 5.95763 18.0786 1 12.0091 1Z" fill="currentColor"/>
</svg>
