<svg width="36" height="40" viewBox="0 0 36 40" fill="none" xmlns="http://www.w3.org/2000/svg">
<path fill-rule="evenodd" clip-rule="evenodd" d="M16.865 7.00341C17.1798 7.09428 17.5127 7.14296 17.8571 7.14296C18.2026 7.14296 18.5364 7.09397 18.8521 7.00255L29.6064 25.629C29.3657 25.8584 29.1536 26.1258 28.9795 26.4287C28.8065 26.7297 28.6821 27.0457 28.6041 27.3674H7.11024C7.03223 27.0459 6.90783 26.73 6.73463 26.4287C6.55986 26.1278 6.34818 25.8619 6.1087 25.6334L16.865 7.00341ZM15.2952 6.05742C15.3285 6.0918 15.3624 6.12551 15.397 6.15852L4.64023 24.7892C4.59372 24.7757 4.54695 24.7631 4.49994 24.7515V15.2471C5.40635 15.0218 6.22308 14.4437 6.72443 13.5715C7.22513 12.7005 7.31795 11.7069 7.06148 10.8113L15.2952 6.05742ZM21.2712 4.59976C21.3669 4.2773 21.4183 3.93561 21.4183 3.58173C21.4183 1.61234 19.8265 0.0205078 17.8571 0.0205078C15.8877 0.0205078 14.2959 1.61234 14.2959 3.58173C14.2959 3.93368 14.3467 4.27358 14.4414 4.59448L6.22271 9.33971C5.99219 9.09628 5.72321 8.88128 5.4183 8.70418C3.71422 7.72459 1.53055 8.30622 0.550956 10.0103C-0.428635 11.7144 0.152997 13.8981 1.85708 14.8777C2.16131 15.0525 2.48083 15.1777 2.80606 15.2555V24.7469C2.48455 24.825 2.16858 24.9493 1.86728 25.1225C0.163201 26.1123 -0.418431 28.2858 0.561161 29.9899C1.54075 31.694 3.71422 32.2756 5.42851 31.296C5.7302 31.1208 5.9967 30.9085 6.22559 30.6682L14.4399 35.4109C14.3461 35.7303 14.2959 36.0684 14.2959 36.4185C14.2959 38.3879 15.8877 39.9797 17.8571 39.9797C19.8265 39.9797 21.4183 38.3777 21.4183 36.4185C21.4183 36.0261 21.3551 35.6488 21.2384 35.2961L29.4048 30.581C29.6516 30.8582 29.9464 31.101 30.2857 31.296C31.9897 32.2756 34.1734 31.694 35.153 29.9899C36.1428 28.2858 35.5612 26.1123 33.8469 25.1225C33.5458 24.9495 33.2298 24.8252 32.9081 24.7471V15.2555C33.2333 15.1777 33.5528 15.0525 33.8571 14.8777C35.5612 13.8879 36.1428 11.7144 35.1632 10.0103C34.1734 8.30622 31.9999 7.72459 30.2959 8.70418C29.9893 8.88225 29.719 9.09864 29.4877 9.34371L21.2712 4.59976ZM20.3195 6.15637C20.3519 6.12531 20.3838 6.09364 20.4151 6.06138L28.6512 10.8166C28.3966 11.7108 28.49 12.7022 28.9897 13.5715C29.4911 14.4437 30.3078 15.0218 31.2142 15.2471V24.7506C31.168 24.7619 31.1221 24.7742 31.0764 24.7873L20.3195 6.15637ZM17.8571 32.8572C18.9015 32.8572 19.8398 33.305 20.4907 34.0193L28.6733 29.2949C28.6488 29.2178 28.6268 29.1399 28.6076 29.0613H7.10568C7.09428 29.1075 7.08196 29.1534 7.06873 29.1991L15.2915 33.9467C15.9389 33.2747 16.8485 32.8572 17.8571 32.8572Z" fill="white"/>
</svg>
