<svg width="48" height="17" viewBox="452 738 48 17" xmlns="http://www.w3.org/2000/svg"><path d="M469.894 745.376h1.355c.421 0 .756-.056 1.006-.169.249-.112.44-.273.572-.482.133-.21.222-.468.269-.775.047-.307.07-.663.07-1.067 0-.405-.023-.76-.07-1.067a1.882 1.882 0 0 0-.292-.787 1.31 1.31 0 0 0-.62-.483c-.264-.104-.615-.157-1.051-.157h-1.24v4.987zm-2.385-7.236h3.834c2.805 0 4.208 1.632 4.208 4.895 0 .968-.152 1.8-.456 2.495-.304.694-.838 1.253-1.601 1.674l2.571 7.612h-2.525l-2.258-7.244h-1.388v7.244h-2.385V738.14zm9.958 0h3.577c.654 0 1.23.086 1.73.258.498.172.95.476 1.355.914.405.437.686.948.842 1.534.156.585.233 1.378.233 2.377 0 .734-.058 1.259-.144 1.782-.086.523-.363 1.433-1.45 2.05-.679.386-1.655.526-2.543.526h-1.215v7.235h-2.385V738.14zm2.385 7.236h1.145c.483 0 .857-.062 1.122-.186.265-.123.46-.291.585-.505.124-.213.198-.47.222-.772.023-.303.035-.64.035-1.01 0-.344-.012-.67-.035-.98a2.09 2.09 0 0 0-.21-.803 1.247 1.247 0 0 0-.55-.536c-.25-.13-.608-.196-1.075-.196h-1.239v4.988zm14.703 5.716a3.874 3.874 0 0 1-1.099 2.705 3.992 3.992 0 0 1-1.204.843 3.52 3.52 0 0 1-1.484.316 5.32 5.32 0 0 1-1.38-.187 3.34 3.34 0 0 1-1.262-.645c-.374-.304-.682-.706-.923-1.206-.242-.5-.362-1.132-.362-1.897v-9.18c0-.547.093-1.054.28-1.522.187-.469.452-.875.795-1.218a3.703 3.703 0 0 1 1.227-.808 4.116 4.116 0 0 1 1.578-.293c.545 0 1.052.098 1.52.293a3.634 3.634 0 0 1 2.021 2.084c.195.492.292 1.027.292 1.605v.937h-2.384v-.797c0-.468-.132-.874-.397-1.218-.265-.343-.624-.515-1.076-.515-.592 0-.985.184-1.18.55-.195.367-.292.832-.292 1.394v8.525c0 .484.105.89.315 1.218.21.328.588.492 1.134.492.156 0 .323-.028.503-.082.179-.055.342-.145.49-.27.149-.125.27-.296.363-.515.093-.218.14-.492.14-.82v-.82h2.385v1.03zm4.671-4.635a1.1 1.1 0 0 0-1.099-1.102h-5.954v2.204h4.855v2.459h-.748l1.86 2.628 1.86-2.628h-.774v-3.561zm-41.815 1.123v3.301c0 .687.117 1.284.35 1.792.234.507.542.929.924 1.264.382.336.81.59 1.286.762.475.172.954.257 1.437.257a4.2 4.2 0 0 0 1.438-.257 3.977 3.977 0 0 0 1.286-.762c.382-.335.69-.757.923-1.264.234-.508.35-1.105.35-1.792v-5.5l-4.272-.007-.005 2.206h1.894v3.301c0 .578-.16 1.003-.48 1.276-.32.273-.697.41-1.134.41-.436 0-.814-.137-1.133-.41-.32-.273-.48-.698-.48-1.276v-8.806c0-.578.16-1.003.48-1.276.32-.273.697-.41 1.133-.41.437 0 .815.136 1.134.41.32.273.48.698.48 1.276v.843h2.384v-.843c0-.671-.117-1.265-.35-1.78a3.715 3.715 0 0 0-.924-1.276 3.978 3.978 0 0 0-1.286-.762 4.216 4.216 0 0 0-1.438-.257c-.483 0-.962.086-1.437.258a3.98 3.98 0 0 0-1.286.76 3.71 3.71 0 0 0-.924 1.277c-.233.515-.35 1.109-.35 1.78v3.3h-2.44v-2.458h.749l-1.86-2.628-1.86 2.628h.774v3.561a1.1 1.1 0 0 0 1.099 1.102h3.538z" fill="#F64242" fill-rule="evenodd"/></svg>