<svg width="64" height="64" viewBox="0 0 64 64" fill="none" xmlns="http://www.w3.org/2000/svg">
<mask id="mask0_1827_196" style="mask-type:alpha" maskUnits="userSpaceOnUse" x="3" y="12" width="58" height="52">
<path d="M32.0045 62.6066C32.0045 62.6066 29.6786 64.0015 25.5296 63.9999C11.0795 63.9999 -2.58374 32.1326 7.21664 19.1847C17.0168 6.23668 32.0045 14.964 32.0045 14.964C32.0045 14.964 46.9919 6.23668 56.7923 19.1847C66.5927 32.1326 52.9294 63.9999 38.4792 63.9999C34.3302 64.0015 32.0045 62.6066 32.0045 62.6066Z" fill="white"/>
</mask>
<g mask="url(#mask0_1827_196)">
<path fill-rule="evenodd" clip-rule="evenodd" d="M29.6855 61.9554L40.0604 54.8677L53.3218 56.1408L45.6411 65.0348L31.2602 66.0152L29.6855 61.9554Z" fill="#BF2D2E"/>
<path fill-rule="evenodd" clip-rule="evenodd" d="M40.0605 54.8675L50.1362 38.7769L58.3758 47.8757L53.3219 56.1407L40.0605 54.8675Z" fill="#DD453E"/>
<path fill-rule="evenodd" clip-rule="evenodd" d="M50.1358 38.7771L34.6578 47.458L33.2598 41.7233L34.8551 29.9456L46.9482 32.216L51.0601 34.8512L50.1358 38.7771Z" fill="#EA8A3D"/>
<path fill-rule="evenodd" clip-rule="evenodd" d="M51.0609 34.8512L57.455 12.5884C57.455 12.5884 64.435 28.895 64.7617 29.3974C65.0886 29.8998 58.3763 47.876 58.3763 47.876L50.1367 38.7771L51.0609 34.8512Z" fill="#F1AA4D"/>
<path fill-rule="evenodd" clip-rule="evenodd" d="M57.4543 12.5883L53.3218 4.07959L33.1074 21.0334L34.8553 29.9455L46.9484 32.2159L51.0602 34.8511L57.4543 12.5883Z" fill="#FAD34A"/>
<path fill-rule="evenodd" clip-rule="evenodd" d="M19.71 35.6045L22.599 49.1831L35.1822 50.9806L34.658 47.4578L33.26 41.7231L34.8553 29.9453L33.1074 21.0332L22.6597 21.0469L19.71 35.6045Z" fill="#92BE3F"/>
<path fill-rule="evenodd" clip-rule="evenodd" d="M29.1408 -0.117565L33.1077 21.0333L22.6599 21.0471L10.876 7.02115L33.2602 -9.15747L29.1408 -0.117565Z" fill="#57A445"/>
<path fill-rule="evenodd" clip-rule="evenodd" d="M22.6596 21.0472L9.95336 35.9894L-4.85547 15.6823L10.8756 7.02124L22.6596 21.0472Z" fill="#3A7F3F"/>
<path fill-rule="evenodd" clip-rule="evenodd" d="M20.0175 37.0531L10.0977 36.5449L10.8751 39.5304L22.5984 49.1831L20.0175 37.0531Z" fill="#3A7F3F"/>
<path fill-rule="evenodd" clip-rule="evenodd" d="M10.876 39.5305L8.0156 50.167L0.210938 38.7018L2.70385 25.9204L9.95371 35.9893L10.876 39.5305Z" fill="#262E5C"/>
<path fill-rule="evenodd" clip-rule="evenodd" d="M10.876 39.5305L22.5992 49.1832L11.2957 60.4415L8.01562 50.167L10.876 39.5305Z" fill="#327194"/>
<path fill-rule="evenodd" clip-rule="evenodd" d="M22.5985 49.1831L24.8863 65.0346L11.2949 60.4414L22.5985 49.1831Z" fill="#24A8BD"/>
<path fill-rule="evenodd" clip-rule="evenodd" d="M24.8874 65.0346L29.6861 61.9552L40.061 54.8676L35.1829 50.9807L22.5996 49.1831L24.8874 65.0346Z" fill="#DE4477"/>
<path fill-rule="evenodd" clip-rule="evenodd" d="M9.32031 36.7334L22.659 21.0471L19.991 36.9288L9.32031 36.7334Z" fill="#57A445"/>
<path fill-rule="evenodd" clip-rule="evenodd" d="M24.8867 65.0349L33.6958 64.188L30.6808 61.2754L24.8867 65.0349Z" fill="#E680A9"/>
<path fill-rule="evenodd" clip-rule="evenodd" d="M40.0604 54.8675L50.1361 38.7769L40.7129 40.1037L33.5479 43.1091L35.1823 50.9807L40.0604 54.8675Z" fill="#922C55"/>
<path fill-rule="evenodd" clip-rule="evenodd" d="M29.1406 -0.117676L53.3219 4.07945L40.0605 20.2499L33.1075 21.0332L29.1406 -0.117676Z" fill="#F1AA4D"/>
</g>
<path fill-rule="evenodd" clip-rule="evenodd" d="M25.1641 12.5144C25.1641 12.5144 31.0194 19.1136 31.0194 21.0333C32.43 21.3956 31.7547 14.4676 31.7547 14.4676L29.6713 13.773L25.1641 12.5144Z" fill="#3A7F3F"/>
<path fill-rule="evenodd" clip-rule="evenodd" d="M33.1069 21.0334C33.1069 21.0334 33.7912 5.73645 25.997 0C22.9328 0.367674 21.0508 3.06917 21.0508 3.06917C21.0508 3.06917 32.2898 12.59 31.0193 21.0334C32.531 21.0334 33.1069 21.0334 33.1069 21.0334Z" fill="#57A445"/>
<path fill-rule="evenodd" clip-rule="evenodd" d="M60.0968 31.4065C59.8844 31.9057 59.5589 32.3578 59.1075 32.7786C55.1276 36.49 43.8123 36.2503 39.7893 35.8488C38.8222 35.7483 37.8955 36.3033 37.5255 37.2093L35.5186 42.1213L30.6847 25.7385C30.4314 24.8773 29.6808 24.256 28.7872 24.1671C27.901 24.0772 27.0371 24.5388 26.6177 25.3335L20.6202 36.7028C16.6636 36.974 8.71124 36.8403 5.37878 33.849C4.39136 32.9635 3.92858 31.9169 3.91427 30.5672C3.89088 33.2088 4.21332 35.9851 4.83481 38.7681C11.162 42.0745 21.0088 41.1253 22.2508 40.9898C22.9792 40.9098 23.6202 40.4743 23.9616 39.8259L27.989 32.1914L33.067 49.4028C33.3319 50.3017 34.1356 50.9348 35.0712 50.9826C35.1089 50.9843 35.1459 50.9853 35.1836 50.9853C36.0753 50.9853 36.8853 50.4456 37.2247 49.613L40.9997 40.3711C44.7752 40.6104 53.598 40.7774 59.3613 37.864C59.7995 35.6781 60.0572 33.5047 60.0968 31.4065Z" fill="#FFFFFE"/>
</svg>
