<svg xmlns="http://www.w3.org/2000/svg" viewBox="0 0 64 64" width="64" height="64">
  <rect width="64" height="64" rx="8" fill="#F7DF1E"/>
  <path d="M42.72 49.92c1.29 2.11 2.97 3.66 5.94 3.66 2.5 0 4.1-1.25 4.1-2.98 0-2.07-1.65-2.8-4.42-4.02l-1.52-.65c-4.38-1.87-7.29-4.2-7.29-9.13 0-4.55 3.46-8 8.88-8 3.86 0 6.63 1.34 8.63 4.85l-4.73 3.04c-1.04-1.87-2.16-2.6-3.9-2.6-1.77 0-2.9 1.13-2.9 2.6 0 1.82 1.13 2.55 3.73 3.68l1.52.65c5.15 2.21 8.07 4.46 8.07 9.52 0 5.46-4.29 8.43-10.05 8.43-5.63 0-9.26-2.68-11.05-6.2zm-21.49.52c.95 1.69 1.82 3.12 3.9 3.12 2 0 3.25-.78 3.25-3.81V29.14h5.98v20.69c0 6.2-3.64 9.02-8.94 9.02-4.8 0-7.57-2.47-8.99-5.46z" fill="#000"/>
</svg>
