<svg width="375" height="272" viewBox="0 0 375 272" fill="none" xmlns="http://www.w3.org/2000/svg">
<rect width="375" height="272" fill="#0E1116"/>
<path d="M28.368 26.93H30.328V28H25.068V26.93H27.228V20.88L25.068 22.28V21.06L26.748 20H28.368V26.93ZM27.888 56.22C28.2747 55.9267 28.558 55.63 28.738 55.33C28.918 55.03 29.008 54.7033 29.008 54.35C29.008 53.9033 28.8814 53.5533 28.628 53.3C28.3747 53.04 28.0247 52.91 27.578 52.91C27.1514 52.91 26.8047 53.04 26.538 53.3C26.2714 53.56 26.088 53.94 25.988 54.44H24.888C24.9147 53.9067 25.048 53.4467 25.288 53.06C25.528 52.6667 25.8447 52.3667 26.238 52.16C26.638 51.9467 27.0847 51.84 27.578 51.84C28.0914 51.84 28.5414 51.9433 28.928 52.15C29.3147 52.3567 29.6147 52.65 29.828 53.03C30.0414 53.41 30.148 53.85 30.148 54.35C30.148 55.3833 29.6114 56.2867 28.538 57.06L26.068 58.83V58.93H29.988V60H25.098V58.31L27.888 56.22ZM30.148 73.87C30.148 74.3167 30.038 74.7133 29.818 75.06C29.598 75.4067 29.2914 75.6767 28.898 75.87C28.5047 76.0633 28.0614 76.16 27.568 76.16C27.0414 76.16 26.578 76.06 26.178 75.86C25.778 75.66 25.4614 75.3733 25.228 75C25.0014 74.62 24.8814 74.1733 24.868 73.66H25.958C26.0247 74.12 26.198 74.4733 26.478 74.72C26.758 74.9667 27.118 75.09 27.558 75.09C27.9914 75.09 28.338 74.97 28.598 74.73C28.8647 74.49 28.998 74.1767 28.998 73.79C28.998 73.3967 28.8714 73.0767 28.618 72.83C28.3647 72.5833 28.0347 72.46 27.628 72.46H26.688V71.4H27.628C28.0547 71.4 28.398 71.2867 28.658 71.06C28.918 70.8333 29.048 70.54 29.048 70.18C29.048 69.8 28.9147 69.4933 28.648 69.26C28.3814 69.0267 28.0314 68.91 27.598 68.91C27.138 68.91 26.7647 69.04 26.478 69.3C26.1914 69.56 26.0014 69.94 25.908 70.44H24.818C24.8447 69.9 24.978 69.4367 25.218 69.05C25.458 68.6567 25.7814 68.3567 26.188 68.15C26.6014 67.9433 27.0747 67.84 27.608 67.84C28.1147 67.84 28.5614 67.9333 28.948 68.12C29.3414 68.3067 29.6447 68.57 29.858 68.91C30.0714 69.25 30.178 69.6467 30.178 70.1C30.178 70.5333 30.0647 70.9033 29.838 71.21C29.6114 71.5167 29.3047 71.72 28.918 71.82V71.98C29.298 72.08 29.598 72.3 29.818 72.64C30.038 72.98 30.148 73.39 30.148 73.87ZM29.288 88.61H30.478V89.68H29.288V92H28.148V89.68H24.548V88.15L27.288 84H29.288V88.61ZM28.148 88.61V84.58L25.538 88.5V88.61H28.148ZM30.058 100V101.07H26.328V103.13H26.628C26.7547 102.99 26.928 102.88 27.148 102.8C27.3747 102.72 27.618 102.68 27.878 102.68C28.3247 102.68 28.7247 102.793 29.078 103.02C29.4314 103.24 29.708 103.553 29.908 103.96C30.108 104.36 30.208 104.823 30.208 105.35C30.208 105.89 30.0947 106.373 29.868 106.8C29.648 107.227 29.338 107.56 28.938 107.8C28.5447 108.04 28.0947 108.16 27.588 108.16C26.8214 108.16 26.2014 107.957 25.728 107.55C25.2614 107.143 24.988 106.58 24.908 105.86H26.018C26.238 106.68 26.7547 107.09 27.568 107.09C28.0214 107.09 28.3847 106.933 28.658 106.62C28.9314 106.3 29.068 105.877 29.068 105.35C29.068 104.837 28.9347 104.433 28.668 104.14C28.408 103.84 28.0514 103.69 27.598 103.69C27.278 103.69 26.998 103.763 26.758 103.91C26.5247 104.057 26.348 104.267 26.228 104.54H25.188V100H30.058ZM27.488 124.16C26.968 124.16 26.5014 124.047 26.088 123.82C25.6747 123.587 25.3514 123.263 25.118 122.85C24.8914 122.437 24.778 121.967 24.778 121.44C24.778 121.027 24.858 120.61 25.018 120.19C25.178 119.77 25.4314 119.307 25.778 118.8L27.688 116H28.958L27.048 118.75L27.208 118.91C27.368 118.85 27.5547 118.82 27.768 118.82C28.2347 118.82 28.6547 118.933 29.028 119.16C29.4014 119.38 29.6914 119.69 29.898 120.09C30.1114 120.49 30.218 120.94 30.218 121.44C30.218 121.967 30.1014 122.437 29.868 122.85C29.6347 123.263 29.3114 123.587 28.898 123.82C28.4847 124.047 28.0147 124.16 27.488 124.16ZM25.918 121.44C25.918 121.933 26.0614 122.333 26.348 122.64C26.6414 122.94 27.0247 123.09 27.498 123.09C27.9714 123.09 28.3514 122.94 28.638 122.64C28.9314 122.333 29.078 121.933 29.078 121.44C29.078 120.947 28.9314 120.553 28.638 120.26C28.3514 119.96 27.9714 119.81 27.498 119.81C27.0247 119.81 26.6414 119.96 26.348 120.26C26.0614 120.553 25.918 120.947 25.918 121.44ZM26.998 140H25.758L29.018 133.17V133.07H24.958V132H29.908V133.75L26.998 140ZM27.498 151.41C27.9914 151.41 28.378 151.3 28.658 151.08C28.9447 150.853 29.088 150.547 29.088 150.16C29.088 149.773 28.9447 149.47 28.658 149.25C28.378 149.023 27.9914 148.91 27.498 148.91C27.0047 148.91 26.6147 149.023 26.328 149.25C26.048 149.47 25.908 149.773 25.908 150.16C25.908 150.547 26.048 150.853 26.328 151.08C26.6147 151.3 27.0047 151.41 27.498 151.41ZM24.808 153.85C24.808 153.383 24.9214 152.98 25.148 152.64C25.3814 152.293 25.688 152.067 26.068 151.96V151.8C25.688 151.693 25.3814 151.483 25.148 151.17C24.9214 150.857 24.808 150.493 24.808 150.08C24.808 149.633 24.918 149.24 25.138 148.9C25.358 148.56 25.6714 148.3 26.078 148.12C26.4847 147.933 26.958 147.84 27.498 147.84C28.038 147.84 28.5114 147.933 28.918 148.12C29.3247 148.3 29.638 148.56 29.858 148.9C30.078 149.24 30.188 149.633 30.188 150.08C30.188 150.493 30.0714 150.857 29.838 151.17C29.6114 151.483 29.308 151.693 28.928 151.8V151.96C29.308 152.067 29.6114 152.293 29.838 152.64C30.0714 152.98 30.188 153.383 30.188 153.85C30.188 154.31 30.078 154.717 29.858 155.07C29.638 155.417 29.3247 155.687 28.918 155.88C28.5114 156.067 28.038 156.16 27.498 156.16C26.958 156.16 26.4847 156.067 26.078 155.88C25.6714 155.687 25.358 155.417 25.138 155.07C24.918 154.717 24.808 154.31 24.808 153.85ZM25.948 153.76C25.948 154.173 26.0847 154.5 26.358 154.74C26.6314 154.973 27.0114 155.09 27.498 155.09C27.9847 155.09 28.3647 154.973 28.638 154.74C28.9114 154.5 29.048 154.173 29.048 153.76C29.048 153.347 28.9114 153.023 28.638 152.79C28.3647 152.55 27.9847 152.43 27.498 152.43C27.0114 152.43 26.6314 152.55 26.358 152.79C26.0847 153.023 25.948 153.347 25.948 153.76ZM27.508 163.84C28.028 163.84 28.4947 163.957 28.908 164.19C29.3214 164.417 29.6414 164.737 29.868 165.15C30.1014 165.563 30.218 166.033 30.218 166.56C30.218 166.973 30.138 167.39 29.978 167.81C29.818 168.23 29.5647 168.693 29.218 169.2L27.308 172H26.038L27.948 169.25L27.788 169.09C27.628 169.15 27.4414 169.18 27.228 169.18C26.7614 169.18 26.3414 169.07 25.968 168.85C25.5947 168.623 25.3014 168.31 25.088 167.91C24.8814 167.51 24.778 167.06 24.778 166.56C24.778 166.033 24.8947 165.563 25.128 165.15C25.3614 164.737 25.6847 164.417 26.098 164.19C26.5114 163.957 26.9814 163.84 27.508 163.84ZM25.918 166.56C25.918 167.053 26.0614 167.45 26.348 167.75C26.6414 168.043 27.0247 168.19 27.498 168.19C27.9714 168.19 28.3514 168.043 28.638 167.75C28.9314 167.45 29.078 167.053 29.078 166.56C29.078 166.067 28.9314 165.67 28.638 165.37C28.3514 165.063 27.9714 164.91 27.498 164.91C27.0247 164.91 26.6414 165.063 26.348 165.37C26.0614 165.67 25.918 166.067 25.918 166.56ZM21.3661 202.93H23.3261V204H18.0661V202.93H20.2261V196.88L18.0661 198.28V197.06L19.7461 196H21.3661V202.93ZM27.498 204.16C25.5514 204.16 24.578 202.773 24.578 200C24.578 197.227 25.5514 195.84 27.498 195.84C29.4447 195.84 30.418 197.227 30.418 200C30.418 202.773 29.4447 204.16 27.498 204.16ZM25.718 200C25.718 200.173 25.7247 200.4 25.738 200.68L29.068 198.17C28.9347 197.743 28.738 197.427 28.478 197.22C28.218 197.013 27.8914 196.91 27.498 196.91C26.8847 196.91 26.4347 197.16 26.148 197.66C25.8614 198.16 25.718 198.94 25.718 200ZM25.938 201.83C26.0647 202.257 26.2547 202.573 26.508 202.78C26.768 202.987 27.098 203.09 27.498 203.09C28.1114 203.09 28.5614 202.84 28.848 202.34C29.1347 201.84 29.278 201.06 29.278 200C29.278 199.833 29.2714 199.61 29.258 199.33L25.938 201.83ZM21.3661 218.93H23.3261V220H18.0661V218.93H20.2261V212.88L18.0661 214.28V213.06L19.7461 212H21.3661V218.93ZM28.368 218.93H30.328V220H25.068V218.93H27.228V212.88L25.068 214.28V213.06L26.748 212H28.368V218.93ZM21.3661 234.93H23.3261V236H18.0661V234.93H20.2261V228.88L18.0661 230.28V229.06L19.7461 228H21.3661V234.93ZM27.888 232.22C28.2747 231.927 28.558 231.63 28.738 231.33C28.918 231.03 29.008 230.703 29.008 230.35C29.008 229.903 28.8814 229.553 28.628 229.3C28.3747 229.04 28.0247 228.91 27.578 228.91C27.1514 228.91 26.8047 229.04 26.538 229.3C26.2714 229.56 26.088 229.94 25.988 230.44H24.888C24.9147 229.907 25.048 229.447 25.288 229.06C25.528 228.667 25.8447 228.367 26.238 228.16C26.638 227.947 27.0847 227.84 27.578 227.84C28.0914 227.84 28.5414 227.943 28.928 228.15C29.3147 228.357 29.6147 228.65 29.828 229.03C30.0414 229.41 30.148 229.85 30.148 230.35C30.148 231.383 29.6114 232.287 28.538 233.06L26.068 234.83V234.93H29.988V236H25.098V234.31L27.888 232.22ZM21.3661 250.93H23.3261V252H18.0661V250.93H20.2261V244.88L18.0661 246.28V245.06L19.7461 244H21.3661V250.93ZM30.148 249.87C30.148 250.317 30.038 250.713 29.818 251.06C29.598 251.407 29.2914 251.677 28.898 251.87C28.5047 252.063 28.0614 252.16 27.568 252.16C27.0414 252.16 26.578 252.06 26.178 251.86C25.778 251.66 25.4614 251.373 25.228 251C25.0014 250.62 24.8814 250.173 24.868 249.66H25.958C26.0247 250.12 26.198 250.473 26.478 250.72C26.758 250.967 27.118 251.09 27.558 251.09C27.9914 251.09 28.338 250.97 28.598 250.73C28.8647 250.49 28.998 250.177 28.998 249.79C28.998 249.397 28.8714 249.077 28.618 248.83C28.3647 248.583 28.0347 248.46 27.628 248.46H26.688V247.4H27.628C28.0547 247.4 28.398 247.287 28.658 247.06C28.918 246.833 29.048 246.54 29.048 246.18C29.048 245.8 28.9147 245.493 28.648 245.26C28.3814 245.027 28.0314 244.91 27.598 244.91C27.138 244.91 26.7647 245.04 26.478 245.3C26.1914 245.56 26.0014 245.94 25.908 246.44H24.818C24.8447 245.9 24.978 245.437 25.218 245.05C25.458 244.657 25.7814 244.357 26.188 244.15C26.6014 243.943 27.0747 243.84 27.608 243.84C28.1147 243.84 28.5614 243.933 28.948 244.12C29.3414 244.307 29.6447 244.57 29.858 244.91C30.0714 245.25 30.178 245.647 30.178 246.1C30.178 246.533 30.0647 246.903 29.838 247.21C29.6114 247.517 29.3047 247.72 28.918 247.82V247.98C29.298 248.08 29.598 248.3 29.818 248.64C30.038 248.98 30.148 249.39 30.148 249.87Z" fill="#747474"/>
<path d="M47.96 24.95C47.96 23.04 48.99 21.84 50.62 21.84C52.15 21.84 53.05 22.96 53.05 24.9C53.05 25.05 53.04 25.22 53.03 25.36H49.05C49.15 26.53 49.71 27.16 50.65 27.16C51.32 27.16 51.83 26.81 52.18 26.16H53.21C52.92 27.4 51.94 28.16 50.65 28.16C48.95 28.16 47.96 26.98 47.96 24.95ZM49.07 24.39H52C51.88 23.38 51.4 22.84 50.62 22.84C49.77 22.84 49.22 23.4 49.07 24.39ZM54.832 28L56.582 25.15L54.722 22H56.002L57.362 24.31L57.452 24.6H57.552L57.642 24.31L59.082 22H60.282L58.382 25.05L60.172 28H58.862L57.602 25.92L57.512 25.63H57.412L57.322 25.92L56.052 28H54.832ZM62.0439 30V22H63.1439V22.55H63.4439C63.7039 22.11 64.2739 21.84 64.9239 21.84C66.4139 21.84 67.3739 23.06 67.3739 25C67.3739 26.94 66.4139 28.16 64.9239 28.16C64.2739 28.16 63.7039 27.89 63.4439 27.45H63.1439V30H62.0439ZM63.1039 25C63.1039 26.34 63.6839 27.13 64.6939 27.13C65.6939 27.13 66.2739 26.34 66.2739 25C66.2739 23.66 65.6939 22.87 64.6939 22.87C63.6839 22.87 63.1039 23.66 63.1039 25ZM71.5059 28.16C69.8459 28.16 68.7859 26.94 68.7859 25C68.7859 23.06 69.8459 21.84 71.5059 21.84C73.1659 21.84 74.2259 23.06 74.2259 25C74.2259 26.94 73.1659 28.16 71.5059 28.16ZM69.8759 25C69.8759 26.34 70.4759 27.13 71.5059 27.13C72.5359 27.13 73.1359 26.34 73.1359 25C73.1359 23.66 72.5359 22.87 71.5059 22.87C70.4759 22.87 69.8759 23.66 69.8759 25ZM75.9578 22H78.2978V22.44H78.5978C78.8378 22.06 79.2678 21.84 79.7978 21.84C80.7678 21.84 81.3578 22.56 81.3578 23.73V24.6H80.2178V23.89C80.2178 23.22 79.9378 22.88 79.3978 22.88C78.7078 22.88 78.3678 23.5 78.3678 24.73V26.97H80.2278V28H76.1378V26.97H77.2678V23.03H75.9578V22ZM85.2398 20.44V22H87.9398V23.03H85.2398V26.03C85.2398 26.74 85.5398 27.13 86.0998 27.13C86.6798 27.13 86.9898 26.73 87.1498 25.9H88.1198C88.0598 27.36 87.3198 28.16 86.0598 28.16C84.8298 28.16 84.1398 27.4 84.1398 26.07V23.03H82.8198V22H84.1398V20.44H85.2398ZM99.6537 28.16C98.0137 28.16 96.9737 26.95 96.9737 25.03C96.9737 23.08 98.0537 21.84 99.7537 21.84C101.244 21.84 102.224 22.81 102.284 24.32H101.274C101.104 23.41 100.534 22.87 99.7137 22.87C98.6637 22.87 98.0637 23.67 98.0637 25.03C98.0637 26.36 98.6537 27.13 99.6537 27.13C100.394 27.13 100.924 26.66 101.134 25.86H102.144C102.044 27.26 101.034 28.16 99.6537 28.16ZM104.316 19.52H107.236V26.97H109.046V28H104.316V26.97H106.136V20.55H104.316V19.52ZM110.788 24.07C110.888 22.69 111.918 21.84 113.488 21.84C114.988 21.84 115.838 22.63 115.838 24.03V28H114.768V27.45H114.468C114.138 27.91 113.638 28.15 112.898 28.15C111.798 28.15 111.088 27.46 111.088 26.42C111.088 25.42 111.758 24.75 112.938 24.56L114.768 24.27V24.1C114.768 23.33 114.258 22.86 113.458 22.86C112.588 22.86 112.008 23.29 111.838 24.07H110.788ZM112.248 26.37C112.248 26.82 112.618 27.13 113.158 27.13C114.038 27.13 114.768 26.44 114.768 25.57V25.24L113.078 25.5C112.508 25.59 112.248 25.9 112.248 26.37ZM119.13 26.16C119.32 26.78 119.81 27.13 120.59 27.13C121.39 27.13 121.83 26.83 121.83 26.3C121.83 25.94 121.48 25.7 120.8 25.6L120.07 25.49C118.76 25.29 118.15 24.73 118.15 23.71C118.15 22.55 119.06 21.84 120.57 21.84C122.1 21.84 123.04 22.63 123.1 23.96H122.1C121.91 23.26 121.39 22.87 120.55 22.87C119.71 22.87 119.24 23.17 119.24 23.7C119.24 24.06 119.59 24.3 120.27 24.4L121 24.51C122.32 24.71 122.92 25.27 122.92 26.29C122.92 27.45 122.03 28.16 120.58 28.16C119.09 28.16 118.18 27.42 118.11 26.16H119.13ZM126.131 26.16C126.321 26.78 126.811 27.13 127.591 27.13C128.391 27.13 128.831 26.83 128.831 26.3C128.831 25.94 128.481 25.7 127.801 25.6L127.071 25.49C125.761 25.29 125.151 24.73 125.151 23.71C125.151 22.55 126.061 21.84 127.571 21.84C129.101 21.84 130.041 22.63 130.101 23.96H129.101C128.911 23.26 128.391 22.87 127.551 22.87C126.711 22.87 126.241 23.17 126.241 23.7C126.241 24.06 126.591 24.3 127.271 24.4L128.001 24.51C129.321 24.71 129.921 25.27 129.921 26.29C129.921 27.45 129.031 28.16 127.581 28.16C126.091 28.16 125.181 27.42 125.111 26.16H126.131ZM223.009 24.95C223.009 23.04 224.039 21.84 225.669 21.84C227.199 21.84 228.099 22.96 228.099 24.9C228.099 25.05 228.089 25.22 228.079 25.36H224.099C224.199 26.53 224.759 27.16 225.699 27.16C226.369 27.16 226.879 26.81 227.229 26.16H228.259C227.969 27.4 226.989 28.16 225.699 28.16C223.999 28.16 223.009 26.98 223.009 24.95ZM224.119 24.39H227.049C226.929 23.38 226.449 22.84 225.669 22.84C224.819 22.84 224.269 23.4 224.119 24.39ZM229.881 28L231.631 25.15L229.771 22H231.051L232.411 24.31L232.501 24.6H232.601L232.691 24.31L234.131 22H235.331L233.431 25.05L235.221 28H233.911L232.651 25.92L232.561 25.63H232.461L232.371 25.92L231.101 28H229.881ZM239.283 20.44V22H241.983V23.03H239.283V26.03C239.283 26.74 239.583 27.13 240.143 27.13C240.723 27.13 241.033 26.73 241.193 25.9H242.163C242.103 27.36 241.363 28.16 240.103 28.16C238.873 28.16 238.183 27.4 238.183 26.07V23.03H236.863V22H238.183V20.44H239.283ZM244.015 24.95C244.015 23.04 245.045 21.84 246.675 21.84C248.205 21.84 249.105 22.96 249.105 24.9C249.105 25.05 249.095 25.22 249.085 25.36H245.105C245.205 26.53 245.765 27.16 246.705 27.16C247.375 27.16 247.885 26.81 248.235 26.16H249.265C248.975 27.4 247.995 28.16 246.705 28.16C245.005 28.16 244.015 26.98 244.015 24.95ZM245.125 24.39H248.055C247.935 23.38 247.455 22.84 246.675 22.84C245.825 22.84 245.275 23.4 245.125 24.39ZM251.187 28V22H252.287V22.45H252.587C252.887 22.06 253.387 21.84 253.967 21.84C255.217 21.84 256.037 22.73 256.037 24.11V28H254.937V24.41C254.937 23.42 254.477 22.89 253.617 22.89C252.747 22.89 252.287 23.42 252.287 24.41V28H251.187ZM260.139 28.16C258.649 28.16 257.689 26.94 257.689 25C257.689 23.06 258.649 21.84 260.139 21.84C260.789 21.84 261.359 22.11 261.619 22.55H261.919V19.52H263.019V28H261.919V27.45H261.619C261.359 27.89 260.789 28.16 260.139 28.16ZM258.789 25C258.789 26.34 259.369 27.13 260.369 27.13C261.379 27.13 261.959 26.34 261.959 25C261.959 23.66 261.379 22.87 260.369 22.87C259.369 22.87 258.789 23.66 258.789 25ZM266.171 26.16C266.361 26.78 266.851 27.13 267.631 27.13C268.431 27.13 268.871 26.83 268.871 26.3C268.871 25.94 268.521 25.7 267.841 25.6L267.111 25.49C265.801 25.29 265.191 24.73 265.191 23.71C265.191 22.55 266.101 21.84 267.611 21.84C269.141 21.84 270.081 22.63 270.141 23.96H269.141C268.951 23.26 268.431 22.87 267.591 22.87C266.751 22.87 266.281 23.17 266.281 23.7C266.281 24.06 266.631 24.3 267.311 24.4L268.041 24.51C269.361 24.71 269.961 25.27 269.961 26.29C269.961 27.45 269.071 28.16 267.621 28.16C266.131 28.16 265.221 27.42 265.151 26.16H266.171ZM61.7739 40.07C61.8739 38.69 62.9039 37.84 64.4739 37.84C65.9739 37.84 66.8239 38.63 66.8239 40.03V44H65.7539V43.45H65.4539C65.1239 43.91 64.6239 44.15 63.8839 44.15C62.7839 44.15 62.0739 43.46 62.0739 42.42C62.0739 41.42 62.7439 40.75 63.9239 40.56L65.7539 40.27V40.1C65.7539 39.33 65.2439 38.86 64.4439 38.86C63.5739 38.86 62.9939 39.29 62.8239 40.07H61.7739ZM63.2339 42.37C63.2339 42.82 63.6039 43.13 64.1439 43.13C65.0239 43.13 65.7539 42.44 65.7539 41.57V41.24L64.0639 41.5C63.4939 41.59 63.2339 41.9 63.2339 42.37ZM70.1159 42.16C70.3059 42.78 70.7959 43.13 71.5759 43.13C72.3759 43.13 72.8159 42.83 72.8159 42.3C72.8159 41.94 72.4659 41.7 71.7859 41.6L71.0559 41.49C69.7459 41.29 69.1359 40.73 69.1359 39.71C69.1359 38.55 70.0459 37.84 71.5559 37.84C73.0859 37.84 74.0259 38.63 74.0859 39.96H73.0859C72.8959 39.26 72.3759 38.87 71.5359 38.87C70.6959 38.87 70.2259 39.17 70.2259 39.7C70.2259 40.06 70.5759 40.3 71.2559 40.4L71.9859 40.51C73.3059 40.71 73.9059 41.27 73.9059 42.29C73.9059 43.45 73.0159 44.16 71.5659 44.16C70.0759 44.16 69.1659 43.42 69.0959 42.16H70.1159ZM75.6878 38H76.8678L78.4078 42.49H78.8178L80.2478 38H81.3378L79.1278 44.87C78.8678 45.68 78.2978 46.16 77.5978 46.16C76.5778 46.16 75.9778 45.58 75.8978 44.52H76.8978C77.0578 44.96 77.2278 45.15 77.5578 45.15C77.8478 45.15 78.0078 44.98 78.1578 44.55L78.4978 43.5H77.5978L75.6878 38ZM83.1398 44V38H84.2398V38.45H84.5398C84.8398 38.06 85.3398 37.84 85.9198 37.84C87.1698 37.84 87.9898 38.73 87.9898 40.11V44H86.8898V40.41C86.8898 39.42 86.4298 38.89 85.5698 38.89C84.6998 38.89 84.2398 39.42 84.2398 40.41V44H83.1398ZM92.6517 44.16C91.0117 44.16 89.9717 42.95 89.9717 41.03C89.9717 39.08 91.0517 37.84 92.7517 37.84C94.2417 37.84 95.2217 38.81 95.2817 40.32H94.2717C94.1017 39.41 93.5317 38.87 92.7117 38.87C91.6617 38.87 91.0617 39.67 91.0617 41.03C91.0617 42.36 91.6517 43.13 92.6517 43.13C93.3917 43.13 93.9217 42.66 94.1317 41.86H95.1417C95.0417 43.26 94.0317 44.16 92.6517 44.16ZM78.6478 60.16C77.0078 60.16 75.9678 58.95 75.9678 57.03C75.9678 55.08 77.0478 53.84 78.7478 53.84C80.2378 53.84 81.2178 54.81 81.2778 56.32H80.2678C80.0978 55.41 79.5278 54.87 78.7078 54.87C77.6578 54.87 77.0578 55.67 77.0578 57.03C77.0578 58.36 77.6478 59.13 78.6478 59.13C79.3878 59.13 79.9178 58.66 80.1278 57.86H81.1378C81.0378 59.26 80.0278 60.16 78.6478 60.16ZM85.5098 60.16C83.8498 60.16 82.7898 58.94 82.7898 57C82.7898 55.06 83.8498 53.84 85.5098 53.84C87.1698 53.84 88.2298 55.06 88.2298 57C88.2298 58.94 87.1698 60.16 85.5098 60.16ZM83.8798 57C83.8798 58.34 84.4798 59.13 85.5098 59.13C86.5398 59.13 87.1398 58.34 87.1398 57C87.1398 55.66 86.5398 54.87 85.5098 54.87C84.4798 54.87 83.8798 55.66 83.8798 57ZM90.1417 60V54H91.2417V54.45H91.5417C91.8417 54.06 92.3417 53.84 92.9217 53.84C94.1717 53.84 94.9917 54.73 94.9917 56.11V60H93.8917V56.41C93.8917 55.42 93.4317 54.89 92.5717 54.89C91.7017 54.89 91.2417 55.42 91.2417 56.41V60H90.1417ZM98.1237 58.16C98.3137 58.78 98.8037 59.13 99.5837 59.13C100.384 59.13 100.824 58.83 100.824 58.3C100.824 57.94 100.474 57.7 99.7937 57.6L99.0637 57.49C97.7537 57.29 97.1437 56.73 97.1437 55.71C97.1437 54.55 98.0537 53.84 99.5637 53.84C101.094 53.84 102.034 54.63 102.094 55.96H101.094C100.904 55.26 100.384 54.87 99.5437 54.87C98.7037 54.87 98.2337 55.17 98.2337 55.7C98.2337 56.06 98.5837 56.3 99.2637 56.4L99.9937 56.51C101.314 56.71 101.914 57.27 101.914 58.29C101.914 59.45 101.024 60.16 99.5737 60.16C98.0837 60.16 97.1737 59.42 97.1037 58.16H98.1237ZM106.246 52.44V54H108.946V55.03H106.246V58.03C106.246 58.74 106.546 59.13 107.106 59.13C107.686 59.13 107.996 58.73 108.156 57.9H109.126C109.066 59.36 108.326 60.16 107.066 60.16C105.836 60.16 105.146 59.4 105.146 58.07V55.03H103.826V54H105.146V52.44H106.246ZM78.6478 76.16C77.0078 76.16 75.9678 74.95 75.9678 73.03C75.9678 71.08 77.0478 69.84 78.7478 69.84C80.2378 69.84 81.2178 70.81 81.2778 72.32H80.2678C80.0978 71.41 79.5278 70.87 78.7078 70.87C77.6578 70.87 77.0578 71.67 77.0578 73.03C77.0578 74.36 77.6478 75.13 78.6478 75.13C79.3878 75.13 79.9178 74.66 80.1278 73.86H81.1378C81.0378 75.26 80.0278 76.16 78.6478 76.16ZM85.5098 76.16C83.8498 76.16 82.7898 74.94 82.7898 73C82.7898 71.06 83.8498 69.84 85.5098 69.84C87.1698 69.84 88.2298 71.06 88.2298 73C88.2298 74.94 87.1698 76.16 85.5098 76.16ZM83.8798 73C83.8798 74.34 84.4798 75.13 85.5098 75.13C86.5398 75.13 87.1398 74.34 87.1398 73C87.1398 71.66 86.5398 70.87 85.5098 70.87C84.4798 70.87 83.8798 71.66 83.8798 73ZM90.1417 76V70H91.2417V70.45H91.5417C91.8417 70.06 92.3417 69.84 92.9217 69.84C94.1717 69.84 94.9917 70.73 94.9917 72.11V76H93.8917V72.41C93.8917 71.42 93.4317 70.89 92.5717 70.89C91.7017 70.89 91.2417 71.42 91.2417 72.41V76H90.1417ZM98.1237 74.16C98.3137 74.78 98.8037 75.13 99.5837 75.13C100.384 75.13 100.824 74.83 100.824 74.3C100.824 73.94 100.474 73.7 99.7937 73.6L99.0637 73.49C97.7537 73.29 97.1437 72.73 97.1437 71.71C97.1437 70.55 98.0537 69.84 99.5637 69.84C101.094 69.84 102.034 70.63 102.094 71.96H101.094C100.904 71.26 100.384 70.87 99.5437 70.87C98.7037 70.87 98.2337 71.17 98.2337 71.7C98.2337 72.06 98.5837 72.3 99.2637 72.4L99.9937 72.51C101.314 72.71 101.914 73.27 101.914 74.29C101.914 75.45 101.024 76.16 99.5737 76.16C98.0837 76.16 97.1737 75.42 97.1037 74.16H98.1237ZM106.246 68.44V70H108.946V71.03H106.246V74.03C106.246 74.74 106.546 75.13 107.106 75.13C107.686 75.13 107.996 74.73 108.156 73.9H109.126C109.066 75.36 108.326 76.16 107.066 76.16C105.836 76.16 105.146 75.4 105.146 74.07V71.03H103.826V70H105.146V68.44H106.246ZM78.6478 108.16C77.0078 108.16 75.9678 106.95 75.9678 105.03C75.9678 103.08 77.0478 101.84 78.7478 101.84C80.2378 101.84 81.2178 102.81 81.2778 104.32H80.2678C80.0978 103.41 79.5278 102.87 78.7078 102.87C77.6578 102.87 77.0578 103.67 77.0578 105.03C77.0578 106.36 77.6478 107.13 78.6478 107.13C79.3878 107.13 79.9178 106.66 80.1278 105.86H81.1378C81.0378 107.26 80.0278 108.16 78.6478 108.16ZM85.5098 108.16C83.8498 108.16 82.7898 106.94 82.7898 105C82.7898 103.06 83.8498 101.84 85.5098 101.84C87.1698 101.84 88.2298 103.06 88.2298 105C88.2298 106.94 87.1698 108.16 85.5098 108.16ZM83.8798 105C83.8798 106.34 84.4798 107.13 85.5098 107.13C86.5398 107.13 87.1398 106.34 87.1398 105C87.1398 103.66 86.5398 102.87 85.5098 102.87C84.4798 102.87 83.8798 103.66 83.8798 105ZM90.1417 108V102H91.2417V102.45H91.5417C91.8417 102.06 92.3417 101.84 92.9217 101.84C94.1717 101.84 94.9917 102.73 94.9917 104.11V108H93.8917V104.41C93.8917 103.42 93.4317 102.89 92.5717 102.89C91.7017 102.89 91.2417 103.42 91.2417 104.41V108H90.1417ZM98.1237 106.16C98.3137 106.78 98.8037 107.13 99.5837 107.13C100.384 107.13 100.824 106.83 100.824 106.3C100.824 105.94 100.474 105.7 99.7937 105.6L99.0637 105.49C97.7537 105.29 97.1437 104.73 97.1437 103.71C97.1437 102.55 98.0537 101.84 99.5637 101.84C101.094 101.84 102.034 102.63 102.094 103.96H101.094C100.904 103.26 100.384 102.87 99.5437 102.87C98.7037 102.87 98.2337 103.17 98.2337 103.7C98.2337 104.06 98.5837 104.3 99.2637 104.4L99.9937 104.51C101.314 104.71 101.914 105.27 101.914 106.29C101.914 107.45 101.024 108.16 99.5737 108.16C98.0837 108.16 97.1737 107.42 97.1037 106.16H98.1237ZM106.246 100.44V102H108.946V103.03H106.246V106.03C106.246 106.74 106.546 107.13 107.106 107.13C107.686 107.13 107.996 106.73 108.156 105.9H109.126C109.066 107.36 108.326 108.16 107.066 108.16C105.836 108.16 105.146 107.4 105.146 106.07V103.03H103.826V102H105.146V100.44H106.246ZM75.7778 200.07C75.8778 198.69 76.9078 197.84 78.4778 197.84C79.9778 197.84 80.8278 198.63 80.8278 200.03V204H79.7578V203.45H79.4578C79.1278 203.91 78.6278 204.15 77.8878 204.15C76.7878 204.15 76.0778 203.46 76.0778 202.42C76.0778 201.42 76.7478 200.75 77.9278 200.56L79.7578 200.27V200.1C79.7578 199.33 79.2478 198.86 78.4478 198.86C77.5778 198.86 76.9978 199.29 76.8278 200.07H75.7778ZM77.2378 202.37C77.2378 202.82 77.6078 203.13 78.1478 203.13C79.0278 203.13 79.7578 202.44 79.7578 201.57V201.24L78.0678 201.5C77.4978 201.59 77.2378 201.9 77.2378 202.37ZM83.3798 204L82.3098 198H83.4098L83.9098 201.2L84.1198 203.2H84.2198L84.7898 198H86.3098L86.8998 203.2H86.9998L87.1998 201.2L87.7098 198H88.7098L87.6398 204H86.1498L85.5598 198.77H85.4598L84.8898 204H83.3798ZM89.7817 200.07C89.8817 198.69 90.9117 197.84 92.4817 197.84C93.9817 197.84 94.8317 198.63 94.8317 200.03V204H93.7617V203.45H93.4617C93.1317 203.91 92.6317 204.15 91.8917 204.15C90.7917 204.15 90.0817 203.46 90.0817 202.42C90.0817 201.42 90.7517 200.75 91.9317 200.56L93.7617 200.27V200.1C93.7617 199.33 93.2517 198.86 92.4517 198.86C91.5817 198.86 91.0017 199.29 90.8317 200.07H89.7817ZM91.2417 202.37C91.2417 202.82 91.6117 203.13 92.1517 203.13C93.0317 203.13 93.7617 202.44 93.7617 201.57V201.24L92.0717 201.5C91.5017 201.59 91.2417 201.9 91.2417 202.37ZM97.4637 198H100.384V202.97H102.194V204H97.4637V202.97H99.2837V199.03H97.4637V198ZM98.9237 196.3C98.9237 195.79 99.2337 195.49 99.7537 195.49C100.274 195.49 100.584 195.79 100.584 196.3C100.584 196.81 100.274 197.11 99.7537 197.11C99.2337 197.11 98.9237 196.81 98.9237 196.3ZM106.246 196.44V198H108.946V199.03H106.246V202.03C106.246 202.74 106.546 203.13 107.106 203.13C107.686 203.13 107.996 202.73 108.156 201.9H109.126C109.066 203.36 108.326 204.16 107.066 204.16C105.836 204.16 105.146 203.4 105.146 202.07V199.03H103.826V198H105.146V196.44H106.246Z" fill="#E67F74"/>
<path d="M339.91 19.8C338.79 19.91 338.31 20.27 338.31 20.99C338.31 21.47 338.51 21.91 338.51 22.5C338.51 23.28 337.99 23.89 337.15 24.1V24.3C337.99 24.51 338.51 25.12 338.51 25.9C338.51 26.49 338.31 26.93 338.31 27.41C338.31 28.13 338.79 28.49 339.91 28.6V29.52C338.13 29.47 337.25 28.78 337.25 27.41C337.25 26.9 337.45 26.51 337.45 26.02C337.45 25.29 337.01 24.9 335.98 24.74V23.66C337.01 23.5 337.45 23.11 337.45 22.38C337.45 21.89 337.25 21.5 337.25 20.99C337.25 19.62 338.13 18.93 339.91 18.88V19.8ZM143.555 35.8C142.085 36.32 141.325 37.81 141.325 40.2C141.325 42.59 142.085 44.08 143.555 44.6V45.6C141.355 45.08 140.225 43.24 140.225 40.2C140.225 37.16 141.355 35.32 143.555 34.8V35.8ZM146.157 44V35.52H147.257V38.45H147.557C147.857 38.06 148.357 37.84 148.937 37.84C150.187 37.84 151.007 38.73 151.007 40.11V44H149.907V40.41C149.907 39.42 149.447 38.89 148.587 38.89C147.717 38.89 147.257 39.42 147.257 40.41V44H146.157ZM152.799 40.07C152.899 38.69 153.929 37.84 155.499 37.84C156.999 37.84 157.849 38.63 157.849 40.03V44H156.779V43.45H156.479C156.149 43.91 155.649 44.15 154.909 44.15C153.809 44.15 153.099 43.46 153.099 42.42C153.099 41.42 153.769 40.75 154.949 40.56L156.779 40.27V40.1C156.779 39.33 156.269 38.86 155.469 38.86C154.599 38.86 154.019 39.29 153.849 40.07H152.799ZM154.259 42.37C154.259 42.82 154.629 43.13 155.169 43.13C156.049 43.13 156.779 42.44 156.779 41.57V41.24L155.089 41.5C154.519 41.59 154.259 41.9 154.259 42.37ZM160.161 44V38H161.261V38.45H161.561C161.861 38.06 162.361 37.84 162.941 37.84C164.191 37.84 165.011 38.73 165.011 40.11V44H163.911V40.41C163.911 39.42 163.451 38.89 162.591 38.89C161.721 38.89 161.261 39.42 161.261 40.41V44H160.161ZM169.113 44.16C167.623 44.16 166.663 42.94 166.663 41C166.663 39.06 167.623 37.84 169.113 37.84C169.763 37.84 170.333 38.11 170.593 38.55H170.893V35.52H171.993V44H170.893V43.45H170.593C170.333 43.89 169.763 44.16 169.113 44.16ZM167.763 41C167.763 42.34 168.343 43.13 169.343 43.13C170.353 43.13 170.933 42.34 170.933 41C170.933 39.66 170.353 38.87 169.343 38.87C168.343 38.87 167.763 39.66 167.763 41ZM174.335 35.52H177.255V42.97H179.065V44H174.335V42.97H176.155V36.55H174.335V35.52ZM180.997 40.95C180.997 39.04 182.027 37.84 183.657 37.84C185.187 37.84 186.087 38.96 186.087 40.9C186.087 41.05 186.077 41.22 186.067 41.36H182.087C182.187 42.53 182.747 43.16 183.687 43.16C184.357 43.16 184.867 42.81 185.217 42.16H186.247C185.957 43.4 184.977 44.16 183.687 44.16C181.987 44.16 180.997 42.98 180.997 40.95ZM182.107 40.39H185.037C184.917 39.38 184.437 38.84 183.657 38.84C182.807 38.84 182.257 39.4 182.107 40.39ZM189.499 45.8C189.969 45.42 190.379 44.75 190.519 44.08C189.939 44.07 189.619 43.72 189.619 43.12C189.619 42.52 189.949 42.17 190.539 42.17C191.239 42.17 191.559 42.56 191.559 43.39C191.559 44.29 191.309 45.24 190.919 45.8H189.499ZM202.083 46V38H203.183V38.55H203.483C203.743 38.11 204.313 37.84 204.963 37.84C206.453 37.84 207.413 39.06 207.413 41C207.413 42.94 206.453 44.16 204.963 44.16C204.313 44.16 203.743 43.89 203.483 43.45H203.183V46H202.083ZM203.143 41C203.143 42.34 203.723 43.13 204.733 43.13C205.733 43.13 206.313 42.34 206.313 41C206.313 39.66 205.733 38.87 204.733 38.87C203.723 38.87 203.143 39.66 203.143 41ZM208.815 40.07C208.915 38.69 209.945 37.84 211.515 37.84C213.015 37.84 213.865 38.63 213.865 40.03V44H212.795V43.45H212.495C212.165 43.91 211.665 44.15 210.925 44.15C209.825 44.15 209.115 43.46 209.115 42.42C209.115 41.42 209.785 40.75 210.965 40.56L212.795 40.27V40.1C212.795 39.33 212.285 38.86 211.485 38.86C210.615 38.86 210.035 39.29 209.865 40.07H208.815ZM210.275 42.37C210.275 42.82 210.645 43.13 211.185 43.13C212.065 43.13 212.795 42.44 212.795 41.57V41.24L211.105 41.5C210.535 41.59 210.275 41.9 210.275 42.37ZM215.997 38H218.337V38.44H218.637C218.877 38.06 219.307 37.84 219.837 37.84C220.807 37.84 221.397 38.56 221.397 39.73V40.6H220.257V39.89C220.257 39.22 219.977 38.88 219.437 38.88C218.747 38.88 218.407 39.5 218.407 40.73V42.97H220.267V44H216.177V42.97H217.307V39.03H215.997V38ZM222.819 40.07C222.919 38.69 223.949 37.84 225.519 37.84C227.019 37.84 227.869 38.63 227.869 40.03V44H226.799V43.45H226.499C226.169 43.91 225.669 44.15 224.929 44.15C223.829 44.15 223.119 43.46 223.119 42.42C223.119 41.42 223.789 40.75 224.969 40.56L226.799 40.27V40.1C226.799 39.33 226.289 38.86 225.489 38.86C224.619 38.86 224.039 39.29 223.869 40.07H222.819ZM224.279 42.37C224.279 42.82 224.649 43.13 225.189 43.13C226.069 43.13 226.799 42.44 226.799 41.57V41.24L225.109 41.5C224.539 41.59 224.279 41.9 224.279 42.37ZM229.811 38H230.911V38.48H231.171C231.301 38.08 231.621 37.84 232.061 37.84C232.461 37.84 232.781 38.1 232.941 38.53H233.201C233.341 38.1 233.701 37.84 234.181 37.84C234.881 37.84 235.331 38.47 235.331 39.44V44H234.281V39.87C234.281 39.33 234.081 39.05 233.681 39.05C233.291 39.05 233.091 39.33 233.091 39.87V44H232.051V39.87C232.051 39.33 231.851 39.05 231.461 39.05C231.061 39.05 230.861 39.33 230.861 39.87V44H229.811V38ZM238.163 42.16C238.353 42.78 238.843 43.13 239.623 43.13C240.423 43.13 240.863 42.83 240.863 42.3C240.863 41.94 240.513 41.7 239.833 41.6L239.103 41.49C237.793 41.29 237.183 40.73 237.183 39.71C237.183 38.55 238.093 37.84 239.603 37.84C241.133 37.84 242.073 38.63 242.133 39.96H241.133C240.943 39.26 240.423 38.87 239.583 38.87C238.743 38.87 238.273 39.17 238.273 39.7C238.273 40.06 238.623 40.3 239.303 40.4L240.033 40.51C241.353 40.71 241.953 41.27 241.953 42.29C241.953 43.45 241.063 44.16 239.613 44.16C238.123 44.16 237.213 43.42 237.143 42.16H238.163ZM245.515 45.8C245.985 45.42 246.395 44.75 246.535 44.08C245.955 44.07 245.635 43.72 245.635 43.12C245.635 42.52 245.965 42.17 246.555 42.17C247.255 42.17 247.575 42.56 247.575 43.39C247.575 44.29 247.325 45.24 246.935 45.8H245.515ZM260.139 44.16C258.649 44.16 257.689 42.94 257.689 41C257.689 39.06 258.649 37.84 260.139 37.84C260.789 37.84 261.359 38.11 261.619 38.55H261.919V35.52H263.019V44H261.919V43.45H261.619C261.359 43.89 260.789 44.16 260.139 44.16ZM258.789 41C258.789 42.34 259.369 43.13 260.369 43.13C261.379 43.13 261.959 42.34 261.959 41C261.959 39.66 261.379 38.87 260.369 38.87C259.369 38.87 258.789 39.66 258.789 41ZM264.831 40.07C264.931 38.69 265.961 37.84 267.531 37.84C269.031 37.84 269.881 38.63 269.881 40.03V44H268.811V43.45H268.511C268.181 43.91 267.681 44.15 266.941 44.15C265.841 44.15 265.131 43.46 265.131 42.42C265.131 41.42 265.801 40.75 266.981 40.56L268.811 40.27V40.1C268.811 39.33 268.301 38.86 267.501 38.86C266.631 38.86 266.051 39.29 265.881 40.07H264.831ZM266.291 42.37C266.291 42.82 266.661 43.13 267.201 43.13C268.081 43.13 268.811 42.44 268.811 41.57V41.24L267.121 41.5C266.551 41.59 266.291 41.9 266.291 42.37ZM274.293 36.44V38H276.993V39.03H274.293V42.03C274.293 42.74 274.593 43.13 275.153 43.13C275.733 43.13 276.043 42.73 276.202 41.9H277.173C277.113 43.36 276.373 44.16 275.113 44.16C273.883 44.16 273.193 43.4 273.193 42.07V39.03H271.873V38H273.193V36.44H274.293ZM278.834 40.07C278.934 38.69 279.964 37.84 281.534 37.84C283.034 37.84 283.884 38.63 283.884 40.03V44H282.814V43.45H282.514C282.184 43.91 281.684 44.15 280.944 44.15C279.844 44.15 279.134 43.46 279.134 42.42C279.134 41.42 279.804 40.75 280.984 40.56L282.814 40.27V40.1C282.814 39.33 282.304 38.86 281.504 38.86C280.634 38.86 280.054 39.29 279.884 40.07H278.834ZM280.294 42.37C280.294 42.82 280.664 43.13 281.204 43.13C282.084 43.13 282.814 42.44 282.814 41.57V41.24L281.124 41.5C280.554 41.59 280.294 41.9 280.294 42.37ZM286.536 34.8C288.736 35.32 289.866 37.16 289.866 40.2C289.866 43.24 288.736 45.08 286.536 45.6V44.6C288.006 44.08 288.766 42.59 288.766 40.2C288.766 37.81 288.006 36.32 286.536 35.8V34.8ZM304.9 35.8C303.78 35.91 303.3 36.27 303.3 36.99C303.3 37.47 303.5 37.91 303.5 38.5C303.5 39.28 302.98 39.89 302.14 40.1V40.3C302.98 40.51 303.5 41.12 303.5 41.9C303.5 42.49 303.3 42.93 303.3 43.41C303.3 44.13 303.78 44.49 304.9 44.6V45.52C303.12 45.47 302.24 44.78 302.24 43.41C302.24 42.9 302.44 42.51 302.44 42.02C302.44 41.29 302 40.9 300.97 40.74V39.66C302 39.5 302.44 39.11 302.44 38.38C302.44 37.89 302.24 37.5 302.24 36.99C302.24 35.62 303.12 34.93 304.9 34.88V35.8ZM122.85 51.8C121.73 51.91 121.25 52.27 121.25 52.99C121.25 53.47 121.45 53.91 121.45 54.5C121.45 55.28 120.93 55.89 120.09 56.1V56.3C120.93 56.51 121.45 57.12 121.45 57.9C121.45 58.49 121.25 58.93 121.25 59.41C121.25 60.13 121.73 60.49 122.85 60.6V61.52C121.07 61.47 120.19 60.78 120.19 59.41C120.19 58.9 120.39 58.51 120.39 58.02C120.39 57.29 119.95 56.9 118.92 56.74V55.66C119.95 55.5 120.39 55.11 120.39 54.38C120.39 53.89 120.19 53.5 120.19 52.99C120.19 51.62 121.07 50.93 122.85 50.88V51.8ZM131.783 54H132.883V54.48H133.143C133.273 54.08 133.593 53.84 134.033 53.84C134.433 53.84 134.753 54.1 134.913 54.53H135.173C135.313 54.1 135.673 53.84 136.153 53.84C136.853 53.84 137.303 54.47 137.303 55.44V60H136.253V55.87C136.253 55.33 136.053 55.05 135.653 55.05C135.263 55.05 135.063 55.33 135.063 55.87V60H134.023V55.87C134.023 55.33 133.823 55.05 133.433 55.05C133.033 55.05 132.833 55.33 132.833 55.87V60H131.783V54ZM138.985 56.95C138.985 55.04 140.015 53.84 141.645 53.84C143.175 53.84 144.075 54.96 144.075 56.9C144.075 57.05 144.065 57.22 144.055 57.36H140.075C140.175 58.53 140.735 59.16 141.675 59.16C142.345 59.16 142.855 58.81 143.205 58.16H144.235C143.945 59.4 142.965 60.16 141.675 60.16C139.975 60.16 138.985 58.98 138.985 56.95ZM140.095 56.39H143.025C142.905 55.38 142.425 54.84 141.645 54.84C140.795 54.84 140.245 55.4 140.095 56.39ZM147.137 58.16C147.327 58.78 147.817 59.13 148.597 59.13C149.397 59.13 149.837 58.83 149.837 58.3C149.837 57.94 149.487 57.7 148.807 57.6L148.077 57.49C146.767 57.29 146.157 56.73 146.157 55.71C146.157 54.55 147.067 53.84 148.577 53.84C150.107 53.84 151.047 54.63 151.107 55.96H150.107C149.917 55.26 149.397 54.87 148.557 54.87C147.717 54.87 147.247 55.17 147.247 55.7C147.247 56.06 147.597 56.3 148.277 56.4L149.007 56.51C150.327 56.71 150.927 57.27 150.927 58.29C150.927 59.45 150.037 60.16 148.587 60.16C147.097 60.16 146.187 59.42 146.117 58.16H147.137ZM154.139 58.16C154.329 58.78 154.819 59.13 155.599 59.13C156.399 59.13 156.839 58.83 156.839 58.3C156.839 57.94 156.489 57.7 155.809 57.6L155.079 57.49C153.769 57.29 153.159 56.73 153.159 55.71C153.159 54.55 154.069 53.84 155.579 53.84C157.109 53.84 158.049 54.63 158.109 55.96H157.109C156.919 55.26 156.399 54.87 155.559 54.87C154.719 54.87 154.249 55.17 154.249 55.7C154.249 56.06 154.599 56.3 155.279 56.4L156.009 56.51C157.329 56.71 157.929 57.27 157.929 58.29C157.929 59.45 157.039 60.16 155.589 60.16C154.099 60.16 153.189 59.42 153.119 58.16H154.139ZM159.801 56.07C159.901 54.69 160.931 53.84 162.501 53.84C164.001 53.84 164.851 54.63 164.851 56.03V60H163.781V59.45H163.481C163.151 59.91 162.651 60.15 161.911 60.15C160.811 60.15 160.101 59.46 160.101 58.42C160.101 57.42 160.771 56.75 161.951 56.56L163.781 56.27V56.1C163.781 55.33 163.271 54.86 162.471 54.86C161.601 54.86 161.021 55.29 160.851 56.07H159.801ZM161.261 58.37C161.261 58.82 161.631 59.13 162.171 59.13C163.051 59.13 163.781 58.44 163.781 57.57V57.24L162.091 57.5C161.521 57.59 161.261 57.9 161.261 58.37ZM172.013 59.8C172.013 61.25 171.033 62.16 169.393 62.16C167.873 62.16 166.863 61.42 166.803 60.23H167.853C168.063 60.82 168.613 61.16 169.393 61.16C170.343 61.16 170.913 60.63 170.913 59.73V59.09H170.613C170.343 59.48 169.793 59.72 169.213 59.72C167.753 59.72 166.823 58.59 166.823 56.8C166.823 54.98 167.753 53.84 169.213 53.84C169.813 53.84 170.363 54.1 170.613 54.5H170.913V54H172.013V59.8ZM167.913 56.8C167.913 58.02 168.483 58.73 169.443 58.73C170.413 58.73 170.983 58.02 170.983 56.8C170.983 55.58 170.413 54.87 169.443 54.87C168.483 54.87 167.913 55.58 167.913 56.8ZM173.995 56.95C173.995 55.04 175.025 53.84 176.655 53.84C178.185 53.84 179.085 54.96 179.085 56.9C179.085 57.05 179.075 57.22 179.065 57.36H175.085C175.185 58.53 175.745 59.16 176.685 59.16C177.355 59.16 177.865 58.81 178.215 58.16H179.245C178.955 59.4 177.975 60.16 176.685 60.16C174.985 60.16 173.995 58.98 173.995 56.95ZM175.105 56.39H178.035C177.915 55.38 177.435 54.84 176.655 54.84C175.805 54.84 175.255 55.4 175.105 56.39ZM188.209 50.88C189.989 50.93 190.869 51.62 190.869 52.99C190.869 53.5 190.669 53.89 190.669 54.38C190.669 55.11 191.109 55.5 192.139 55.66V56.74C191.109 56.9 190.669 57.29 190.669 58.02C190.669 58.51 190.869 58.9 190.869 59.41C190.869 60.78 189.989 61.47 188.209 61.52V60.6C189.329 60.49 189.809 60.13 189.809 59.41C189.809 58.93 189.609 58.49 189.609 57.9C189.609 57.12 190.129 56.51 190.969 56.3V56.1C190.129 55.89 189.609 55.28 189.609 54.5C189.609 53.91 189.809 53.47 189.809 52.99C189.809 52.27 189.329 51.91 188.209 51.8V50.88ZM218.127 60.16C216.637 60.16 215.677 58.94 215.677 57C215.677 55.06 216.637 53.84 218.127 53.84C218.777 53.84 219.347 54.11 219.607 54.55H219.907V51.52H221.007V60H219.907V59.45H219.607C219.347 59.89 218.777 60.16 218.127 60.16ZM216.777 57C216.777 58.34 217.357 59.13 218.357 59.13C219.367 59.13 219.947 58.34 219.947 57C219.947 55.66 219.367 54.87 218.357 54.87C217.357 54.87 216.777 55.66 216.777 57ZM222.819 56.07C222.919 54.69 223.949 53.84 225.519 53.84C227.019 53.84 227.869 54.63 227.869 56.03V60H226.799V59.45H226.499C226.169 59.91 225.669 60.15 224.929 60.15C223.829 60.15 223.119 59.46 223.119 58.42C223.119 57.42 223.789 56.75 224.969 56.56L226.799 56.27V56.1C226.799 55.33 226.289 54.86 225.489 54.86C224.619 54.86 224.039 55.29 223.869 56.07H222.819ZM224.279 58.37C224.279 58.82 224.649 59.13 225.189 59.13C226.069 59.13 226.799 58.44 226.799 57.57V57.24L225.109 57.5C224.539 57.59 224.279 57.9 224.279 58.37ZM232.281 52.44V54H234.981V55.03H232.281V58.03C232.281 58.74 232.581 59.13 233.141 59.13C233.721 59.13 234.031 58.73 234.191 57.9H235.161C235.101 59.36 234.361 60.16 233.101 60.16C231.871 60.16 231.181 59.4 231.181 58.07V55.03H229.861V54H231.181V52.44H232.281ZM236.823 56.07C236.923 54.69 237.953 53.84 239.523 53.84C241.023 53.84 241.873 54.63 241.873 56.03V60H240.803V59.45H240.503C240.173 59.91 239.673 60.15 238.933 60.15C237.833 60.15 237.123 59.46 237.123 58.42C237.123 57.42 237.793 56.75 238.973 56.56L240.803 56.27V56.1C240.803 55.33 240.293 54.86 239.493 54.86C238.623 54.86 238.043 55.29 237.873 56.07H236.823ZM238.283 58.37C238.283 58.82 238.653 59.13 239.193 59.13C240.073 59.13 240.803 58.44 240.803 57.57V57.24L239.113 57.5C238.543 57.59 238.283 57.9 238.283 58.37ZM246.555 55.83C245.965 55.83 245.635 55.48 245.635 54.87C245.635 54.27 245.965 53.92 246.555 53.92C247.145 53.92 247.475 54.27 247.475 54.87C247.475 55.48 247.145 55.83 246.555 55.83ZM245.515 61.8C245.985 61.42 246.395 60.75 246.535 60.08C245.955 60.07 245.635 59.72 245.635 59.12C245.635 58.52 245.965 58.17 246.555 58.17C247.255 58.17 247.575 58.56 247.575 59.39C247.575 60.29 247.325 61.24 246.935 61.8H245.515ZM118.15 76V70H119.25V70.45H119.55C119.85 70.06 120.35 69.84 120.93 69.84C122.18 69.84 123 70.73 123 72.11V76H121.9V72.41C121.9 71.42 121.44 70.89 120.58 70.89C119.71 70.89 119.25 71.42 119.25 72.41V76H118.15ZM124.791 72.07C124.891 70.69 125.921 69.84 127.491 69.84C128.991 69.84 129.841 70.63 129.841 72.03V76H128.771V75.45H128.471C128.141 75.91 127.641 76.15 126.901 76.15C125.801 76.15 125.091 75.46 125.091 74.42C125.091 73.42 125.761 72.75 126.941 72.56L128.771 72.27V72.1C128.771 71.33 128.261 70.86 127.461 70.86C126.591 70.86 126.011 71.29 125.841 72.07H124.791ZM126.251 74.37C126.251 74.82 126.621 75.13 127.161 75.13C128.041 75.13 128.771 74.44 128.771 73.57V73.24L127.081 73.5C126.511 73.59 126.251 73.9 126.251 74.37ZM131.783 70H132.883V70.48H133.143C133.273 70.08 133.593 69.84 134.033 69.84C134.433 69.84 134.753 70.1 134.913 70.53H135.173C135.313 70.1 135.673 69.84 136.153 69.84C136.853 69.84 137.303 70.47 137.303 71.44V76H136.253V71.87C136.253 71.33 136.053 71.05 135.653 71.05C135.263 71.05 135.063 71.33 135.063 71.87V76H134.023V71.87C134.023 71.33 133.823 71.05 133.433 71.05C133.033 71.05 132.833 71.33 132.833 71.87V76H131.783V70ZM138.985 72.95C138.985 71.04 140.015 69.84 141.645 69.84C143.175 69.84 144.075 70.96 144.075 72.9C144.075 73.05 144.065 73.22 144.055 73.36H140.075C140.175 74.53 140.735 75.16 141.675 75.16C142.345 75.16 142.855 74.81 143.205 74.16H144.235C143.945 75.4 142.965 76.16 141.675 76.16C139.975 76.16 138.985 74.98 138.985 72.95ZM140.095 72.39H143.025C142.905 71.38 142.425 70.84 141.645 70.84C140.795 70.84 140.245 71.4 140.095 72.39ZM48.13 92V83.52H49.23V86.45H49.53C49.83 86.06 50.33 85.84 50.91 85.84C52.16 85.84 52.98 86.73 52.98 88.11V92H51.88V88.41C51.88 87.42 51.42 86.89 50.56 86.89C49.69 86.89 49.23 87.42 49.23 88.41V92H48.13ZM54.772 88.07C54.872 86.69 55.902 85.84 57.472 85.84C58.972 85.84 59.822 86.63 59.822 88.03V92H58.752V91.45H58.452C58.122 91.91 57.622 92.15 56.882 92.15C55.782 92.15 55.072 91.46 55.072 90.42C55.072 89.42 55.742 88.75 56.922 88.56L58.752 88.27V88.1C58.752 87.33 58.242 86.86 57.442 86.86C56.572 86.86 55.992 87.29 55.822 88.07H54.772ZM56.232 90.37C56.232 90.82 56.602 91.13 57.142 91.13C58.022 91.13 58.752 90.44 58.752 89.57V89.24L57.062 89.5C56.492 89.59 56.232 89.9 56.232 90.37ZM62.1339 92V86H63.2339V86.45H63.5339C63.8339 86.06 64.3339 85.84 64.9139 85.84C66.1639 85.84 66.9839 86.73 66.9839 88.11V92H65.8839V88.41C65.8839 87.42 65.4239 86.89 64.5639 86.89C63.6939 86.89 63.2339 87.42 63.2339 88.41V92H62.1339ZM71.0859 92.16C69.5959 92.16 68.6359 90.94 68.6359 89C68.6359 87.06 69.5959 85.84 71.0859 85.84C71.7359 85.84 72.3059 86.11 72.5659 86.55H72.8659V83.52H73.9659V92H72.8659V91.45H72.5659C72.3059 91.89 71.7359 92.16 71.0859 92.16ZM69.7359 89C69.7359 90.34 70.3159 91.13 71.3159 91.13C72.3259 91.13 72.9059 90.34 72.9059 89C72.9059 87.66 72.3259 86.87 71.3159 86.87C70.3159 86.87 69.7359 87.66 69.7359 89ZM76.3078 83.52H79.2278V90.97H81.0378V92H76.3078V90.97H78.1278V84.55H76.3078V83.52ZM82.9698 88.95C82.9698 87.04 83.9998 85.84 85.6298 85.84C87.1598 85.84 88.0598 86.96 88.0598 88.9C88.0598 89.05 88.0498 89.22 88.0398 89.36H84.0598C84.1598 90.53 84.7198 91.16 85.6598 91.16C86.3298 91.16 86.8398 90.81 87.1898 90.16H88.2198C87.9298 91.4 86.9498 92.16 85.6598 92.16C83.9598 92.16 82.9698 90.98 82.9698 88.95ZM84.0798 88.39H87.0098C86.8898 87.38 86.4098 86.84 85.6298 86.84C84.7798 86.84 84.2298 87.4 84.0798 88.39ZM92.5117 92.08C91.9217 92.08 91.5917 91.73 91.5917 91.12C91.5917 90.52 91.9217 90.17 92.5117 90.17C93.1017 90.17 93.4317 90.52 93.4317 91.12C93.4317 91.73 93.1017 92.08 92.5117 92.08ZM176.535 92.08C175.945 92.08 175.615 91.73 175.615 91.12C175.615 90.52 175.945 90.17 176.535 90.17C177.125 90.17 177.455 90.52 177.455 91.12C177.455 91.73 177.125 92.08 176.535 92.08ZM239.553 87.83C238.963 87.83 238.633 87.48 238.633 86.87C238.633 86.27 238.963 85.92 239.553 85.92C240.143 85.92 240.473 86.27 240.473 86.87C240.473 87.48 240.143 87.83 239.553 87.83ZM238.513 93.8C238.983 93.42 239.393 92.75 239.533 92.08C238.953 92.07 238.633 91.72 238.633 91.12C238.633 90.52 238.963 90.17 239.553 90.17C240.253 90.17 240.573 90.56 240.573 91.39C240.573 92.29 240.323 93.24 239.933 93.8H238.513ZM118.06 110V102H119.16V102.55H119.46C119.72 102.11 120.29 101.84 120.94 101.84C122.43 101.84 123.39 103.06 123.39 105C123.39 106.94 122.43 108.16 120.94 108.16C120.29 108.16 119.72 107.89 119.46 107.45H119.16V110H118.06ZM119.12 105C119.12 106.34 119.7 107.13 120.71 107.13C121.71 107.13 122.29 106.34 122.29 105C122.29 103.66 121.71 102.87 120.71 102.87C119.7 102.87 119.12 103.66 119.12 105ZM124.791 104.07C124.891 102.69 125.921 101.84 127.491 101.84C128.991 101.84 129.841 102.63 129.841 104.03V108H128.771V107.45H128.471C128.141 107.91 127.641 108.15 126.901 108.15C125.801 108.15 125.091 107.46 125.091 106.42C125.091 105.42 125.761 104.75 126.941 104.56L128.771 104.27V104.1C128.771 103.33 128.261 102.86 127.461 102.86C126.591 102.86 126.011 103.29 125.841 104.07H124.791ZM126.251 106.37C126.251 106.82 126.621 107.13 127.161 107.13C128.041 107.13 128.771 106.44 128.771 105.57V105.24L127.081 105.5C126.511 105.59 126.251 105.9 126.251 106.37ZM131.703 102H132.883L134.423 106.49H134.833L136.263 102H137.353L135.143 108.87C134.883 109.68 134.313 110.16 133.613 110.16C132.593 110.16 131.993 109.58 131.913 108.52H132.913C133.073 108.96 133.243 109.15 133.573 109.15C133.863 109.15 134.023 108.98 134.173 108.55L134.513 107.5H133.613L131.703 102ZM139.325 99.52H142.245V106.97H144.055V108H139.325V106.97H141.145V100.55H139.325V99.52ZM148.527 108.16C146.867 108.16 145.807 106.94 145.807 105C145.807 103.06 146.867 101.84 148.527 101.84C150.187 101.84 151.247 103.06 151.247 105C151.247 106.94 150.187 108.16 148.527 108.16ZM146.897 105C146.897 106.34 147.497 107.13 148.527 107.13C149.557 107.13 150.157 106.34 150.157 105C150.157 103.66 149.557 102.87 148.527 102.87C147.497 102.87 146.897 103.66 146.897 105ZM152.799 104.07C152.899 102.69 153.929 101.84 155.499 101.84C156.999 101.84 157.849 102.63 157.849 104.03V108H156.779V107.45H156.479C156.149 107.91 155.649 108.15 154.909 108.15C153.809 108.15 153.099 107.46 153.099 106.42C153.099 105.42 153.769 104.75 154.949 104.56L156.779 104.27V104.1C156.779 103.33 156.269 102.86 155.469 102.86C154.599 102.86 154.019 103.29 153.849 104.07H152.799ZM154.259 106.37C154.259 106.82 154.629 107.13 155.169 107.13C156.049 107.13 156.779 106.44 156.779 105.57V105.24L155.089 105.5C154.519 105.59 154.259 105.9 154.259 106.37ZM162.111 108.16C160.621 108.16 159.661 106.94 159.661 105C159.661 103.06 160.621 101.84 162.111 101.84C162.761 101.84 163.331 102.11 163.591 102.55H163.891V99.52H164.991V108H163.891V107.45H163.591C163.331 107.89 162.761 108.16 162.111 108.16ZM160.761 105C160.761 106.34 161.341 107.13 162.341 107.13C163.351 107.13 163.931 106.34 163.931 105C163.931 103.66 163.351 102.87 162.341 102.87C161.341 102.87 160.761 103.66 160.761 105ZM192.869 99.8C191.749 99.91 191.269 100.27 191.269 100.99C191.269 101.47 191.469 101.91 191.469 102.5C191.469 103.28 190.949 103.89 190.109 104.1V104.3C190.949 104.51 191.469 105.12 191.469 105.9C191.469 106.49 191.269 106.93 191.269 107.41C191.269 108.13 191.749 108.49 192.869 108.6V109.52C191.089 109.47 190.209 108.78 190.209 107.41C190.209 106.9 190.409 106.51 190.409 106.02C190.409 105.29 189.969 104.9 188.939 104.74V103.66C189.969 103.5 190.409 103.11 190.409 102.38C190.409 101.89 190.209 101.5 190.209 100.99C190.209 99.62 191.089 98.93 192.869 98.88V99.8ZM127.521 124.08C126.931 124.08 126.601 123.73 126.601 123.12C126.601 122.52 126.931 122.17 127.521 122.17C128.111 122.17 128.441 122.52 128.441 123.12C128.441 123.73 128.111 124.08 127.521 124.08ZM126.601 118.87C126.601 118.27 126.931 117.92 127.521 117.92C128.111 117.92 128.441 118.27 128.441 118.87C128.441 119.48 128.111 119.83 127.521 119.83C126.931 119.83 126.601 119.48 126.601 118.87ZM224.509 125.8C224.979 125.42 225.389 124.75 225.529 124.08C224.949 124.07 224.629 123.72 224.629 123.12C224.629 122.52 224.959 122.17 225.549 122.17C226.249 122.17 226.569 122.56 226.569 123.39C226.569 124.29 226.319 125.24 225.929 125.8H224.509ZM90.1417 140V134H91.2417V134.45H91.5417C91.8417 134.06 92.3417 133.84 92.9217 133.84C94.1717 133.84 94.9917 134.73 94.9917 136.11V140H93.8917V136.41C93.8917 135.42 93.4317 134.89 92.5717 134.89C91.7017 134.89 91.2417 135.42 91.2417 136.41V140H90.1417ZM96.7837 136.07C96.8837 134.69 97.9137 133.84 99.4837 133.84C100.984 133.84 101.834 134.63 101.834 136.03V140H100.764V139.45H100.464C100.134 139.91 99.6337 140.15 98.8937 140.15C97.7937 140.15 97.0837 139.46 97.0837 138.42C97.0837 137.42 97.7537 136.75 98.9337 136.56L100.764 136.27V136.1C100.764 135.33 100.254 134.86 99.4537 134.86C98.5837 134.86 98.0037 135.29 97.8337 136.07H96.7837ZM98.2437 138.37C98.2437 138.82 98.6137 139.13 99.1537 139.13C100.034 139.13 100.764 138.44 100.764 137.57V137.24L99.0737 137.5C98.5037 137.59 98.2437 137.9 98.2437 138.37ZM103.776 134H104.876V134.48H105.136C105.266 134.08 105.586 133.84 106.026 133.84C106.426 133.84 106.746 134.1 106.906 134.53H107.166C107.306 134.1 107.666 133.84 108.146 133.84C108.846 133.84 109.296 134.47 109.296 135.44V140H108.246V135.87C108.246 135.33 108.046 135.05 107.646 135.05C107.256 135.05 107.056 135.33 107.056 135.87V140H106.016V135.87C106.016 135.33 105.816 135.05 105.426 135.05C105.026 135.05 104.826 135.33 104.826 135.87V140H103.776V134ZM110.978 136.95C110.978 135.04 112.008 133.84 113.638 133.84C115.168 133.84 116.068 134.96 116.068 136.9C116.068 137.05 116.058 137.22 116.048 137.36H112.068C112.168 138.53 112.728 139.16 113.668 139.16C114.338 139.16 114.848 138.81 115.198 138.16H116.228C115.938 139.4 114.958 140.16 113.668 140.16C111.968 140.16 110.978 138.98 110.978 136.95ZM112.088 136.39H115.018C114.898 135.38 114.418 134.84 113.638 134.84C112.788 134.84 112.238 135.4 112.088 136.39ZM89.7717 150H90.8717V150.48H91.1317C91.2617 150.08 91.5817 149.84 92.0217 149.84C92.4217 149.84 92.7417 150.1 92.9017 150.53H93.1617C93.3017 150.1 93.6617 149.84 94.1417 149.84C94.8417 149.84 95.2917 150.47 95.2917 151.44V156H94.2417V151.87C94.2417 151.33 94.0417 151.05 93.6417 151.05C93.2517 151.05 93.0517 151.33 93.0517 151.87V156H92.0117V151.87C92.0117 151.33 91.8117 151.05 91.4217 151.05C91.0217 151.05 90.8217 151.33 90.8217 151.87V156H89.7717V150ZM96.9737 152.95C96.9737 151.04 98.0037 149.84 99.6337 149.84C101.164 149.84 102.064 150.96 102.064 152.9C102.064 153.05 102.054 153.22 102.044 153.36H98.0637C98.1637 154.53 98.7237 155.16 99.6637 155.16C100.334 155.16 100.844 154.81 101.194 154.16H102.224C101.934 155.4 100.954 156.16 99.6637 156.16C97.9637 156.16 96.9737 154.98 96.9737 152.95ZM98.0837 152.39H101.014C100.894 151.38 100.414 150.84 99.6337 150.84C98.7837 150.84 98.2337 151.4 98.0837 152.39ZM105.126 154.16C105.316 154.78 105.806 155.13 106.586 155.13C107.386 155.13 107.826 154.83 107.826 154.3C107.826 153.94 107.476 153.7 106.796 153.6L106.066 153.49C104.756 153.29 104.146 152.73 104.146 151.71C104.146 150.55 105.056 149.84 106.566 149.84C108.096 149.84 109.036 150.63 109.096 151.96H108.096C107.906 151.26 107.386 150.87 106.546 150.87C105.706 150.87 105.236 151.17 105.236 151.7C105.236 152.06 105.586 152.3 106.266 152.4L106.996 152.51C108.316 152.71 108.916 153.27 108.916 154.29C108.916 155.45 108.026 156.16 106.576 156.16C105.086 156.16 104.176 155.42 104.106 154.16H105.126ZM112.128 154.16C112.318 154.78 112.808 155.13 113.588 155.13C114.388 155.13 114.828 154.83 114.828 154.3C114.828 153.94 114.478 153.7 113.798 153.6L113.068 153.49C111.758 153.29 111.148 152.73 111.148 151.71C111.148 150.55 112.058 149.84 113.568 149.84C115.098 149.84 116.038 150.63 116.098 151.96H115.098C114.908 151.26 114.388 150.87 113.548 150.87C112.708 150.87 112.238 151.17 112.238 151.7C112.238 152.06 112.588 152.3 113.268 152.4L113.998 152.51C115.318 152.71 115.918 153.27 115.918 154.29C115.918 155.45 115.028 156.16 113.578 156.16C112.088 156.16 111.178 155.42 111.108 154.16H112.128ZM117.79 152.07C117.89 150.69 118.92 149.84 120.49 149.84C121.99 149.84 122.84 150.63 122.84 152.03V156H121.77V155.45H121.47C121.14 155.91 120.64 156.15 119.9 156.15C118.8 156.15 118.09 155.46 118.09 154.42C118.09 153.42 118.76 152.75 119.94 152.56L121.77 152.27V152.1C121.77 151.33 121.26 150.86 120.46 150.86C119.59 150.86 119.01 151.29 118.84 152.07H117.79ZM119.25 154.37C119.25 154.82 119.62 155.13 120.16 155.13C121.04 155.13 121.77 154.44 121.77 153.57V153.24L120.08 153.5C119.51 153.59 119.25 153.9 119.25 154.37ZM130.001 155.8C130.001 157.25 129.021 158.16 127.381 158.16C125.861 158.16 124.851 157.42 124.791 156.23H125.841C126.051 156.82 126.601 157.16 127.381 157.16C128.331 157.16 128.901 156.63 128.901 155.73V155.09H128.601C128.331 155.48 127.781 155.72 127.201 155.72C125.741 155.72 124.811 154.59 124.811 152.8C124.811 150.98 125.741 149.84 127.201 149.84C127.801 149.84 128.351 150.1 128.601 150.5H128.901V150H130.001V155.8ZM125.901 152.8C125.901 154.02 126.471 154.73 127.431 154.73C128.401 154.73 128.971 154.02 128.971 152.8C128.971 151.58 128.401 150.87 127.431 150.87C126.471 150.87 125.901 151.58 125.901 152.8ZM131.983 152.95C131.983 151.04 133.013 149.84 134.643 149.84C136.173 149.84 137.073 150.96 137.073 152.9C137.073 153.05 137.063 153.22 137.053 153.36H133.073C133.173 154.53 133.733 155.16 134.673 155.16C135.343 155.16 135.853 154.81 136.203 154.16H137.233C136.943 155.4 135.963 156.16 134.673 156.16C132.973 156.16 131.983 154.98 131.983 152.95ZM133.093 152.39H136.023C135.903 151.38 135.423 150.84 134.643 150.84C133.793 150.84 133.243 151.4 133.093 152.39ZM140.485 157.8C140.955 157.42 141.365 156.75 141.505 156.08C140.925 156.07 140.605 155.72 140.605 155.12C140.605 154.52 140.935 154.17 141.525 154.17C142.225 154.17 142.545 154.56 142.545 155.39C142.545 156.29 142.295 157.24 141.905 157.8H140.485ZM76.1778 162.88C77.9578 162.93 78.8378 163.62 78.8378 164.99C78.8378 165.5 78.6378 165.89 78.6378 166.38C78.6378 167.11 79.0778 167.5 80.1078 167.66V168.74C79.0778 168.9 78.6378 169.29 78.6378 170.02C78.6378 170.51 78.8378 170.9 78.8378 171.41C78.8378 172.78 77.9578 173.47 76.1778 173.52V172.6C77.2978 172.49 77.7778 172.13 77.7778 171.41C77.7778 170.93 77.5778 170.49 77.5778 169.9C77.5778 169.12 78.0978 168.51 78.9378 168.3V168.1C78.0978 167.89 77.5778 167.28 77.5778 166.5C77.5778 165.91 77.7778 165.47 77.7778 164.99C77.7778 164.27 77.2978 163.91 76.1778 163.8V162.88ZM85.5098 167.83C84.9198 167.83 84.5898 167.48 84.5898 166.87C84.5898 166.27 84.9198 165.92 85.5098 165.92C86.0998 165.92 86.4298 166.27 86.4298 166.87C86.4298 167.48 86.0998 167.83 85.5098 167.83ZM84.4698 173.8C84.9398 173.42 85.3498 172.75 85.4898 172.08C84.9098 172.07 84.5898 171.72 84.5898 171.12C84.5898 170.52 84.9198 170.17 85.5098 170.17C86.2098 170.17 86.5298 170.56 86.5298 171.39C86.5298 172.29 86.2798 173.24 85.8898 173.8H84.4698ZM199.571 195.8C198.101 196.32 197.341 197.81 197.341 200.2C197.341 202.59 198.101 204.08 199.571 204.6V205.6C197.371 205.08 196.241 203.24 196.241 200.2C196.241 197.16 197.371 195.32 199.571 194.8V195.8ZM258.999 201.96C259.189 202.58 259.619 202.96 260.259 203.06V200.54L260.109 200.52C258.719 200.29 258.009 199.52 258.009 198.24C258.009 196.92 258.879 196.02 260.259 195.86V195H261.059V195.86C262.449 195.99 263.349 196.87 263.429 198.24H262.349C262.159 197.52 261.719 197.06 261.059 196.94V199.49L261.139 199.5C262.539 199.73 263.249 200.5 263.249 201.77C263.249 203.08 262.399 203.98 261.059 204.14V205H260.259V204.14C258.869 204.02 257.979 203.21 257.909 201.96H258.999ZM259.129 198.24C259.129 198.85 259.529 199.25 260.259 199.37V196.95C259.549 197.08 259.129 197.54 259.129 198.24ZM261.059 203.05C261.729 202.92 262.129 202.46 262.129 201.77C262.129 201.19 261.749 200.8 261.059 200.66V203.05ZM269.891 195.8C268.771 195.91 268.291 196.27 268.291 196.99C268.291 197.47 268.491 197.91 268.491 198.5C268.491 199.28 267.971 199.89 267.131 200.1V200.3C267.971 200.51 268.491 201.12 268.491 201.9C268.491 202.49 268.291 202.93 268.291 203.41C268.291 204.13 268.771 204.49 269.891 204.6V205.52C268.111 205.47 267.231 204.78 267.231 203.41C267.231 202.9 267.431 202.51 267.431 202.02C267.431 201.29 266.991 200.9 265.961 200.74V199.66C266.991 199.5 267.431 199.11 267.431 198.38C267.431 197.89 267.231 197.5 267.231 196.99C267.231 195.62 268.111 194.93 269.891 194.88V195.8ZM272.103 206V198H273.203V198.55H273.503C273.763 198.11 274.333 197.84 274.983 197.84C276.473 197.84 277.433 199.06 277.433 201C277.433 202.94 276.473 204.16 274.983 204.16C274.333 204.16 273.763 203.89 273.503 203.45H273.203V206H272.103ZM273.163 201C273.163 202.34 273.743 203.13 274.753 203.13C275.753 203.13 276.333 202.34 276.333 201C276.333 199.66 275.753 198.87 274.753 198.87C273.743 198.87 273.163 199.66 273.163 201ZM278.834 200.07C278.934 198.69 279.964 197.84 281.534 197.84C283.034 197.84 283.884 198.63 283.884 200.03V204H282.814V203.45H282.514C282.184 203.91 281.684 204.15 280.944 204.15C279.844 204.15 279.134 203.46 279.134 202.42C279.134 201.42 279.804 200.75 280.984 200.56L282.814 200.27V200.1C282.814 199.33 282.304 198.86 281.504 198.86C280.634 198.86 280.054 199.29 279.884 200.07H278.834ZM280.294 202.37C280.294 202.82 280.664 203.13 281.204 203.13C282.084 203.13 282.814 202.44 282.814 201.57V201.24L281.124 201.5C280.554 201.59 280.294 201.9 280.294 202.37ZM286.016 198H288.356V198.44H288.656C288.896 198.06 289.326 197.84 289.856 197.84C290.826 197.84 291.416 198.56 291.416 199.73V200.6H290.276V199.89C290.276 199.22 289.996 198.88 289.456 198.88C288.766 198.88 288.426 199.5 288.426 200.73V202.97H290.286V204H286.196V202.97H287.326V199.03H286.016V198ZM292.838 200.07C292.938 198.69 293.968 197.84 295.538 197.84C297.038 197.84 297.888 198.63 297.888 200.03V204H296.818V203.45H296.518C296.188 203.91 295.688 204.15 294.948 204.15C293.848 204.15 293.138 203.46 293.138 202.42C293.138 201.42 293.808 200.75 294.988 200.56L296.818 200.27V200.1C296.818 199.33 296.308 198.86 295.508 198.86C294.638 198.86 294.058 199.29 293.888 200.07H292.838ZM294.298 202.37C294.298 202.82 294.668 203.13 295.208 203.13C296.088 203.13 296.818 202.44 296.818 201.57V201.24L295.128 201.5C294.558 201.59 294.298 201.9 294.298 202.37ZM299.83 198H300.93V198.48H301.19C301.32 198.08 301.64 197.84 302.08 197.84C302.48 197.84 302.8 198.1 302.96 198.53H303.22C303.36 198.1 303.72 197.84 304.2 197.84C304.9 197.84 305.35 198.47 305.35 199.44V204H304.3V199.87C304.3 199.33 304.1 199.05 303.7 199.05C303.31 199.05 303.11 199.33 303.11 199.87V204H302.07V199.87C302.07 199.33 301.87 199.05 301.48 199.05C301.08 199.05 300.88 199.33 300.88 199.87V204H299.83V198ZM308.182 202.16C308.372 202.78 308.862 203.13 309.642 203.13C310.442 203.13 310.882 202.83 310.882 202.3C310.882 201.94 310.532 201.7 309.852 201.6L309.122 201.49C307.812 201.29 307.202 200.73 307.202 199.71C307.202 198.55 308.112 197.84 309.622 197.84C311.152 197.84 312.092 198.63 312.152 199.96H311.152C310.962 199.26 310.442 198.87 309.602 198.87C308.762 198.87 308.292 199.17 308.292 199.7C308.292 200.06 308.642 200.3 309.322 200.4L310.052 200.51C311.372 200.71 311.972 201.27 311.972 202.29C311.972 203.45 311.082 204.16 309.632 204.16C308.142 204.16 307.232 203.42 307.162 202.16H308.182ZM316.574 204.08C315.984 204.08 315.654 203.73 315.654 203.12C315.654 202.52 315.984 202.17 316.574 202.17C317.164 202.17 317.494 202.52 317.494 203.12C317.494 203.73 317.164 204.08 316.574 204.08ZM321.526 198H324.446V202.97H326.256V204H321.526V202.97H323.346V199.03H321.526V198ZM322.986 196.3C322.986 195.79 323.296 195.49 323.816 195.49C324.336 195.49 324.646 195.79 324.646 196.3C324.646 196.81 324.336 197.11 323.816 197.11C323.296 197.11 322.986 196.81 322.986 196.3ZM330.158 204.16C328.668 204.16 327.708 202.94 327.708 201C327.708 199.06 328.668 197.84 330.158 197.84C330.808 197.84 331.378 198.11 331.638 198.55H331.938V195.52H333.038V204H331.938V203.45H331.638C331.378 203.89 330.808 204.16 330.158 204.16ZM328.808 201C328.808 202.34 329.388 203.13 330.388 203.13C331.398 203.13 331.978 202.34 331.978 201C331.978 199.66 331.398 198.87 330.388 198.87C329.388 198.87 328.808 199.66 328.808 201ZM335.25 194.88C337.03 194.93 337.91 195.62 337.91 196.99C337.91 197.5 337.71 197.89 337.71 198.38C337.71 199.11 338.15 199.5 339.18 199.66V200.74C338.15 200.9 337.71 201.29 337.71 202.02C337.71 202.51 337.91 202.9 337.91 203.41C337.91 204.78 337.03 205.47 335.25 205.52V204.6C336.37 204.49 336.85 204.13 336.85 203.41C336.85 202.93 336.65 202.49 336.65 201.9C336.65 201.12 337.17 200.51 338.01 200.3V200.1C337.17 199.89 336.65 199.28 336.65 198.5C336.65 197.91 336.85 197.47 336.85 196.99C336.85 196.27 336.37 195.91 335.25 195.8V194.88ZM350.544 205.8C351.014 205.42 351.424 204.75 351.564 204.08C350.984 204.07 350.664 203.72 350.664 203.12C350.664 202.52 350.994 202.17 351.584 202.17C352.284 202.17 352.604 202.56 352.604 203.39C352.604 204.29 352.354 205.24 351.964 205.8H350.544ZM48.04 222V214H49.14V214.55H49.44C49.7 214.11 50.27 213.84 50.92 213.84C52.41 213.84 53.37 215.06 53.37 217C53.37 218.94 52.41 220.16 50.92 220.16C50.27 220.16 49.7 219.89 49.44 219.45H49.14V222H48.04ZM49.1 217C49.1 218.34 49.68 219.13 50.69 219.13C51.69 219.13 52.27 218.34 52.27 217C52.27 215.66 51.69 214.87 50.69 214.87C49.68 214.87 49.1 215.66 49.1 217ZM54.772 216.07C54.872 214.69 55.902 213.84 57.472 213.84C58.972 213.84 59.822 214.63 59.822 216.03V220H58.752V219.45H58.452C58.122 219.91 57.622 220.15 56.882 220.15C55.782 220.15 55.072 219.46 55.072 218.42C55.072 217.42 55.742 216.75 56.922 216.56L58.752 216.27V216.1C58.752 215.33 58.242 214.86 57.442 214.86C56.572 214.86 55.992 215.29 55.822 216.07H54.772ZM56.232 218.37C56.232 218.82 56.602 219.13 57.142 219.13C58.022 219.13 58.752 218.44 58.752 217.57V217.24L57.062 217.5C56.492 217.59 56.232 217.9 56.232 218.37ZM61.6839 214H62.8639L64.4039 218.49H64.8139L66.2439 214H67.3339L65.1239 220.87C64.8639 221.68 64.2939 222.16 63.5939 222.16C62.5739 222.16 61.9739 221.58 61.8939 220.52H62.8939C63.0539 220.96 63.2239 221.15 63.5539 221.15C63.8439 221.15 64.0039 220.98 64.1539 220.55L64.4939 219.5H63.5939L61.6839 214ZM69.3059 211.52H72.2259V218.97H74.0359V220H69.3059V218.97H71.1259V212.55H69.3059V211.52ZM78.5078 220.16C76.8478 220.16 75.7878 218.94 75.7878 217C75.7878 215.06 76.8478 213.84 78.5078 213.84C80.1678 213.84 81.2278 215.06 81.2278 217C81.2278 218.94 80.1678 220.16 78.5078 220.16ZM76.8778 217C76.8778 218.34 77.4778 219.13 78.5078 219.13C79.5378 219.13 80.1378 218.34 80.1378 217C80.1378 215.66 79.5378 214.87 78.5078 214.87C77.4778 214.87 76.8778 215.66 76.8778 217ZM82.7798 216.07C82.8798 214.69 83.9098 213.84 85.4798 213.84C86.9798 213.84 87.8298 214.63 87.8298 216.03V220H86.7598V219.45H86.4598C86.1298 219.91 85.6298 220.15 84.8898 220.15C83.7898 220.15 83.0798 219.46 83.0798 218.42C83.0798 217.42 83.7498 216.75 84.9298 216.56L86.7598 216.27V216.1C86.7598 215.33 86.2498 214.86 85.4498 214.86C84.5798 214.86 83.9998 215.29 83.8298 216.07H82.7798ZM84.2398 218.37C84.2398 218.82 84.6098 219.13 85.1498 219.13C86.0298 219.13 86.7598 218.44 86.7598 217.57V217.24L85.0698 217.5C84.4998 217.59 84.2398 217.9 84.2398 218.37ZM92.0917 220.16C90.6017 220.16 89.6417 218.94 89.6417 217C89.6417 215.06 90.6017 213.84 92.0917 213.84C92.7417 213.84 93.3117 214.11 93.5717 214.55H93.8717V211.52H94.9717V220H93.8717V219.45H93.5717C93.3117 219.89 92.7417 220.16 92.0917 220.16ZM90.7417 217C90.7417 218.34 91.3217 219.13 92.3217 219.13C93.3317 219.13 93.9117 218.34 93.9117 217C93.9117 215.66 93.3317 214.87 92.3217 214.87C91.3217 214.87 90.7417 215.66 90.7417 217ZM97.4837 210.8C99.6837 211.32 100.814 213.16 100.814 216.2C100.814 219.24 99.6837 221.08 97.4837 221.6V220.6C98.9537 220.08 99.7137 218.59 99.7137 216.2C99.7137 213.81 98.9537 212.32 97.4837 211.8V210.8ZM106.516 215.83C105.926 215.83 105.596 215.48 105.596 214.87C105.596 214.27 105.926 213.92 106.516 213.92C107.106 213.92 107.436 214.27 107.436 214.87C107.436 215.48 107.106 215.83 106.516 215.83ZM105.476 221.8C105.946 221.42 106.356 220.75 106.496 220.08C105.916 220.07 105.596 219.72 105.596 219.12C105.596 218.52 105.926 218.17 106.516 218.17C107.216 218.17 107.536 218.56 107.536 219.39C107.536 220.29 107.286 221.24 106.896 221.8H105.476ZM62.1739 226.88C63.9539 226.93 64.8339 227.62 64.8339 228.99C64.8339 229.5 64.6339 229.89 64.6339 230.38C64.6339 231.11 65.0739 231.5 66.1039 231.66V232.74C65.0739 232.9 64.6339 233.29 64.6339 234.02C64.6339 234.51 64.8339 234.9 64.8339 235.41C64.8339 236.78 63.9539 237.47 62.1739 237.52V236.6C63.2939 236.49 63.7739 236.13 63.7739 235.41C63.7739 234.93 63.5739 234.49 63.5739 233.9C63.5739 233.12 64.0939 232.51 64.9339 232.3V232.1C64.0939 231.89 63.5739 231.28 63.5739 230.5C63.5739 229.91 63.7739 229.47 63.7739 228.99C63.7739 228.27 63.2939 227.91 62.1739 227.8V226.88ZM48.17 242.88C49.95 242.93 50.83 243.62 50.83 244.99C50.83 245.5 50.63 245.89 50.63 246.38C50.63 247.11 51.07 247.5 52.1 247.66V248.74C51.07 248.9 50.63 249.29 50.63 250.02C50.63 250.51 50.83 250.9 50.83 251.41C50.83 252.78 49.95 253.47 48.17 253.52V252.6C49.29 252.49 49.77 252.13 49.77 251.41C49.77 250.93 49.57 250.49 49.57 249.9C49.57 249.12 50.09 248.51 50.93 248.3V248.1C50.09 247.89 49.57 247.28 49.57 246.5C49.57 245.91 49.77 245.47 49.77 244.99C49.77 244.27 49.29 243.91 48.17 243.8V242.88Z" fill="white"/>
<path d="M141.695 28.16C139.785 28.16 138.835 26.78 138.835 24C138.835 21.22 139.815 19.84 141.785 19.84C143.385 19.84 144.355 20.9 144.475 22.77H143.425C143.235 21.56 142.675 20.91 141.785 20.91C140.545 20.91 139.975 21.88 139.975 24C139.975 26.12 140.515 27.09 141.695 27.09C142.545 27.09 143.065 26.49 143.245 25.37H144.295C144.175 27.15 143.245 28.16 141.695 28.16ZM146.157 28V19.52H147.257V22.45H147.557C147.857 22.06 148.357 21.84 148.937 21.84C150.187 21.84 151.007 22.73 151.007 24.11V28H149.907V24.41C149.907 23.42 149.447 22.89 148.587 22.89C147.717 22.89 147.257 23.42 147.257 24.41V28H146.157ZM152.799 24.07C152.899 22.69 153.929 21.84 155.499 21.84C156.999 21.84 157.849 22.63 157.849 24.03V28H156.779V27.45H156.479C156.149 27.91 155.649 28.15 154.909 28.15C153.809 28.15 153.099 27.46 153.099 26.42C153.099 25.42 153.769 24.75 154.949 24.56L156.779 24.27V24.1C156.779 23.33 156.269 22.86 155.469 22.86C154.599 22.86 154.019 23.29 153.849 24.07H152.799ZM154.259 26.37C154.259 26.82 154.629 27.13 155.169 27.13C156.049 27.13 156.779 26.44 156.779 25.57V25.24L155.089 25.5C154.519 25.59 154.259 25.9 154.259 26.37ZM162.261 20.44V22H164.961V23.03H162.261V26.03C162.261 26.74 162.561 27.13 163.121 27.13C163.701 27.13 164.011 26.73 164.171 25.9H165.141C165.081 27.36 164.341 28.16 163.081 28.16C161.851 28.16 161.161 27.4 161.161 26.07V23.03H159.841V22H161.161V20.44H162.261ZM169.703 28.16C167.793 28.16 166.843 26.78 166.843 24C166.843 21.22 167.823 19.84 169.793 19.84C171.393 19.84 172.363 20.9 172.483 22.77H171.433C171.243 21.56 170.683 20.91 169.793 20.91C168.553 20.91 167.983 21.88 167.983 24C167.983 26.12 168.523 27.09 169.703 27.09C170.553 27.09 171.073 26.49 171.253 25.37H172.303C172.183 27.15 171.253 28.16 169.703 28.16ZM174.165 28V19.52H175.265V22.45H175.565C175.865 22.06 176.365 21.84 176.945 21.84C178.195 21.84 179.015 22.73 179.015 24.11V28H177.915V24.41C177.915 23.42 177.455 22.89 176.595 22.89C175.725 22.89 175.265 23.42 175.265 24.41V28H174.165ZM180.807 24.07C180.907 22.69 181.937 21.84 183.507 21.84C185.007 21.84 185.857 22.63 185.857 24.03V28H184.787V27.45H184.487C184.157 27.91 183.657 28.15 182.917 28.15C181.817 28.15 181.107 27.46 181.107 26.42C181.107 25.42 181.777 24.75 182.957 24.56L184.787 24.27V24.1C184.787 23.33 184.277 22.86 183.477 22.86C182.607 22.86 182.027 23.29 181.857 24.07H180.807ZM182.267 26.37C182.267 26.82 182.637 27.13 183.177 27.13C184.057 27.13 184.787 26.44 184.787 25.57V25.24L183.097 25.5C182.527 25.59 182.267 25.9 182.267 26.37ZM188.169 28V22H189.269V22.45H189.569C189.869 22.06 190.369 21.84 190.949 21.84C192.199 21.84 193.019 22.73 193.019 24.11V28H191.919V24.41C191.919 23.42 191.459 22.89 190.599 22.89C189.729 22.89 189.269 23.42 189.269 24.41V28H188.169ZM195.171 28V22H196.271V22.45H196.571C196.871 22.06 197.371 21.84 197.951 21.84C199.201 21.84 200.021 22.73 200.021 24.11V28H198.921V24.41C198.921 23.42 198.461 22.89 197.601 22.89C196.731 22.89 196.271 23.42 196.271 24.41V28H195.171ZM202.003 24.95C202.003 23.04 203.033 21.84 204.663 21.84C206.193 21.84 207.093 22.96 207.093 24.9C207.093 25.05 207.083 25.22 207.073 25.36H203.093C203.193 26.53 203.753 27.16 204.693 27.16C205.363 27.16 205.873 26.81 206.223 26.16H207.253C206.963 27.4 205.983 28.16 204.693 28.16C202.993 28.16 202.003 26.98 202.003 24.95ZM203.113 24.39H206.043C205.923 23.38 205.443 22.84 204.663 22.84C203.813 22.84 203.263 23.4 203.113 24.39ZM209.345 19.52H212.265V26.97H214.075V28H209.345V26.97H211.165V20.55H209.345V19.52ZM281.734 28.16C279.824 28.16 278.874 26.78 278.874 24C278.874 21.22 279.854 19.84 281.824 19.84C283.424 19.84 284.394 20.9 284.514 22.77H283.464C283.274 21.56 282.714 20.91 281.824 20.91C280.584 20.91 280.014 21.88 280.014 24C280.014 26.12 280.554 27.09 281.734 27.09C282.584 27.09 283.104 26.49 283.284 25.37H284.334C284.214 27.15 283.284 28.16 281.734 28.16ZM286.196 28V19.52H287.296V22.45H287.596C287.896 22.06 288.396 21.84 288.976 21.84C290.226 21.84 291.046 22.73 291.046 24.11V28H289.946V24.41C289.946 23.42 289.486 22.89 288.626 22.89C287.756 22.89 287.296 23.42 287.296 24.41V28H286.196ZM292.838 24.07C292.938 22.69 293.968 21.84 295.538 21.84C297.038 21.84 297.888 22.63 297.888 24.03V28H296.818V27.45H296.518C296.188 27.91 295.688 28.15 294.948 28.15C293.848 28.15 293.138 27.46 293.138 26.42C293.138 25.42 293.808 24.75 294.988 24.56L296.818 24.27V24.1C296.818 23.33 296.308 22.86 295.508 22.86C294.638 22.86 294.058 23.29 293.888 24.07H292.838ZM294.298 26.37C294.298 26.82 294.668 27.13 295.208 27.13C296.088 27.13 296.818 26.44 296.818 25.57V25.24L295.128 25.5C294.558 25.59 294.298 25.9 294.298 26.37ZM300.2 28V22H301.3V22.45H301.6C301.9 22.06 302.4 21.84 302.98 21.84C304.23 21.84 305.05 22.73 305.05 24.11V28H303.95V24.41C303.95 23.42 303.49 22.89 302.63 22.89C301.76 22.89 301.3 23.42 301.3 24.41V28H300.2ZM307.202 28V22H308.302V22.45H308.602C308.902 22.06 309.402 21.84 309.982 21.84C311.232 21.84 312.052 22.73 312.052 24.11V28H310.952V24.41C310.952 23.42 310.492 22.89 309.632 22.89C308.762 22.89 308.302 23.42 308.302 24.41V28H307.202ZM314.034 24.95C314.034 23.04 315.064 21.84 316.694 21.84C318.224 21.84 319.124 22.96 319.124 24.9C319.124 25.05 319.114 25.22 319.104 25.36H315.124C315.224 26.53 315.784 27.16 316.724 27.16C317.394 27.16 317.904 26.81 318.254 26.16H319.284C318.994 27.4 318.014 28.16 316.724 28.16C315.024 28.16 314.034 26.98 314.034 24.95ZM315.144 24.39H318.074C317.954 23.38 317.474 22.84 316.694 22.84C315.844 22.84 315.294 23.4 315.144 24.39ZM321.376 19.52H324.296V26.97H326.106V28H321.376V26.97H323.196V20.55H321.376V19.52Z" fill="#EEA864"/>
<path d="M105.126 42.16C105.316 42.78 105.806 43.13 106.586 43.13C107.386 43.13 107.826 42.83 107.826 42.3C107.826 41.94 107.476 41.7 106.796 41.6L106.066 41.49C104.756 41.29 104.146 40.73 104.146 39.71C104.146 38.55 105.056 37.84 106.566 37.84C108.096 37.84 109.036 38.63 109.096 39.96H108.096C107.906 39.26 107.386 38.87 106.546 38.87C105.706 38.87 105.236 39.17 105.236 39.7C105.236 40.06 105.586 40.3 106.266 40.4L106.996 40.51C108.316 40.71 108.916 41.27 108.916 42.29C108.916 43.45 108.026 44.16 106.576 44.16C105.086 44.16 104.176 43.42 104.106 42.16H105.126ZM111.058 46V38H112.158V38.55H112.458C112.718 38.11 113.288 37.84 113.938 37.84C115.428 37.84 116.388 39.06 116.388 41C116.388 42.94 115.428 44.16 113.938 44.16C113.288 44.16 112.718 43.89 112.458 43.45H112.158V46H111.058ZM112.118 41C112.118 42.34 112.698 43.13 113.708 43.13C114.708 43.13 115.288 42.34 115.288 41C115.288 39.66 114.708 38.87 113.708 38.87C112.698 38.87 112.118 39.66 112.118 41ZM117.98 40.95C117.98 39.04 119.01 37.84 120.64 37.84C122.17 37.84 123.07 38.96 123.07 40.9C123.07 41.05 123.06 41.22 123.05 41.36H119.07C119.17 42.53 119.73 43.16 120.67 43.16C121.34 43.16 121.85 42.81 122.2 42.16H123.23C122.94 43.4 121.96 44.16 120.67 44.16C118.97 44.16 117.98 42.98 117.98 40.95ZM119.09 40.39H122.02C121.9 39.38 121.42 38.84 120.64 38.84C119.79 38.84 119.24 39.4 119.09 40.39ZM124.791 40.07C124.891 38.69 125.921 37.84 127.491 37.84C128.991 37.84 129.841 38.63 129.841 40.03V44H128.771V43.45H128.471C128.141 43.91 127.641 44.15 126.901 44.15C125.801 44.15 125.091 43.46 125.091 42.42C125.091 41.42 125.761 40.75 126.941 40.56L128.771 40.27V40.1C128.771 39.33 128.261 38.86 127.461 38.86C126.591 38.86 126.011 39.29 125.841 40.07H124.791ZM126.251 42.37C126.251 42.82 126.621 43.13 127.161 43.13C128.041 43.13 128.771 42.44 128.771 41.57V41.24L127.081 41.5C126.511 41.59 126.251 41.9 126.251 42.37ZM135.963 44L133.723 41.45V44H132.623V35.52H133.723V40.7L136.053 38H137.443L134.793 41.04L137.413 44H135.963ZM97.4637 86H100.384V90.97H102.194V92H97.4637V90.97H99.2837V87.03H97.4637V86ZM98.9237 84.3C98.9237 83.79 99.2337 83.49 99.7537 83.49C100.274 83.49 100.584 83.79 100.584 84.3C100.584 84.81 100.274 85.11 99.7537 85.11C99.2337 85.11 98.9237 84.81 98.9237 84.3ZM106.096 92.16C104.606 92.16 103.646 90.94 103.646 89C103.646 87.06 104.606 85.84 106.096 85.84C106.746 85.84 107.316 86.11 107.576 86.55H107.876V83.52H108.976V92H107.876V91.45H107.576C107.316 91.89 106.746 92.16 106.096 92.16ZM104.746 89C104.746 90.34 105.326 91.13 106.326 91.13C107.336 91.13 107.916 90.34 107.916 89C107.916 87.66 107.336 86.87 106.326 86.87C105.326 86.87 104.746 87.66 104.746 89ZM110.978 88.95C110.978 87.04 112.008 85.84 113.638 85.84C115.168 85.84 116.068 86.96 116.068 88.9C116.068 89.05 116.058 89.22 116.048 89.36H112.068C112.168 90.53 112.728 91.16 113.668 91.16C114.338 91.16 114.848 90.81 115.198 90.16H116.228C115.938 91.4 114.958 92.16 113.668 92.16C111.968 92.16 110.978 90.98 110.978 88.95ZM112.088 88.39H115.018C114.898 87.38 114.418 86.84 113.638 86.84C112.788 86.84 112.238 87.4 112.088 88.39ZM118.15 92V86H119.25V86.45H119.55C119.85 86.06 120.35 85.84 120.93 85.84C122.18 85.84 123 86.73 123 88.11V92H121.9V88.41C121.9 87.42 121.44 86.89 120.58 86.89C119.71 86.89 119.25 87.42 119.25 88.41V92H118.15ZM127.251 84.44V86H129.951V87.03H127.251V90.03C127.251 90.74 127.551 91.13 128.111 91.13C128.691 91.13 129.001 90.73 129.161 89.9H130.131C130.071 91.36 129.331 92.16 128.071 92.16C126.841 92.16 126.151 91.4 126.151 90.07V87.03H124.831V86H126.151V84.44H127.251ZM132.473 86H135.393V90.97H137.203V92H132.473V90.97H134.293V87.03H132.473V86ZM133.933 84.3C133.933 83.79 134.243 83.49 134.763 83.49C135.283 83.49 135.593 83.79 135.593 84.3C135.593 84.81 135.283 85.11 134.763 85.11C134.243 85.11 133.933 84.81 133.933 84.3ZM141.775 92H140.675V87.03H139.335V86H140.675V85.35C140.675 84.11 141.435 83.36 142.695 83.36C143.885 83.36 144.645 84.01 144.715 85.1H143.715C143.525 84.63 143.185 84.38 142.695 84.38C142.115 84.38 141.775 84.76 141.775 85.42V86H144.055V87.03H141.775V92ZM146.477 86H149.397V90.97H151.207V92H146.477V90.97H148.297V87.03H146.477V86ZM147.937 84.3C147.937 83.79 148.247 83.49 148.767 83.49C149.287 83.49 149.597 83.79 149.597 84.3C149.597 84.81 149.287 85.11 148.767 85.11C148.247 85.11 147.937 84.81 147.937 84.3ZM152.989 88.95C152.989 87.04 154.019 85.84 155.649 85.84C157.179 85.84 158.079 86.96 158.079 88.9C158.079 89.05 158.069 89.22 158.059 89.36H154.079C154.179 90.53 154.739 91.16 155.679 91.16C156.349 91.16 156.859 90.81 157.209 90.16H158.239C157.949 91.4 156.969 92.16 155.679 92.16C153.979 92.16 152.989 90.98 152.989 88.95ZM154.099 88.39H157.029C156.909 87.38 156.429 86.84 155.649 86.84C154.799 86.84 154.249 87.4 154.099 88.39ZM159.981 86H162.321V86.44H162.621C162.861 86.06 163.291 85.84 163.821 85.84C164.791 85.84 165.381 86.56 165.381 87.73V88.6H164.241V87.89C164.241 87.22 163.961 86.88 163.421 86.88C162.731 86.88 162.391 87.5 162.391 88.73V90.97H164.251V92H160.161V90.97H161.291V87.03H159.981V86ZM168.143 90.16C168.333 90.78 168.823 91.13 169.603 91.13C170.403 91.13 170.843 90.83 170.843 90.3C170.843 89.94 170.493 89.7 169.813 89.6L169.083 89.49C167.773 89.29 167.163 88.73 167.163 87.71C167.163 86.55 168.073 85.84 169.583 85.84C171.113 85.84 172.053 86.63 172.113 87.96H171.113C170.923 87.26 170.403 86.87 169.563 86.87C168.723 86.87 168.253 87.17 168.253 87.7C168.253 88.06 168.603 88.3 169.283 88.4L170.013 88.51C171.333 88.71 171.933 89.27 171.933 90.29C171.933 91.45 171.043 92.16 169.593 92.16C168.103 92.16 167.193 91.42 167.123 90.16H168.143ZM185.907 86V92H184.807V91.55H184.507C184.207 91.94 183.707 92.16 183.127 92.16C181.877 92.16 181.057 91.27 181.057 89.89V86H182.157V89.59C182.157 90.58 182.617 91.11 183.477 91.11C184.347 91.11 184.807 90.58 184.807 89.59V86H185.907ZM189.149 90.16C189.339 90.78 189.829 91.13 190.609 91.13C191.409 91.13 191.849 90.83 191.849 90.3C191.849 89.94 191.499 89.7 190.819 89.6L190.089 89.49C188.779 89.29 188.169 88.73 188.169 87.71C188.169 86.55 189.079 85.84 190.589 85.84C192.119 85.84 193.059 86.63 193.119 87.96H192.119C191.929 87.26 191.409 86.87 190.569 86.87C189.729 86.87 189.259 87.17 189.259 87.7C189.259 88.06 189.609 88.3 190.289 88.4L191.019 88.51C192.339 88.71 192.939 89.27 192.939 90.29C192.939 91.45 192.049 92.16 190.599 92.16C189.109 92.16 188.199 91.42 188.129 90.16H189.149ZM195.001 88.95C195.001 87.04 196.031 85.84 197.661 85.84C199.191 85.84 200.091 86.96 200.091 88.9C200.091 89.05 200.081 89.22 200.071 89.36H196.091C196.191 90.53 196.751 91.16 197.691 91.16C198.361 91.16 198.871 90.81 199.221 90.16H200.251C199.961 91.4 198.981 92.16 197.691 92.16C195.991 92.16 195.001 90.98 195.001 88.95ZM196.111 88.39H199.041C198.921 87.38 198.441 86.84 197.661 86.84C196.811 86.84 196.261 87.4 196.111 88.39ZM201.993 86H204.333V86.44H204.633C204.873 86.06 205.303 85.84 205.833 85.84C206.803 85.84 207.393 86.56 207.393 87.73V88.6H206.253V87.89C206.253 87.22 205.973 86.88 205.433 86.88C204.743 86.88 204.403 87.5 204.403 88.73V90.97H206.263V92H202.173V90.97H203.303V87.03H201.993V86ZM209.175 92V86H210.275V86.45H210.575C210.875 86.06 211.375 85.84 211.955 85.84C213.205 85.84 214.025 86.73 214.025 88.11V92H212.925V88.41C212.925 87.42 212.465 86.89 211.605 86.89C210.735 86.89 210.275 87.42 210.275 88.41V92H209.175ZM215.817 88.07C215.917 86.69 216.947 85.84 218.517 85.84C220.017 85.84 220.867 86.63 220.867 88.03V92H219.797V91.45H219.497C219.167 91.91 218.667 92.15 217.927 92.15C216.827 92.15 216.117 91.46 216.117 90.42C216.117 89.42 216.787 88.75 217.967 88.56L219.797 88.27V88.1C219.797 87.33 219.287 86.86 218.487 86.86C217.617 86.86 217.037 87.29 216.867 88.07H215.817ZM217.277 90.37C217.277 90.82 217.647 91.13 218.187 91.13C219.067 91.13 219.797 90.44 219.797 89.57V89.24L218.107 89.5C217.537 89.59 217.277 89.9 217.277 90.37ZM222.809 86H223.909V86.48H224.169C224.299 86.08 224.619 85.84 225.059 85.84C225.459 85.84 225.779 86.1 225.939 86.53H226.199C226.339 86.1 226.699 85.84 227.179 85.84C227.879 85.84 228.329 86.47 228.329 87.44V92H227.279V87.87C227.279 87.33 227.079 87.05 226.679 87.05C226.289 87.05 226.089 87.33 226.089 87.87V92H225.049V87.87C225.049 87.33 224.849 87.05 224.459 87.05C224.059 87.05 223.859 87.33 223.859 87.87V92H222.809V86ZM230.011 88.95C230.011 87.04 231.041 85.84 232.671 85.84C234.201 85.84 235.101 86.96 235.101 88.9C235.101 89.05 235.091 89.22 235.081 89.36H231.101C231.201 90.53 231.761 91.16 232.701 91.16C233.371 91.16 233.881 90.81 234.231 90.16H235.261C234.971 91.4 233.991 92.16 232.701 92.16C231.001 92.16 230.011 90.98 230.011 88.95ZM231.121 88.39H234.051C233.931 87.38 233.451 86.84 232.671 86.84C231.821 86.84 231.271 87.4 231.121 88.39ZM89.9717 120.95C89.9717 119.04 91.0017 117.84 92.6317 117.84C94.1617 117.84 95.0617 118.96 95.0617 120.9C95.0617 121.05 95.0517 121.22 95.0417 121.36H91.0617C91.1617 122.53 91.7217 123.16 92.6617 123.16C93.3317 123.16 93.8417 122.81 94.1917 122.16H95.2217C94.9317 123.4 93.9517 124.16 92.6617 124.16C90.9617 124.16 89.9717 122.98 89.9717 120.95ZM91.0817 120.39H94.0117C93.8917 119.38 93.4117 118.84 92.6317 118.84C91.7817 118.84 91.2317 119.4 91.0817 120.39ZM96.6837 118H97.8537L99.5037 123.01H99.6037L101.244 118H102.344L100.354 124H98.6737L96.6837 118ZM103.976 120.95C103.976 119.04 105.006 117.84 106.636 117.84C108.166 117.84 109.066 118.96 109.066 120.9C109.066 121.05 109.056 121.22 109.046 121.36H105.066C105.166 122.53 105.726 123.16 106.666 123.16C107.336 123.16 107.846 122.81 108.196 122.16H109.226C108.936 123.4 107.956 124.16 106.666 124.16C104.966 124.16 103.976 122.98 103.976 120.95ZM105.086 120.39H108.016C107.896 119.38 107.416 118.84 106.636 118.84C105.786 118.84 105.236 119.4 105.086 120.39ZM111.148 124V118H112.248V118.45H112.548C112.848 118.06 113.348 117.84 113.928 117.84C115.178 117.84 115.998 118.73 115.998 120.11V124H114.898V120.41C114.898 119.42 114.438 118.89 113.578 118.89C112.708 118.89 112.248 119.42 112.248 120.41V124H111.148ZM120.25 116.44V118H122.95V119.03H120.25V122.03C120.25 122.74 120.55 123.13 121.11 123.13C121.69 123.13 122 122.73 122.16 121.9H123.13C123.07 123.36 122.33 124.16 121.07 124.16C119.84 124.16 119.15 123.4 119.15 122.07V119.03H117.83V118H119.15V116.44H120.25ZM120.94 204.16C120.29 204.16 119.72 203.89 119.46 203.45H119.16V204H118.06V195.52H119.16V198.55H119.46C119.72 198.11 120.29 197.84 120.94 197.84C122.43 197.84 123.39 199.06 123.39 201C123.39 202.94 122.43 204.16 120.94 204.16ZM119.12 201C119.12 202.34 119.7 203.13 120.71 203.13C121.71 203.13 122.29 202.34 122.29 201C122.29 199.66 121.71 198.87 120.71 198.87C119.7 198.87 119.12 199.66 119.12 201ZM124.971 198H127.311V198.44H127.611C127.851 198.06 128.281 197.84 128.811 197.84C129.781 197.84 130.371 198.56 130.371 199.73V200.6H129.231V199.89C129.231 199.22 128.951 198.88 128.411 198.88C127.721 198.88 127.381 199.5 127.381 200.73V202.97H129.241V204H125.151V202.97H126.281V199.03H124.971V198ZM134.523 204.16C132.863 204.16 131.803 202.94 131.803 201C131.803 199.06 132.863 197.84 134.523 197.84C136.183 197.84 137.243 199.06 137.243 201C137.243 202.94 136.183 204.16 134.523 204.16ZM132.893 201C132.893 202.34 133.493 203.13 134.523 203.13C135.553 203.13 136.153 202.34 136.153 201C136.153 199.66 135.553 198.87 134.523 198.87C133.493 198.87 132.893 199.66 132.893 201ZM138.795 200.07C138.895 198.69 139.925 197.84 141.495 197.84C142.995 197.84 143.845 198.63 143.845 200.03V204H142.775V203.45H142.475C142.145 203.91 141.645 204.15 140.905 204.15C139.805 204.15 139.095 203.46 139.095 202.42C139.095 201.42 139.765 200.75 140.945 200.56L142.775 200.27V200.1C142.775 199.33 142.265 198.86 141.465 198.86C140.595 198.86 140.015 199.29 139.845 200.07H138.795ZM140.255 202.37C140.255 202.82 140.625 203.13 141.165 203.13C142.045 203.13 142.775 202.44 142.775 201.57V201.24L141.085 201.5C140.515 201.59 140.255 201.9 140.255 202.37ZM148.107 204.16C146.617 204.16 145.657 202.94 145.657 201C145.657 199.06 146.617 197.84 148.107 197.84C148.757 197.84 149.327 198.11 149.587 198.55H149.887V195.52H150.987V204H149.887V203.45H149.587C149.327 203.89 148.757 204.16 148.107 204.16ZM146.757 201C146.757 202.34 147.337 203.13 148.337 203.13C149.347 203.13 149.927 202.34 149.927 201C149.927 199.66 149.347 198.87 148.337 198.87C147.337 198.87 146.757 199.66 146.757 201ZM155.669 204.16C154.029 204.16 152.989 202.95 152.989 201.03C152.989 199.08 154.069 197.84 155.769 197.84C157.259 197.84 158.239 198.81 158.299 200.32H157.289C157.119 199.41 156.549 198.87 155.729 198.87C154.679 198.87 154.079 199.67 154.079 201.03C154.079 202.36 154.669 203.13 155.669 203.13C156.409 203.13 156.939 202.66 157.149 201.86H158.159C158.059 203.26 157.049 204.16 155.669 204.16ZM159.801 200.07C159.901 198.69 160.931 197.84 162.501 197.84C164.001 197.84 164.851 198.63 164.851 200.03V204H163.781V203.45H163.481C163.151 203.91 162.651 204.15 161.911 204.15C160.811 204.15 160.101 203.46 160.101 202.42C160.101 201.42 160.771 200.75 161.951 200.56L163.781 200.27V200.1C163.781 199.33 163.271 198.86 162.471 198.86C161.601 198.86 161.021 199.29 160.851 200.07H159.801ZM161.261 202.37C161.261 202.82 161.631 203.13 162.171 203.13C163.051 203.13 163.781 202.44 163.781 201.57V201.24L162.091 201.5C161.521 201.59 161.261 201.9 161.261 202.37ZM168.143 202.16C168.333 202.78 168.823 203.13 169.603 203.13C170.403 203.13 170.843 202.83 170.843 202.3C170.843 201.94 170.493 201.7 169.813 201.6L169.083 201.49C167.773 201.29 167.163 200.73 167.163 199.71C167.163 198.55 168.073 197.84 169.583 197.84C171.113 197.84 172.053 198.63 172.113 199.96H171.113C170.923 199.26 170.403 198.87 169.563 198.87C168.723 198.87 168.253 199.17 168.253 199.7C168.253 200.06 168.603 200.3 169.283 200.4L170.013 200.51C171.333 200.71 171.933 201.27 171.933 202.29C171.933 203.45 171.043 204.16 169.593 204.16C168.103 204.16 167.193 203.42 167.123 202.16H168.143ZM176.265 196.44V198H178.965V199.03H176.265V202.03C176.265 202.74 176.565 203.13 177.125 203.13C177.705 203.13 178.015 202.73 178.175 201.9H179.145C179.085 203.36 178.345 204.16 177.085 204.16C175.855 204.16 175.165 203.4 175.165 202.07V199.03H173.845V198H175.165V196.44H176.265ZM182.967 204V197.07H180.607V196H186.467V197.07H184.107V204H182.967ZM190.539 204.16C188.879 204.16 187.819 202.94 187.819 201C187.819 199.06 188.879 197.84 190.539 197.84C192.199 197.84 193.259 199.06 193.259 201C193.259 202.94 192.199 204.16 190.539 204.16ZM188.909 201C188.909 202.34 189.509 203.13 190.539 203.13C191.569 203.13 192.169 202.34 192.169 201C192.169 199.66 191.569 198.87 190.539 198.87C189.509 198.87 188.909 199.66 188.909 201Z" fill="#CBAAF9"/>
<path d="M201.943 55.63V54.63H207.143V55.63H201.943ZM201.943 58.37V57.37H207.143V58.37H201.943ZM152.929 71.63V70.63H158.129V71.63H152.929ZM152.929 74.37V73.37H158.129V74.37H152.929ZM173.935 103.63V102.63H179.135V103.63H173.935ZM173.935 106.37V105.37H179.135V106.37H173.935Z" fill="#81B4EC"/>
<path d="M139.775 115.52H140.995L140.795 119.42H139.975L139.775 115.52ZM142.055 115.52H143.275L143.075 119.42H142.255L142.055 115.52ZM146.157 124V118H147.257V118.45H147.557C147.857 118.06 148.357 117.84 148.937 117.84C150.187 117.84 151.007 118.73 151.007 120.11V124H149.907V120.41C149.907 119.42 149.447 118.89 148.587 118.89C147.717 118.89 147.257 119.42 147.257 120.41V124H146.157ZM152.989 120.95C152.989 119.04 154.019 117.84 155.649 117.84C157.179 117.84 158.079 118.96 158.079 120.9C158.079 121.05 158.069 121.22 158.059 121.36H154.079C154.179 122.53 154.739 123.16 155.679 123.16C156.349 123.16 156.859 122.81 157.209 122.16H158.239C157.949 123.4 156.969 124.16 155.679 124.16C153.979 124.16 152.989 122.98 152.989 120.95ZM154.099 120.39H157.029C156.909 119.38 156.429 118.84 155.649 118.84C154.799 118.84 154.249 119.4 154.099 120.39ZM160.401 124L159.331 118H160.431L160.931 121.2L161.141 123.2H161.241L161.811 118H163.331L163.921 123.2H164.021L164.221 121.2L164.731 118H165.731L164.661 124H163.171L162.581 118.77H162.481L161.911 124H160.401ZM166.763 124V116H168.573L169.513 120.63H169.623L170.553 116H172.303V124H171.263V119.4L171.303 116.8H171.183L170.293 121.3H168.783L167.883 116.8H167.763L167.803 119.4V124H166.763ZM173.995 120.95C173.995 119.04 175.025 117.84 176.655 117.84C178.185 117.84 179.085 118.96 179.085 120.9C179.085 121.05 179.075 121.22 179.065 121.36H175.085C175.185 122.53 175.745 123.16 176.685 123.16C177.355 123.16 177.865 122.81 178.215 122.16H179.245C178.955 123.4 177.975 124.16 176.685 124.16C174.985 124.16 173.995 122.98 173.995 120.95ZM175.105 120.39H178.035C177.915 119.38 177.435 118.84 176.655 118.84C175.805 118.84 175.255 119.4 175.105 120.39ZM182.147 122.16C182.337 122.78 182.827 123.13 183.607 123.13C184.407 123.13 184.847 122.83 184.847 122.3C184.847 121.94 184.497 121.7 183.817 121.6L183.087 121.49C181.777 121.29 181.167 120.73 181.167 119.71C181.167 118.55 182.077 117.84 183.587 117.84C185.117 117.84 186.057 118.63 186.117 119.96H185.117C184.927 119.26 184.407 118.87 183.567 118.87C182.727 118.87 182.257 119.17 182.257 119.7C182.257 120.06 182.607 120.3 183.287 120.4L184.017 120.51C185.337 120.71 185.937 121.27 185.937 122.29C185.937 123.45 185.047 124.16 183.597 124.16C182.107 124.16 181.197 123.42 181.127 122.16H182.147ZM189.149 122.16C189.339 122.78 189.829 123.13 190.609 123.13C191.409 123.13 191.849 122.83 191.849 122.3C191.849 121.94 191.499 121.7 190.819 121.6L190.089 121.49C188.779 121.29 188.169 120.73 188.169 119.71C188.169 118.55 189.079 117.84 190.589 117.84C192.119 117.84 193.059 118.63 193.119 119.96H192.119C191.929 119.26 191.409 118.87 190.569 118.87C189.729 118.87 189.259 119.17 189.259 119.7C189.259 120.06 189.609 120.3 190.289 120.4L191.019 120.51C192.339 120.71 192.939 121.27 192.939 122.29C192.939 123.45 192.049 124.16 190.599 124.16C189.109 124.16 188.199 123.42 188.129 122.16H189.149ZM194.811 120.07C194.911 118.69 195.941 117.84 197.511 117.84C199.011 117.84 199.861 118.63 199.861 120.03V124H198.791V123.45H198.491C198.161 123.91 197.661 124.15 196.921 124.15C195.821 124.15 195.111 123.46 195.111 122.42C195.111 121.42 195.781 120.75 196.961 120.56L198.791 120.27V120.1C198.791 119.33 198.281 118.86 197.481 118.86C196.611 118.86 196.031 119.29 195.861 120.07H194.811ZM196.271 122.37C196.271 122.82 196.641 123.13 197.181 123.13C198.061 123.13 198.791 122.44 198.791 121.57V121.24L197.101 121.5C196.531 121.59 196.271 121.9 196.271 122.37ZM207.023 123.8C207.023 125.25 206.043 126.16 204.403 126.16C202.883 126.16 201.873 125.42 201.813 124.23H202.863C203.073 124.82 203.623 125.16 204.403 125.16C205.353 125.16 205.923 124.63 205.923 123.73V123.09H205.623C205.353 123.48 204.803 123.72 204.223 123.72C202.763 123.72 201.833 122.59 201.833 120.8C201.833 118.98 202.763 117.84 204.223 117.84C204.823 117.84 205.373 118.1 205.623 118.5H205.923V118H207.023V123.8ZM202.923 120.8C202.923 122.02 203.493 122.73 204.453 122.73C205.423 122.73 205.993 122.02 205.993 120.8C205.993 119.58 205.423 118.87 204.453 118.87C203.493 118.87 202.923 119.58 202.923 120.8ZM209.005 120.95C209.005 119.04 210.035 117.84 211.665 117.84C213.195 117.84 214.095 118.96 214.095 120.9C214.095 121.05 214.085 121.22 214.075 121.36H210.095C210.195 122.53 210.755 123.16 211.695 123.16C212.365 123.16 212.875 122.81 213.225 122.16H214.255C213.965 123.4 212.985 124.16 211.695 124.16C209.995 124.16 209.005 122.98 209.005 120.95ZM210.115 120.39H213.045C212.925 119.38 212.445 118.84 211.665 118.84C210.815 118.84 210.265 119.4 210.115 120.39ZM216.797 115.52H218.017L217.817 119.42H216.997L216.797 115.52ZM219.077 115.52H220.297L220.097 119.42H219.277L219.077 115.52ZM202.923 195.52H204.363L206.163 198.28H205.123L202.923 195.52ZM208.995 198H211.335V198.44H211.635C211.875 198.06 212.305 197.84 212.835 197.84C213.805 197.84 214.395 198.56 214.395 199.73V200.6H213.255V199.89C213.255 199.22 212.975 198.88 212.435 198.88C211.745 198.88 211.405 199.5 211.405 200.73V202.97H213.265V204H209.175V202.97H210.305V199.03H208.995V198ZM218.547 204.16C216.887 204.16 215.827 202.94 215.827 201C215.827 199.06 216.887 197.84 218.547 197.84C220.207 197.84 221.267 199.06 221.267 201C221.267 202.94 220.207 204.16 218.547 204.16ZM216.917 201C216.917 202.34 217.517 203.13 218.547 203.13C219.577 203.13 220.177 202.34 220.177 201C220.177 199.66 219.577 198.87 218.547 198.87C217.517 198.87 216.917 199.66 216.917 201ZM225.549 204.16C223.889 204.16 222.829 202.94 222.829 201C222.829 199.06 223.889 197.84 225.549 197.84C227.209 197.84 228.269 199.06 228.269 201C228.269 202.94 227.209 204.16 225.549 204.16ZM223.919 201C223.919 202.34 224.519 203.13 225.549 203.13C226.579 203.13 227.179 202.34 227.179 201C227.179 199.66 226.579 198.87 225.549 198.87C224.519 198.87 223.919 199.66 223.919 201ZM229.811 198H230.911V198.48H231.171C231.301 198.08 231.621 197.84 232.061 197.84C232.461 197.84 232.781 198.1 232.941 198.53H233.201C233.341 198.1 233.701 197.84 234.181 197.84C234.881 197.84 235.331 198.47 235.331 199.44V204H234.281V199.87C234.281 199.33 234.081 199.05 233.681 199.05C233.291 199.05 233.091 199.33 233.091 199.87V204H232.051V199.87C232.051 199.33 231.851 199.05 231.461 199.05C231.061 199.05 230.861 199.33 230.861 199.87V204H229.811V198ZM236.983 204V202.93H238.983V197.07H236.983V196H242.123V197.07H240.123V202.93H242.123V204H236.983ZM246.135 204.16C244.645 204.16 243.685 202.94 243.685 201C243.685 199.06 244.645 197.84 246.135 197.84C246.785 197.84 247.355 198.11 247.615 198.55H247.915V195.52H249.015V204H247.915V203.45H247.615C247.355 203.89 246.785 204.16 246.135 204.16ZM244.785 201C244.785 202.34 245.365 203.13 246.365 203.13C247.375 203.13 247.955 202.34 247.955 201C247.955 199.66 247.375 198.87 246.365 198.87C245.365 198.87 244.785 199.66 244.785 201ZM253.557 204.08C252.967 204.08 252.637 203.73 252.637 203.12C252.637 202.52 252.967 202.17 253.557 202.17C254.147 202.17 254.477 202.52 254.477 203.12C254.477 203.73 254.147 204.08 253.557 204.08ZM252.637 198.87C252.637 198.27 252.967 197.92 253.557 197.92C254.147 197.92 254.477 198.27 254.477 198.87C254.477 199.48 254.147 199.83 253.557 199.83C252.967 199.83 252.637 199.48 252.637 198.87Z" fill="#ADD4F9"/>
<path d="M342.962 195.52H344.402L346.202 198.28H345.162L342.962 195.52Z" fill="#74CDDD"/>
<rect x="0.5" y="0.5" width="374" height="271" stroke="black" stroke-opacity="0.1"/>
</svg>
