<svg width="472" height="240" viewBox="0 0 472 240" fill="none" xmlns="http://www.w3.org/2000/svg">
<rect width="472" height="240" rx="4" fill="#0E1116"/>
<path d="M28.368 20V26.93H30.328V28H25.068V26.93H27.228V20.88L25.068 22.28V21.06L26.748 20H28.368ZM27.888 40.22C28.658 39.64 29.008 39.06 29.008 38.35C29.008 37.46 28.468 36.91 27.578 36.91C26.728 36.91 26.188 37.44 25.988 38.44H24.888C24.968 36.81 26.108 35.84 27.578 35.84C29.128 35.84 30.148 36.84 30.148 38.35C30.148 39.39 29.618 40.28 28.538 41.06L26.068 42.83V42.93H29.988V44H25.098V42.31L27.888 40.22ZM30.148 57.87C30.148 59.23 29.068 60.16 27.568 60.16C25.928 60.16 24.918 59.23 24.868 57.66H25.958C26.088 58.58 26.678 59.09 27.558 59.09C28.418 59.09 28.998 58.57 28.998 57.79C28.998 57 28.448 56.46 27.628 56.46H26.688V55.4H27.628C28.478 55.4 29.048 54.9 29.048 54.18C29.048 53.42 28.468 52.91 27.598 52.91C26.668 52.91 26.098 53.44 25.908 54.44H24.818C24.898 52.79 25.938 51.84 27.608 51.84C29.138 51.84 30.178 52.72 30.178 54.1C30.178 54.97 29.678 55.62 28.918 55.82V55.98C29.668 56.18 30.148 56.9 30.148 57.87ZM29.288 68V72.61H30.478V73.68H29.288V76H28.148V73.68H24.548V72.15L27.288 68H29.288ZM25.538 72.61H28.148V68.58L25.538 72.5V72.61ZM25.188 84H30.058V85.07H26.328V87.13H26.628C26.878 86.85 27.368 86.68 27.878 86.68C29.238 86.68 30.208 87.75 30.208 89.35C30.208 90.99 29.128 92.16 27.588 92.16C26.048 92.16 25.068 91.3 24.908 89.86H26.018C26.228 90.65 26.738 91.09 27.568 91.09C28.478 91.09 29.068 90.4 29.068 89.35C29.068 88.32 28.508 87.69 27.598 87.69C26.958 87.69 26.468 87.99 26.228 88.54H25.188V84ZM27.488 108.16C25.908 108.16 24.778 107.04 24.778 105.44C24.778 104.62 25.078 103.82 25.778 102.8L27.688 100H28.958L27.048 102.75L27.208 102.91C27.368 102.85 27.558 102.82 27.768 102.82C29.188 102.82 30.218 103.92 30.218 105.44C30.218 107.04 29.088 108.16 27.488 108.16ZM25.918 105.44C25.918 106.43 26.548 107.09 27.498 107.09C28.448 107.09 29.078 106.43 29.078 105.44C29.078 104.46 28.448 103.81 27.498 103.81C26.548 103.81 25.918 104.46 25.918 105.44ZM29.908 117.75L26.998 124H25.758L29.018 117.17V117.07H24.958V116H29.908V117.75ZM27.498 135.41C28.488 135.41 29.088 134.94 29.088 134.16C29.088 133.38 28.488 132.91 27.498 132.91C26.508 132.91 25.908 133.38 25.908 134.16C25.908 134.94 26.508 135.41 27.498 135.41ZM24.808 137.85C24.808 136.91 25.308 136.17 26.068 135.96V135.8C25.308 135.59 24.808 134.91 24.808 134.08C24.808 132.72 25.868 131.84 27.498 131.84C29.128 131.84 30.188 132.72 30.188 134.08C30.188 134.91 29.688 135.59 28.928 135.8V135.96C29.688 136.17 30.188 136.91 30.188 137.85C30.188 139.25 29.128 140.16 27.498 140.16C25.868 140.16 24.808 139.25 24.808 137.85ZM25.948 137.76C25.948 138.59 26.528 139.09 27.498 139.09C28.468 139.09 29.048 138.59 29.048 137.76C29.048 136.93 28.468 136.43 27.498 136.43C26.528 136.43 25.948 136.93 25.948 137.76ZM27.508 147.84C29.088 147.84 30.218 148.96 30.218 150.56C30.218 151.38 29.918 152.18 29.218 153.2L27.308 156H26.038L27.948 153.25L27.788 153.09C27.628 153.15 27.438 153.18 27.228 153.18C25.808 153.18 24.778 152.08 24.778 150.56C24.778 148.96 25.908 147.84 27.508 147.84ZM25.918 150.56C25.918 151.54 26.548 152.19 27.498 152.19C28.448 152.19 29.078 151.54 29.078 150.56C29.078 149.57 28.448 148.91 27.498 148.91C26.548 148.91 25.918 149.57 25.918 150.56ZM21.3661 164V170.93H23.3261V172H18.0661V170.93H20.2261V164.88L18.0661 166.28V165.06L19.7461 164H21.3661ZM27.498 172.16C25.558 172.16 24.578 170.78 24.578 168C24.578 165.22 25.558 163.84 27.498 163.84C29.438 163.84 30.418 165.22 30.418 168C30.418 170.78 29.438 172.16 27.498 172.16ZM25.718 168C25.718 168.24 25.728 168.46 25.738 168.66L29.058 166.16C28.788 165.31 28.278 164.91 27.498 164.91C26.278 164.91 25.718 165.88 25.718 168ZM25.928 169.82C26.198 170.68 26.708 171.09 27.498 171.09C28.718 171.09 29.278 170.12 29.278 168C29.278 167.75 29.268 167.52 29.258 167.31L25.928 169.82ZM21.3661 180V186.93H23.3261V188H18.0661V186.93H20.2261V180.88L18.0661 182.28V181.06L19.7461 180H21.3661ZM28.368 180V186.93H30.328V188H25.068V186.93H27.228V180.88L25.068 182.28V181.06L26.748 180H28.368ZM21.3661 196V202.93H23.3261V204H18.0661V202.93H20.2261V196.88L18.0661 198.28V197.06L19.7461 196H21.3661ZM27.888 200.22C28.658 199.64 29.008 199.06 29.008 198.35C29.008 197.46 28.468 196.91 27.578 196.91C26.728 196.91 26.188 197.44 25.988 198.44H24.888C24.968 196.81 26.108 195.84 27.578 195.84C29.128 195.84 30.148 196.84 30.148 198.35C30.148 199.39 29.618 200.28 28.538 201.06L26.068 202.83V202.93H29.988V204H25.098V202.31L27.888 200.22ZM21.3661 212V218.93H23.3261V220H18.0661V218.93H20.2261V212.88L18.0661 214.28V213.06L19.7461 212H21.3661ZM30.148 217.87C30.148 219.23 29.068 220.16 27.568 220.16C25.928 220.16 24.918 219.23 24.868 217.66H25.958C26.088 218.58 26.678 219.09 27.558 219.09C28.418 219.09 28.998 218.57 28.998 217.79C28.998 217 28.448 216.46 27.628 216.46H26.688V215.4H27.628C28.478 215.4 29.048 214.9 29.048 214.18C29.048 213.42 28.468 212.91 27.598 212.91C26.668 212.91 26.098 213.44 25.908 214.44H24.818C24.898 212.79 25.938 211.84 27.608 211.84C29.138 211.84 30.178 212.72 30.178 214.1C30.178 214.97 29.678 215.62 28.918 215.82V215.98C29.668 216.18 30.148 216.9 30.148 217.87Z" fill="#747474"/>
<path d="M47.96 24.95C47.96 23.04 48.99 21.84 50.62 21.84C52.15 21.84 53.05 22.96 53.05 24.9C53.05 25.05 53.04 25.22 53.03 25.36H49.05C49.15 26.53 49.71 27.16 50.65 27.16C51.32 27.16 51.83 26.81 52.18 26.16H53.21C52.92 27.4 51.94 28.16 50.65 28.16C48.95 28.16 47.96 26.98 47.96 24.95ZM49.07 24.39H52C51.88 23.38 51.4 22.84 50.62 22.84C49.77 22.84 49.22 23.4 49.07 24.39ZM54.832 28L56.582 25.15L54.722 22H56.002L57.362 24.31L57.452 24.6H57.552L57.642 24.31L59.082 22H60.282L58.382 25.05L60.172 28H58.862L57.602 25.92L57.512 25.63H57.412L57.322 25.92L56.052 28H54.832ZM62.0439 30V22H63.1439V22.55H63.4439C63.7039 22.11 64.2739 21.84 64.9239 21.84C66.4139 21.84 67.3739 23.06 67.3739 25C67.3739 26.94 66.4139 28.16 64.9239 28.16C64.2739 28.16 63.7039 27.89 63.4439 27.45H63.1439V30H62.0439ZM63.1039 25C63.1039 26.34 63.6839 27.13 64.6939 27.13C65.6939 27.13 66.2739 26.34 66.2739 25C66.2739 23.66 65.6939 22.87 64.6939 22.87C63.6839 22.87 63.1039 23.66 63.1039 25ZM71.5059 28.16C69.8459 28.16 68.7859 26.94 68.7859 25C68.7859 23.06 69.8459 21.84 71.5059 21.84C73.1659 21.84 74.2259 23.06 74.2259 25C74.2259 26.94 73.1659 28.16 71.5059 28.16ZM69.8759 25C69.8759 26.34 70.4759 27.13 71.5059 27.13C72.5359 27.13 73.1359 26.34 73.1359 25C73.1359 23.66 72.5359 22.87 71.5059 22.87C70.4759 22.87 69.8759 23.66 69.8759 25ZM75.9578 22H78.2978V22.44H78.5978C78.8378 22.06 79.2678 21.84 79.7978 21.84C80.7678 21.84 81.3578 22.56 81.3578 23.73V24.6H80.2178V23.89C80.2178 23.22 79.9378 22.88 79.3978 22.88C78.7078 22.88 78.3678 23.5 78.3678 24.73V26.97H80.2278V28H76.1378V26.97H77.2678V23.03H75.9578V22ZM85.2398 20.44V22H87.9398V23.03H85.2398V26.03C85.2398 26.74 85.5398 27.13 86.0998 27.13C86.6798 27.13 86.9898 26.73 87.1498 25.9H88.1198C88.0598 27.36 87.3198 28.16 86.0598 28.16C84.8298 28.16 84.1398 27.4 84.1398 26.07V23.03H82.8198V22H84.1398V20.44H85.2398ZM99.6537 28.16C98.0137 28.16 96.9737 26.95 96.9737 25.03C96.9737 23.08 98.0537 21.84 99.7537 21.84C101.244 21.84 102.224 22.81 102.284 24.32H101.274C101.104 23.41 100.534 22.87 99.7137 22.87C98.6637 22.87 98.0637 23.67 98.0637 25.03C98.0637 26.36 98.6537 27.13 99.6537 27.13C100.394 27.13 100.924 26.66 101.134 25.86H102.144C102.044 27.26 101.034 28.16 99.6537 28.16ZM104.316 19.52H107.236V26.97H109.046V28H104.316V26.97H106.136V20.55H104.316V19.52ZM110.788 24.07C110.888 22.69 111.918 21.84 113.488 21.84C114.988 21.84 115.838 22.63 115.838 24.03V28H114.768V27.45H114.468C114.138 27.91 113.638 28.15 112.898 28.15C111.798 28.15 111.088 27.46 111.088 26.42C111.088 25.42 111.758 24.75 112.938 24.56L114.768 24.27V24.1C114.768 23.33 114.258 22.86 113.458 22.86C112.588 22.86 112.008 23.29 111.838 24.07H110.788ZM112.248 26.37C112.248 26.82 112.618 27.13 113.158 27.13C114.038 27.13 114.768 26.44 114.768 25.57V25.24L113.078 25.5C112.508 25.59 112.248 25.9 112.248 26.37ZM119.13 26.16C119.32 26.78 119.81 27.13 120.59 27.13C121.39 27.13 121.83 26.83 121.83 26.3C121.83 25.94 121.48 25.7 120.8 25.6L120.07 25.49C118.76 25.29 118.15 24.73 118.15 23.71C118.15 22.55 119.06 21.84 120.57 21.84C122.1 21.84 123.04 22.63 123.1 23.96H122.1C121.91 23.26 121.39 22.87 120.55 22.87C119.71 22.87 119.24 23.17 119.24 23.7C119.24 24.06 119.59 24.3 120.27 24.4L121 24.51C122.32 24.71 122.92 25.27 122.92 26.29C122.92 27.45 122.03 28.16 120.58 28.16C119.09 28.16 118.18 27.42 118.11 26.16H119.13ZM126.131 26.16C126.321 26.78 126.811 27.13 127.591 27.13C128.391 27.13 128.831 26.83 128.831 26.3C128.831 25.94 128.481 25.7 127.801 25.6L127.071 25.49C125.761 25.29 125.151 24.73 125.151 23.71C125.151 22.55 126.061 21.84 127.571 21.84C129.101 21.84 130.041 22.63 130.101 23.96H129.101C128.911 23.26 128.391 22.87 127.551 22.87C126.711 22.87 126.241 23.17 126.241 23.7C126.241 24.06 126.591 24.3 127.271 24.4L128.001 24.51C129.321 24.71 129.921 25.27 129.921 26.29C129.921 27.45 129.031 28.16 127.581 28.16C126.091 28.16 125.181 27.42 125.111 26.16H126.131ZM223.009 24.95C223.009 23.04 224.039 21.84 225.669 21.84C227.199 21.84 228.099 22.96 228.099 24.9C228.099 25.05 228.089 25.22 228.079 25.36H224.099C224.199 26.53 224.759 27.16 225.699 27.16C226.369 27.16 226.879 26.81 227.229 26.16H228.259C227.969 27.4 226.989 28.16 225.699 28.16C223.999 28.16 223.009 26.98 223.009 24.95ZM224.119 24.39H227.049C226.929 23.38 226.449 22.84 225.669 22.84C224.819 22.84 224.269 23.4 224.119 24.39ZM229.881 28L231.631 25.15L229.771 22H231.051L232.411 24.31L232.501 24.6H232.601L232.691 24.31L234.131 22H235.331L233.431 25.05L235.221 28H233.911L232.651 25.92L232.561 25.63H232.461L232.371 25.92L231.101 28H229.881ZM239.283 20.44V22H241.983V23.03H239.283V26.03C239.283 26.74 239.583 27.13 240.143 27.13C240.723 27.13 241.033 26.73 241.193 25.9H242.163C242.103 27.36 241.363 28.16 240.103 28.16C238.873 28.16 238.183 27.4 238.183 26.07V23.03H236.863V22H238.183V20.44H239.283ZM244.015 24.95C244.015 23.04 245.045 21.84 246.675 21.84C248.205 21.84 249.105 22.96 249.105 24.9C249.105 25.05 249.095 25.22 249.085 25.36H245.105C245.205 26.53 245.765 27.16 246.705 27.16C247.375 27.16 247.885 26.81 248.235 26.16H249.265C248.975 27.4 247.995 28.16 246.705 28.16C245.005 28.16 244.015 26.98 244.015 24.95ZM245.125 24.39H248.055C247.935 23.38 247.455 22.84 246.675 22.84C245.825 22.84 245.275 23.4 245.125 24.39ZM251.187 28V22H252.287V22.45H252.587C252.887 22.06 253.387 21.84 253.967 21.84C255.217 21.84 256.037 22.73 256.037 24.11V28H254.937V24.41C254.937 23.42 254.477 22.89 253.617 22.89C252.747 22.89 252.287 23.42 252.287 24.41V28H251.187ZM260.139 28.16C258.649 28.16 257.689 26.94 257.689 25C257.689 23.06 258.649 21.84 260.139 21.84C260.789 21.84 261.359 22.11 261.619 22.55H261.919V19.52H263.019V28H261.919V27.45H261.619C261.359 27.89 260.789 28.16 260.139 28.16ZM258.789 25C258.789 26.34 259.369 27.13 260.369 27.13C261.379 27.13 261.959 26.34 261.959 25C261.959 23.66 261.379 22.87 260.369 22.87C259.369 22.87 258.789 23.66 258.789 25ZM266.171 26.16C266.361 26.78 266.851 27.13 267.631 27.13C268.431 27.13 268.871 26.83 268.871 26.3C268.871 25.94 268.521 25.7 267.841 25.6L267.111 25.49C265.801 25.29 265.191 24.73 265.191 23.71C265.191 22.55 266.101 21.84 267.611 21.84C269.141 21.84 270.081 22.63 270.141 23.96H269.141C268.951 23.26 268.431 22.87 267.591 22.87C266.751 22.87 266.281 23.17 266.281 23.7C266.281 24.06 266.631 24.3 267.311 24.4L268.041 24.51C269.361 24.71 269.961 25.27 269.961 26.29C269.961 27.45 269.071 28.16 267.621 28.16C266.131 28.16 265.221 27.42 265.151 26.16H266.171ZM61.7739 40.07C61.8739 38.69 62.9039 37.84 64.4739 37.84C65.9739 37.84 66.8239 38.63 66.8239 40.03V44H65.7539V43.45H65.4539C65.1239 43.91 64.6239 44.15 63.8839 44.15C62.7839 44.15 62.0739 43.46 62.0739 42.42C62.0739 41.42 62.7439 40.75 63.9239 40.56L65.7539 40.27V40.1C65.7539 39.33 65.2439 38.86 64.4439 38.86C63.5739 38.86 62.9939 39.29 62.8239 40.07H61.7739ZM63.2339 42.37C63.2339 42.82 63.6039 43.13 64.1439 43.13C65.0239 43.13 65.7539 42.44 65.7539 41.57V41.24L64.0639 41.5C63.4939 41.59 63.2339 41.9 63.2339 42.37ZM70.1159 42.16C70.3059 42.78 70.7959 43.13 71.5759 43.13C72.3759 43.13 72.8159 42.83 72.8159 42.3C72.8159 41.94 72.4659 41.7 71.7859 41.6L71.0559 41.49C69.7459 41.29 69.1359 40.73 69.1359 39.71C69.1359 38.55 70.0459 37.84 71.5559 37.84C73.0859 37.84 74.0259 38.63 74.0859 39.96H73.0859C72.8959 39.26 72.3759 38.87 71.5359 38.87C70.6959 38.87 70.2259 39.17 70.2259 39.7C70.2259 40.06 70.5759 40.3 71.2559 40.4L71.9859 40.51C73.3059 40.71 73.9059 41.27 73.9059 42.29C73.9059 43.45 73.0159 44.16 71.5659 44.16C70.0759 44.16 69.1659 43.42 69.0959 42.16H70.1159ZM75.6878 38H76.8678L78.4078 42.49H78.8178L80.2478 38H81.3378L79.1278 44.87C78.8678 45.68 78.2978 46.16 77.5978 46.16C76.5778 46.16 75.9778 45.58 75.8978 44.52H76.8978C77.0578 44.96 77.2278 45.15 77.5578 45.15C77.8478 45.15 78.0078 44.98 78.1578 44.55L78.4978 43.5H77.5978L75.6878 38ZM83.1398 44V38H84.2398V38.45H84.5398C84.8398 38.06 85.3398 37.84 85.9198 37.84C87.1698 37.84 87.9898 38.73 87.9898 40.11V44H86.8898V40.41C86.8898 39.42 86.4298 38.89 85.5698 38.89C84.6998 38.89 84.2398 39.42 84.2398 40.41V44H83.1398ZM92.6517 44.16C91.0117 44.16 89.9717 42.95 89.9717 41.03C89.9717 39.08 91.0517 37.84 92.7517 37.84C94.2417 37.84 95.2217 38.81 95.2817 40.32H94.2717C94.1017 39.41 93.5317 38.87 92.7117 38.87C91.6617 38.87 91.0617 39.67 91.0617 41.03C91.0617 42.36 91.6517 43.13 92.6517 43.13C93.3917 43.13 93.9217 42.66 94.1317 41.86H95.1417C95.0417 43.26 94.0317 44.16 92.6517 44.16ZM78.6478 60.16C77.0078 60.16 75.9678 58.95 75.9678 57.03C75.9678 55.08 77.0478 53.84 78.7478 53.84C80.2378 53.84 81.2178 54.81 81.2778 56.32H80.2678C80.0978 55.41 79.5278 54.87 78.7078 54.87C77.6578 54.87 77.0578 55.67 77.0578 57.03C77.0578 58.36 77.6478 59.13 78.6478 59.13C79.3878 59.13 79.9178 58.66 80.1278 57.86H81.1378C81.0378 59.26 80.0278 60.16 78.6478 60.16ZM85.5098 60.16C83.8498 60.16 82.7898 58.94 82.7898 57C82.7898 55.06 83.8498 53.84 85.5098 53.84C87.1698 53.84 88.2298 55.06 88.2298 57C88.2298 58.94 87.1698 60.16 85.5098 60.16ZM83.8798 57C83.8798 58.34 84.4798 59.13 85.5098 59.13C86.5398 59.13 87.1398 58.34 87.1398 57C87.1398 55.66 86.5398 54.87 85.5098 54.87C84.4798 54.87 83.8798 55.66 83.8798 57ZM90.1417 60V54H91.2417V54.45H91.5417C91.8417 54.06 92.3417 53.84 92.9217 53.84C94.1717 53.84 94.9917 54.73 94.9917 56.11V60H93.8917V56.41C93.8917 55.42 93.4317 54.89 92.5717 54.89C91.7017 54.89 91.2417 55.42 91.2417 56.41V60H90.1417ZM98.1237 58.16C98.3137 58.78 98.8037 59.13 99.5837 59.13C100.384 59.13 100.824 58.83 100.824 58.3C100.824 57.94 100.474 57.7 99.7937 57.6L99.0637 57.49C97.7537 57.29 97.1437 56.73 97.1437 55.71C97.1437 54.55 98.0537 53.84 99.5637 53.84C101.094 53.84 102.034 54.63 102.094 55.96H101.094C100.904 55.26 100.384 54.87 99.5437 54.87C98.7037 54.87 98.2337 55.17 98.2337 55.7C98.2337 56.06 98.5837 56.3 99.2637 56.4L99.9937 56.51C101.314 56.71 101.914 57.27 101.914 58.29C101.914 59.45 101.024 60.16 99.5737 60.16C98.0837 60.16 97.1737 59.42 97.1037 58.16H98.1237ZM106.246 52.44V54H108.946V55.03H106.246V58.03C106.246 58.74 106.546 59.13 107.106 59.13C107.686 59.13 107.996 58.73 108.156 57.9H109.126C109.066 59.36 108.326 60.16 107.066 60.16C105.836 60.16 105.146 59.4 105.146 58.07V55.03H103.826V54H105.146V52.44H106.246ZM78.6478 76.16C77.0078 76.16 75.9678 74.95 75.9678 73.03C75.9678 71.08 77.0478 69.84 78.7478 69.84C80.2378 69.84 81.2178 70.81 81.2778 72.32H80.2678C80.0978 71.41 79.5278 70.87 78.7078 70.87C77.6578 70.87 77.0578 71.67 77.0578 73.03C77.0578 74.36 77.6478 75.13 78.6478 75.13C79.3878 75.13 79.9178 74.66 80.1278 73.86H81.1378C81.0378 75.26 80.0278 76.16 78.6478 76.16ZM85.5098 76.16C83.8498 76.16 82.7898 74.94 82.7898 73C82.7898 71.06 83.8498 69.84 85.5098 69.84C87.1698 69.84 88.2298 71.06 88.2298 73C88.2298 74.94 87.1698 76.16 85.5098 76.16ZM83.8798 73C83.8798 74.34 84.4798 75.13 85.5098 75.13C86.5398 75.13 87.1398 74.34 87.1398 73C87.1398 71.66 86.5398 70.87 85.5098 70.87C84.4798 70.87 83.8798 71.66 83.8798 73ZM90.1417 76V70H91.2417V70.45H91.5417C91.8417 70.06 92.3417 69.84 92.9217 69.84C94.1717 69.84 94.9917 70.73 94.9917 72.11V76H93.8917V72.41C93.8917 71.42 93.4317 70.89 92.5717 70.89C91.7017 70.89 91.2417 71.42 91.2417 72.41V76H90.1417ZM98.1237 74.16C98.3137 74.78 98.8037 75.13 99.5837 75.13C100.384 75.13 100.824 74.83 100.824 74.3C100.824 73.94 100.474 73.7 99.7937 73.6L99.0637 73.49C97.7537 73.29 97.1437 72.73 97.1437 71.71C97.1437 70.55 98.0537 69.84 99.5637 69.84C101.094 69.84 102.034 70.63 102.094 71.96H101.094C100.904 71.26 100.384 70.87 99.5437 70.87C98.7037 70.87 98.2337 71.17 98.2337 71.7C98.2337 72.06 98.5837 72.3 99.2637 72.4L99.9937 72.51C101.314 72.71 101.914 73.27 101.914 74.29C101.914 75.45 101.024 76.16 99.5737 76.16C98.0837 76.16 97.1737 75.42 97.1037 74.16H98.1237ZM106.246 68.44V70H108.946V71.03H106.246V74.03C106.246 74.74 106.546 75.13 107.106 75.13C107.686 75.13 107.996 74.73 108.156 73.9H109.126C109.066 75.36 108.326 76.16 107.066 76.16C105.836 76.16 105.146 75.4 105.146 74.07V71.03H103.826V70H105.146V68.44H106.246ZM78.6478 92.16C77.0078 92.16 75.9678 90.95 75.9678 89.03C75.9678 87.08 77.0478 85.84 78.7478 85.84C80.2378 85.84 81.2178 86.81 81.2778 88.32H80.2678C80.0978 87.41 79.5278 86.87 78.7078 86.87C77.6578 86.87 77.0578 87.67 77.0578 89.03C77.0578 90.36 77.6478 91.13 78.6478 91.13C79.3878 91.13 79.9178 90.66 80.1278 89.86H81.1378C81.0378 91.26 80.0278 92.16 78.6478 92.16ZM85.5098 92.16C83.8498 92.16 82.7898 90.94 82.7898 89C82.7898 87.06 83.8498 85.84 85.5098 85.84C87.1698 85.84 88.2298 87.06 88.2298 89C88.2298 90.94 87.1698 92.16 85.5098 92.16ZM83.8798 89C83.8798 90.34 84.4798 91.13 85.5098 91.13C86.5398 91.13 87.1398 90.34 87.1398 89C87.1398 87.66 86.5398 86.87 85.5098 86.87C84.4798 86.87 83.8798 87.66 83.8798 89ZM90.1417 92V86H91.2417V86.45H91.5417C91.8417 86.06 92.3417 85.84 92.9217 85.84C94.1717 85.84 94.9917 86.73 94.9917 88.11V92H93.8917V88.41C93.8917 87.42 93.4317 86.89 92.5717 86.89C91.7017 86.89 91.2417 87.42 91.2417 88.41V92H90.1417ZM98.1237 90.16C98.3137 90.78 98.8037 91.13 99.5837 91.13C100.384 91.13 100.824 90.83 100.824 90.3C100.824 89.94 100.474 89.7 99.7937 89.6L99.0637 89.49C97.7537 89.29 97.1437 88.73 97.1437 87.71C97.1437 86.55 98.0537 85.84 99.5637 85.84C101.094 85.84 102.034 86.63 102.094 87.96H101.094C100.904 87.26 100.384 86.87 99.5437 86.87C98.7037 86.87 98.2337 87.17 98.2337 87.7C98.2337 88.06 98.5837 88.3 99.2637 88.4L99.9937 88.51C101.314 88.71 101.914 89.27 101.914 90.29C101.914 91.45 101.024 92.16 99.5737 92.16C98.0837 92.16 97.1737 91.42 97.1037 90.16H98.1237ZM106.246 84.44V86H108.946V87.03H106.246V90.03C106.246 90.74 106.546 91.13 107.106 91.13C107.686 91.13 107.996 90.73 108.156 89.9H109.126C109.066 91.36 108.326 92.16 107.066 92.16C105.836 92.16 105.146 91.4 105.146 90.07V87.03H103.826V86H105.146V84.44H106.246ZM75.7778 184.07C75.8778 182.69 76.9078 181.84 78.4778 181.84C79.9778 181.84 80.8278 182.63 80.8278 184.03V188H79.7578V187.45H79.4578C79.1278 187.91 78.6278 188.15 77.8878 188.15C76.7878 188.15 76.0778 187.46 76.0778 186.42C76.0778 185.42 76.7478 184.75 77.9278 184.56L79.7578 184.27V184.1C79.7578 183.33 79.2478 182.86 78.4478 182.86C77.5778 182.86 76.9978 183.29 76.8278 184.07H75.7778ZM77.2378 186.37C77.2378 186.82 77.6078 187.13 78.1478 187.13C79.0278 187.13 79.7578 186.44 79.7578 185.57V185.24L78.0678 185.5C77.4978 185.59 77.2378 185.9 77.2378 186.37ZM83.3798 188L82.3098 182H83.4098L83.9098 185.2L84.1198 187.2H84.2198L84.7898 182H86.3098L86.8998 187.2H86.9998L87.1998 185.2L87.7098 182H88.7098L87.6398 188H86.1498L85.5598 182.77H85.4598L84.8898 188H83.3798ZM89.7817 184.07C89.8817 182.69 90.9117 181.84 92.4817 181.84C93.9817 181.84 94.8317 182.63 94.8317 184.03V188H93.7617V187.45H93.4617C93.1317 187.91 92.6317 188.15 91.8917 188.15C90.7917 188.15 90.0817 187.46 90.0817 186.42C90.0817 185.42 90.7517 184.75 91.9317 184.56L93.7617 184.27V184.1C93.7617 183.33 93.2517 182.86 92.4517 182.86C91.5817 182.86 91.0017 183.29 90.8317 184.07H89.7817ZM91.2417 186.37C91.2417 186.82 91.6117 187.13 92.1517 187.13C93.0317 187.13 93.7617 186.44 93.7617 185.57V185.24L92.0717 185.5C91.5017 185.59 91.2417 185.9 91.2417 186.37ZM97.4637 182H100.384V186.97H102.194V188H97.4637V186.97H99.2837V183.03H97.4637V182ZM98.9237 180.3C98.9237 179.79 99.2337 179.49 99.7537 179.49C100.274 179.49 100.584 179.79 100.584 180.3C100.584 180.81 100.274 181.11 99.7537 181.11C99.2337 181.11 98.9237 180.81 98.9237 180.3ZM106.246 180.44V182H108.946V183.03H106.246V186.03C106.246 186.74 106.546 187.13 107.106 187.13C107.686 187.13 107.996 186.73 108.156 185.9H109.126C109.066 187.36 108.326 188.16 107.066 188.16C105.836 188.16 105.146 187.4 105.146 186.07V183.03H103.826V182H105.146V180.44H106.246Z" fill="#E67F74"/>
<path d="M339.91 19.8C338.79 19.91 338.31 20.27 338.31 20.99C338.31 21.47 338.51 21.91 338.51 22.5C338.51 23.28 337.99 23.89 337.15 24.1V24.3C337.99 24.51 338.51 25.12 338.51 25.9C338.51 26.49 338.31 26.93 338.31 27.41C338.31 28.13 338.79 28.49 339.91 28.6V29.52C338.13 29.47 337.25 28.78 337.25 27.41C337.25 26.9 337.45 26.51 337.45 26.02C337.45 25.29 337.01 24.9 335.98 24.74V23.66C337.01 23.5 337.45 23.11 337.45 22.38C337.45 21.89 337.25 21.5 337.25 20.99C337.25 19.62 338.13 18.93 339.91 18.88V19.8ZM143.555 35.8C142.085 36.32 141.325 37.81 141.325 40.2C141.325 42.59 142.085 44.08 143.555 44.6V45.6C141.355 45.08 140.225 43.24 140.225 40.2C140.225 37.16 141.355 35.32 143.555 34.8V35.8ZM146.157 44V35.52H147.257V38.45H147.557C147.857 38.06 148.357 37.84 148.937 37.84C150.187 37.84 151.007 38.73 151.007 40.11V44H149.907V40.41C149.907 39.42 149.447 38.89 148.587 38.89C147.717 38.89 147.257 39.42 147.257 40.41V44H146.157ZM152.799 40.07C152.899 38.69 153.929 37.84 155.499 37.84C156.999 37.84 157.849 38.63 157.849 40.03V44H156.779V43.45H156.479C156.149 43.91 155.649 44.15 154.909 44.15C153.809 44.15 153.099 43.46 153.099 42.42C153.099 41.42 153.769 40.75 154.949 40.56L156.779 40.27V40.1C156.779 39.33 156.269 38.86 155.469 38.86C154.599 38.86 154.019 39.29 153.849 40.07H152.799ZM154.259 42.37C154.259 42.82 154.629 43.13 155.169 43.13C156.049 43.13 156.779 42.44 156.779 41.57V41.24L155.089 41.5C154.519 41.59 154.259 41.9 154.259 42.37ZM160.161 44V38H161.261V38.45H161.561C161.861 38.06 162.361 37.84 162.941 37.84C164.191 37.84 165.011 38.73 165.011 40.11V44H163.911V40.41C163.911 39.42 163.451 38.89 162.591 38.89C161.721 38.89 161.261 39.42 161.261 40.41V44H160.161ZM169.113 44.16C167.623 44.16 166.663 42.94 166.663 41C166.663 39.06 167.623 37.84 169.113 37.84C169.763 37.84 170.333 38.11 170.593 38.55H170.893V35.52H171.993V44H170.893V43.45H170.593C170.333 43.89 169.763 44.16 169.113 44.16ZM167.763 41C167.763 42.34 168.343 43.13 169.343 43.13C170.353 43.13 170.933 42.34 170.933 41C170.933 39.66 170.353 38.87 169.343 38.87C168.343 38.87 167.763 39.66 167.763 41ZM174.335 35.52H177.255V42.97H179.065V44H174.335V42.97H176.155V36.55H174.335V35.52ZM180.997 40.95C180.997 39.04 182.027 37.84 183.657 37.84C185.187 37.84 186.087 38.96 186.087 40.9C186.087 41.05 186.077 41.22 186.067 41.36H182.087C182.187 42.53 182.747 43.16 183.687 43.16C184.357 43.16 184.867 42.81 185.217 42.16H186.247C185.957 43.4 184.977 44.16 183.687 44.16C181.987 44.16 180.997 42.98 180.997 40.95ZM182.107 40.39H185.037C184.917 39.38 184.437 38.84 183.657 38.84C182.807 38.84 182.257 39.4 182.107 40.39ZM189.499 45.8C189.969 45.42 190.379 44.75 190.519 44.08C189.939 44.07 189.619 43.72 189.619 43.12C189.619 42.52 189.949 42.17 190.539 42.17C191.239 42.17 191.559 42.56 191.559 43.39C191.559 44.29 191.309 45.24 190.919 45.8H189.499ZM202.083 46V38H203.183V38.55H203.483C203.743 38.11 204.313 37.84 204.963 37.84C206.453 37.84 207.413 39.06 207.413 41C207.413 42.94 206.453 44.16 204.963 44.16C204.313 44.16 203.743 43.89 203.483 43.45H203.183V46H202.083ZM203.143 41C203.143 42.34 203.723 43.13 204.733 43.13C205.733 43.13 206.313 42.34 206.313 41C206.313 39.66 205.733 38.87 204.733 38.87C203.723 38.87 203.143 39.66 203.143 41ZM208.815 40.07C208.915 38.69 209.945 37.84 211.515 37.84C213.015 37.84 213.865 38.63 213.865 40.03V44H212.795V43.45H212.495C212.165 43.91 211.665 44.15 210.925 44.15C209.825 44.15 209.115 43.46 209.115 42.42C209.115 41.42 209.785 40.75 210.965 40.56L212.795 40.27V40.1C212.795 39.33 212.285 38.86 211.485 38.86C210.615 38.86 210.035 39.29 209.865 40.07H208.815ZM210.275 42.37C210.275 42.82 210.645 43.13 211.185 43.13C212.065 43.13 212.795 42.44 212.795 41.57V41.24L211.105 41.5C210.535 41.59 210.275 41.9 210.275 42.37ZM215.997 38H218.337V38.44H218.637C218.877 38.06 219.307 37.84 219.837 37.84C220.807 37.84 221.397 38.56 221.397 39.73V40.6H220.257V39.89C220.257 39.22 219.977 38.88 219.437 38.88C218.747 38.88 218.407 39.5 218.407 40.73V42.97H220.267V44H216.177V42.97H217.307V39.03H215.997V38ZM222.819 40.07C222.919 38.69 223.949 37.84 225.519 37.84C227.019 37.84 227.869 38.63 227.869 40.03V44H226.799V43.45H226.499C226.169 43.91 225.669 44.15 224.929 44.15C223.829 44.15 223.119 43.46 223.119 42.42C223.119 41.42 223.789 40.75 224.969 40.56L226.799 40.27V40.1C226.799 39.33 226.289 38.86 225.489 38.86C224.619 38.86 224.039 39.29 223.869 40.07H222.819ZM224.279 42.37C224.279 42.82 224.649 43.13 225.189 43.13C226.069 43.13 226.799 42.44 226.799 41.57V41.24L225.109 41.5C224.539 41.59 224.279 41.9 224.279 42.37ZM229.811 38H230.911V38.48H231.171C231.301 38.08 231.621 37.84 232.061 37.84C232.461 37.84 232.781 38.1 232.941 38.53H233.201C233.341 38.1 233.701 37.84 234.181 37.84C234.881 37.84 235.331 38.47 235.331 39.44V44H234.281V39.87C234.281 39.33 234.081 39.05 233.681 39.05C233.291 39.05 233.091 39.33 233.091 39.87V44H232.051V39.87C232.051 39.33 231.851 39.05 231.461 39.05C231.061 39.05 230.861 39.33 230.861 39.87V44H229.811V38ZM238.163 42.16C238.353 42.78 238.843 43.13 239.623 43.13C240.423 43.13 240.863 42.83 240.863 42.3C240.863 41.94 240.513 41.7 239.833 41.6L239.103 41.49C237.793 41.29 237.183 40.73 237.183 39.71C237.183 38.55 238.093 37.84 239.603 37.84C241.133 37.84 242.073 38.63 242.133 39.96H241.133C240.943 39.26 240.423 38.87 239.583 38.87C238.743 38.87 238.273 39.17 238.273 39.7C238.273 40.06 238.623 40.3 239.303 40.4L240.033 40.51C241.353 40.71 241.953 41.27 241.953 42.29C241.953 43.45 241.063 44.16 239.613 44.16C238.123 44.16 237.213 43.42 237.143 42.16H238.163ZM245.515 45.8C245.985 45.42 246.395 44.75 246.535 44.08C245.955 44.07 245.635 43.72 245.635 43.12C245.635 42.52 245.965 42.17 246.555 42.17C247.255 42.17 247.575 42.56 247.575 43.39C247.575 44.29 247.325 45.24 246.935 45.8H245.515ZM260.139 44.16C258.649 44.16 257.689 42.94 257.689 41C257.689 39.06 258.649 37.84 260.139 37.84C260.789 37.84 261.359 38.11 261.619 38.55H261.919V35.52H263.019V44H261.919V43.45H261.619C261.359 43.89 260.789 44.16 260.139 44.16ZM258.789 41C258.789 42.34 259.369 43.13 260.369 43.13C261.379 43.13 261.959 42.34 261.959 41C261.959 39.66 261.379 38.87 260.369 38.87C259.369 38.87 258.789 39.66 258.789 41ZM264.831 40.07C264.931 38.69 265.961 37.84 267.531 37.84C269.031 37.84 269.881 38.63 269.881 40.03V44H268.811V43.45H268.511C268.181 43.91 267.681 44.15 266.941 44.15C265.841 44.15 265.131 43.46 265.131 42.42C265.131 41.42 265.801 40.75 266.981 40.56L268.811 40.27V40.1C268.811 39.33 268.301 38.86 267.501 38.86C266.631 38.86 266.051 39.29 265.881 40.07H264.831ZM266.291 42.37C266.291 42.82 266.661 43.13 267.201 43.13C268.081 43.13 268.811 42.44 268.811 41.57V41.24L267.121 41.5C266.551 41.59 266.291 41.9 266.291 42.37ZM274.293 36.44V38H276.993V39.03H274.293V42.03C274.293 42.74 274.593 43.13 275.153 43.13C275.733 43.13 276.043 42.73 276.202 41.9H277.173C277.113 43.36 276.373 44.16 275.113 44.16C273.883 44.16 273.193 43.4 273.193 42.07V39.03H271.873V38H273.193V36.44H274.293ZM278.834 40.07C278.934 38.69 279.964 37.84 281.534 37.84C283.034 37.84 283.884 38.63 283.884 40.03V44H282.814V43.45H282.514C282.184 43.91 281.684 44.15 280.944 44.15C279.844 44.15 279.134 43.46 279.134 42.42C279.134 41.42 279.804 40.75 280.984 40.56L282.814 40.27V40.1C282.814 39.33 282.304 38.86 281.504 38.86C280.634 38.86 280.054 39.29 279.884 40.07H278.834ZM280.294 42.37C280.294 42.82 280.664 43.13 281.204 43.13C282.084 43.13 282.814 42.44 282.814 41.57V41.24L281.124 41.5C280.554 41.59 280.294 41.9 280.294 42.37ZM286.536 34.8C288.736 35.32 289.866 37.16 289.866 40.2C289.866 43.24 288.736 45.08 286.536 45.6V44.6C288.006 44.08 288.766 42.59 288.766 40.2C288.766 37.81 288.006 36.32 286.536 35.8V34.8ZM304.9 35.8C303.78 35.91 303.3 36.27 303.3 36.99C303.3 37.47 303.5 37.91 303.5 38.5C303.5 39.28 302.98 39.89 302.14 40.1V40.3C302.98 40.51 303.5 41.12 303.5 41.9C303.5 42.49 303.3 42.93 303.3 43.41C303.3 44.13 303.78 44.49 304.9 44.6V45.52C303.12 45.47 302.24 44.78 302.24 43.41C302.24 42.9 302.44 42.51 302.44 42.02C302.44 41.29 302 40.9 300.97 40.74V39.66C302 39.5 302.44 39.11 302.44 38.38C302.44 37.89 302.24 37.5 302.24 36.99C302.24 35.62 303.12 34.93 304.9 34.88V35.8ZM122.85 51.8C121.73 51.91 121.25 52.27 121.25 52.99C121.25 53.47 121.45 53.91 121.45 54.5C121.45 55.28 120.93 55.89 120.09 56.1V56.3C120.93 56.51 121.45 57.12 121.45 57.9C121.45 58.49 121.25 58.93 121.25 59.41C121.25 60.13 121.73 60.49 122.85 60.6V61.52C121.07 61.47 120.19 60.78 120.19 59.41C120.19 58.9 120.39 58.51 120.39 58.02C120.39 57.29 119.95 56.9 118.92 56.74V55.66C119.95 55.5 120.39 55.11 120.39 54.38C120.39 53.89 120.19 53.5 120.19 52.99C120.19 51.62 121.07 50.93 122.85 50.88V51.8ZM131.783 54H132.883V54.48H133.143C133.273 54.08 133.593 53.84 134.033 53.84C134.433 53.84 134.753 54.1 134.913 54.53H135.173C135.313 54.1 135.673 53.84 136.153 53.84C136.853 53.84 137.303 54.47 137.303 55.44V60H136.253V55.87C136.253 55.33 136.053 55.05 135.653 55.05C135.263 55.05 135.063 55.33 135.063 55.87V60H134.023V55.87C134.023 55.33 133.823 55.05 133.433 55.05C133.033 55.05 132.833 55.33 132.833 55.87V60H131.783V54ZM138.985 56.95C138.985 55.04 140.015 53.84 141.645 53.84C143.175 53.84 144.075 54.96 144.075 56.9C144.075 57.05 144.065 57.22 144.055 57.36H140.075C140.175 58.53 140.735 59.16 141.675 59.16C142.345 59.16 142.855 58.81 143.205 58.16H144.235C143.945 59.4 142.965 60.16 141.675 60.16C139.975 60.16 138.985 58.98 138.985 56.95ZM140.095 56.39H143.025C142.905 55.38 142.425 54.84 141.645 54.84C140.795 54.84 140.245 55.4 140.095 56.39ZM147.137 58.16C147.327 58.78 147.817 59.13 148.597 59.13C149.397 59.13 149.837 58.83 149.837 58.3C149.837 57.94 149.487 57.7 148.807 57.6L148.077 57.49C146.767 57.29 146.157 56.73 146.157 55.71C146.157 54.55 147.067 53.84 148.577 53.84C150.107 53.84 151.047 54.63 151.107 55.96H150.107C149.917 55.26 149.397 54.87 148.557 54.87C147.717 54.87 147.247 55.17 147.247 55.7C147.247 56.06 147.597 56.3 148.277 56.4L149.007 56.51C150.327 56.71 150.927 57.27 150.927 58.29C150.927 59.45 150.037 60.16 148.587 60.16C147.097 60.16 146.187 59.42 146.117 58.16H147.137ZM154.139 58.16C154.329 58.78 154.819 59.13 155.599 59.13C156.399 59.13 156.839 58.83 156.839 58.3C156.839 57.94 156.489 57.7 155.809 57.6L155.079 57.49C153.769 57.29 153.159 56.73 153.159 55.71C153.159 54.55 154.069 53.84 155.579 53.84C157.109 53.84 158.049 54.63 158.109 55.96H157.109C156.919 55.26 156.399 54.87 155.559 54.87C154.719 54.87 154.249 55.17 154.249 55.7C154.249 56.06 154.599 56.3 155.279 56.4L156.009 56.51C157.329 56.71 157.929 57.27 157.929 58.29C157.929 59.45 157.039 60.16 155.589 60.16C154.099 60.16 153.189 59.42 153.119 58.16H154.139ZM159.801 56.07C159.901 54.69 160.931 53.84 162.501 53.84C164.001 53.84 164.851 54.63 164.851 56.03V60H163.781V59.45H163.481C163.151 59.91 162.651 60.15 161.911 60.15C160.811 60.15 160.101 59.46 160.101 58.42C160.101 57.42 160.771 56.75 161.951 56.56L163.781 56.27V56.1C163.781 55.33 163.271 54.86 162.471 54.86C161.601 54.86 161.021 55.29 160.851 56.07H159.801ZM161.261 58.37C161.261 58.82 161.631 59.13 162.171 59.13C163.051 59.13 163.781 58.44 163.781 57.57V57.24L162.091 57.5C161.521 57.59 161.261 57.9 161.261 58.37ZM172.013 59.8C172.013 61.25 171.033 62.16 169.393 62.16C167.873 62.16 166.863 61.42 166.803 60.23H167.853C168.063 60.82 168.613 61.16 169.393 61.16C170.343 61.16 170.913 60.63 170.913 59.73V59.09H170.613C170.343 59.48 169.793 59.72 169.213 59.72C167.753 59.72 166.823 58.59 166.823 56.8C166.823 54.98 167.753 53.84 169.213 53.84C169.813 53.84 170.363 54.1 170.613 54.5H170.913V54H172.013V59.8ZM167.913 56.8C167.913 58.02 168.483 58.73 169.443 58.73C170.413 58.73 170.983 58.02 170.983 56.8C170.983 55.58 170.413 54.87 169.443 54.87C168.483 54.87 167.913 55.58 167.913 56.8ZM173.995 56.95C173.995 55.04 175.025 53.84 176.655 53.84C178.185 53.84 179.085 54.96 179.085 56.9C179.085 57.05 179.075 57.22 179.065 57.36H175.085C175.185 58.53 175.745 59.16 176.685 59.16C177.355 59.16 177.865 58.81 178.215 58.16H179.245C178.955 59.4 177.975 60.16 176.685 60.16C174.985 60.16 173.995 58.98 173.995 56.95ZM175.105 56.39H178.035C177.915 55.38 177.435 54.84 176.655 54.84C175.805 54.84 175.255 55.4 175.105 56.39ZM188.209 50.88C189.989 50.93 190.869 51.62 190.869 52.99C190.869 53.5 190.669 53.89 190.669 54.38C190.669 55.11 191.109 55.5 192.139 55.66V56.74C191.109 56.9 190.669 57.29 190.669 58.02C190.669 58.51 190.869 58.9 190.869 59.41C190.869 60.78 189.989 61.47 188.209 61.52V60.6C189.329 60.49 189.809 60.13 189.809 59.41C189.809 58.93 189.609 58.49 189.609 57.9C189.609 57.12 190.129 56.51 190.969 56.3V56.1C190.129 55.89 189.609 55.28 189.609 54.5C189.609 53.91 189.809 53.47 189.809 52.99C189.809 52.27 189.329 51.91 188.209 51.8V50.88ZM218.127 60.16C216.637 60.16 215.677 58.94 215.677 57C215.677 55.06 216.637 53.84 218.127 53.84C218.777 53.84 219.347 54.11 219.607 54.55H219.907V51.52H221.007V60H219.907V59.45H219.607C219.347 59.89 218.777 60.16 218.127 60.16ZM216.777 57C216.777 58.34 217.357 59.13 218.357 59.13C219.367 59.13 219.947 58.34 219.947 57C219.947 55.66 219.367 54.87 218.357 54.87C217.357 54.87 216.777 55.66 216.777 57ZM222.819 56.07C222.919 54.69 223.949 53.84 225.519 53.84C227.019 53.84 227.869 54.63 227.869 56.03V60H226.799V59.45H226.499C226.169 59.91 225.669 60.15 224.929 60.15C223.829 60.15 223.119 59.46 223.119 58.42C223.119 57.42 223.789 56.75 224.969 56.56L226.799 56.27V56.1C226.799 55.33 226.289 54.86 225.489 54.86C224.619 54.86 224.039 55.29 223.869 56.07H222.819ZM224.279 58.37C224.279 58.82 224.649 59.13 225.189 59.13C226.069 59.13 226.799 58.44 226.799 57.57V57.24L225.109 57.5C224.539 57.59 224.279 57.9 224.279 58.37ZM232.281 52.44V54H234.981V55.03H232.281V58.03C232.281 58.74 232.581 59.13 233.141 59.13C233.721 59.13 234.031 58.73 234.191 57.9H235.161C235.101 59.36 234.361 60.16 233.101 60.16C231.871 60.16 231.181 59.4 231.181 58.07V55.03H229.861V54H231.181V52.44H232.281ZM236.823 56.07C236.923 54.69 237.953 53.84 239.523 53.84C241.023 53.84 241.873 54.63 241.873 56.03V60H240.803V59.45H240.503C240.173 59.91 239.673 60.15 238.933 60.15C237.833 60.15 237.123 59.46 237.123 58.42C237.123 57.42 237.793 56.75 238.973 56.56L240.803 56.27V56.1C240.803 55.33 240.293 54.86 239.493 54.86C238.623 54.86 238.043 55.29 237.873 56.07H236.823ZM238.283 58.37C238.283 58.82 238.653 59.13 239.193 59.13C240.073 59.13 240.803 58.44 240.803 57.57V57.24L239.113 57.5C238.543 57.59 238.283 57.9 238.283 58.37ZM246.555 55.83C245.965 55.83 245.635 55.48 245.635 54.87C245.635 54.27 245.965 53.92 246.555 53.92C247.145 53.92 247.475 54.27 247.475 54.87C247.475 55.48 247.145 55.83 246.555 55.83ZM245.515 61.8C245.985 61.42 246.395 60.75 246.535 60.08C245.955 60.07 245.635 59.72 245.635 59.12C245.635 58.52 245.965 58.17 246.555 58.17C247.255 58.17 247.575 58.56 247.575 59.39C247.575 60.29 247.325 61.24 246.935 61.8H245.515ZM118.15 76V70H119.25V70.45H119.55C119.85 70.06 120.35 69.84 120.93 69.84C122.18 69.84 123 70.73 123 72.11V76H121.9V72.41C121.9 71.42 121.44 70.89 120.58 70.89C119.71 70.89 119.25 71.42 119.25 72.41V76H118.15ZM124.791 72.07C124.891 70.69 125.921 69.84 127.491 69.84C128.991 69.84 129.841 70.63 129.841 72.03V76H128.771V75.45H128.471C128.141 75.91 127.641 76.15 126.901 76.15C125.801 76.15 125.091 75.46 125.091 74.42C125.091 73.42 125.761 72.75 126.941 72.56L128.771 72.27V72.1C128.771 71.33 128.261 70.86 127.461 70.86C126.591 70.86 126.011 71.29 125.841 72.07H124.791ZM126.251 74.37C126.251 74.82 126.621 75.13 127.161 75.13C128.041 75.13 128.771 74.44 128.771 73.57V73.24L127.081 73.5C126.511 73.59 126.251 73.9 126.251 74.37ZM131.783 70H132.883V70.48H133.143C133.273 70.08 133.593 69.84 134.033 69.84C134.433 69.84 134.753 70.1 134.913 70.53H135.173C135.313 70.1 135.673 69.84 136.153 69.84C136.853 69.84 137.303 70.47 137.303 71.44V76H136.253V71.87C136.253 71.33 136.053 71.05 135.653 71.05C135.263 71.05 135.063 71.33 135.063 71.87V76H134.023V71.87C134.023 71.33 133.823 71.05 133.433 71.05C133.033 71.05 132.833 71.33 132.833 71.87V76H131.783V70ZM138.985 72.95C138.985 71.04 140.015 69.84 141.645 69.84C143.175 69.84 144.075 70.96 144.075 72.9C144.075 73.05 144.065 73.22 144.055 73.36H140.075C140.175 74.53 140.735 75.16 141.675 75.16C142.345 75.16 142.855 74.81 143.205 74.16H144.235C143.945 75.4 142.965 76.16 141.675 76.16C139.975 76.16 138.985 74.98 138.985 72.95ZM140.095 72.39H143.025C142.905 71.38 142.425 70.84 141.645 70.84C140.795 70.84 140.245 71.4 140.095 72.39ZM167.163 76V67.52H168.263V70.45H168.563C168.863 70.06 169.363 69.84 169.943 69.84C171.193 69.84 172.013 70.73 172.013 72.11V76H170.913V72.41C170.913 71.42 170.453 70.89 169.593 70.89C168.723 70.89 168.263 71.42 168.263 72.41V76H167.163ZM173.805 72.07C173.905 70.69 174.935 69.84 176.505 69.84C178.005 69.84 178.855 70.63 178.855 72.03V76H177.785V75.45H177.485C177.155 75.91 176.655 76.15 175.915 76.15C174.815 76.15 174.105 75.46 174.105 74.42C174.105 73.42 174.775 72.75 175.955 72.56L177.785 72.27V72.1C177.785 71.33 177.275 70.86 176.475 70.86C175.605 70.86 175.025 71.29 174.855 72.07H173.805ZM175.265 74.37C175.265 74.82 175.635 75.13 176.175 75.13C177.055 75.13 177.785 74.44 177.785 73.57V73.24L176.095 73.5C175.525 73.59 175.265 73.9 175.265 74.37ZM181.167 76V70H182.267V70.45H182.567C182.867 70.06 183.367 69.84 183.947 69.84C185.197 69.84 186.017 70.73 186.017 72.11V76H184.917V72.41C184.917 71.42 184.457 70.89 183.597 70.89C182.727 70.89 182.267 71.42 182.267 72.41V76H181.167ZM190.119 76.16C188.629 76.16 187.669 74.94 187.669 73C187.669 71.06 188.629 69.84 190.119 69.84C190.769 69.84 191.339 70.11 191.599 70.55H191.899V67.52H192.999V76H191.899V75.45H191.599C191.339 75.89 190.769 76.16 190.119 76.16ZM188.769 73C188.769 74.34 189.349 75.13 190.349 75.13C191.359 75.13 191.939 74.34 191.939 73C191.939 71.66 191.359 70.87 190.349 70.87C189.349 70.87 188.769 71.66 188.769 73ZM195.341 67.52H198.261V74.97H200.071V76H195.341V74.97H197.161V68.55H195.341V67.52ZM202.003 72.95C202.003 71.04 203.033 69.84 204.663 69.84C206.193 69.84 207.093 70.96 207.093 72.9C207.093 73.05 207.083 73.22 207.073 73.36H203.093C203.193 74.53 203.753 75.16 204.693 75.16C205.363 75.16 205.873 74.81 206.223 74.16H207.253C206.963 75.4 205.983 76.16 204.693 76.16C202.993 76.16 202.003 74.98 202.003 72.95ZM203.113 72.39H206.043C205.923 71.38 205.443 70.84 204.663 70.84C203.813 70.84 203.263 71.4 203.113 72.39ZM211.545 76.08C210.955 76.08 210.625 75.73 210.625 75.12C210.625 74.52 210.955 74.17 211.545 74.17C212.135 74.17 212.465 74.52 212.465 75.12C212.465 75.73 212.135 76.08 211.545 76.08ZM295.568 76.08C294.978 76.08 294.648 75.73 294.648 75.12C294.648 74.52 294.978 74.17 295.568 74.17C296.158 74.17 296.488 74.52 296.488 75.12C296.488 75.73 296.158 76.08 295.568 76.08ZM358.586 71.83C357.996 71.83 357.666 71.48 357.666 70.87C357.666 70.27 357.996 69.92 358.586 69.92C359.176 69.92 359.506 70.27 359.506 70.87C359.506 71.48 359.176 71.83 358.586 71.83ZM357.546 77.8C358.016 77.42 358.426 76.75 358.566 76.08C357.986 76.07 357.666 75.72 357.666 75.12C357.666 74.52 357.996 74.17 358.586 74.17C359.286 74.17 359.606 74.56 359.606 75.39C359.606 76.29 359.356 77.24 358.966 77.8H357.546ZM118.06 94V86H119.16V86.55H119.46C119.72 86.11 120.29 85.84 120.94 85.84C122.43 85.84 123.39 87.06 123.39 89C123.39 90.94 122.43 92.16 120.94 92.16C120.29 92.16 119.72 91.89 119.46 91.45H119.16V94H118.06ZM119.12 89C119.12 90.34 119.7 91.13 120.71 91.13C121.71 91.13 122.29 90.34 122.29 89C122.29 87.66 121.71 86.87 120.71 86.87C119.7 86.87 119.12 87.66 119.12 89ZM124.791 88.07C124.891 86.69 125.921 85.84 127.491 85.84C128.991 85.84 129.841 86.63 129.841 88.03V92H128.771V91.45H128.471C128.141 91.91 127.641 92.15 126.901 92.15C125.801 92.15 125.091 91.46 125.091 90.42C125.091 89.42 125.761 88.75 126.941 88.56L128.771 88.27V88.1C128.771 87.33 128.261 86.86 127.461 86.86C126.591 86.86 126.011 87.29 125.841 88.07H124.791ZM126.251 90.37C126.251 90.82 126.621 91.13 127.161 91.13C128.041 91.13 128.771 90.44 128.771 89.57V89.24L127.081 89.5C126.511 89.59 126.251 89.9 126.251 90.37ZM131.703 86H132.883L134.423 90.49H134.833L136.263 86H137.353L135.143 92.87C134.883 93.68 134.313 94.16 133.613 94.16C132.593 94.16 131.993 93.58 131.913 92.52H132.913C133.073 92.96 133.243 93.15 133.573 93.15C133.863 93.15 134.023 92.98 134.173 92.55L134.513 91.5H133.613L131.703 86ZM139.325 83.52H142.245V90.97H144.055V92H139.325V90.97H141.145V84.55H139.325V83.52ZM148.527 92.16C146.867 92.16 145.807 90.94 145.807 89C145.807 87.06 146.867 85.84 148.527 85.84C150.187 85.84 151.247 87.06 151.247 89C151.247 90.94 150.187 92.16 148.527 92.16ZM146.897 89C146.897 90.34 147.497 91.13 148.527 91.13C149.557 91.13 150.157 90.34 150.157 89C150.157 87.66 149.557 86.87 148.527 86.87C147.497 86.87 146.897 87.66 146.897 89ZM152.799 88.07C152.899 86.69 153.929 85.84 155.499 85.84C156.999 85.84 157.849 86.63 157.849 88.03V92H156.779V91.45H156.479C156.149 91.91 155.649 92.15 154.909 92.15C153.809 92.15 153.099 91.46 153.099 90.42C153.099 89.42 153.769 88.75 154.949 88.56L156.779 88.27V88.1C156.779 87.33 156.269 86.86 155.469 86.86C154.599 86.86 154.019 87.29 153.849 88.07H152.799ZM154.259 90.37C154.259 90.82 154.629 91.13 155.169 91.13C156.049 91.13 156.779 90.44 156.779 89.57V89.24L155.089 89.5C154.519 89.59 154.259 89.9 154.259 90.37ZM162.111 92.16C160.621 92.16 159.661 90.94 159.661 89C159.661 87.06 160.621 85.84 162.111 85.84C162.761 85.84 163.331 86.11 163.591 86.55H163.891V83.52H164.991V92H163.891V91.45H163.591C163.331 91.89 162.761 92.16 162.111 92.16ZM160.761 89C160.761 90.34 161.341 91.13 162.341 91.13C163.351 91.13 163.931 90.34 163.931 89C163.931 87.66 163.351 86.87 162.341 86.87C161.341 86.87 160.761 87.66 160.761 89ZM192.869 83.8C191.749 83.91 191.269 84.27 191.269 84.99C191.269 85.47 191.469 85.91 191.469 86.5C191.469 87.28 190.949 87.89 190.109 88.1V88.3C190.949 88.51 191.469 89.12 191.469 89.9C191.469 90.49 191.269 90.93 191.269 91.41C191.269 92.13 191.749 92.49 192.869 92.6V93.52C191.089 93.47 190.209 92.78 190.209 91.41C190.209 90.9 190.409 90.51 190.409 90.02C190.409 89.29 189.969 88.9 188.939 88.74V87.66C189.969 87.5 190.409 87.11 190.409 86.38C190.409 85.89 190.209 85.5 190.209 84.99C190.209 83.62 191.089 82.93 192.869 82.88V83.8ZM127.521 108.08C126.931 108.08 126.601 107.73 126.601 107.12C126.601 106.52 126.931 106.17 127.521 106.17C128.111 106.17 128.441 106.52 128.441 107.12C128.441 107.73 128.111 108.08 127.521 108.08ZM126.601 102.87C126.601 102.27 126.931 101.92 127.521 101.92C128.111 101.92 128.441 102.27 128.441 102.87C128.441 103.48 128.111 103.83 127.521 103.83C126.931 103.83 126.601 103.48 126.601 102.87ZM224.509 109.8C224.979 109.42 225.389 108.75 225.529 108.08C224.949 108.07 224.629 107.72 224.629 107.12C224.629 106.52 224.959 106.17 225.549 106.17C226.249 106.17 226.569 106.56 226.569 107.39C226.569 108.29 226.319 109.24 225.929 109.8H224.509ZM90.1417 124V118H91.2417V118.45H91.5417C91.8417 118.06 92.3417 117.84 92.9217 117.84C94.1717 117.84 94.9917 118.73 94.9917 120.11V124H93.8917V120.41C93.8917 119.42 93.4317 118.89 92.5717 118.89C91.7017 118.89 91.2417 119.42 91.2417 120.41V124H90.1417ZM96.7837 120.07C96.8837 118.69 97.9137 117.84 99.4837 117.84C100.984 117.84 101.834 118.63 101.834 120.03V124H100.764V123.45H100.464C100.134 123.91 99.6337 124.15 98.8937 124.15C97.7937 124.15 97.0837 123.46 97.0837 122.42C97.0837 121.42 97.7537 120.75 98.9337 120.56L100.764 120.27V120.1C100.764 119.33 100.254 118.86 99.4537 118.86C98.5837 118.86 98.0037 119.29 97.8337 120.07H96.7837ZM98.2437 122.37C98.2437 122.82 98.6137 123.13 99.1537 123.13C100.034 123.13 100.764 122.44 100.764 121.57V121.24L99.0737 121.5C98.5037 121.59 98.2437 121.9 98.2437 122.37ZM103.776 118H104.876V118.48H105.136C105.266 118.08 105.586 117.84 106.026 117.84C106.426 117.84 106.746 118.1 106.906 118.53H107.166C107.306 118.1 107.666 117.84 108.146 117.84C108.846 117.84 109.296 118.47 109.296 119.44V124H108.246V119.87C108.246 119.33 108.046 119.05 107.646 119.05C107.256 119.05 107.056 119.33 107.056 119.87V124H106.016V119.87C106.016 119.33 105.816 119.05 105.426 119.05C105.026 119.05 104.826 119.33 104.826 119.87V124H103.776V118ZM110.978 120.95C110.978 119.04 112.008 117.84 113.638 117.84C115.168 117.84 116.068 118.96 116.068 120.9C116.068 121.05 116.058 121.22 116.048 121.36H112.068C112.168 122.53 112.728 123.16 113.668 123.16C114.338 123.16 114.848 122.81 115.198 122.16H116.228C115.938 123.4 114.958 124.16 113.668 124.16C111.968 124.16 110.978 122.98 110.978 120.95ZM112.088 120.39H115.018C114.898 119.38 114.418 118.84 113.638 118.84C112.788 118.84 112.238 119.4 112.088 120.39ZM89.7717 134H90.8717V134.48H91.1317C91.2617 134.08 91.5817 133.84 92.0217 133.84C92.4217 133.84 92.7417 134.1 92.9017 134.53H93.1617C93.3017 134.1 93.6617 133.84 94.1417 133.84C94.8417 133.84 95.2917 134.47 95.2917 135.44V140H94.2417V135.87C94.2417 135.33 94.0417 135.05 93.6417 135.05C93.2517 135.05 93.0517 135.33 93.0517 135.87V140H92.0117V135.87C92.0117 135.33 91.8117 135.05 91.4217 135.05C91.0217 135.05 90.8217 135.33 90.8217 135.87V140H89.7717V134ZM96.9737 136.95C96.9737 135.04 98.0037 133.84 99.6337 133.84C101.164 133.84 102.064 134.96 102.064 136.9C102.064 137.05 102.054 137.22 102.044 137.36H98.0637C98.1637 138.53 98.7237 139.16 99.6637 139.16C100.334 139.16 100.844 138.81 101.194 138.16H102.224C101.934 139.4 100.954 140.16 99.6637 140.16C97.9637 140.16 96.9737 138.98 96.9737 136.95ZM98.0837 136.39H101.014C100.894 135.38 100.414 134.84 99.6337 134.84C98.7837 134.84 98.2337 135.4 98.0837 136.39ZM105.126 138.16C105.316 138.78 105.806 139.13 106.586 139.13C107.386 139.13 107.826 138.83 107.826 138.3C107.826 137.94 107.476 137.7 106.796 137.6L106.066 137.49C104.756 137.29 104.146 136.73 104.146 135.71C104.146 134.55 105.056 133.84 106.566 133.84C108.096 133.84 109.036 134.63 109.096 135.96H108.096C107.906 135.26 107.386 134.87 106.546 134.87C105.706 134.87 105.236 135.17 105.236 135.7C105.236 136.06 105.586 136.3 106.266 136.4L106.996 136.51C108.316 136.71 108.916 137.27 108.916 138.29C108.916 139.45 108.026 140.16 106.576 140.16C105.086 140.16 104.176 139.42 104.106 138.16H105.126ZM112.128 138.16C112.318 138.78 112.808 139.13 113.588 139.13C114.388 139.13 114.828 138.83 114.828 138.3C114.828 137.94 114.478 137.7 113.798 137.6L113.068 137.49C111.758 137.29 111.148 136.73 111.148 135.71C111.148 134.55 112.058 133.84 113.568 133.84C115.098 133.84 116.038 134.63 116.098 135.96H115.098C114.908 135.26 114.388 134.87 113.548 134.87C112.708 134.87 112.238 135.17 112.238 135.7C112.238 136.06 112.588 136.3 113.268 136.4L113.998 136.51C115.318 136.71 115.918 137.27 115.918 138.29C115.918 139.45 115.028 140.16 113.578 140.16C112.088 140.16 111.178 139.42 111.108 138.16H112.128ZM117.79 136.07C117.89 134.69 118.92 133.84 120.49 133.84C121.99 133.84 122.84 134.63 122.84 136.03V140H121.77V139.45H121.47C121.14 139.91 120.64 140.15 119.9 140.15C118.8 140.15 118.09 139.46 118.09 138.42C118.09 137.42 118.76 136.75 119.94 136.56L121.77 136.27V136.1C121.77 135.33 121.26 134.86 120.46 134.86C119.59 134.86 119.01 135.29 118.84 136.07H117.79ZM119.25 138.37C119.25 138.82 119.62 139.13 120.16 139.13C121.04 139.13 121.77 138.44 121.77 137.57V137.24L120.08 137.5C119.51 137.59 119.25 137.9 119.25 138.37ZM130.001 139.8C130.001 141.25 129.021 142.16 127.381 142.16C125.861 142.16 124.851 141.42 124.791 140.23H125.841C126.051 140.82 126.601 141.16 127.381 141.16C128.331 141.16 128.901 140.63 128.901 139.73V139.09H128.601C128.331 139.48 127.781 139.72 127.201 139.72C125.741 139.72 124.811 138.59 124.811 136.8C124.811 134.98 125.741 133.84 127.201 133.84C127.801 133.84 128.351 134.1 128.601 134.5H128.901V134H130.001V139.8ZM125.901 136.8C125.901 138.02 126.471 138.73 127.431 138.73C128.401 138.73 128.971 138.02 128.971 136.8C128.971 135.58 128.401 134.87 127.431 134.87C126.471 134.87 125.901 135.58 125.901 136.8ZM131.983 136.95C131.983 135.04 133.013 133.84 134.643 133.84C136.173 133.84 137.073 134.96 137.073 136.9C137.073 137.05 137.063 137.22 137.053 137.36H133.073C133.173 138.53 133.733 139.16 134.673 139.16C135.343 139.16 135.853 138.81 136.203 138.16H137.233C136.943 139.4 135.963 140.16 134.673 140.16C132.973 140.16 131.983 138.98 131.983 136.95ZM133.093 136.39H136.023C135.903 135.38 135.423 134.84 134.643 134.84C133.793 134.84 133.243 135.4 133.093 136.39ZM140.485 141.8C140.955 141.42 141.365 140.75 141.505 140.08C140.925 140.07 140.605 139.72 140.605 139.12C140.605 138.52 140.935 138.17 141.525 138.17C142.225 138.17 142.545 138.56 142.545 139.39C142.545 140.29 142.295 141.24 141.905 141.8H140.485ZM76.1778 146.88C77.9578 146.93 78.8378 147.62 78.8378 148.99C78.8378 149.5 78.6378 149.89 78.6378 150.38C78.6378 151.11 79.0778 151.5 80.1078 151.66V152.74C79.0778 152.9 78.6378 153.29 78.6378 154.02C78.6378 154.51 78.8378 154.9 78.8378 155.41C78.8378 156.78 77.9578 157.47 76.1778 157.52V156.6C77.2978 156.49 77.7778 156.13 77.7778 155.41C77.7778 154.93 77.5778 154.49 77.5778 153.9C77.5778 153.12 78.0978 152.51 78.9378 152.3V152.1C78.0978 151.89 77.5778 151.28 77.5778 150.5C77.5778 149.91 77.7778 149.47 77.7778 148.99C77.7778 148.27 77.2978 147.91 76.1778 147.8V146.88ZM85.5098 151.83C84.9198 151.83 84.5898 151.48 84.5898 150.87C84.5898 150.27 84.9198 149.92 85.5098 149.92C86.0998 149.92 86.4298 150.27 86.4298 150.87C86.4298 151.48 86.0998 151.83 85.5098 151.83ZM84.4698 157.8C84.9398 157.42 85.3498 156.75 85.4898 156.08C84.9098 156.07 84.5898 155.72 84.5898 155.12C84.5898 154.52 84.9198 154.17 85.5098 154.17C86.2098 154.17 86.5298 154.56 86.5298 155.39C86.5298 156.29 86.2798 157.24 85.8898 157.8H84.4698ZM199.571 179.8C198.101 180.32 197.341 181.81 197.341 184.2C197.341 186.59 198.101 188.08 199.571 188.6V189.6C197.371 189.08 196.241 187.24 196.241 184.2C196.241 181.16 197.371 179.32 199.571 178.8V179.8ZM258.999 185.96C259.189 186.58 259.619 186.96 260.259 187.06V184.54L260.109 184.52C258.719 184.29 258.009 183.52 258.009 182.24C258.009 180.92 258.879 180.02 260.259 179.86V179H261.059V179.86C262.449 179.99 263.349 180.87 263.429 182.24H262.349C262.159 181.52 261.719 181.06 261.059 180.94V183.49L261.139 183.5C262.539 183.73 263.249 184.5 263.249 185.77C263.249 187.08 262.399 187.98 261.059 188.14V189H260.259V188.14C258.869 188.02 257.979 187.21 257.909 185.96H258.999ZM259.129 182.24C259.129 182.85 259.529 183.25 260.259 183.37V180.95C259.549 181.08 259.129 181.54 259.129 182.24ZM261.059 187.05C261.729 186.92 262.129 186.46 262.129 185.77C262.129 185.19 261.749 184.8 261.059 184.66V187.05ZM269.891 179.8C268.771 179.91 268.291 180.27 268.291 180.99C268.291 181.47 268.491 181.91 268.491 182.5C268.491 183.28 267.971 183.89 267.131 184.1V184.3C267.971 184.51 268.491 185.12 268.491 185.9C268.491 186.49 268.291 186.93 268.291 187.41C268.291 188.13 268.771 188.49 269.891 188.6V189.52C268.111 189.47 267.231 188.78 267.231 187.41C267.231 186.9 267.431 186.51 267.431 186.02C267.431 185.29 266.991 184.9 265.961 184.74V183.66C266.991 183.5 267.431 183.11 267.431 182.38C267.431 181.89 267.231 181.5 267.231 180.99C267.231 179.62 268.111 178.93 269.891 178.88V179.8ZM272.103 190V182H273.203V182.55H273.503C273.763 182.11 274.333 181.84 274.983 181.84C276.473 181.84 277.433 183.06 277.433 185C277.433 186.94 276.473 188.16 274.983 188.16C274.333 188.16 273.763 187.89 273.503 187.45H273.203V190H272.103ZM273.163 185C273.163 186.34 273.743 187.13 274.753 187.13C275.753 187.13 276.333 186.34 276.333 185C276.333 183.66 275.753 182.87 274.753 182.87C273.743 182.87 273.163 183.66 273.163 185ZM278.834 184.07C278.934 182.69 279.964 181.84 281.534 181.84C283.034 181.84 283.884 182.63 283.884 184.03V188H282.814V187.45H282.514C282.184 187.91 281.684 188.15 280.944 188.15C279.844 188.15 279.134 187.46 279.134 186.42C279.134 185.42 279.804 184.75 280.984 184.56L282.814 184.27V184.1C282.814 183.33 282.304 182.86 281.504 182.86C280.634 182.86 280.054 183.29 279.884 184.07H278.834ZM280.294 186.37C280.294 186.82 280.664 187.13 281.204 187.13C282.084 187.13 282.814 186.44 282.814 185.57V185.24L281.124 185.5C280.554 185.59 280.294 185.9 280.294 186.37ZM286.016 182H288.356V182.44H288.656C288.896 182.06 289.326 181.84 289.856 181.84C290.826 181.84 291.416 182.56 291.416 183.73V184.6H290.276V183.89C290.276 183.22 289.996 182.88 289.456 182.88C288.766 182.88 288.426 183.5 288.426 184.73V186.97H290.286V188H286.196V186.97H287.326V183.03H286.016V182ZM292.838 184.07C292.938 182.69 293.968 181.84 295.538 181.84C297.038 181.84 297.888 182.63 297.888 184.03V188H296.818V187.45H296.518C296.188 187.91 295.688 188.15 294.948 188.15C293.848 188.15 293.138 187.46 293.138 186.42C293.138 185.42 293.808 184.75 294.988 184.56L296.818 184.27V184.1C296.818 183.33 296.308 182.86 295.508 182.86C294.638 182.86 294.058 183.29 293.888 184.07H292.838ZM294.298 186.37C294.298 186.82 294.668 187.13 295.208 187.13C296.088 187.13 296.818 186.44 296.818 185.57V185.24L295.128 185.5C294.558 185.59 294.298 185.9 294.298 186.37ZM299.83 182H300.93V182.48H301.19C301.32 182.08 301.64 181.84 302.08 181.84C302.48 181.84 302.8 182.1 302.96 182.53H303.22C303.36 182.1 303.72 181.84 304.2 181.84C304.9 181.84 305.35 182.47 305.35 183.44V188H304.3V183.87C304.3 183.33 304.1 183.05 303.7 183.05C303.31 183.05 303.11 183.33 303.11 183.87V188H302.07V183.87C302.07 183.33 301.87 183.05 301.48 183.05C301.08 183.05 300.88 183.33 300.88 183.87V188H299.83V182ZM308.182 186.16C308.372 186.78 308.862 187.13 309.642 187.13C310.442 187.13 310.882 186.83 310.882 186.3C310.882 185.94 310.532 185.7 309.852 185.6L309.122 185.49C307.812 185.29 307.202 184.73 307.202 183.71C307.202 182.55 308.112 181.84 309.622 181.84C311.152 181.84 312.092 182.63 312.152 183.96H311.152C310.962 183.26 310.442 182.87 309.602 182.87C308.762 182.87 308.292 183.17 308.292 183.7C308.292 184.06 308.642 184.3 309.322 184.4L310.052 184.51C311.372 184.71 311.972 185.27 311.972 186.29C311.972 187.45 311.082 188.16 309.632 188.16C308.142 188.16 307.232 187.42 307.162 186.16H308.182ZM316.574 188.08C315.984 188.08 315.654 187.73 315.654 187.12C315.654 186.52 315.984 186.17 316.574 186.17C317.164 186.17 317.494 186.52 317.494 187.12C317.494 187.73 317.164 188.08 316.574 188.08ZM321.526 182H324.446V186.97H326.256V188H321.526V186.97H323.346V183.03H321.526V182ZM322.986 180.3C322.986 179.79 323.296 179.49 323.816 179.49C324.336 179.49 324.646 179.79 324.646 180.3C324.646 180.81 324.336 181.11 323.816 181.11C323.296 181.11 322.986 180.81 322.986 180.3ZM330.158 188.16C328.668 188.16 327.708 186.94 327.708 185C327.708 183.06 328.668 181.84 330.158 181.84C330.808 181.84 331.378 182.11 331.638 182.55H331.938V179.52H333.038V188H331.938V187.45H331.638C331.378 187.89 330.808 188.16 330.158 188.16ZM328.808 185C328.808 186.34 329.388 187.13 330.388 187.13C331.398 187.13 331.978 186.34 331.978 185C331.978 183.66 331.398 182.87 330.388 182.87C329.388 182.87 328.808 183.66 328.808 185ZM335.25 178.88C337.03 178.93 337.91 179.62 337.91 180.99C337.91 181.5 337.71 181.89 337.71 182.38C337.71 183.11 338.15 183.5 339.18 183.66V184.74C338.15 184.9 337.71 185.29 337.71 186.02C337.71 186.51 337.91 186.9 337.91 187.41C337.91 188.78 337.03 189.47 335.25 189.52V188.6C336.37 188.49 336.85 188.13 336.85 187.41C336.85 186.93 336.65 186.49 336.65 185.9C336.65 185.12 337.17 184.51 338.01 184.3V184.1C337.17 183.89 336.65 183.28 336.65 182.5C336.65 181.91 336.85 181.47 336.85 180.99C336.85 180.27 336.37 179.91 335.25 179.8V178.88ZM350.544 189.8C351.014 189.42 351.424 188.75 351.564 188.08C350.984 188.07 350.664 187.72 350.664 187.12C350.664 186.52 350.994 186.17 351.584 186.17C352.284 186.17 352.604 186.56 352.604 187.39C352.604 188.29 352.354 189.24 351.964 189.8H350.544ZM363.128 190V182H364.228V182.55H364.528C364.788 182.11 365.358 181.84 366.008 181.84C367.498 181.84 368.458 183.06 368.458 185C368.458 186.94 367.498 188.16 366.008 188.16C365.358 188.16 364.788 187.89 364.528 187.45H364.228V190H363.128ZM364.188 185C364.188 186.34 364.768 187.13 365.778 187.13C366.778 187.13 367.358 186.34 367.358 185C367.358 183.66 366.778 182.87 365.778 182.87C364.768 182.87 364.188 183.66 364.188 185ZM369.86 184.07C369.96 182.69 370.99 181.84 372.56 181.84C374.06 181.84 374.91 182.63 374.91 184.03V188H373.84V187.45H373.54C373.21 187.91 372.71 188.15 371.97 188.15C370.87 188.15 370.16 187.46 370.16 186.42C370.16 185.42 370.83 184.75 372.01 184.56L373.84 184.27V184.1C373.84 183.33 373.33 182.86 372.53 182.86C371.66 182.86 371.08 183.29 370.91 184.07H369.86ZM371.32 186.37C371.32 186.82 371.69 187.13 372.23 187.13C373.11 187.13 373.84 186.44 373.84 185.57V185.24L372.15 185.5C371.58 185.59 371.32 185.9 371.32 186.37ZM376.772 182H377.952L379.492 186.49H379.902L381.332 182H382.422L380.212 188.87C379.952 189.68 379.382 190.16 378.682 190.16C377.662 190.16 377.062 189.58 376.982 188.52H377.982C378.142 188.96 378.312 189.15 378.642 189.15C378.932 189.15 379.092 188.98 379.242 188.55L379.582 187.5H378.682L376.772 182ZM384.394 179.52H387.314V186.97H389.124V188H384.394V186.97H386.214V180.55H384.394V179.52ZM393.596 188.16C391.936 188.16 390.876 186.94 390.876 185C390.876 183.06 391.936 181.84 393.596 181.84C395.256 181.84 396.316 183.06 396.316 185C396.316 186.94 395.256 188.16 393.596 188.16ZM391.966 185C391.966 186.34 392.566 187.13 393.596 187.13C394.626 187.13 395.226 186.34 395.226 185C395.226 183.66 394.626 182.87 393.596 182.87C392.566 182.87 391.966 183.66 391.966 185ZM397.868 184.07C397.968 182.69 398.998 181.84 400.568 181.84C402.068 181.84 402.918 182.63 402.918 184.03V188H401.848V187.45H401.548C401.218 187.91 400.718 188.15 399.978 188.15C398.878 188.15 398.168 187.46 398.168 186.42C398.168 185.42 398.838 184.75 400.018 184.56L401.848 184.27V184.1C401.848 183.33 401.338 182.86 400.538 182.86C399.668 182.86 399.088 183.29 398.918 184.07H397.868ZM399.328 186.37C399.328 186.82 399.698 187.13 400.238 187.13C401.118 187.13 401.848 186.44 401.848 185.57V185.24L400.158 185.5C399.588 185.59 399.328 185.9 399.328 186.37ZM407.18 188.16C405.69 188.16 404.73 186.94 404.73 185C404.73 183.06 405.69 181.84 407.18 181.84C407.83 181.84 408.4 182.11 408.66 182.55H408.96V179.52H410.06V188H408.96V187.45H408.66C408.4 187.89 407.83 188.16 407.18 188.16ZM405.83 185C405.83 186.34 406.41 187.13 407.41 187.13C408.42 187.13 409 186.34 409 185C409 183.66 408.42 182.87 407.41 182.87C406.41 182.87 405.83 183.66 405.83 185ZM412.572 178.8C414.772 179.32 415.902 181.16 415.902 184.2C415.902 187.24 414.772 189.08 412.572 189.6V188.6C414.042 188.08 414.802 186.59 414.802 184.2C414.802 181.81 414.042 180.32 412.572 179.8V178.8ZM421.604 183.83C421.014 183.83 420.684 183.48 420.684 182.87C420.684 182.27 421.014 181.92 421.604 181.92C422.194 181.92 422.524 182.27 422.524 182.87C422.524 183.48 422.194 183.83 421.604 183.83ZM420.564 189.8C421.034 189.42 421.444 188.75 421.584 188.08C421.004 188.07 420.684 187.72 420.684 187.12C420.684 186.52 421.014 186.17 421.604 186.17C422.304 186.17 422.624 186.56 422.624 187.39C422.624 188.29 422.374 189.24 421.984 189.8H420.564ZM62.1739 194.88C63.9539 194.93 64.8339 195.62 64.8339 196.99C64.8339 197.5 64.6339 197.89 64.6339 198.38C64.6339 199.11 65.0739 199.5 66.1039 199.66V200.74C65.0739 200.9 64.6339 201.29 64.6339 202.02C64.6339 202.51 64.8339 202.9 64.8339 203.41C64.8339 204.78 63.9539 205.47 62.1739 205.52V204.6C63.2939 204.49 63.7739 204.13 63.7739 203.41C63.7739 202.93 63.5739 202.49 63.5739 201.9C63.5739 201.12 64.0939 200.51 64.9339 200.3V200.1C64.0939 199.89 63.5739 199.28 63.5739 198.5C63.5739 197.91 63.7739 197.47 63.7739 196.99C63.7739 196.27 63.2939 195.91 62.1739 195.8V194.88ZM48.17 210.88C49.95 210.93 50.83 211.62 50.83 212.99C50.83 213.5 50.63 213.89 50.63 214.38C50.63 215.11 51.07 215.5 52.1 215.66V216.74C51.07 216.9 50.63 217.29 50.63 218.02C50.63 218.51 50.83 218.9 50.83 219.41C50.83 220.78 49.95 221.47 48.17 221.52V220.6C49.29 220.49 49.77 220.13 49.77 219.41C49.77 218.93 49.57 218.49 49.57 217.9C49.57 217.12 50.09 216.51 50.93 216.3V216.1C50.09 215.89 49.57 215.28 49.57 214.5C49.57 213.91 49.77 213.47 49.77 212.99C49.77 212.27 49.29 211.91 48.17 211.8V210.88Z" fill="white"/>
<path d="M141.695 28.16C139.785 28.16 138.835 26.78 138.835 24C138.835 21.22 139.815 19.84 141.785 19.84C143.385 19.84 144.355 20.9 144.475 22.77H143.425C143.235 21.56 142.675 20.91 141.785 20.91C140.545 20.91 139.975 21.88 139.975 24C139.975 26.12 140.515 27.09 141.695 27.09C142.545 27.09 143.065 26.49 143.245 25.37H144.295C144.175 27.15 143.245 28.16 141.695 28.16ZM146.157 28V19.52H147.257V22.45H147.557C147.857 22.06 148.357 21.84 148.937 21.84C150.187 21.84 151.007 22.73 151.007 24.11V28H149.907V24.41C149.907 23.42 149.447 22.89 148.587 22.89C147.717 22.89 147.257 23.42 147.257 24.41V28H146.157ZM152.799 24.07C152.899 22.69 153.929 21.84 155.499 21.84C156.999 21.84 157.849 22.63 157.849 24.03V28H156.779V27.45H156.479C156.149 27.91 155.649 28.15 154.909 28.15C153.809 28.15 153.099 27.46 153.099 26.42C153.099 25.42 153.769 24.75 154.949 24.56L156.779 24.27V24.1C156.779 23.33 156.269 22.86 155.469 22.86C154.599 22.86 154.019 23.29 153.849 24.07H152.799ZM154.259 26.37C154.259 26.82 154.629 27.13 155.169 27.13C156.049 27.13 156.779 26.44 156.779 25.57V25.24L155.089 25.5C154.519 25.59 154.259 25.9 154.259 26.37ZM162.261 20.44V22H164.961V23.03H162.261V26.03C162.261 26.74 162.561 27.13 163.121 27.13C163.701 27.13 164.011 26.73 164.171 25.9H165.141C165.081 27.36 164.341 28.16 163.081 28.16C161.851 28.16 161.161 27.4 161.161 26.07V23.03H159.841V22H161.161V20.44H162.261ZM169.703 28.16C167.793 28.16 166.843 26.78 166.843 24C166.843 21.22 167.823 19.84 169.793 19.84C171.393 19.84 172.363 20.9 172.483 22.77H171.433C171.243 21.56 170.683 20.91 169.793 20.91C168.553 20.91 167.983 21.88 167.983 24C167.983 26.12 168.523 27.09 169.703 27.09C170.553 27.09 171.073 26.49 171.253 25.37H172.303C172.183 27.15 171.253 28.16 169.703 28.16ZM174.165 28V19.52H175.265V22.45H175.565C175.865 22.06 176.365 21.84 176.945 21.84C178.195 21.84 179.015 22.73 179.015 24.11V28H177.915V24.41C177.915 23.42 177.455 22.89 176.595 22.89C175.725 22.89 175.265 23.42 175.265 24.41V28H174.165ZM180.807 24.07C180.907 22.69 181.937 21.84 183.507 21.84C185.007 21.84 185.857 22.63 185.857 24.03V28H184.787V27.45H184.487C184.157 27.91 183.657 28.15 182.917 28.15C181.817 28.15 181.107 27.46 181.107 26.42C181.107 25.42 181.777 24.75 182.957 24.56L184.787 24.27V24.1C184.787 23.33 184.277 22.86 183.477 22.86C182.607 22.86 182.027 23.29 181.857 24.07H180.807ZM182.267 26.37C182.267 26.82 182.637 27.13 183.177 27.13C184.057 27.13 184.787 26.44 184.787 25.57V25.24L183.097 25.5C182.527 25.59 182.267 25.9 182.267 26.37ZM188.169 28V22H189.269V22.45H189.569C189.869 22.06 190.369 21.84 190.949 21.84C192.199 21.84 193.019 22.73 193.019 24.11V28H191.919V24.41C191.919 23.42 191.459 22.89 190.599 22.89C189.729 22.89 189.269 23.42 189.269 24.41V28H188.169ZM195.171 28V22H196.271V22.45H196.571C196.871 22.06 197.371 21.84 197.951 21.84C199.201 21.84 200.021 22.73 200.021 24.11V28H198.921V24.41C198.921 23.42 198.461 22.89 197.601 22.89C196.731 22.89 196.271 23.42 196.271 24.41V28H195.171ZM202.003 24.95C202.003 23.04 203.033 21.84 204.663 21.84C206.193 21.84 207.093 22.96 207.093 24.9C207.093 25.05 207.083 25.22 207.073 25.36H203.093C203.193 26.53 203.753 27.16 204.693 27.16C205.363 27.16 205.873 26.81 206.223 26.16H207.253C206.963 27.4 205.983 28.16 204.693 28.16C202.993 28.16 202.003 26.98 202.003 24.95ZM203.113 24.39H206.043C205.923 23.38 205.443 22.84 204.663 22.84C203.813 22.84 203.263 23.4 203.113 24.39ZM209.345 19.52H212.265V26.97H214.075V28H209.345V26.97H211.165V20.55H209.345V19.52ZM281.734 28.16C279.824 28.16 278.874 26.78 278.874 24C278.874 21.22 279.854 19.84 281.824 19.84C283.424 19.84 284.394 20.9 284.514 22.77H283.464C283.274 21.56 282.714 20.91 281.824 20.91C280.584 20.91 280.014 21.88 280.014 24C280.014 26.12 280.554 27.09 281.734 27.09C282.584 27.09 283.104 26.49 283.284 25.37H284.334C284.214 27.15 283.284 28.16 281.734 28.16ZM286.196 28V19.52H287.296V22.45H287.596C287.896 22.06 288.396 21.84 288.976 21.84C290.226 21.84 291.046 22.73 291.046 24.11V28H289.946V24.41C289.946 23.42 289.486 22.89 288.626 22.89C287.756 22.89 287.296 23.42 287.296 24.41V28H286.196ZM292.838 24.07C292.938 22.69 293.968 21.84 295.538 21.84C297.038 21.84 297.888 22.63 297.888 24.03V28H296.818V27.45H296.518C296.188 27.91 295.688 28.15 294.948 28.15C293.848 28.15 293.138 27.46 293.138 26.42C293.138 25.42 293.808 24.75 294.988 24.56L296.818 24.27V24.1C296.818 23.33 296.308 22.86 295.508 22.86C294.638 22.86 294.058 23.29 293.888 24.07H292.838ZM294.298 26.37C294.298 26.82 294.668 27.13 295.208 27.13C296.088 27.13 296.818 26.44 296.818 25.57V25.24L295.128 25.5C294.558 25.59 294.298 25.9 294.298 26.37ZM300.2 28V22H301.3V22.45H301.6C301.9 22.06 302.4 21.84 302.98 21.84C304.23 21.84 305.05 22.73 305.05 24.11V28H303.95V24.41C303.95 23.42 303.49 22.89 302.63 22.89C301.76 22.89 301.3 23.42 301.3 24.41V28H300.2ZM307.202 28V22H308.302V22.45H308.602C308.902 22.06 309.402 21.84 309.982 21.84C311.232 21.84 312.052 22.73 312.052 24.11V28H310.952V24.41C310.952 23.42 310.492 22.89 309.632 22.89C308.762 22.89 308.302 23.42 308.302 24.41V28H307.202ZM314.034 24.95C314.034 23.04 315.064 21.84 316.694 21.84C318.224 21.84 319.124 22.96 319.124 24.9C319.124 25.05 319.114 25.22 319.104 25.36H315.124C315.224 26.53 315.784 27.16 316.724 27.16C317.394 27.16 317.904 26.81 318.254 26.16H319.284C318.994 27.4 318.014 28.16 316.724 28.16C315.024 28.16 314.034 26.98 314.034 24.95ZM315.144 24.39H318.074C317.954 23.38 317.474 22.84 316.694 22.84C315.844 22.84 315.294 23.4 315.144 24.39ZM321.376 19.52H324.296V26.97H326.106V28H321.376V26.97H323.196V20.55H321.376V19.52Z" fill="#EEA864"/>
<path d="M105.126 42.16C105.316 42.78 105.806 43.13 106.586 43.13C107.386 43.13 107.826 42.83 107.826 42.3C107.826 41.94 107.476 41.7 106.796 41.6L106.066 41.49C104.756 41.29 104.146 40.73 104.146 39.71C104.146 38.55 105.056 37.84 106.566 37.84C108.096 37.84 109.036 38.63 109.096 39.96H108.096C107.906 39.26 107.386 38.87 106.546 38.87C105.706 38.87 105.236 39.17 105.236 39.7C105.236 40.06 105.586 40.3 106.266 40.4L106.996 40.51C108.316 40.71 108.916 41.27 108.916 42.29C108.916 43.45 108.026 44.16 106.576 44.16C105.086 44.16 104.176 43.42 104.106 42.16H105.126ZM111.058 46V38H112.158V38.55H112.458C112.718 38.11 113.288 37.84 113.938 37.84C115.428 37.84 116.388 39.06 116.388 41C116.388 42.94 115.428 44.16 113.938 44.16C113.288 44.16 112.718 43.89 112.458 43.45H112.158V46H111.058ZM112.118 41C112.118 42.34 112.698 43.13 113.708 43.13C114.708 43.13 115.288 42.34 115.288 41C115.288 39.66 114.708 38.87 113.708 38.87C112.698 38.87 112.118 39.66 112.118 41ZM117.98 40.95C117.98 39.04 119.01 37.84 120.64 37.84C122.17 37.84 123.07 38.96 123.07 40.9C123.07 41.05 123.06 41.22 123.05 41.36H119.07C119.17 42.53 119.73 43.16 120.67 43.16C121.34 43.16 121.85 42.81 122.2 42.16H123.23C122.94 43.4 121.96 44.16 120.67 44.16C118.97 44.16 117.98 42.98 117.98 40.95ZM119.09 40.39H122.02C121.9 39.38 121.42 38.84 120.64 38.84C119.79 38.84 119.24 39.4 119.09 40.39ZM124.791 40.07C124.891 38.69 125.921 37.84 127.491 37.84C128.991 37.84 129.841 38.63 129.841 40.03V44H128.771V43.45H128.471C128.141 43.91 127.641 44.15 126.901 44.15C125.801 44.15 125.091 43.46 125.091 42.42C125.091 41.42 125.761 40.75 126.941 40.56L128.771 40.27V40.1C128.771 39.33 128.261 38.86 127.461 38.86C126.591 38.86 126.011 39.29 125.841 40.07H124.791ZM126.251 42.37C126.251 42.82 126.621 43.13 127.161 43.13C128.041 43.13 128.771 42.44 128.771 41.57V41.24L127.081 41.5C126.511 41.59 126.251 41.9 126.251 42.37ZM135.963 44L133.723 41.45V44H132.623V35.52H133.723V40.7L136.053 38H137.443L134.793 41.04L137.413 44H135.963ZM216.497 70H219.417V74.97H221.227V76H216.497V74.97H218.317V71.03H216.497V70ZM217.957 68.3C217.957 67.79 218.267 67.49 218.787 67.49C219.307 67.49 219.617 67.79 219.617 68.3C219.617 68.81 219.307 69.11 218.787 69.11C218.267 69.11 217.957 68.81 217.957 68.3ZM225.129 76.16C223.639 76.16 222.679 74.94 222.679 73C222.679 71.06 223.639 69.84 225.129 69.84C225.779 69.84 226.349 70.11 226.609 70.55H226.909V67.52H228.009V76H226.909V75.45H226.609C226.349 75.89 225.779 76.16 225.129 76.16ZM223.779 73C223.779 74.34 224.359 75.13 225.359 75.13C226.369 75.13 226.949 74.34 226.949 73C226.949 71.66 226.369 70.87 225.359 70.87C224.359 70.87 223.779 71.66 223.779 73ZM230.011 72.95C230.011 71.04 231.041 69.84 232.671 69.84C234.201 69.84 235.101 70.96 235.101 72.9C235.101 73.05 235.091 73.22 235.081 73.36H231.101C231.201 74.53 231.761 75.16 232.701 75.16C233.371 75.16 233.881 74.81 234.231 74.16H235.261C234.971 75.4 233.991 76.16 232.701 76.16C231.001 76.16 230.011 74.98 230.011 72.95ZM231.121 72.39H234.051C233.931 71.38 233.451 70.84 232.671 70.84C231.821 70.84 231.271 71.4 231.121 72.39ZM237.183 76V70H238.283V70.45H238.583C238.883 70.06 239.383 69.84 239.963 69.84C241.213 69.84 242.033 70.73 242.033 72.11V76H240.933V72.41C240.933 71.42 240.473 70.89 239.613 70.89C238.743 70.89 238.283 71.42 238.283 72.41V76H237.183ZM246.285 68.44V70H248.985V71.03H246.285V74.03C246.285 74.74 246.585 75.13 247.145 75.13C247.725 75.13 248.035 74.73 248.195 73.9H249.165C249.105 75.36 248.365 76.16 247.105 76.16C245.875 76.16 245.185 75.4 245.185 74.07V71.03H243.865V70H245.185V68.44H246.285ZM251.507 70H254.427V74.97H256.237V76H251.507V74.97H253.327V71.03H251.507V70ZM252.967 68.3C252.967 67.79 253.277 67.49 253.797 67.49C254.317 67.49 254.627 67.79 254.627 68.3C254.627 68.81 254.317 69.11 253.797 69.11C253.277 69.11 252.967 68.81 252.967 68.3ZM260.809 76H259.709V71.03H258.369V70H259.709V69.35C259.709 68.11 260.469 67.36 261.729 67.36C262.919 67.36 263.679 68.01 263.749 69.1H262.749C262.559 68.63 262.219 68.38 261.729 68.38C261.149 68.38 260.809 68.76 260.809 69.42V70H263.089V71.03H260.809V76ZM265.511 70H268.431V74.97H270.241V76H265.511V74.97H267.331V71.03H265.511V70ZM266.971 68.3C266.971 67.79 267.281 67.49 267.801 67.49C268.321 67.49 268.631 67.79 268.631 68.3C268.631 68.81 268.321 69.11 267.801 69.11C267.281 69.11 266.971 68.81 266.971 68.3ZM272.023 72.95C272.023 71.04 273.053 69.84 274.683 69.84C276.213 69.84 277.113 70.96 277.113 72.9C277.113 73.05 277.103 73.22 277.093 73.36H273.113C273.213 74.53 273.773 75.16 274.713 75.16C275.383 75.16 275.893 74.81 276.243 74.16H277.273C276.983 75.4 276.003 76.16 274.713 76.16C273.013 76.16 272.023 74.98 272.023 72.95ZM273.133 72.39H276.062C275.943 71.38 275.463 70.84 274.683 70.84C273.833 70.84 273.283 71.4 273.133 72.39ZM279.014 70H281.354V70.44H281.654C281.894 70.06 282.324 69.84 282.854 69.84C283.824 69.84 284.414 70.56 284.414 71.73V72.6H283.274V71.89C283.274 71.22 282.994 70.88 282.454 70.88C281.764 70.88 281.424 71.5 281.424 72.73V74.97H283.284V76H279.194V74.97H280.324V71.03H279.014V70ZM287.176 74.16C287.366 74.78 287.856 75.13 288.636 75.13C289.436 75.13 289.876 74.83 289.876 74.3C289.876 73.94 289.526 73.7 288.846 73.6L288.116 73.49C286.806 73.29 286.196 72.73 286.196 71.71C286.196 70.55 287.106 69.84 288.616 69.84C290.146 69.84 291.086 70.63 291.146 71.96H290.146C289.956 71.26 289.436 70.87 288.596 70.87C287.756 70.87 287.286 71.17 287.286 71.7C287.286 72.06 287.636 72.3 288.316 72.4L289.046 72.51C290.366 72.71 290.966 73.27 290.966 74.29C290.966 75.45 290.076 76.16 288.626 76.16C287.136 76.16 286.226 75.42 286.156 74.16H287.176ZM304.94 70V76H303.84V75.55H303.54C303.24 75.94 302.74 76.16 302.16 76.16C300.91 76.16 300.09 75.27 300.09 73.89V70H301.19V73.59C301.19 74.58 301.65 75.11 302.51 75.11C303.38 75.11 303.84 74.58 303.84 73.59V70H304.94ZM308.182 74.16C308.372 74.78 308.862 75.13 309.642 75.13C310.442 75.13 310.882 74.83 310.882 74.3C310.882 73.94 310.532 73.7 309.852 73.6L309.122 73.49C307.812 73.29 307.202 72.73 307.202 71.71C307.202 70.55 308.112 69.84 309.622 69.84C311.152 69.84 312.092 70.63 312.152 71.96H311.152C310.962 71.26 310.442 70.87 309.602 70.87C308.762 70.87 308.292 71.17 308.292 71.7C308.292 72.06 308.642 72.3 309.322 72.4L310.052 72.51C311.372 72.71 311.972 73.27 311.972 74.29C311.972 75.45 311.082 76.16 309.632 76.16C308.142 76.16 307.232 75.42 307.162 74.16H308.182ZM314.034 72.95C314.034 71.04 315.064 69.84 316.694 69.84C318.224 69.84 319.124 70.96 319.124 72.9C319.124 73.05 319.114 73.22 319.104 73.36H315.124C315.224 74.53 315.784 75.16 316.724 75.16C317.394 75.16 317.904 74.81 318.254 74.16H319.284C318.994 75.4 318.014 76.16 316.724 76.16C315.024 76.16 314.034 74.98 314.034 72.95ZM315.144 72.39H318.074C317.954 71.38 317.474 70.84 316.694 70.84C315.844 70.84 315.294 71.4 315.144 72.39ZM321.026 70H323.366V70.44H323.666C323.906 70.06 324.336 69.84 324.866 69.84C325.836 69.84 326.426 70.56 326.426 71.73V72.6H325.286V71.89C325.286 71.22 325.006 70.88 324.466 70.88C323.776 70.88 323.436 71.5 323.436 72.73V74.97H325.296V76H321.206V74.97H322.336V71.03H321.026V70ZM328.208 76V70H329.308V70.45H329.608C329.908 70.06 330.408 69.84 330.988 69.84C332.238 69.84 333.058 70.73 333.058 72.11V76H331.958V72.41C331.958 71.42 331.498 70.89 330.638 70.89C329.768 70.89 329.308 71.42 329.308 72.41V76H328.208ZM334.85 72.07C334.95 70.69 335.98 69.84 337.55 69.84C339.05 69.84 339.9 70.63 339.9 72.03V76H338.83V75.45H338.53C338.2 75.91 337.7 76.15 336.96 76.15C335.86 76.15 335.15 75.46 335.15 74.42C335.15 73.42 335.82 72.75 337 72.56L338.83 72.27V72.1C338.83 71.33 338.32 70.86 337.52 70.86C336.65 70.86 336.07 71.29 335.9 72.07H334.85ZM336.31 74.37C336.31 74.82 336.68 75.13 337.22 75.13C338.1 75.13 338.83 74.44 338.83 73.57V73.24L337.14 73.5C336.57 73.59 336.31 73.9 336.31 74.37ZM341.842 70H342.942V70.48H343.202C343.332 70.08 343.652 69.84 344.092 69.84C344.492 69.84 344.812 70.1 344.972 70.53H345.232C345.372 70.1 345.732 69.84 346.212 69.84C346.912 69.84 347.362 70.47 347.362 71.44V76H346.312V71.87C346.312 71.33 346.112 71.05 345.712 71.05C345.322 71.05 345.122 71.33 345.122 71.87V76H344.082V71.87C344.082 71.33 343.882 71.05 343.492 71.05C343.092 71.05 342.892 71.33 342.892 71.87V76H341.842V70ZM349.044 72.95C349.044 71.04 350.074 69.84 351.704 69.84C353.234 69.84 354.134 70.96 354.134 72.9C354.134 73.05 354.124 73.22 354.114 73.36H350.134C350.234 74.53 350.794 75.16 351.734 75.16C352.404 75.16 352.914 74.81 353.264 74.16H354.294C354.004 75.4 353.024 76.16 351.734 76.16C350.034 76.16 349.044 74.98 349.044 72.95ZM350.154 72.39H353.084C352.964 71.38 352.484 70.84 351.704 70.84C350.854 70.84 350.304 71.4 350.154 72.39ZM89.9717 104.95C89.9717 103.04 91.0017 101.84 92.6317 101.84C94.1617 101.84 95.0617 102.96 95.0617 104.9C95.0617 105.05 95.0517 105.22 95.0417 105.36H91.0617C91.1617 106.53 91.7217 107.16 92.6617 107.16C93.3317 107.16 93.8417 106.81 94.1917 106.16H95.2217C94.9317 107.4 93.9517 108.16 92.6617 108.16C90.9617 108.16 89.9717 106.98 89.9717 104.95ZM91.0817 104.39H94.0117C93.8917 103.38 93.4117 102.84 92.6317 102.84C91.7817 102.84 91.2317 103.4 91.0817 104.39ZM96.6837 102H97.8537L99.5037 107.01H99.6037L101.244 102H102.344L100.354 108H98.6737L96.6837 102ZM103.976 104.95C103.976 103.04 105.006 101.84 106.636 101.84C108.166 101.84 109.066 102.96 109.066 104.9C109.066 105.05 109.056 105.22 109.046 105.36H105.066C105.166 106.53 105.726 107.16 106.666 107.16C107.336 107.16 107.846 106.81 108.196 106.16H109.226C108.936 107.4 107.956 108.16 106.666 108.16C104.966 108.16 103.976 106.98 103.976 104.95ZM105.086 104.39H108.016C107.896 103.38 107.416 102.84 106.636 102.84C105.786 102.84 105.236 103.4 105.086 104.39ZM111.148 108V102H112.248V102.45H112.548C112.848 102.06 113.348 101.84 113.928 101.84C115.178 101.84 115.998 102.73 115.998 104.11V108H114.898V104.41C114.898 103.42 114.438 102.89 113.578 102.89C112.708 102.89 112.248 103.42 112.248 104.41V108H111.148ZM120.25 100.44V102H122.95V103.03H120.25V106.03C120.25 106.74 120.55 107.13 121.11 107.13C121.69 107.13 122 106.73 122.16 105.9H123.13C123.07 107.36 122.33 108.16 121.07 108.16C119.84 108.16 119.15 107.4 119.15 106.07V103.03H117.83V102H119.15V100.44H120.25ZM120.94 188.16C120.29 188.16 119.72 187.89 119.46 187.45H119.16V188H118.06V179.52H119.16V182.55H119.46C119.72 182.11 120.29 181.84 120.94 181.84C122.43 181.84 123.39 183.06 123.39 185C123.39 186.94 122.43 188.16 120.94 188.16ZM119.12 185C119.12 186.34 119.7 187.13 120.71 187.13C121.71 187.13 122.29 186.34 122.29 185C122.29 183.66 121.71 182.87 120.71 182.87C119.7 182.87 119.12 183.66 119.12 185ZM124.971 182H127.311V182.44H127.611C127.851 182.06 128.281 181.84 128.811 181.84C129.781 181.84 130.371 182.56 130.371 183.73V184.6H129.231V183.89C129.231 183.22 128.951 182.88 128.411 182.88C127.721 182.88 127.381 183.5 127.381 184.73V186.97H129.241V188H125.151V186.97H126.281V183.03H124.971V182ZM134.523 188.16C132.863 188.16 131.803 186.94 131.803 185C131.803 183.06 132.863 181.84 134.523 181.84C136.183 181.84 137.243 183.06 137.243 185C137.243 186.94 136.183 188.16 134.523 188.16ZM132.893 185C132.893 186.34 133.493 187.13 134.523 187.13C135.553 187.13 136.153 186.34 136.153 185C136.153 183.66 135.553 182.87 134.523 182.87C133.493 182.87 132.893 183.66 132.893 185ZM138.795 184.07C138.895 182.69 139.925 181.84 141.495 181.84C142.995 181.84 143.845 182.63 143.845 184.03V188H142.775V187.45H142.475C142.145 187.91 141.645 188.15 140.905 188.15C139.805 188.15 139.095 187.46 139.095 186.42C139.095 185.42 139.765 184.75 140.945 184.56L142.775 184.27V184.1C142.775 183.33 142.265 182.86 141.465 182.86C140.595 182.86 140.015 183.29 139.845 184.07H138.795ZM140.255 186.37C140.255 186.82 140.625 187.13 141.165 187.13C142.045 187.13 142.775 186.44 142.775 185.57V185.24L141.085 185.5C140.515 185.59 140.255 185.9 140.255 186.37ZM148.107 188.16C146.617 188.16 145.657 186.94 145.657 185C145.657 183.06 146.617 181.84 148.107 181.84C148.757 181.84 149.327 182.11 149.587 182.55H149.887V179.52H150.987V188H149.887V187.45H149.587C149.327 187.89 148.757 188.16 148.107 188.16ZM146.757 185C146.757 186.34 147.337 187.13 148.337 187.13C149.347 187.13 149.927 186.34 149.927 185C149.927 183.66 149.347 182.87 148.337 182.87C147.337 182.87 146.757 183.66 146.757 185ZM155.669 188.16C154.029 188.16 152.989 186.95 152.989 185.03C152.989 183.08 154.069 181.84 155.769 181.84C157.259 181.84 158.239 182.81 158.299 184.32H157.289C157.119 183.41 156.549 182.87 155.729 182.87C154.679 182.87 154.079 183.67 154.079 185.03C154.079 186.36 154.669 187.13 155.669 187.13C156.409 187.13 156.939 186.66 157.149 185.86H158.159C158.059 187.26 157.049 188.16 155.669 188.16ZM159.801 184.07C159.901 182.69 160.931 181.84 162.501 181.84C164.001 181.84 164.851 182.63 164.851 184.03V188H163.781V187.45H163.481C163.151 187.91 162.651 188.15 161.911 188.15C160.811 188.15 160.101 187.46 160.101 186.42C160.101 185.42 160.771 184.75 161.951 184.56L163.781 184.27V184.1C163.781 183.33 163.271 182.86 162.471 182.86C161.601 182.86 161.021 183.29 160.851 184.07H159.801ZM161.261 186.37C161.261 186.82 161.631 187.13 162.171 187.13C163.051 187.13 163.781 186.44 163.781 185.57V185.24L162.091 185.5C161.521 185.59 161.261 185.9 161.261 186.37ZM168.143 186.16C168.333 186.78 168.823 187.13 169.603 187.13C170.403 187.13 170.843 186.83 170.843 186.3C170.843 185.94 170.493 185.7 169.813 185.6L169.083 185.49C167.773 185.29 167.163 184.73 167.163 183.71C167.163 182.55 168.073 181.84 169.583 181.84C171.113 181.84 172.053 182.63 172.113 183.96H171.113C170.923 183.26 170.403 182.87 169.563 182.87C168.723 182.87 168.253 183.17 168.253 183.7C168.253 184.06 168.603 184.3 169.283 184.4L170.013 184.51C171.333 184.71 171.933 185.27 171.933 186.29C171.933 187.45 171.043 188.16 169.593 188.16C168.103 188.16 167.193 187.42 167.123 186.16H168.143ZM176.265 180.44V182H178.965V183.03H176.265V186.03C176.265 186.74 176.565 187.13 177.125 187.13C177.705 187.13 178.015 186.73 178.175 185.9H179.145C179.085 187.36 178.345 188.16 177.085 188.16C175.855 188.16 175.165 187.4 175.165 186.07V183.03H173.845V182H175.165V180.44H176.265ZM182.967 188V181.07H180.607V180H186.467V181.07H184.107V188H182.967ZM190.539 188.16C188.879 188.16 187.819 186.94 187.819 185C187.819 183.06 188.879 181.84 190.539 181.84C192.199 181.84 193.259 183.06 193.259 185C193.259 186.94 192.199 188.16 190.539 188.16ZM188.909 185C188.909 186.34 189.509 187.13 190.539 187.13C191.569 187.13 192.169 186.34 192.169 185C192.169 183.66 191.569 182.87 190.539 182.87C189.509 182.87 188.909 183.66 188.909 185Z" fill="#CBAAF9"/>
<path d="M201.943 55.63V54.63H207.143V55.63H201.943ZM201.943 58.37V57.37H207.143V58.37H201.943ZM152.929 71.63V70.63H158.129V71.63H152.929ZM152.929 74.37V73.37H158.129V74.37H152.929ZM173.935 87.63V86.63H179.135V87.63H173.935ZM173.935 90.37V89.37H179.135V90.37H173.935Z" fill="#81B4EC"/>
<path d="M139.775 99.52H140.995L140.795 103.42H139.975L139.775 99.52ZM142.055 99.52H143.275L143.075 103.42H142.255L142.055 99.52ZM146.157 108V102H147.257V102.45H147.557C147.857 102.06 148.357 101.84 148.937 101.84C150.187 101.84 151.007 102.73 151.007 104.11V108H149.907V104.41C149.907 103.42 149.447 102.89 148.587 102.89C147.717 102.89 147.257 103.42 147.257 104.41V108H146.157ZM152.989 104.95C152.989 103.04 154.019 101.84 155.649 101.84C157.179 101.84 158.079 102.96 158.079 104.9C158.079 105.05 158.069 105.22 158.059 105.36H154.079C154.179 106.53 154.739 107.16 155.679 107.16C156.349 107.16 156.859 106.81 157.209 106.16H158.239C157.949 107.4 156.969 108.16 155.679 108.16C153.979 108.16 152.989 106.98 152.989 104.95ZM154.099 104.39H157.029C156.909 103.38 156.429 102.84 155.649 102.84C154.799 102.84 154.249 103.4 154.099 104.39ZM160.401 108L159.331 102H160.431L160.931 105.2L161.141 107.2H161.241L161.811 102H163.331L163.921 107.2H164.021L164.221 105.2L164.731 102H165.731L164.661 108H163.171L162.581 102.77H162.481L161.911 108H160.401ZM166.763 108V100H168.573L169.513 104.63H169.623L170.553 100H172.303V108H171.263V103.4L171.303 100.8H171.183L170.293 105.3H168.783L167.883 100.8H167.763L167.803 103.4V108H166.763ZM173.995 104.95C173.995 103.04 175.025 101.84 176.655 101.84C178.185 101.84 179.085 102.96 179.085 104.9C179.085 105.05 179.075 105.22 179.065 105.36H175.085C175.185 106.53 175.745 107.16 176.685 107.16C177.355 107.16 177.865 106.81 178.215 106.16H179.245C178.955 107.4 177.975 108.16 176.685 108.16C174.985 108.16 173.995 106.98 173.995 104.95ZM175.105 104.39H178.035C177.915 103.38 177.435 102.84 176.655 102.84C175.805 102.84 175.255 103.4 175.105 104.39ZM182.147 106.16C182.337 106.78 182.827 107.13 183.607 107.13C184.407 107.13 184.847 106.83 184.847 106.3C184.847 105.94 184.497 105.7 183.817 105.6L183.087 105.49C181.777 105.29 181.167 104.73 181.167 103.71C181.167 102.55 182.077 101.84 183.587 101.84C185.117 101.84 186.057 102.63 186.117 103.96H185.117C184.927 103.26 184.407 102.87 183.567 102.87C182.727 102.87 182.257 103.17 182.257 103.7C182.257 104.06 182.607 104.3 183.287 104.4L184.017 104.51C185.337 104.71 185.937 105.27 185.937 106.29C185.937 107.45 185.047 108.16 183.597 108.16C182.107 108.16 181.197 107.42 181.127 106.16H182.147ZM189.149 106.16C189.339 106.78 189.829 107.13 190.609 107.13C191.409 107.13 191.849 106.83 191.849 106.3C191.849 105.94 191.499 105.7 190.819 105.6L190.089 105.49C188.779 105.29 188.169 104.73 188.169 103.71C188.169 102.55 189.079 101.84 190.589 101.84C192.119 101.84 193.059 102.63 193.119 103.96H192.119C191.929 103.26 191.409 102.87 190.569 102.87C189.729 102.87 189.259 103.17 189.259 103.7C189.259 104.06 189.609 104.3 190.289 104.4L191.019 104.51C192.339 104.71 192.939 105.27 192.939 106.29C192.939 107.45 192.049 108.16 190.599 108.16C189.109 108.16 188.199 107.42 188.129 106.16H189.149ZM194.811 104.07C194.911 102.69 195.941 101.84 197.511 101.84C199.011 101.84 199.861 102.63 199.861 104.03V108H198.791V107.45H198.491C198.161 107.91 197.661 108.15 196.921 108.15C195.821 108.15 195.111 107.46 195.111 106.42C195.111 105.42 195.781 104.75 196.961 104.56L198.791 104.27V104.1C198.791 103.33 198.281 102.86 197.481 102.86C196.611 102.86 196.031 103.29 195.861 104.07H194.811ZM196.271 106.37C196.271 106.82 196.641 107.13 197.181 107.13C198.061 107.13 198.791 106.44 198.791 105.57V105.24L197.101 105.5C196.531 105.59 196.271 105.9 196.271 106.37ZM207.023 107.8C207.023 109.25 206.043 110.16 204.403 110.16C202.883 110.16 201.873 109.42 201.813 108.23H202.863C203.073 108.82 203.623 109.16 204.403 109.16C205.353 109.16 205.923 108.63 205.923 107.73V107.09H205.623C205.353 107.48 204.803 107.72 204.223 107.72C202.763 107.72 201.833 106.59 201.833 104.8C201.833 102.98 202.763 101.84 204.223 101.84C204.823 101.84 205.373 102.1 205.623 102.5H205.923V102H207.023V107.8ZM202.923 104.8C202.923 106.02 203.493 106.73 204.453 106.73C205.423 106.73 205.993 106.02 205.993 104.8C205.993 103.58 205.423 102.87 204.453 102.87C203.493 102.87 202.923 103.58 202.923 104.8ZM209.005 104.95C209.005 103.04 210.035 101.84 211.665 101.84C213.195 101.84 214.095 102.96 214.095 104.9C214.095 105.05 214.085 105.22 214.075 105.36H210.095C210.195 106.53 210.755 107.16 211.695 107.16C212.365 107.16 212.875 106.81 213.225 106.16H214.255C213.965 107.4 212.985 108.16 211.695 108.16C209.995 108.16 209.005 106.98 209.005 104.95ZM210.115 104.39H213.045C212.925 103.38 212.445 102.84 211.665 102.84C210.815 102.84 210.265 103.4 210.115 104.39ZM216.797 99.52H218.017L217.817 103.42H216.997L216.797 99.52ZM219.077 99.52H220.297L220.097 103.42H219.277L219.077 99.52ZM202.923 179.52H204.363L206.163 182.28H205.123L202.923 179.52ZM208.995 182H211.335V182.44H211.635C211.875 182.06 212.305 181.84 212.835 181.84C213.805 181.84 214.395 182.56 214.395 183.73V184.6H213.255V183.89C213.255 183.22 212.975 182.88 212.435 182.88C211.745 182.88 211.405 183.5 211.405 184.73V186.97H213.265V188H209.175V186.97H210.305V183.03H208.995V182ZM218.547 188.16C216.887 188.16 215.827 186.94 215.827 185C215.827 183.06 216.887 181.84 218.547 181.84C220.207 181.84 221.267 183.06 221.267 185C221.267 186.94 220.207 188.16 218.547 188.16ZM216.917 185C216.917 186.34 217.517 187.13 218.547 187.13C219.577 187.13 220.177 186.34 220.177 185C220.177 183.66 219.577 182.87 218.547 182.87C217.517 182.87 216.917 183.66 216.917 185ZM225.549 188.16C223.889 188.16 222.829 186.94 222.829 185C222.829 183.06 223.889 181.84 225.549 181.84C227.209 181.84 228.269 183.06 228.269 185C228.269 186.94 227.209 188.16 225.549 188.16ZM223.919 185C223.919 186.34 224.519 187.13 225.549 187.13C226.579 187.13 227.179 186.34 227.179 185C227.179 183.66 226.579 182.87 225.549 182.87C224.519 182.87 223.919 183.66 223.919 185ZM229.811 182H230.911V182.48H231.171C231.301 182.08 231.621 181.84 232.061 181.84C232.461 181.84 232.781 182.1 232.941 182.53H233.201C233.341 182.1 233.701 181.84 234.181 181.84C234.881 181.84 235.331 182.47 235.331 183.44V188H234.281V183.87C234.281 183.33 234.081 183.05 233.681 183.05C233.291 183.05 233.091 183.33 233.091 183.87V188H232.051V183.87C232.051 183.33 231.851 183.05 231.461 183.05C231.061 183.05 230.861 183.33 230.861 183.87V188H229.811V182ZM236.983 188V186.93H238.983V181.07H236.983V180H242.123V181.07H240.123V186.93H242.123V188H236.983ZM246.135 188.16C244.645 188.16 243.685 186.94 243.685 185C243.685 183.06 244.645 181.84 246.135 181.84C246.785 181.84 247.355 182.11 247.615 182.55H247.915V179.52H249.015V188H247.915V187.45H247.615C247.355 187.89 246.785 188.16 246.135 188.16ZM244.785 185C244.785 186.34 245.365 187.13 246.365 187.13C247.375 187.13 247.955 186.34 247.955 185C247.955 183.66 247.375 182.87 246.365 182.87C245.365 182.87 244.785 183.66 244.785 185ZM253.557 188.08C252.967 188.08 252.637 187.73 252.637 187.12C252.637 186.52 252.967 186.17 253.557 186.17C254.147 186.17 254.477 186.52 254.477 187.12C254.477 187.73 254.147 188.08 253.557 188.08ZM252.637 182.87C252.637 182.27 252.967 181.92 253.557 181.92C254.147 181.92 254.477 182.27 254.477 182.87C254.477 183.48 254.147 183.83 253.557 183.83C252.967 183.83 252.637 183.48 252.637 182.87Z" fill="#ADD4F9"/>
<path d="M342.962 179.52H344.402L346.202 182.28H345.162L342.962 179.52Z" fill="#74CDDD"/>
<rect x="0.5" y="0.5" width="471" height="239" rx="3.5" stroke="black" stroke-opacity="0.1"/>
</svg>
