<svg width="336" height="203" viewBox="0 0 336 203" fill="none" xmlns="http://www.w3.org/2000/svg">
<mask id="path-1-inside-1" fill="white">
<path fill-rule="evenodd" clip-rule="evenodd" d="M154.468 200.784L154.998 201.183C155.233 201.062 155.524 200.911 155.839 200.747C156.608 200.347 157.5 199.88 158.023 199.593C158.415 199.377 158.635 199.145 158.773 198.878C158.918 198.595 159.016 198.187 159.017 197.553C159.008 196.789 159.008 190.626 159.01 184.661C159.011 181.667 159.013 178.719 159.014 176.519L159.016 173.869L159.016 173.58L154.218 171.91L154.293 180.521C155.731 181.534 156.97 183.141 157.696 185.138C159.224 189.336 157.911 193.669 154.762 194.815C154.648 194.857 154.533 194.893 154.418 194.925L154.468 200.784ZM153.419 195.088L153.473 201.285L154.897 202.36C154.897 202.36 157.436 201.056 158.505 200.469C159.574 199.882 160.017 199.008 160.017 197.548C160 196.088 160.017 172.869 160.017 172.869L154.209 170.848L153.206 170.5L153.215 171.562L153.288 179.926C151.963 179.284 150.54 179.133 149.228 179.611C146.079 180.757 144.765 185.09 146.293 189.288C147.609 192.903 150.602 195.24 153.419 195.088ZM154.409 193.879C154.412 193.878 154.416 193.877 154.42 193.875C155.632 193.434 156.564 192.356 157.026 190.831C157.488 189.306 157.454 187.395 156.757 185.48C156.199 183.947 155.318 182.689 154.304 181.801L154.409 193.879ZM153.297 181.067L153.41 194.086C152.46 194.149 151.444 193.856 150.466 193.218C149.132 192.348 147.93 190.862 147.233 188.946C146.536 187.031 146.501 185.12 146.964 183.595C147.426 182.07 148.357 180.992 149.57 180.551C150.714 180.134 152.031 180.313 153.297 181.067Z"/>
</mask>
<path d="M154.998 201.183L154.395 201.981L154.897 202.36L155.456 202.072L154.998 201.183ZM154.468 200.784L153.468 200.793L153.473 201.285L153.866 201.582L154.468 200.784ZM155.839 200.747L156.3 201.635L156.3 201.635L155.839 200.747ZM158.023 199.593L158.505 200.469L158.505 200.469L158.023 199.593ZM158.773 198.878L157.884 198.42L157.884 198.42L158.773 198.878ZM159.017 197.553L160.017 197.554L160.017 197.542L159.017 197.553ZM159.01 184.661L158.01 184.66L158.01 184.66L159.01 184.661ZM159.014 176.519L158.014 176.519L158.014 176.519L159.014 176.519ZM159.016 173.869L158.016 173.868L158.016 173.868L159.016 173.869ZM159.016 173.58L160.016 173.58L160.017 172.869L159.345 172.635L159.016 173.58ZM154.218 171.91L154.547 170.966L153.206 170.5L153.218 171.919L154.218 171.91ZM154.293 180.521L153.293 180.53L153.297 181.043L153.717 181.339L154.293 180.521ZM157.696 185.138L156.757 185.48L156.757 185.48L157.696 185.138ZM154.762 194.815L154.42 193.875L154.42 193.875L154.762 194.815ZM154.418 194.925L154.15 193.962L153.411 194.167L153.418 194.934L154.418 194.925ZM153.473 201.285L152.473 201.294L152.477 201.787L152.87 202.084L153.473 201.285ZM153.419 195.088L154.419 195.08L154.41 194.033L153.365 194.09L153.419 195.088ZM154.897 202.36L154.295 203.158L154.795 203.536L155.354 203.25L154.897 202.36ZM160.017 197.548H161.017L161.017 197.537L160.017 197.548ZM160.017 172.869L161.017 172.87L161.017 172.158L160.345 171.924L160.017 172.869ZM154.209 170.848L154.537 169.904L154.209 170.848ZM153.206 170.5L153.534 169.555L152.194 169.089L152.206 170.508L153.206 170.5ZM153.215 171.562L152.215 171.57L152.215 171.57L153.215 171.562ZM153.288 179.926L152.851 180.826L154.301 181.529L154.288 179.918L153.288 179.926ZM149.228 179.611L149.57 180.551L149.57 180.551L149.228 179.611ZM146.293 189.288L147.233 188.946L147.233 188.946L146.293 189.288ZM154.409 193.879L153.409 193.888L153.421 195.298L154.747 194.82L154.409 193.879ZM154.42 193.875L154.078 192.936L154.077 192.936L154.42 193.875ZM157.026 190.831L156.069 190.541L156.069 190.541L157.026 190.831ZM156.757 185.48L157.696 185.138L157.696 185.138L156.757 185.48ZM154.304 181.801L154.963 181.049L153.285 179.58L153.304 181.81L154.304 181.801ZM153.41 194.086L153.476 195.084L154.418 195.022L154.41 194.078L153.41 194.086ZM153.297 181.067L154.297 181.058L154.293 180.495L153.809 180.207L153.297 181.067ZM150.466 193.218L149.92 194.056L149.92 194.056L150.466 193.218ZM147.233 188.946L146.293 189.288L146.293 189.288L147.233 188.946ZM146.964 183.595L146.007 183.305L146.007 183.305L146.964 183.595ZM149.57 180.551L149.912 181.49L149.912 181.49L149.57 180.551ZM155.6 200.385L155.071 199.986L153.866 201.582L154.395 201.981L155.6 200.385ZM155.378 199.86C155.064 200.023 154.773 200.174 154.539 200.295L155.456 202.072C155.692 201.95 155.985 201.799 156.3 201.635L155.378 199.86ZM157.542 198.716C157.031 198.997 156.149 199.459 155.378 199.86L156.3 201.635C157.068 201.235 157.97 200.763 158.505 200.469L157.542 198.716ZM157.884 198.42C157.862 198.462 157.836 198.499 157.794 198.54C157.75 198.583 157.674 198.643 157.542 198.716L158.505 200.469C159.04 200.175 159.418 199.81 159.662 199.336L157.884 198.42ZM158.017 197.552C158.016 198.092 157.932 198.326 157.884 198.42L159.662 199.336C159.905 198.863 160.016 198.281 160.017 197.554L158.017 197.552ZM158.01 184.66C158.008 190.62 158.008 196.792 158.017 197.564L160.017 197.542C160.008 196.785 160.008 190.632 160.01 184.661L158.01 184.66ZM158.014 176.519C158.013 178.718 158.011 181.666 158.01 184.66L160.01 184.661C160.011 181.667 160.013 178.719 160.014 176.52L158.014 176.519ZM158.016 173.868L158.014 176.519L160.014 176.52L160.016 173.869L158.016 173.868ZM158.016 173.579L158.016 173.868L160.016 173.87L160.016 173.58L158.016 173.579ZM153.889 172.855L158.688 174.524L159.345 172.635L154.547 170.966L153.889 172.855ZM155.293 180.513L155.218 171.902L153.218 171.919L153.293 180.53L155.293 180.513ZM158.636 184.796C157.845 182.623 156.487 180.844 154.869 179.704L153.717 181.339C154.974 182.224 156.094 183.659 156.757 185.48L158.636 184.796ZM155.104 195.755C157.04 195.05 158.34 193.389 158.94 191.411C159.54 189.434 159.467 187.079 158.636 184.796L156.757 185.48C157.454 187.395 157.488 189.306 157.026 190.831C156.564 192.356 155.632 193.434 154.42 193.875L155.104 195.755ZM154.685 195.889C154.826 195.85 154.965 195.805 155.104 195.755L154.42 193.875C154.33 193.908 154.24 193.937 154.15 193.962L154.685 195.889ZM155.468 200.775L155.418 194.917L153.418 194.934L153.468 200.793L155.468 200.775ZM154.473 201.277L154.419 195.08L152.419 195.097L152.473 201.294L154.473 201.277ZM155.499 201.562L154.075 200.487L152.87 202.084L154.295 203.158L155.499 201.562ZM158.023 199.593C157.5 199.88 156.608 200.347 155.839 200.747C155.456 200.947 155.106 201.127 154.852 201.258C154.725 201.324 154.622 201.377 154.551 201.414C154.515 201.432 154.487 201.446 154.468 201.456C154.459 201.461 154.452 201.464 154.447 201.467C154.445 201.468 154.443 201.469 154.442 201.469C154.441 201.47 154.441 201.47 154.44 201.47C154.44 201.47 154.44 201.47 154.44 201.47C154.44 201.47 154.44 201.47 154.44 201.47C154.44 201.47 154.44 201.47 154.897 202.36C155.354 203.25 155.354 203.25 155.354 203.25C155.354 203.25 155.354 203.25 155.354 203.25C155.354 203.249 155.354 203.249 155.354 203.249C155.354 203.249 155.355 203.249 155.356 203.249C155.357 203.248 155.359 203.247 155.361 203.246C155.366 203.243 155.373 203.239 155.383 203.235C155.402 203.225 155.43 203.21 155.466 203.192C155.537 203.155 155.641 203.102 155.769 203.036C156.024 202.904 156.376 202.722 156.761 202.522C157.528 202.123 158.44 201.646 158.986 201.346L158.023 199.593ZM159.017 197.548C159.017 198.184 158.919 198.594 158.773 198.878C158.635 199.145 158.415 199.377 158.023 199.593L158.986 201.346C159.663 200.974 160.2 200.475 160.551 199.794C160.893 199.129 161.017 198.372 161.017 197.548H159.017ZM160.017 172.869C159.017 172.868 159.017 172.868 159.017 172.869C159.017 172.869 159.017 172.869 159.017 172.869C159.017 172.87 159.017 172.871 159.017 172.872C159.017 172.875 159.017 172.88 159.017 172.885C159.017 172.896 159.017 172.913 159.017 172.935C159.017 172.979 159.016 173.044 159.016 173.129C159.016 173.3 159.016 173.55 159.016 173.869C159.015 174.507 159.015 175.419 159.014 176.519C159.013 178.719 159.011 181.667 159.01 184.661C159.008 190.642 159.008 196.822 159.017 197.559L161.017 197.537C161.008 196.814 161.008 190.655 161.01 184.661C161.011 181.668 161.013 178.72 161.014 176.52C161.015 175.421 161.015 174.508 161.016 173.87C161.016 173.551 161.016 173.301 161.016 173.131C161.016 173.046 161.017 172.98 161.017 172.936C161.017 172.914 161.017 172.898 161.017 172.887C161.017 172.881 161.017 172.877 161.017 172.874C161.017 172.873 161.017 172.871 161.017 172.871C161.017 172.87 161.017 172.87 161.017 172.87C161.017 172.87 161.017 172.87 160.017 172.869ZM153.88 171.793L159.688 173.813L160.345 171.924L154.537 169.904L153.88 171.793ZM152.877 171.444L153.88 171.793L154.537 169.904L153.534 169.555L152.877 171.444ZM154.215 171.553L154.206 170.491L152.206 170.508L152.215 171.57L154.215 171.553ZM154.288 179.918L154.215 171.553L152.215 171.57L152.288 179.935L154.288 179.918ZM153.724 179.027C152.201 178.289 150.496 178.085 148.886 178.671L149.57 180.551C150.583 180.182 151.724 180.28 152.851 180.826L153.724 179.027ZM148.886 178.671C146.949 179.376 145.649 181.037 145.05 183.015C144.45 184.992 144.523 187.347 145.353 189.63L147.233 188.946C146.536 187.031 146.501 185.12 146.964 183.595C147.426 182.07 148.357 180.992 149.57 180.551L148.886 178.671ZM145.353 189.63C146.764 193.504 150.072 196.27 153.473 196.087L153.365 194.09C151.133 194.21 148.454 192.302 147.233 188.946L145.353 189.63ZM154.747 194.82C154.752 194.819 154.757 194.817 154.762 194.815L154.077 192.936C154.075 192.937 154.073 192.938 154.07 192.939L154.747 194.82ZM154.762 194.815C156.335 194.242 157.451 192.874 157.983 191.121L156.069 190.541C155.676 191.837 154.929 192.626 154.078 192.936L154.762 194.815ZM157.983 191.121C158.514 189.37 158.46 187.237 157.696 185.138L155.817 185.822C156.447 187.554 156.463 189.242 156.069 190.541L157.983 191.121ZM157.696 185.138C157.084 183.455 156.11 182.053 154.963 181.049L153.645 182.554C154.526 183.325 155.313 184.439 155.817 185.822L157.696 185.138ZM155.409 193.871L155.304 181.793L153.304 181.81L153.409 193.888L155.409 193.871ZM154.41 194.078L154.297 181.058L152.297 181.075L152.41 194.095L154.41 194.078ZM149.92 194.056C151.043 194.789 152.271 195.164 153.476 195.084L153.345 193.089C152.649 193.134 151.844 192.924 151.013 192.381L149.92 194.056ZM146.293 189.288C147.057 191.388 148.387 193.056 149.92 194.056L151.013 192.381C149.876 191.639 148.803 190.336 148.173 188.604L146.293 189.288ZM146.007 183.305C145.476 185.056 145.529 187.189 146.293 189.288L148.173 188.604C147.542 186.872 147.527 185.184 147.92 183.885L146.007 183.305ZM149.228 179.611C147.654 180.184 146.538 181.552 146.007 183.305L147.92 183.885C148.314 182.589 149.06 181.8 149.912 181.49L149.228 179.611ZM153.809 180.207C152.342 179.334 150.711 179.071 149.228 179.611L149.912 181.49C150.717 181.197 151.721 181.292 152.786 181.926L153.809 180.207Z" fill="white" mask="url(#path-1-inside-1)"/>
<path fill-rule="evenodd" clip-rule="evenodd" d="M142.894 141.447C141.565 140.783 140 141.749 140 143.236V193.528C140 195.043 140.856 196.428 142.211 197.106L150.211 201.106C152.871 202.436 156 200.502 156 197.528V149.236C156 148.479 155.572 147.786 154.894 147.447L142.894 141.447ZM143.701 191.271C144.851 194.429 147.703 196.29 150.071 195.428C152.44 194.566 153.428 191.307 152.279 188.149C151.129 184.991 148.277 183.129 145.909 183.991C143.54 184.854 142.552 188.113 143.701 191.271Z" fill="white"/>
<mask id="path-4-inside-2" fill="white">
<path fill-rule="evenodd" clip-rule="evenodd" d="M186.468 184.784L186.998 185.183C187.233 185.062 187.524 184.911 187.839 184.747C188.608 184.347 189.5 183.88 190.023 183.593C190.415 183.377 190.635 183.145 190.773 182.878C190.918 182.595 191.016 182.187 191.017 181.553C191.008 180.789 191.008 174.626 191.01 168.661C191.011 165.667 191.013 162.719 191.014 160.519L191.016 157.869L191.016 157.58L186.218 155.91L186.293 164.521C187.731 165.534 188.97 167.141 189.696 169.138C191.224 173.336 189.911 177.669 186.762 178.815C186.648 178.857 186.533 178.893 186.418 178.925L186.468 184.784ZM185.419 179.088L185.473 185.285L186.897 186.36C186.897 186.36 189.436 185.056 190.505 184.469C191.574 183.882 192.017 183.008 192.017 181.548C192 180.088 192.017 156.869 192.017 156.869L186.209 154.848L185.206 154.5L185.215 155.562L185.288 163.926C183.963 163.284 182.54 163.133 181.228 163.611C178.079 164.757 176.765 169.09 178.293 173.288C179.609 176.903 182.602 179.24 185.419 179.088ZM186.409 177.879C186.412 177.878 186.416 177.877 186.42 177.875C187.632 177.434 188.564 176.356 189.026 174.831C189.488 173.306 189.454 171.395 188.757 169.48C188.199 167.947 187.318 166.689 186.304 165.801L186.409 177.879ZM185.297 165.067L185.41 178.086C184.46 178.149 183.444 177.856 182.466 177.218C181.132 176.348 179.93 174.862 179.233 172.946C178.536 171.031 178.501 169.12 178.964 167.595C179.426 166.07 180.357 164.992 181.57 164.551C182.714 164.134 184.031 164.313 185.297 165.067Z"/>
</mask>
<path d="M186.998 185.183L186.395 185.981L186.897 186.36L187.456 186.072L186.998 185.183ZM186.468 184.784L185.468 184.793L185.473 185.285L185.866 185.582L186.468 184.784ZM187.839 184.747L188.3 185.635L188.3 185.635L187.839 184.747ZM190.023 183.593L190.505 184.469L190.505 184.469L190.023 183.593ZM190.773 182.878L189.884 182.42L189.884 182.42L190.773 182.878ZM191.017 181.553L192.017 181.554L192.017 181.542L191.017 181.553ZM191.01 168.661L190.01 168.66L190.01 168.66L191.01 168.661ZM191.014 160.519L190.014 160.519L190.014 160.519L191.014 160.519ZM191.016 157.869L190.016 157.868L190.016 157.868L191.016 157.869ZM191.016 157.58L192.016 157.58L192.017 156.869L191.345 156.635L191.016 157.58ZM186.218 155.91L186.547 154.966L185.206 154.5L185.218 155.919L186.218 155.91ZM186.293 164.521L185.293 164.53L185.297 165.043L185.717 165.339L186.293 164.521ZM189.696 169.138L188.757 169.48L188.757 169.48L189.696 169.138ZM186.762 178.815L186.42 177.875L186.42 177.875L186.762 178.815ZM186.418 178.925L186.15 177.962L185.411 178.167L185.418 178.934L186.418 178.925ZM185.473 185.285L184.473 185.294L184.477 185.787L184.87 186.084L185.473 185.285ZM185.419 179.088L186.419 179.08L186.41 178.033L185.365 178.09L185.419 179.088ZM186.897 186.36L186.295 187.158L186.795 187.536L187.354 187.25L186.897 186.36ZM192.017 181.548H193.017L193.017 181.537L192.017 181.548ZM192.017 156.869L193.017 156.87L193.017 156.158L192.345 155.924L192.017 156.869ZM186.209 154.848L186.537 153.904L186.209 154.848ZM185.206 154.5L185.534 153.555L184.194 153.089L184.206 154.508L185.206 154.5ZM185.215 155.562L184.215 155.57L184.215 155.57L185.215 155.562ZM185.288 163.926L184.851 164.826L186.301 165.529L186.288 163.918L185.288 163.926ZM181.228 163.611L181.57 164.551L181.57 164.551L181.228 163.611ZM178.293 173.288L179.233 172.946L179.233 172.946L178.293 173.288ZM186.409 177.879L185.409 177.888L185.421 179.298L186.747 178.82L186.409 177.879ZM186.42 177.875L186.078 176.936L186.077 176.936L186.42 177.875ZM189.026 174.831L188.069 174.541L188.069 174.541L189.026 174.831ZM188.757 169.48L189.696 169.138L189.696 169.138L188.757 169.48ZM186.304 165.801L186.963 165.049L185.285 163.58L185.304 165.81L186.304 165.801ZM185.41 178.086L185.476 179.084L186.418 179.022L186.41 178.078L185.41 178.086ZM185.297 165.067L186.297 165.058L186.293 164.495L185.809 164.207L185.297 165.067ZM182.466 177.218L181.92 178.056L181.92 178.056L182.466 177.218ZM179.233 172.946L178.293 173.288L178.293 173.288L179.233 172.946ZM178.964 167.595L178.007 167.305L178.007 167.305L178.964 167.595ZM181.57 164.551L181.912 165.49L181.912 165.49L181.57 164.551ZM187.6 184.385L187.071 183.986L185.866 185.582L186.395 185.981L187.6 184.385ZM187.378 183.86C187.064 184.023 186.773 184.174 186.539 184.295L187.456 186.072C187.692 185.95 187.985 185.799 188.3 185.635L187.378 183.86ZM189.542 182.716C189.031 182.997 188.149 183.459 187.378 183.86L188.3 185.635C189.068 185.235 189.97 184.763 190.505 184.469L189.542 182.716ZM189.884 182.42C189.862 182.462 189.836 182.499 189.794 182.54C189.75 182.583 189.674 182.643 189.542 182.716L190.505 184.469C191.04 184.175 191.418 183.81 191.662 183.336L189.884 182.42ZM190.017 181.552C190.016 182.092 189.932 182.326 189.884 182.42L191.662 183.336C191.905 182.863 192.016 182.281 192.017 181.554L190.017 181.552ZM190.01 168.66C190.008 174.62 190.008 180.792 190.017 181.564L192.017 181.542C192.008 180.785 192.008 174.632 192.01 168.661L190.01 168.66ZM190.014 160.519C190.013 162.718 190.011 165.666 190.01 168.66L192.01 168.661C192.011 165.667 192.013 162.719 192.014 160.52L190.014 160.519ZM190.016 157.868L190.014 160.519L192.014 160.52L192.016 157.869L190.016 157.868ZM190.016 157.579L190.016 157.868L192.016 157.87L192.016 157.58L190.016 157.579ZM185.889 156.855L190.688 158.524L191.345 156.635L186.547 154.966L185.889 156.855ZM187.293 164.513L187.218 155.902L185.218 155.919L185.293 164.53L187.293 164.513ZM190.636 168.796C189.845 166.623 188.487 164.844 186.869 163.704L185.717 165.339C186.974 166.224 188.094 167.659 188.757 169.48L190.636 168.796ZM187.104 179.755C189.04 179.05 190.34 177.389 190.94 175.411C191.54 173.434 191.467 171.079 190.636 168.796L188.757 169.48C189.454 171.395 189.488 173.306 189.026 174.831C188.564 176.356 187.632 177.434 186.42 177.875L187.104 179.755ZM186.685 179.889C186.826 179.85 186.965 179.805 187.104 179.755L186.42 177.875C186.33 177.908 186.24 177.937 186.15 177.962L186.685 179.889ZM187.468 184.775L187.418 178.917L185.418 178.934L185.468 184.793L187.468 184.775ZM186.473 185.277L186.419 179.08L184.419 179.097L184.473 185.294L186.473 185.277ZM187.499 185.562L186.075 184.487L184.87 186.084L186.295 187.158L187.499 185.562ZM190.023 183.593C189.5 183.88 188.608 184.347 187.839 184.747C187.456 184.947 187.106 185.127 186.852 185.258C186.725 185.324 186.622 185.377 186.551 185.414C186.515 185.432 186.487 185.446 186.468 185.456C186.459 185.461 186.452 185.464 186.447 185.467C186.445 185.468 186.443 185.469 186.442 185.469C186.441 185.47 186.441 185.47 186.44 185.47C186.44 185.47 186.44 185.47 186.44 185.47C186.44 185.47 186.44 185.47 186.44 185.47C186.44 185.47 186.44 185.47 186.897 186.36C187.354 187.25 187.354 187.25 187.354 187.25C187.354 187.25 187.354 187.25 187.354 187.25C187.354 187.249 187.354 187.249 187.354 187.249C187.354 187.249 187.355 187.249 187.356 187.249C187.357 187.248 187.359 187.247 187.361 187.246C187.366 187.243 187.373 187.239 187.383 187.235C187.402 187.225 187.43 187.21 187.466 187.192C187.537 187.155 187.641 187.102 187.769 187.036C188.024 186.904 188.376 186.722 188.761 186.522C189.528 186.123 190.44 185.646 190.986 185.346L190.023 183.593ZM191.017 181.548C191.017 182.184 190.919 182.594 190.773 182.878C190.635 183.145 190.415 183.377 190.023 183.593L190.986 185.346C191.663 184.974 192.2 184.475 192.551 183.794C192.893 183.129 193.017 182.372 193.017 181.548H191.017ZM192.017 156.869C191.017 156.868 191.017 156.868 191.017 156.869C191.017 156.869 191.017 156.869 191.017 156.869C191.017 156.87 191.017 156.871 191.017 156.872C191.017 156.875 191.017 156.88 191.017 156.885C191.017 156.896 191.017 156.913 191.017 156.935C191.017 156.979 191.016 157.044 191.016 157.129C191.016 157.3 191.016 157.55 191.016 157.869C191.015 158.507 191.015 159.419 191.014 160.519C191.013 162.719 191.011 165.667 191.01 168.661C191.008 174.642 191.008 180.822 191.017 181.559L193.017 181.537C193.008 180.814 193.008 174.655 193.01 168.661C193.011 165.668 193.013 162.72 193.014 160.52C193.015 159.421 193.015 158.508 193.016 157.87C193.016 157.551 193.016 157.301 193.016 157.131C193.016 157.046 193.017 156.98 193.017 156.936C193.017 156.914 193.017 156.898 193.017 156.887C193.017 156.881 193.017 156.877 193.017 156.874C193.017 156.873 193.017 156.871 193.017 156.871C193.017 156.87 193.017 156.87 193.017 156.87C193.017 156.87 193.017 156.87 192.017 156.869ZM185.88 155.793L191.688 157.813L192.345 155.924L186.537 153.904L185.88 155.793ZM184.877 155.444L185.88 155.793L186.537 153.904L185.534 153.555L184.877 155.444ZM186.215 155.553L186.206 154.491L184.206 154.508L184.215 155.57L186.215 155.553ZM186.288 163.918L186.215 155.553L184.215 155.57L184.288 163.935L186.288 163.918ZM185.724 163.027C184.201 162.289 182.496 162.085 180.886 162.671L181.57 164.551C182.583 164.182 183.724 164.28 184.851 164.826L185.724 163.027ZM180.886 162.671C178.949 163.376 177.649 165.037 177.05 167.015C176.45 168.992 176.523 171.347 177.353 173.63L179.233 172.946C178.536 171.031 178.501 169.12 178.964 167.595C179.426 166.07 180.357 164.992 181.57 164.551L180.886 162.671ZM177.353 173.63C178.764 177.504 182.072 180.27 185.473 180.087L185.365 178.09C183.133 178.21 180.454 176.302 179.233 172.946L177.353 173.63ZM186.747 178.82C186.752 178.819 186.757 178.817 186.762 178.815L186.077 176.936C186.075 176.937 186.073 176.938 186.07 176.939L186.747 178.82ZM186.762 178.815C188.335 178.242 189.451 176.874 189.983 175.121L188.069 174.541C187.676 175.837 186.929 176.626 186.078 176.936L186.762 178.815ZM189.983 175.121C190.514 173.37 190.46 171.237 189.696 169.138L187.817 169.822C188.447 171.554 188.463 173.242 188.069 174.541L189.983 175.121ZM189.696 169.138C189.084 167.455 188.11 166.053 186.963 165.049L185.645 166.554C186.526 167.325 187.313 168.439 187.817 169.822L189.696 169.138ZM187.409 177.871L187.304 165.793L185.304 165.81L185.409 177.888L187.409 177.871ZM186.41 178.078L186.297 165.058L184.297 165.075L184.41 178.095L186.41 178.078ZM181.92 178.056C183.043 178.789 184.271 179.164 185.476 179.084L185.345 177.089C184.649 177.134 183.844 176.924 183.013 176.381L181.92 178.056ZM178.293 173.288C179.057 175.388 180.387 177.056 181.92 178.056L183.013 176.381C181.876 175.639 180.803 174.336 180.173 172.604L178.293 173.288ZM178.007 167.305C177.476 169.056 177.529 171.189 178.293 173.288L180.173 172.604C179.542 170.872 179.527 169.184 179.92 167.885L178.007 167.305ZM181.228 163.611C179.654 164.184 178.538 165.552 178.007 167.305L179.92 167.885C180.314 166.589 181.06 165.8 181.912 165.49L181.228 163.611ZM185.809 164.207C184.342 163.334 182.711 163.071 181.228 163.611L181.912 165.49C182.717 165.197 183.721 165.292 184.786 165.926L185.809 164.207Z" fill="white" mask="url(#path-4-inside-2)"/>
<path fill-rule="evenodd" clip-rule="evenodd" d="M177.789 126.895C175.129 125.565 172 127.499 172 130.472V177.528C172 179.043 172.856 180.428 174.211 181.106L182.211 185.106C184.871 186.436 188 184.502 188 181.528V134.472C188 132.957 187.144 131.572 185.789 130.895L177.789 126.895ZM175.701 175.271C176.851 178.429 179.703 180.29 182.071 179.428C184.44 178.566 185.428 175.307 184.279 172.149C183.129 168.991 180.277 167.129 177.909 167.991C175.54 168.854 174.552 172.113 175.701 175.271Z" fill="white"/>
<path fill-rule="evenodd" clip-rule="evenodd" d="M88 40L164 77.9961V178L88 140V40ZM116 79.618C116 79.2393 115.786 78.893 115.447 78.7236L109.447 75.7236C108.782 75.3912 108 75.8747 108 76.618V98.382C108 98.7607 108.214 99.107 108.553 99.2764L114.553 102.276C115.218 102.609 116 102.125 116 101.382V79.618ZM144 93.618C144 93.2393 143.786 92.893 143.447 92.7236L137.447 89.7236C136.782 89.3912 136 89.8747 136 90.618V112.382C136 112.761 136.214 113.107 136.553 113.276L142.553 116.276C143.218 116.609 144 116.125 144 115.382V93.618ZM126 122.959C132 125.959 132 130.959 132 130.959V138.959L120 132.959V124.959C120 124.959 120 119.959 126 122.959Z" fill="white"/>
<path fill-rule="evenodd" clip-rule="evenodd" d="M248 40L172 77.9961V178L248 140V40ZM225.264 95.5175C228.378 96.6509 232.127 94.2039 233.638 90.0521C235.149 85.9003 233.85 81.6158 230.736 80.4825C227.622 79.3491 223.873 81.7961 222.362 85.9479C220.851 90.0997 222.15 94.3842 225.264 95.5175ZM220 130C220 130 220 135 214 138C208 141 208 136 208 136V128L220 122V130ZM201.638 106.052C200.127 110.204 196.378 112.651 193.264 111.518C190.15 110.384 188.851 106.1 190.362 101.948C191.873 97.7961 195.622 95.3491 198.736 96.4825C201.85 97.6158 203.149 101.9 201.638 106.052Z" fill="white"/>
<path fill-rule="evenodd" clip-rule="evenodd" d="M88 48L168 8.0012L248 48V40L167.996 0L88 40V48Z" fill="white"/>
<path fill-rule="evenodd" clip-rule="evenodd" d="M184 42C188.418 42 192 39.3137 192 36C192 32.6863 188.418 30 184 30C179.582 30 176 32.6863 176 36C176 39.3137 179.582 42 184 42ZM152 58C156.418 58 160 55.3137 160 52C160 48.6863 156.418 46 152 46C147.582 46 144 48.6863 144 52C144 55.3137 147.582 58 152 58Z" fill="white"/>
<path fill-rule="evenodd" clip-rule="evenodd" d="M212 89V99L216 97V102L220 100V105L240 95V90L244 88V83L248 81V76L252 74V64L168 106V116L172 114V119L176 117V122L180 120V125L200 115V110L204 108V103L208 101V91L212 89Z" fill="black"/>
<path fill-rule="evenodd" clip-rule="evenodd" d="M216 92V87L220 85V90L216 92ZM224 93L220 95V90L224 88V93ZM224 93L228 91V96L224 98V93ZM176 112V107L180 105V110L176 112ZM184 113L180 115V110L184 108V113ZM184 113L188 111V116L184 118V113Z" fill="white"/>
</svg>
