 <svg xmlns="http://www.w3.org/2000/svg" viewBox="0 0 164 203" width="336" height="203">
  <g fill="none" fill-rule="evenodd" transform="translate(-86)">
    <g fill="#FFF" transform="translate(140 141)">
      <path fill-rule="nonzero" d="M13.2058105,29.4996338 L20.0166016,31.8690884 L20.0166016,56.5480957 C20.0166016,58.0079346 19.5738525,58.881958 18.5047607,59.4692383 L17.5760399,59.9670364 L14.8968506,61.3601074 L13.4727783,60.2855225 L13.4192211,54.0884018 C10.602526,54.2401855 7.60888034,51.9033143 6.2931377,48.2883411 C4.76499727,44.0898098 6.07888128,39.7571257 9.22777977,38.6110204 C10.5398208,38.1334765 11.9634227,38.2845065 13.2883758,38.9269189 L13.2058105,29.4996338 Z M19.016,32.579 L14.218,30.91 L14.3024536,40.5299457 L12.8520963,39.8267301 C11.7232014,39.2793779 10.5821941,39.1822317 9.56979992,39.550713 C7.00820931,40.4830558 5.87569996,44.217636 7.23283032,47.946321 C8.35692126,51.0347355 10.8380894,53.0940109 13.1552547,53.0954202 L13.365412,53.0898506 L14.4101421,53.0335531 L14.468,59.783 L14.998,60.183 L17.3555268,58.9522609 C17.6203422,58.8115724 17.8454483,58.6904692 18.0232954,58.5927732 C18.7007328,58.2206389 18.9809981,57.7354082 19.0134383,56.7609857 L19.0099853,53.0455969 L19.016,32.579 Z"/>
      <path d="M1.78883037,-0.105584815 L14.2111696,6.10558482 C15.1991134,6.59955668 16,7.90230818 16,8.99306965 L16,58.9950917 C16,61.2069415 14.3926018,62.1963009 12.4292023,61.2146012 L3.57079765,56.7853988 C1.59870056,55.7993503 0,53.200205 0,50.9950917 L0,0.993069649 C0,-0.107672324 0.793442488,-0.603278756 1.78883037,-0.105584815 Z M5.90870927,42.9913025 C3.54011785,43.8533992 2.55181848,47.1124304 3.70128085,50.2705523 C4.85074321,53.4286742 7.70268931,55.2899703 10.0712807,54.4278736 C12.4398722,53.5657768 13.4281715,50.3067456 12.2787092,47.1486237 C11.1292468,43.9905018 8.2773007,42.1292057 5.90870927,42.9913025 Z"/>
    </g>
    <g fill="#FFF" transform="translate(172 125)">
      <path fill-rule="nonzero" d="M13.2058105,29.4996338 L20.0166016,31.8690884 L20.0166016,56.5480957 C20.0166016,58.0079346 19.5738525,58.881958 18.5047607,59.4692383 L17.5760399,59.9670364 L14.8968506,61.3601074 L13.4727783,60.2855225 L13.4192211,54.0884018 C10.602526,54.2401855 7.60888034,51.9033143 6.2931377,48.2883411 C4.76499727,44.0898098 6.07888128,39.7571257 9.22777977,38.6110204 C10.5398208,38.1334765 11.9634227,38.2845065 13.2883758,38.9269189 L13.2058105,29.4996338 Z M19.016,32.579 L14.218,30.91 L14.3024536,40.5299457 L12.8520963,39.8267301 C11.7232014,39.2793779 10.5821941,39.1822317 9.56979992,39.550713 C7.00820931,40.4830558 5.87569996,44.217636 7.23283032,47.946321 C8.35692126,51.0347355 10.8380894,53.0940109 13.1552547,53.0954202 L13.365412,53.0898506 L14.4101421,53.0335531 L14.468,59.783 L14.998,60.183 L17.3555268,58.9522609 C17.6203422,58.8115724 17.8454483,58.6904692 18.0232954,58.5927732 C18.7007328,58.2206389 18.9809981,57.7354082 19.0134383,56.7609857 L19.0099853,53.0455969 L19.016,32.579 Z"/>
      <path d="M3.57079765,0.785398826 L12.4292023,5.21460117 C14.4012994,6.20064972 16,8.79979503 16,11.0049083 L16,58.9950917 C16,61.2069415 14.3926018,62.1963009 12.4292023,61.2146012 L3.57079765,56.7853988 C1.59870056,55.7993503 0,53.200205 0,50.9950917 L0,3.00490831 C0,0.793058524 1.60739824,-0.196300879 3.57079765,0.785398826 Z M5.90870927,42.9913025 C3.54011785,43.8533992 2.55181848,47.1124304 3.70128085,50.2705523 C4.85074321,53.4286742 7.70268931,55.2899703 10.0712807,54.4278736 C12.4398722,53.5657768 13.4281715,50.3067456 12.2787092,47.1486237 C11.1292468,43.9905018 8.2773007,42.1292057 5.90870927,42.9913025 Z"/>
    </g>
    <path fill="#FFF" d="M88 40L164 77.9960595 164 177.999993 88 140 88 40zM120.00059 124.927905L120 132.95858 132 138.95858 131.99925 130.921955C131.985 130.46358 131.7 125.80858 126 122.95858 120.276923 120.097041 120.012781 124.514083 120.00059 124.927905zM136 90.0006946L136 111.999305C136 112.551974 136.40772 113.20386 136.886706 113.443353L143.113294 116.556647C143.603008 116.801504 144 116.552531 144 115.999305L144 94.0006946C144 93.4480262 143.59228 92.7961402 143.113294 92.5566468L136.886706 89.4433532C136.396992 89.198496 136 89.4474692 136 90.0006946zM108 76.0006946L108 97.9993054C108 98.5519738 108.40772 99.2038598 108.886706 99.4433532L115.113294 102.556647C115.603008 102.801504 116 102.552531 116 101.999305L116 80.0006946C116 79.4480262 115.59228 78.7961402 115.113294 78.5566468L108.886706 75.4433532C108.396992 75.198496 108 75.4474692 108 76.0006946zM248 40L248 140 172 177.999993 172 77.9960595 248 40zM220 122L208 128 208.000175 136.013822C208.00568 136.300118 208.184615 140.907692 214 138 219.8 135.1 219.993333 130.331111 219.999778 130.016407L220 122zM190.361844 101.947879C188.850704 106.099702 190.149971 110.384186 193.263839 111.517541 196.377706 112.650896 200.127016 110.203944 201.638156 106.052121 203.149296 101.900298 201.850029 97.6158141 198.736161 96.482459 195.622294 95.349104 191.872984 97.7960559 190.361844 101.947879zM222.361844 85.9478791C220.850704 90.0997024 222.149971 94.3841859 225.263839 95.517541 228.377706 96.650896 232.127016 94.2039441 233.638156 90.0521209 235.149296 85.9002976 233.850029 81.6158141 230.736161 80.482459 227.622294 79.349104 223.872984 81.7960559 222.361844 85.9478791z"/>
    <polygon fill="#FFF" points="88 0 168 39.999 248 0 248 8 167.996 48 88 8" transform="matrix(1 0 0 -1 0 48)"/>
    <path fill="#FFF" d="M152,46 C156.418278,46 160,48.6862915 160,52 C160,55.3137085 156.418278,58 152,58 C147.581722,58 144,55.3137085 144,52 C144,48.6862915 147.581722,46 152,46 Z M184,30 C188.418278,30 192,32.6862915 192,36 C192,39.3137085 188.418278,42 184,42 C179.581722,42 176,39.3137085 176,36 C176,32.6862915 179.581722,30 184,30 Z"/>
    <polygon fill="#000" points="212 89 212 99 216 97 216 102 220 100 220 105 240 95 240 90 244 88 244 83 248 81 248 76 252 74 252 64 168 106 168 116 172 114 172 119 176 117 176 122 180 120 180 125 200 115 200 110 204 108 204 103 208 101 208 91"/>
    <path fill="#FFF" d="M188,111 L188,116 L184,118 L184,113 L188,111 Z M184,108 L184,113 L180,115 L180,110 L184,108 Z M180,105 L180,110 L176,112 L176,107 L180,105 Z M228,91 L228,96 L224,98 L224,93 L228,91 Z M224,88 L224,93 L220,95 L220,90 L224,88 Z M220,85 L220,90 L216,92 L216,87 L220,85 Z"/>
  </g>
</svg>
