<svg width="64" height="64" viewBox="0 0 64 64" fill="none" xmlns="http://www.w3.org/2000/svg">
<path fill-rule="evenodd" clip-rule="evenodd" d="M8 11C5.7909 11 4 12.7909 4 15V25C2.8954 25 2 25.8954 2 27C2 28.1046 2.8954 29 4 29V31C4 31.5523 4.4477 32 5 32H7C7.5523 32 8 31.5523 8 31V29H9V32C9 32.5523 9.4477 33 10 33H12C12.5523 33 13 32.5523 13 32V29H14V31C14 31.5523 14.4477 32 15 32H17C17.5523 32 18 31.5523 18 31V29C19.1046 29 20 28.1046 20 27C20 25.8954 19.1046 25 18 25V15C18 12.7909 16.2091 11 14 11V8C14.5523 8 15 7.55228 15 7C15 6.44772 14.5523 6 14 6H8C7.4477 6 7 6.44772 7 7C7 7.55228 7.4477 8 8 8V11ZM20 18C21.8586 18 22.7879 18 23.5607 18.1537C26.7342 18.785 29.215 21.2658 29.8463 24.4393C30 25.2121 30 26.1414 30 28V49H32C33.1046 49 34 49.8954 34 51V54C34 55.1046 33.1046 56 32 56H2C0.8954 56 0 55.1046 0 54V51C0 49.8954 0.8954 49 2 49H24V44H5C3.8954 44 3 43.1046 3 42C3 40.8954 3.8954 40 5 40H24V27.2C24 26.0799 24 25.5198 23.782 25.092C23.5903 24.7157 23.2843 24.4097 22.908 24.218C22.4802 24 21.9201 24 20.8 24H20V18ZM10 13H8V15H6V17V19H8V17V15H10V13Z" fill="black"/>
</svg>
