<svg width="56" height="64" viewBox="0 0 56 64" fill="none" xmlns="http://www.w3.org/2000/svg">
<path fill-rule="evenodd" clip-rule="evenodd" d="M33 11C26.3726 11 21 16.3726 21 23C21 29.6274 26.3726 35 33 35C39.6274 35 45 29.6274 45 23C45 16.3726 39.6274 11 33 11ZM16 26C16.4395 26 16.8569 25.9055 17.233 25.7357C18.5308 33.269 25.0961 39 33 39C41.8366 39 49 31.8366 49 23C49 14.1634 41.8366 7 33 7C25.0961 7 18.5308 12.731 17.233 20.2643C16.8569 20.0945 16.4395 20 16 20C14.3431 20 13 21.3431 13 23C13 24.6569 14.3431 26 16 26ZM17 28C17 27.4477 16.5523 27 16 27C15.4477 27 15 27.4477 15 28V28.0054C15 28.5577 15.4477 29.0054 16 29.0054C16.5523 29.0054 17 28.5577 17 28.0054V28ZM17 31.2446C17 30.6923 16.5523 30.2446 16 30.2446C15.4477 30.2446 15 30.6923 15 31.2446V31.2554C15 31.8077 15.4477 32.2554 16 32.2554C16.5523 32.2554 17 31.8077 17 31.2554V31.2446ZM17 34.4946C17 33.9423 16.5523 33.4946 16 33.4946C15.4477 33.4946 15 33.9423 15 34.4946V34.5054C15 35.0577 15.4477 35.5054 16 35.5054C16.5523 35.5054 17 35.0577 17 34.5054V34.4946ZM17 37.7446C17 37.1923 16.5523 36.7446 16 36.7446C15.4477 36.7446 15 37.1923 15 37.7446V37.7554C15 38.3077 15.4477 38.7554 16 38.7554C16.5523 38.7554 17 38.3077 17 37.7554V37.7446ZM2 39C2 38.4477 1.55228 38 1 38C0.447715 38 0 38.4477 0 39V39.0047C0 39.557 0.447715 40.0047 1 40.0047C1.55228 40.0047 2 39.557 2 39.0047V39ZM17 40.9946C17 40.4423 16.5523 39.9946 16 39.9946C15.4477 39.9946 15 40.4423 15 40.9946V41.0054C15 41.5577 15.4477 42.0054 16 42.0054C16.5523 42.0054 17 41.5577 17 41.0054V40.9946ZM2 41.8287C2 41.2764 1.55228 40.8287 1 40.8287C0.447715 40.8287 0 41.2764 0 41.8287V41.8381C0 42.3904 0.447715 42.8381 1 42.8381C1.55228 42.8381 2 42.3904 2 41.8381V41.8287ZM17 44.2446C17 43.6923 16.5523 43.2446 16 43.2446C15.4477 43.2446 15 43.6923 15 44.2446V44.2554C15 44.8077 15.4477 45.2554 16 45.2554C16.5523 45.2554 17 44.8077 17 44.2554V44.2446ZM2 44.662C2 44.1097 1.55228 43.662 1 43.662C0.447715 43.662 0 44.1097 0 44.662V44.6714C0 45.2237 0.447715 45.6714 1 45.6714C1.55228 45.6714 2 45.2237 2 44.6714V44.662ZM17 47.4946C17 46.9423 16.5523 46.4946 16 46.4946C15.4477 46.4946 15 46.9423 15 47.4946V47.5L15 47.5043C14.9996 48.0566 15.4471 48.5046 15.9994 48.5049C16.5516 48.5053 16.9996 48.0579 17 47.5056L17 47.5V47.4946ZM2 47.4953C2 46.943 1.55228 46.4953 1 46.4953C0.447715 46.4953 0 46.943 0 47.4953V47.5V47.5056C0.000356376 48.0579 0.448359 48.5053 1.00064 48.5049C1.55293 48.5046 2.00036 48.0566 2 47.5043L2 47.5V47.4953ZM16.3567 50.7489C16.568 50.2386 16.3255 49.6537 15.8152 49.4424C15.3049 49.2312 14.72 49.4737 14.5088 49.984L14.5055 49.9918C14.2937 50.5018 14.5353 51.087 15.0454 51.2989C15.5554 51.5108 16.1406 51.2691 16.3525 50.7591L16.3567 50.7489ZM2.49121 49.984C2.27999 49.4737 1.69508 49.2312 1.18479 49.4424C0.674488 49.6537 0.432037 50.2386 0.643257 50.7489L0.647502 50.7591C0.859391 51.2691 1.44462 51.5108 1.95464 51.2989C2.46466 51.087 2.70634 50.5018 2.49445 49.9918L2.49121 49.984ZM14.5143 53.5065C14.9046 53.1157 14.9042 52.4826 14.5134 52.0923C14.1226 51.702 13.4895 51.7024 13.0992 52.0932L13.0932 52.0992C12.7024 52.4895 12.702 53.1227 13.0923 53.5134C13.4825 53.9042 14.1157 53.9046 14.5065 53.5144L14.5143 53.5065ZM3.90081 52.0932C3.51053 51.7024 2.87737 51.702 2.48659 52.0923C2.09581 52.4826 2.0954 53.1157 2.48568 53.5065L2.49351 53.5144C2.88429 53.9046 3.51745 53.9042 3.90772 53.5134C4.298 53.1227 4.29759 52.4895 3.90681 52.0992L3.90081 52.0932ZM11.7591 55.3525C12.2691 55.1406 12.5108 54.5554 12.2989 54.0454C12.087 53.5354 11.5018 53.2937 10.9918 53.5056L10.9839 53.5088C10.4736 53.72 10.2312 54.3049 10.4424 54.8152C10.6536 55.3255 11.2385 55.568 11.7488 55.3568L11.7591 55.3525ZM6.00824 53.5056C5.49822 53.2937 4.91299 53.5354 4.7011 54.0454C4.48921 54.5554 4.7309 55.1406 5.24092 55.3525L5.25116 55.3568C5.76145 55.568 6.34636 55.3255 6.55758 54.8152C6.7688 54.3049 6.52635 53.72 6.01605 53.5088L6.00824 53.5056ZM8.49572 54C7.94344 53.9997 7.49543 54.4471 7.49508 54.9994C7.49472 55.5517 7.94215 55.9997 8.49444 56L8.4993 56H8.5H8.5007L8.50556 56C9.05785 55.9997 9.50527 55.5517 9.50492 54.9994C9.50457 54.4471 9.05656 53.9997 8.50428 54L8.5 54L8.49572 54ZM26 22H24V24V26V28H26V30H28V32H30H32H34V30H32H30V28H28V26H26V24V22Z" fill="black"/>
</svg>
