<svg width="34" height="34" viewBox="0 0 34 34" fill="none" xmlns="http://www.w3.org/2000/svg">
<path fill-rule="evenodd" clip-rule="evenodd" d="M14.764 3.27865C11.4436 -0.705872 6.87421 -1.15718 2.85887 2.85816C-1.15643 6.87346 -0.706275 11.4439 3.27682 14.7654C6.09631 17.1166 10.2583 18.4574 14.2386 18.3497L15.7629 18.288L15.7333 18.5493L15.6975 18.9438C15.3685 23.1623 16.7268 27.7086 19.238 30.722C22.5584 34.7065 27.1278 35.1578 31.1432 31.1425C35.1199 27.1657 34.7185 22.6427 30.8257 19.3247L30.5631 19.1071L30.2762 18.8826C27.1713 16.5237 22.6545 15.2989 18.5158 15.7378L18.3127 15.7608L18.3472 14.2422C18.4547 10.2619 17.1143 6.09895 14.764 3.27865ZM4.27308 4.27238C7.42018 1.12528 10.6304 1.44234 13.2276 4.55902L13.4314 4.81134L13.6351 5.07991C15.7735 7.98994 16.8087 12.3283 16.1629 16.0965L16.1518 16.1539L15.7289 16.2222C11.8138 16.7771 7.36371 15.5693 4.5577 13.2294C1.44208 10.6313 1.12576 7.41969 4.27308 4.27238ZM29.729 29.7283C32.847 26.6102 32.5652 23.4353 29.5283 20.8468C26.8011 18.5223 22.4351 17.2783 18.5438 17.7469L18.1805 17.7959L17.8489 17.8496L17.8392 17.9042C17.1934 21.6723 18.2286 26.0107 20.367 28.9207L20.5707 29.1893L20.7745 29.4416C23.3717 32.5583 26.5819 32.8753 29.729 29.7283ZM29.2003 15.8556C28.4716 15.4669 27.7053 15.1245 26.9126 14.8317C27.6323 14.4849 28.3074 14.084 28.9194 13.6343L29.188 13.4307L29.4403 13.2269C32.557 10.6296 32.874 7.41947 29.7269 4.27237C26.6089 1.15435 23.4339 1.4361 20.8455 4.47299C20.1741 5.26072 19.5928 6.18516 19.1169 7.1954C18.8308 6.38685 18.4934 5.60396 18.1079 4.85835C18.3499 4.46353 18.608 4.08487 18.8813 3.72517L19.1057 3.43827L19.3234 3.17564C22.6413 -0.717188 27.1644 -1.11857 31.1411 2.85816C35.1565 6.8735 34.7052 11.4429 30.7206 14.7633C30.249 15.1563 29.7399 15.5211 29.2003 15.8556ZM14.7861 27.0139C15.0787 27.8001 15.4202 28.5602 15.8075 29.2834C15.4864 29.7937 15.138 30.2761 14.7641 30.7245C11.4426 34.7076 6.87211 35.1578 2.85682 31.1425C-1.15852 27.1271 -0.707215 22.5577 3.27731 19.2373C3.74221 18.8499 4.2436 18.4899 4.77464 18.1593C5.51421 18.5431 6.29065 18.8795 7.0926 19.1654C6.37018 19.513 5.69258 19.9151 5.07857 20.3663L4.81 20.57L4.55768 20.7737C1.441 23.371 1.12394 26.5812 4.27103 29.7283C7.41835 32.8756 10.6299 32.5593 13.228 29.4436C13.8244 28.7285 14.3472 27.9066 14.7861 27.0139Z" fill="white"/>
</svg>
