<svg width="99" height="100" viewBox="0 0 99 100" fill="none" xmlns="http://www.w3.org/2000/svg">
<path d="M49.4825 4.30112e-06C39.6958 4.30112e-06 30.1289 2.90331 21.9915 8.34278C13.8542 13.7822 7.51187 21.5136 3.76665 30.5591C0.0214403 39.6046 -0.958479 49.558 0.950815 59.1607C2.86011 68.7633 7.57286 77.5839 14.4931 84.5071C21.4134 91.4302 30.2303 96.1449 39.829 98.055C49.4276 99.9651 59.3769 98.9848 68.4187 95.238C77.4604 91.4912 85.1885 85.1463 90.6257 77.0055C96.0629 68.8648 98.965 59.2939 98.965 49.5031C98.9678 43.0015 97.6897 36.5631 95.2039 30.5559C92.7182 24.5487 89.0734 19.0904 84.478 14.4931C79.8826 9.89575 74.4266 6.24948 68.4219 3.76268C62.4172 1.27588 55.9814 -0.00270639 49.4825 4.30112e-06ZM34.7904 75.024H18.4838V62.7184L34.8605 58.4302V75.024H34.7904ZM57.6327 75.024H41.2561V19.7579L57.6327 14.8365V75.024ZM80.4751 75.024H64.0984V38.1029L80.4751 33.1815V75.024Z" fill="#007ACC"/>
</svg>
