<svg width="40" height="40" viewBox="0 0 40 40" fill="none" xmlns="http://www.w3.org/2000/svg">
<path fill-rule="evenodd" clip-rule="evenodd" d="M40 20C40 8.9543 31.0457 0 20 0C8.9543 0 0 8.9543 0 20C0 31.0457 8.9543 40 20 40C31.0457 40 40 31.0457 40 20ZM2 20C2 10.0589 10.0589 2 20 2C29.9411 2 38 10.0589 38 20C38 29.9411 29.9411 38 20 38C10.0589 38 2 29.9411 2 20ZM26 11.4149V32H24V11.4149L19.7071 15.7071L18.2929 14.2929L25 7.58579L31.7071 14.2929L30.2929 15.7071L26 11.4149ZM15.5 30.5C15.5 31.3284 14.8284 32 14 32C13.1716 32 12.5 31.3284 12.5 30.5C12.5 29.6716 13.1716 29 14 29C14.8284 29 15.5 29.6716 15.5 30.5ZM15 26V9H13V26H15Z" fill="white"/>
</svg>
