<svg width="33" height="40" viewBox="459 629 33 40" xmlns="http://www.w3.org/2000/svg"><path d="M461.171 662.081v6.868h1.752v-1.789l1.594 1.594h2.687l-2.131-2.131s1.533-.025 1.65-2.243c0-2.035-1.536-2.299-3.31-2.299h-2.242zm1.835 1.863h1.51v1.224h-1.51v-1.224zm7.581-1.835c-.959-.005-2.289.084-2.289 1.891v4.773h1.798v-1.168h1.742v1.14h1.808v-5.005c0-1.57-1.744-1.63-2.679-1.63h-.38zm-.463 1.724h1.687v1.881h-1.687v-1.881zm5.323-1.72h1.86v6.57h-1.86v-6.57zm3.808.088v6.57h4.477v-1.744h-2.645v-4.855l-1.832.029zm10.407-.058v1.773h-2.994v.64h1.279c.668 0 2.064-.03 2.064 2.064 0 2.093-.96 2.209-2.907 2.209h-2.355v-1.6h2.704c.813 0 .859-.264.859-.495 0-.23-.417-.339-1.263-.339-.846 0-2.416-.415-2.416-2.043 0-1.628.814-2.239 2.442-2.239 1.628 0 2.587.03 2.587.03zm-26.86-2.006h15.465s-3.43-7.79-2.558-14.942c.872-7.15 6.511-10.407 9.709-10.755 3.197-.35 4.942 1.627 4.942 1.627l.697-1.046s-4.593-4.651-10.407-4.128c-5.814.523-9.825 4.36-12.325 9.012-2.5 4.651-3.953 7.907-4.942 12.79-.988 4.884-.581 7.442-.581 7.442zm-3.081-7.79l3.023.232-.524 3.023-2.848-.349.349-2.907zm4.767-6.396l.814-2.267-2.674-1.047-.872 2.442 2.732.872zm3.779-7.79l1.57-1.86-2.035-1.338-1.628 1.802 2.093 1.395zm4.128-7.21l1.395 1.686 1.919-1.104-1.396-1.57-1.918.988zm6.802-1.918l.349 1.686 2.384-.058-.233-1.512-2.5-.116zm8.082 1.802l-.059 1.046 1.628.872.35-.523-1.92-1.395zm-.35 4.477v.872l1.57.174v-.698l-1.57-.348zm-5 .755l.757 1.396 1.104-.872-.232-.93-1.628.406zm-2.383 1.803l1.163 1.744-.698 1.22-1.686-1.86 1.22-1.104zm-2.325 4.825l-.756 1.512 1.976 1.686.465-1.919-1.685-1.279zm-.815 5.29l-.116 2.036 2.442 1.046-.116-1.919-2.21-1.162zm.698 7.21l.582 2.094 3.08.174-1.104-2.268h-2.558z" fill="#F64242" fill-rule="evenodd"/></svg>