<svg width="327" height="222" viewBox="0 0 327 222" fill="none" xmlns="http://www.w3.org/2000/svg">
<path d="M13.0429 180.583L13.5002 181.655L16.0581 180.469V189H17.287V178.94H16.4725L13.0429 180.583ZM19.6953 189H20.9957V185.413L22.0675 184.384L26.383 189H28.0978L23.0392 183.527L27.7549 178.997H26.0544L20.9957 183.827V178.997H19.6953V189Z" fill="#636363"/>
<rect x="20" y="167" width="1" height="8" fill="black" fill-opacity="0.1"/>
<path d="M43.7577 182.298C43.9863 181.312 44.758 180.126 46.4585 180.126C47.5874 180.126 48.5448 180.626 48.5448 182.012C48.5448 184.027 46.4585 185.37 44.6151 186.585L42.443 188.028V189H50.231V187.814H44.7008L45.8011 187.128C47.5159 186.056 49.8595 184.37 49.8595 181.884C49.8595 180.112 48.6449 178.883 46.5442 178.883C44.3007 178.883 43.0575 180.269 42.7145 181.926L43.7577 182.298ZM51.8073 189H53.1077V185.413L54.1794 184.384L58.495 189H60.2098L55.1512 183.527L59.8669 178.997H58.1663L53.1077 183.827V178.997H51.8073V189Z" fill="#636363"/>
<path d="M0.01429 217H1.34326L2.44359 214.471H7.34506L8.45968 217H9.81723L5.4302 206.968H4.40132L0.01429 217ZM4.88718 208.783L6.8592 213.327H2.92945L4.88718 208.783ZM10.71 217H11.9104V212.041C12.3105 211.141 13.1822 210.541 14.0968 210.541C15.5543 210.541 16.2688 211.27 16.2688 212.913V217H17.4692V212.77C17.4692 210.412 16.3974 209.412 14.454 209.412C13.3823 209.412 12.3962 209.798 11.9104 210.541V209.569H10.71V217ZM19.0173 219.829C19.2602 219.944 19.5318 220.001 19.8461 220.001C20.875 220.001 21.6467 219.386 22.6613 216.886L25.4907 209.569H24.176L22.0754 215.214L19.2888 209.569H17.8741L21.4752 216.728L21.2466 217.286C20.7321 218.486 20.3463 218.858 19.8033 218.858C19.6889 218.858 19.5889 218.829 19.4889 218.786L19.0173 219.829ZM34.2431 214.542C33.5572 215.314 32.5712 215.885 31.185 215.885C28.8558 215.885 27.2981 214.342 27.2981 211.998C27.2981 209.712 28.6986 208.112 31.0278 208.112C32.3425 208.112 33.2285 208.569 34.0002 209.341L34.8433 208.526C34.1716 207.626 32.7998 206.868 30.9993 206.868C27.8983 206.868 25.9406 209.126 25.9406 211.998C25.9406 215.114 27.9412 217.129 31.0993 217.129C32.7283 217.129 34.2288 216.428 34.9862 215.371L34.2431 214.542ZM36.7078 211.355C37.3937 210.841 38.0796 210.527 38.9227 210.527C40.4803 210.527 40.909 211.398 40.909 212.742C40.5375 212.627 39.723 212.527 39.1657 212.527C37.0222 212.527 35.6074 213.213 35.6074 214.828C35.6074 216.2 36.6935 217.1 38.3083 217.1C39.5944 217.1 40.4803 216.528 40.909 215.9V217H42.1094V212.413C42.1094 210.498 41.0519 209.398 39.0656 209.398C37.9653 209.398 36.7792 209.812 36.0933 210.455L36.7078 211.355ZM38.5941 216.014C37.5795 216.014 36.8793 215.557 36.8793 214.785C36.8793 213.885 37.8224 213.585 39.3228 213.585C39.923 213.585 40.5375 213.67 40.909 213.799V214.556C40.6518 215.157 39.8373 216.014 38.5941 216.014ZM43.7696 215.642C44.3841 216.486 45.7416 217.129 47.0563 217.129C49.3856 217.129 50.9003 215.614 50.9003 213.156C50.9003 210.955 49.6142 209.398 47.4278 209.398C46.4418 209.398 45.5987 209.741 44.97 210.469V206.568H43.7696V215.642ZM47.2421 210.527C48.6425 210.527 49.6285 211.527 49.6285 213.227C49.6285 214.985 48.5568 216 47.142 216C46.3561 216 45.4701 215.657 44.97 215.071V211.956C45.3844 211.184 46.2132 210.527 47.2421 210.527ZM52.3407 217H53.5411V206.568H52.3407V217ZM61.1388 214.871C60.6958 215.514 59.8812 216 58.981 216C57.4662 216 56.3373 215.171 56.2659 213.67H62.1248C62.1819 213.342 62.1962 213.013 62.1962 212.77C62.1962 210.712 60.7244 209.398 58.7666 209.398C56.2945 209.398 54.9798 211.084 54.9798 213.27C54.9798 215.628 56.5803 217.129 58.9381 217.129C60.1528 217.129 61.2102 216.628 61.9104 215.585L61.1388 214.871ZM58.6809 210.498C60.0099 210.498 60.853 211.255 60.9244 212.584H56.2516C56.4374 211.37 57.2948 210.498 58.6809 210.498ZM67.9285 217H69.1289V206.568H67.9285V217ZM71.5536 211.355C72.2395 210.841 72.9254 210.527 73.7686 210.527C75.3262 210.527 75.7549 211.398 75.7549 212.742C75.3833 212.627 74.5688 212.527 74.0115 212.527C71.868 212.527 70.4533 213.213 70.4533 214.828C70.4533 216.2 71.5393 217.1 73.1541 217.1C74.4402 217.1 75.3262 216.528 75.7549 215.9V217H76.9552V212.413C76.9552 210.498 75.8978 209.398 73.9115 209.398C72.8111 209.398 71.6251 209.812 70.9391 210.455L71.5536 211.355ZM73.4399 216.014C72.4253 216.014 71.7251 215.557 71.7251 214.785C71.7251 213.885 72.6682 213.585 74.1687 213.585C74.7689 213.585 75.3833 213.67 75.7549 213.799V214.556C75.4976 215.157 74.6831 216.014 73.4399 216.014ZM77.8295 210.712H79.3728V214.299C79.3728 216.128 80.1873 217.1 81.6449 217.1C82.5738 217.1 83.2883 216.814 83.7455 216.314L83.2025 215.428C82.8024 215.742 82.3737 215.957 81.8593 215.957C80.9733 215.957 80.5732 215.457 80.5732 213.985V210.712H83.1311V209.569H80.5732V207.669H79.3728V209.569H77.8295V210.712ZM90.1514 214.871C89.7084 215.514 88.8938 216 87.9936 216C86.4788 216 85.3499 215.171 85.2785 213.67H91.1374C91.1945 213.342 91.2088 213.013 91.2088 212.77C91.2088 210.712 89.737 209.398 87.7792 209.398C85.3071 209.398 83.9924 211.084 83.9924 213.27C83.9924 215.628 85.5929 217.129 87.9507 217.129C89.1654 217.129 90.2228 216.628 90.923 215.585L90.1514 214.871ZM87.6935 210.498C89.0225 210.498 89.8656 211.255 89.937 212.584H85.2642C85.45 211.37 86.3074 210.498 87.6935 210.498ZM92.5426 217H93.743V212.041C94.1431 211.141 95.0148 210.541 95.9293 210.541C97.3869 210.541 98.1014 211.27 98.1014 212.913V217H99.3018V212.77C99.3018 210.412 98.23 209.412 96.2866 209.412C95.2148 209.412 94.2288 209.798 93.743 210.541V209.569H92.5426V217ZM106.716 214.856C106.259 215.542 105.53 216 104.63 216C102.944 216 101.815 214.899 101.815 213.27C101.815 211.67 102.944 210.527 104.473 210.527C105.387 210.527 106.016 210.841 106.531 211.541L107.459 210.912C106.959 209.998 105.773 209.398 104.444 209.398C102.101 209.398 100.543 211.084 100.543 213.27C100.543 215.628 102.158 217.129 104.516 217.129C105.702 217.129 107.002 216.557 107.574 215.471L106.716 214.856ZM108.651 219.829C108.894 219.944 109.165 220.001 109.48 220.001C110.508 220.001 111.28 219.386 112.295 216.886L115.124 209.569H113.809L111.709 215.214L108.922 209.569H107.508L111.109 216.728L110.88 217.286C110.366 218.486 109.98 218.858 109.437 218.858C109.322 218.858 109.222 218.829 109.122 218.786L108.651 219.829Z" fill="#F64343"/>
<path d="M189.014 217H190.343L191.444 214.471H196.345L197.46 217H198.817L194.43 206.968H193.401L189.014 217ZM193.887 208.783L195.859 213.327H191.929L193.887 208.783ZM205.12 214.856C204.663 215.542 203.934 216 203.034 216C201.347 216 200.219 214.899 200.219 213.27C200.219 211.67 201.347 210.527 202.876 210.527C203.791 210.527 204.42 210.841 204.934 211.541L205.863 210.912C205.363 209.998 204.177 209.398 202.848 209.398C200.504 209.398 198.947 211.084 198.947 213.27C198.947 215.628 200.562 217.129 202.919 217.129C204.105 217.129 205.406 216.557 205.977 215.471L205.12 214.856ZM206.181 210.712H207.724V214.299C207.724 216.128 208.539 217.1 209.996 217.1C210.925 217.1 211.639 216.814 212.097 216.314L211.554 215.428C211.154 215.742 210.725 215.957 210.21 215.957C209.325 215.957 208.924 215.457 208.924 213.985V210.712H211.482V209.569H208.924V207.669H207.724V209.569H206.181V210.712ZM213.125 217H214.325V209.569H213.125V217ZM212.967 207.154C212.967 207.583 213.296 207.897 213.739 207.897C214.139 207.897 214.482 207.583 214.482 207.154C214.482 206.754 214.139 206.454 213.739 206.454C213.31 206.454 212.967 206.754 212.967 207.154ZM215.804 213.27C215.804 215.514 217.434 217.129 219.734 217.129C222.078 217.129 223.693 215.514 223.693 213.27C223.693 211.012 222.078 209.398 219.734 209.398C217.405 209.398 215.804 211.012 215.804 213.27ZM217.076 213.27C217.076 211.613 218.205 210.527 219.734 210.527C221.263 210.527 222.421 211.627 222.421 213.27C222.421 214.899 221.32 216 219.734 216C218.177 216 217.076 214.856 217.076 213.27ZM225.025 217H226.225V212.041C226.625 211.141 227.497 210.541 228.411 210.541C229.869 210.541 230.583 211.27 230.583 212.913V217H231.784V212.77C231.784 210.412 230.712 209.412 228.769 209.412C227.697 209.412 226.711 209.798 226.225 210.541V209.569H225.025V217ZM245.669 214.542C244.983 215.314 243.997 215.885 242.611 215.885C240.282 215.885 238.724 214.342 238.724 211.998C238.724 209.712 240.124 208.112 242.454 208.112C243.768 208.112 244.654 208.569 245.426 209.341L246.269 208.526C245.597 207.626 244.226 206.868 242.425 206.868C239.324 206.868 237.366 209.126 237.366 211.998C237.366 215.114 239.367 217.129 242.525 217.129C244.154 217.129 245.655 216.428 246.412 215.371L245.669 214.542ZM248.134 211.355C248.82 210.841 249.505 210.527 250.349 210.527C251.906 210.527 252.335 211.398 252.335 212.742C251.963 212.627 251.149 212.527 250.591 212.527C248.448 212.527 247.033 213.213 247.033 214.828C247.033 216.2 248.119 217.1 249.734 217.1C251.02 217.1 251.906 216.528 252.335 215.9V217H253.535V212.413C253.535 210.498 252.478 209.398 250.491 209.398C249.391 209.398 248.205 209.812 247.519 210.455L248.134 211.355ZM250.02 216.014C249.005 216.014 248.305 215.557 248.305 214.785C248.305 213.885 249.248 213.585 250.749 213.585C251.349 213.585 251.963 213.67 252.335 213.799V214.556C252.078 215.157 251.263 216.014 250.02 216.014ZM255.195 215.642C255.81 216.486 257.167 217.129 258.482 217.129C260.811 217.129 262.326 215.614 262.326 213.156C262.326 210.955 261.04 209.398 258.854 209.398C257.868 209.398 257.025 209.741 256.396 210.469V206.568H255.195V215.642ZM258.668 210.527C260.068 210.527 261.054 211.527 261.054 213.227C261.054 214.985 259.983 216 258.568 216C257.782 216 256.896 215.657 256.396 215.071V211.956C256.81 211.184 257.639 210.527 258.668 210.527ZM263.767 217H264.967V206.568H263.767V217ZM272.565 214.871C272.122 215.514 271.307 216 270.407 216C268.892 216 267.763 215.171 267.692 213.67H273.551C273.608 213.342 273.622 213.013 273.622 212.77C273.622 210.712 272.15 209.398 270.192 209.398C267.72 209.398 266.406 211.084 266.406 213.27C266.406 215.628 268.006 217.129 270.364 217.129C271.579 217.129 272.636 216.628 273.336 215.585L272.565 214.871ZM270.107 210.498C271.436 210.498 272.279 211.255 272.35 212.584H267.677C267.863 211.37 268.721 210.498 270.107 210.498ZM279.354 217H280.555V206.568H279.354V217ZM282.979 211.355C283.665 210.841 284.351 210.527 285.194 210.527C286.752 210.527 287.181 211.398 287.181 212.742C286.809 212.627 285.995 212.527 285.437 212.527C283.294 212.527 281.879 213.213 281.879 214.828C281.879 216.2 282.965 217.1 284.58 217.1C285.866 217.1 286.752 216.528 287.181 215.9V217H288.381V212.413C288.381 210.498 287.324 209.398 285.337 209.398C284.237 209.398 283.051 209.812 282.365 210.455L282.979 211.355ZM284.866 216.014C283.851 216.014 283.151 215.557 283.151 214.785C283.151 213.885 284.094 213.585 285.594 213.585C286.195 213.585 286.809 213.67 287.181 213.799V214.556C286.923 215.157 286.109 216.014 284.866 216.014ZM289.255 210.712H290.799V214.299C290.799 216.128 291.613 217.1 293.071 217.1C294 217.1 294.714 216.814 295.171 216.314L294.628 215.428C294.228 215.742 293.8 215.957 293.285 215.957C292.399 215.957 291.999 215.457 291.999 213.985V210.712H294.557V209.569H291.999V207.669H290.799V209.569H289.255V210.712ZM301.577 214.871C301.134 215.514 300.32 216 299.419 216C297.905 216 296.776 215.171 296.704 213.67H302.563C302.62 213.342 302.635 213.013 302.635 212.77C302.635 210.712 301.163 209.398 299.205 209.398C296.733 209.398 295.418 211.084 295.418 213.27C295.418 215.628 297.019 217.129 299.377 217.129C300.591 217.129 301.649 216.628 302.349 215.585L301.577 214.871ZM299.119 210.498C300.448 210.498 301.291 211.255 301.363 212.584H296.69C296.876 211.37 297.733 210.498 299.119 210.498ZM303.968 217H305.169V212.041C305.569 211.141 306.441 210.541 307.355 210.541C308.813 210.541 309.527 211.27 309.527 212.913V217H310.728V212.77C310.728 210.412 309.656 209.412 307.712 209.412C306.641 209.412 305.655 209.798 305.169 210.541V209.569H303.968V217ZM318.142 214.856C317.685 215.542 316.956 216 316.056 216C314.37 216 313.241 214.899 313.241 213.27C313.241 211.67 314.37 210.527 315.899 210.527C316.813 210.527 317.442 210.841 317.956 211.541L318.885 210.912C318.385 209.998 317.199 209.398 315.87 209.398C313.527 209.398 311.969 211.084 311.969 213.27C311.969 215.628 313.584 217.129 315.942 217.129C317.128 217.129 318.428 216.557 319 215.471L318.142 214.856ZM320.077 219.829C320.32 219.944 320.591 220.001 320.905 220.001C321.934 220.001 322.706 219.386 323.721 216.886L326.55 209.569H325.235L323.135 215.214L320.348 209.569H318.933L322.534 216.728L322.306 217.286C321.791 218.486 321.406 218.858 320.863 218.858C320.748 218.858 320.648 218.829 320.548 218.786L320.077 219.829Z" fill="#0057FF"/>
<rect x="52" y="167" width="1" height="8" fill="black" fill-opacity="0.1"/>
<path d="M75.6005 181.912C75.9577 180.998 76.8151 180.083 78.4585 180.083C79.7303 180.083 80.5734 180.612 80.5734 181.626C80.5734 182.569 79.5874 183.284 78.0012 183.284H77.1152V184.47H78.2298C79.6446 184.47 80.802 184.856 80.802 186.128C80.802 187.271 79.9161 187.9 78.5442 187.9C76.7294 187.9 75.9006 186.985 75.4147 185.942L74.2572 186.442C74.7431 188.028 76.215 189.129 78.4585 189.129C80.5305 189.129 82.1167 188.057 82.1167 186.113C82.1167 184.527 81.1307 183.798 80.1304 183.727C81.2736 183.398 81.8881 182.541 81.8881 181.383C81.8881 179.84 80.4734 178.868 78.5156 178.868C76.3579 178.868 75.0432 179.954 74.5287 181.426L75.6005 181.912ZM83.8771 189H85.1775V185.413L86.2492 184.384L90.5648 189H92.2796L87.2209 183.527L91.9366 178.997H90.2361L85.1775 183.827V178.997H83.8771V189Z" fill="#636363"/>
<rect x="84" y="167" width="1" height="8" fill="black" fill-opacity="0.1"/>
<path d="M112.273 189H113.517V186.957H115.374V185.799H113.517V178.997H112.416L106.157 186.128V186.957H112.273V189ZM107.872 185.799L112.273 180.998V185.799H107.872ZM116.659 189H117.959V185.413L119.031 184.384L123.346 189H125.061L120.002 183.527L124.718 178.997H123.018L117.959 183.827V178.997H116.659V189Z" fill="#636363"/>
<rect x="116" y="167" width="1" height="8" fill="black" fill-opacity="0.1"/>
<path d="M139.043 184.127L140.072 184.399C140.644 183.813 141.287 183.541 142.287 183.541C143.988 183.541 145.059 184.384 145.059 185.728C145.059 186.899 144.216 187.914 142.501 187.914C140.958 187.914 139.958 187.071 139.572 186.199L138.429 186.685C139.086 188.271 140.672 189.129 142.501 189.129C144.702 189.129 146.374 187.685 146.374 185.685C146.374 183.784 145.031 182.341 142.63 182.341C141.572 182.341 140.787 182.584 140.358 182.898L140.729 180.212H145.917V178.997H139.629L139.043 184.127ZM148.045 189H149.345V185.413L150.417 184.384L154.732 189H156.447L151.388 183.527L156.104 178.997H154.404L149.345 183.827V178.997H148.045V189Z" fill="#636363"/>
<rect x="148" y="167" width="1" height="8" fill="black" fill-opacity="0.1"/>
<path d="M169.614 184.27C169.614 187.414 171.329 189.129 173.987 189.129C176.202 189.129 177.946 187.728 177.946 185.656C177.946 183.67 176.517 182.312 174.173 182.312C172.773 182.312 171.458 182.927 170.886 183.984C170.858 181.455 172.315 180.097 174.002 180.097C175.216 180.097 176.088 180.626 176.631 181.483L177.603 180.826C177.06 179.64 175.759 178.868 174.059 178.868C171.658 178.868 169.614 180.669 169.614 184.27ZM171.043 185.485C171.215 184.599 172.287 183.541 174.102 183.541C175.559 183.541 176.631 184.256 176.631 185.713C176.631 187.028 175.502 187.9 173.973 187.9C172.315 187.9 171.301 186.814 171.043 185.485ZM179.561 189H180.861V185.413L181.933 184.384L186.249 189H187.963L182.905 183.527L187.62 178.997H185.92L180.861 183.827V178.997H179.561V189Z" fill="#636363"/>
<rect x="180" y="167" width="1" height="8" fill="black" fill-opacity="0.1"/>
<path d="M202.286 180.212H208.345L203.543 189H204.901L209.874 179.812V178.997H202.286V180.212ZM211.221 189H212.522V185.413L213.593 184.384L217.909 189H219.624L214.565 183.527L219.281 178.997H217.58L212.522 183.827V178.997H211.221V189Z" fill="#636363"/>
<rect x="211" y="167" width="1" height="8" fill="black" fill-opacity="0.1"/>
<path d="M237.559 183.298C236.215 183.298 235.272 182.598 235.272 181.669C235.272 180.64 236.13 180.054 237.744 180.054C239.402 180.054 240.259 180.626 240.259 181.669C240.259 182.641 239.245 183.298 238.002 183.298H237.559ZM237.973 184.427C239.516 184.427 240.588 185.07 240.588 186.185C240.588 187.271 239.631 187.943 237.759 187.943C235.915 187.943 234.943 187.228 234.943 186.171C234.943 185.185 236.058 184.427 237.616 184.427H237.973ZM237.773 189.129C240.302 189.129 241.888 188.071 241.888 186.242C241.888 185.042 241.345 184.17 239.988 183.756C240.974 183.298 241.574 182.598 241.574 181.583C241.574 179.954 240.216 178.868 237.759 178.868C235.329 178.868 233.957 179.954 233.957 181.583C233.957 182.527 234.443 183.441 235.601 183.827C234.415 184.227 233.629 185.113 233.629 186.299C233.629 188.071 235.229 189.129 237.773 189.129ZM243.589 189H244.889V185.413L245.961 184.384L250.276 189H251.991L246.933 183.527L251.648 178.997H249.948L244.889 183.827V178.997H243.589V189Z" fill="#636363"/>
<rect x="243" y="167" width="1" height="8" fill="black" fill-opacity="0.1"/>
<path d="M273.931 183.813C273.931 180.626 272.345 178.868 269.801 178.868C267.272 178.868 265.572 180.269 265.572 182.512C265.572 184.57 267.186 185.942 269.401 185.942C271.073 185.942 272.202 185.056 272.645 184.056C272.802 186.242 271.473 187.9 269.63 187.9C268.515 187.9 267.472 187.442 266.886 186.642L265.857 187.357C266.472 188.371 267.729 189.129 269.458 189.129C272.116 189.129 273.931 187.299 273.931 183.813ZM272.431 182.469C272.245 183.513 271.273 184.713 269.63 184.713C267.987 184.713 266.886 183.898 266.886 182.469C266.886 180.969 267.958 180.097 269.659 180.097C271.416 180.097 272.245 181.283 272.431 182.469ZM275.589 189H276.889V185.413L277.961 184.384L282.276 189H283.991L278.933 183.527L283.648 178.997H281.948L276.889 183.827V178.997H275.589V189Z" fill="#636363"/>
<rect x="275" y="167" width="1" height="8" fill="black" fill-opacity="0.1"/>
<path d="M294.043 180.583L294.5 181.655L297.058 180.469V189H298.287V178.94H297.472L294.043 180.583ZM300.252 183.998C300.252 186.957 301.767 189.114 304.525 189.114C307.426 189.114 308.755 186.957 308.755 183.998C308.755 180.855 307.397 178.883 304.496 178.883C301.61 178.883 300.252 181.04 300.252 183.998ZM301.567 183.998C301.567 181.598 302.453 180.097 304.496 180.097C306.569 180.097 307.44 181.569 307.44 183.998C307.44 186.428 306.583 187.9 304.525 187.9C302.667 187.9 301.567 186.428 301.567 183.998ZM310.408 189H311.708V185.413L312.78 184.384L317.096 189H318.811L313.752 183.527L318.468 178.997H316.767L311.708 183.827V178.997H310.408V189Z" fill="#636363"/>
<rect x="306" y="167" width="1" height="8" fill="black" fill-opacity="0.1"/>
<g clip-path="url(#clip0_1294_3082)">
<rect width="327" height="171" rx="4" fill="#EFF9FF"/>
<rect y="136" width="472" height="35" fill="#FFE2E2"/>
<rect y="17" width="472" height="1" fill="black" fill-opacity="0.1"/>
<rect y="34" width="472" height="1" fill="black" fill-opacity="0.1"/>
<rect y="51" width="472" height="1" fill="black" fill-opacity="0.1"/>
<rect y="68" width="472" height="1" fill="black" fill-opacity="0.1"/>
<rect y="85" width="472" height="1" fill="black" fill-opacity="0.1"/>
<rect y="102" width="472" height="1" fill="black" fill-opacity="0.1"/>
<rect y="119" width="472" height="1" fill="black" fill-opacity="0.1"/>
<rect y="136" width="472" height="1" fill="black" fill-opacity="0.1"/>
<rect y="153" width="472" height="1" fill="black" fill-opacity="0.1"/>
<path d="M20 163L51.3502 157.5L82.3773 156.5L113.404 155L144.431 151.5L175.458 150.5H206.485L237.512 149.5L268.539 146L299.243 145H307" stroke="#F64343" stroke-width="2"/>
<path d="M20 160L51.0237 141.061L82.0475 129.599L113.071 122.123L144.095 105.178L175.119 89.2298L206.142 74.2783L237.166 65.3074L268.19 49.3592L298.567 14.9709L306 6" stroke="#0057FF" stroke-width="2"/>
</g>
<rect x="0.5" y="0.5" width="326" height="170" rx="3.5" stroke="black" stroke-opacity="0.1"/>
<path d="M196.278 132V123.999H195.272V130.125L190.38 123.999H189.557V132H190.563V125.896L195.466 132H196.278ZM197.493 129.017C197.493 130.811 198.796 132.103 200.637 132.103C202.511 132.103 203.803 130.811 203.803 129.017C203.803 127.211 202.511 125.919 200.637 125.919C198.773 125.919 197.493 127.211 197.493 129.017ZM198.511 129.017C198.511 127.691 199.414 126.822 200.637 126.822C201.86 126.822 202.785 127.702 202.785 129.017C202.785 130.32 201.905 131.2 200.637 131.2C199.391 131.2 198.511 130.285 198.511 129.017ZM204.239 126.971H205.474V129.84C205.474 131.303 206.125 132.08 207.291 132.08C208.034 132.08 208.606 131.851 208.971 131.451L208.537 130.743C208.217 130.994 207.874 131.166 207.463 131.166C206.754 131.166 206.434 130.766 206.434 129.588V126.971H208.48V126.056H206.434V124.536H205.474V126.056H204.239V126.971ZM213.095 132H214.055V127.862C214.192 127.245 214.66 126.834 215.175 126.834C215.541 126.834 215.746 126.948 215.883 127.131L216.489 126.468C216.226 126.136 215.849 125.931 215.278 125.931C214.82 125.931 214.26 126.091 214.055 126.514V126.056H213.095V132ZM221.384 130.297C221.03 130.811 220.378 131.2 219.658 131.2C218.447 131.2 217.544 130.537 217.486 129.337H222.173C222.218 129.074 222.23 128.811 222.23 128.617C222.23 126.971 221.053 125.919 219.487 125.919C217.509 125.919 216.458 127.268 216.458 129.017C216.458 130.903 217.738 132.103 219.624 132.103C220.595 132.103 221.441 131.703 222.001 130.868L221.384 130.297ZM219.418 126.799C220.481 126.799 221.155 127.405 221.213 128.468H217.475C217.624 127.497 218.309 126.799 219.418 126.799ZM223.754 127.485C224.303 127.074 224.851 126.822 225.526 126.822C226.771 126.822 227.114 127.519 227.114 128.594C226.817 128.502 226.166 128.422 225.72 128.422C224.005 128.422 222.874 128.971 222.874 130.263C222.874 131.36 223.742 132.08 225.034 132.08C226.063 132.08 226.771 131.623 227.114 131.12V132H228.074V128.331C228.074 126.799 227.229 125.919 225.64 125.919C224.76 125.919 223.811 126.251 223.262 126.765L223.754 127.485ZM225.263 131.211C224.451 131.211 223.891 130.846 223.891 130.228C223.891 129.508 224.645 129.268 225.846 129.268C226.326 129.268 226.817 129.337 227.114 129.44V130.045C226.909 130.526 226.257 131.211 225.263 131.211ZM229.494 132H230.454V123.656H229.494V132ZM234.734 126.971H235.969V129.84C235.969 131.303 236.62 132.08 237.786 132.08C238.529 132.08 239.101 131.851 239.466 131.451L239.032 130.743C238.712 130.994 238.369 131.166 237.958 131.166C237.249 131.166 236.929 130.766 236.929 129.588V126.971H238.975V126.056H236.929V124.536H235.969V126.056H234.734V126.971ZM240.288 132H241.248V126.056H240.288V132ZM240.163 124.125C240.163 124.468 240.426 124.719 240.78 124.719C241.1 124.719 241.374 124.468 241.374 124.125C241.374 123.805 241.1 123.565 240.78 123.565C240.437 123.565 240.163 123.805 240.163 124.125ZM251.382 128.057C251.382 126.525 250.49 125.931 249.244 125.931C248.421 125.931 247.747 126.251 247.29 126.856C246.981 126.262 246.364 125.931 245.541 125.931C244.741 125.931 244.055 126.331 243.724 126.856V126.056H242.763V132H243.724V128.034C243.941 127.519 244.512 126.834 245.358 126.834C246.135 126.834 246.592 127.337 246.592 128.045V132H247.553V127.919C247.85 127.291 248.398 126.834 249.187 126.834C250.101 126.834 250.421 127.485 250.421 128.354V132H251.382V128.057ZM257.293 130.297C256.938 130.811 256.287 131.2 255.567 131.2C254.355 131.2 253.452 130.537 253.395 129.337H258.081C258.127 129.074 258.138 128.811 258.138 128.617C258.138 126.971 256.961 125.919 255.395 125.919C253.418 125.919 252.366 127.268 252.366 129.017C252.366 130.903 253.646 132.103 255.532 132.103C256.504 132.103 257.35 131.703 257.91 130.868L257.293 130.297ZM255.327 126.799C256.39 126.799 257.064 127.405 257.121 128.468H253.383C253.532 127.497 254.218 126.799 255.327 126.799ZM267.227 130.297C266.872 130.811 266.221 131.2 265.501 131.2C264.289 131.2 263.386 130.537 263.329 129.337H268.015C268.061 129.074 268.073 128.811 268.073 128.617C268.073 126.971 266.895 125.919 265.329 125.919C263.352 125.919 262.3 127.268 262.3 129.017C262.3 130.903 263.581 132.103 265.467 132.103C266.438 132.103 267.284 131.703 267.844 130.868L267.227 130.297ZM265.261 126.799C266.324 126.799 266.998 127.405 267.055 128.468H263.318C263.466 127.497 264.152 126.799 265.261 126.799ZM274.141 126.056H272.975L271.249 128.24L269.535 126.056H268.334L270.586 128.937L268.209 132H269.352L271.215 129.611L273.055 132H274.255L271.866 128.925L274.141 126.056ZM274.988 134.286H275.949V131.497C276.383 131.931 277 132.103 277.754 132.103C279.515 132.103 280.715 130.743 280.715 128.925C280.715 127.165 279.629 125.919 277.869 125.919C277.16 125.919 276.383 126.159 275.949 126.799V126.056H274.988V134.286ZM277.766 126.822C278.966 126.822 279.698 127.668 279.698 128.994C279.698 130.285 278.852 131.2 277.674 131.2C276.977 131.2 276.314 130.926 275.949 130.274V128.057C276.189 127.451 276.829 126.822 277.766 126.822ZM286.37 130.297C286.015 130.811 285.364 131.2 284.644 131.2C283.432 131.2 282.529 130.537 282.472 129.337H287.158C287.204 129.074 287.216 128.811 287.216 128.617C287.216 126.971 286.038 125.919 284.472 125.919C282.495 125.919 281.443 127.268 281.443 129.017C281.443 130.903 282.724 132.103 284.61 132.103C285.581 132.103 286.427 131.703 286.987 130.868L286.37 130.297ZM284.404 126.799C285.467 126.799 286.141 127.405 286.198 128.468H282.461C282.609 127.497 283.295 126.799 284.404 126.799ZM288.282 132H289.243V127.862C289.38 127.245 289.848 126.834 290.363 126.834C290.728 126.834 290.934 126.948 291.071 127.131L291.677 126.468C291.414 126.136 291.037 125.931 290.466 125.931C290.008 125.931 289.448 126.091 289.243 126.514V126.056H288.282V132ZM292.449 132H293.409V126.056H292.449V132ZM292.323 124.125C292.323 124.468 292.586 124.719 292.94 124.719C293.26 124.719 293.535 124.468 293.535 124.125C293.535 123.805 293.26 123.565 292.94 123.565C292.597 123.565 292.323 123.805 292.323 124.125ZM299.519 130.297C299.164 130.811 298.513 131.2 297.793 131.2C296.581 131.2 295.678 130.537 295.621 129.337H300.307C300.353 129.074 300.365 128.811 300.365 128.617C300.365 126.971 299.187 125.919 297.621 125.919C295.644 125.919 294.592 127.268 294.592 129.017C294.592 130.903 295.873 132.103 297.759 132.103C298.73 132.103 299.576 131.703 300.136 130.868L299.519 130.297ZM297.553 126.799C298.616 126.799 299.29 127.405 299.347 128.468H295.61C295.758 127.497 296.444 126.799 297.553 126.799ZM301.431 132H302.392V128.034C302.712 127.314 303.409 126.834 304.14 126.834C305.306 126.834 305.878 127.417 305.878 128.731V132H306.838V128.617C306.838 126.731 305.981 125.931 304.426 125.931C303.569 125.931 302.78 126.239 302.392 126.834V126.056H301.431V132ZM312.768 130.285C312.403 130.834 311.82 131.2 311.1 131.2C309.751 131.2 308.848 130.32 308.848 129.017C308.848 127.737 309.751 126.822 310.974 126.822C311.705 126.822 312.208 127.074 312.62 127.634L313.363 127.131C312.963 126.399 312.014 125.919 310.951 125.919C309.077 125.919 307.831 127.268 307.831 129.017C307.831 130.903 309.122 132.103 311.008 132.103C311.957 132.103 312.997 131.646 313.454 130.777L312.768 130.285ZM318.785 130.297C318.43 130.811 317.779 131.2 317.059 131.2C315.847 131.2 314.944 130.537 314.887 129.337H319.573C319.619 129.074 319.63 128.811 319.63 128.617C319.63 126.971 318.453 125.919 316.887 125.919C314.91 125.919 313.858 127.268 313.858 129.017C313.858 130.903 315.138 132.103 317.024 132.103C317.996 132.103 318.842 131.703 319.402 130.868L318.785 130.297ZM316.819 126.799C317.882 126.799 318.556 127.405 318.613 128.468H314.876C315.024 127.497 315.71 126.799 316.819 126.799Z" fill="#0057FF"/>
<path d="M210.734 166V162.868H212.814L215.191 166H216.46L213.9 162.662C215.054 162.422 215.854 161.542 215.854 160.399C215.854 159.142 215.191 157.999 212.757 157.999H209.694V166H210.734ZM212.722 158.971C214.277 158.971 214.791 159.565 214.791 160.399C214.791 161.314 214.003 161.897 212.791 161.897H210.734V158.971H212.722ZM221.384 164.297C221.03 164.811 220.378 165.2 219.658 165.2C218.446 165.2 217.544 164.537 217.486 163.337H222.173C222.218 163.074 222.23 162.811 222.23 162.617C222.23 160.971 221.053 159.919 219.487 159.919C217.509 159.919 216.458 161.268 216.458 163.017C216.458 164.903 217.738 166.103 219.624 166.103C220.595 166.103 221.441 165.703 222.001 164.868L221.384 164.297ZM219.418 160.799C220.481 160.799 221.155 161.405 221.213 162.468H217.475C217.624 161.497 218.309 160.799 219.418 160.799ZM223.754 161.485C224.302 161.074 224.851 160.822 225.526 160.822C226.771 160.822 227.114 161.519 227.114 162.594C226.817 162.502 226.166 162.422 225.72 162.422C224.005 162.422 222.874 162.971 222.874 164.263C222.874 165.36 223.742 166.08 225.034 166.08C226.063 166.08 226.771 165.623 227.114 165.12V166H228.074V162.331C228.074 160.799 227.229 159.919 225.64 159.919C224.76 159.919 223.811 160.251 223.262 160.765L223.754 161.485ZM225.263 165.211C224.451 165.211 223.891 164.846 223.891 164.228C223.891 163.508 224.645 163.268 225.846 163.268C226.326 163.268 226.817 163.337 227.114 163.44V164.045C226.909 164.526 226.257 165.211 225.263 165.211ZM229.494 166H230.454V157.656H229.494V166ZM234.734 160.971H235.969V163.84C235.969 165.303 236.62 166.08 237.786 166.08C238.529 166.08 239.101 165.851 239.466 165.451L239.032 164.743C238.712 164.994 238.369 165.166 237.958 165.166C237.249 165.166 236.929 164.766 236.929 163.588V160.971H238.975V160.056H236.929V158.536H235.969V160.056H234.734V160.971ZM240.288 166H241.248V160.056H240.288V166ZM240.163 158.125C240.163 158.468 240.425 158.719 240.78 158.719C241.1 158.719 241.374 158.468 241.374 158.125C241.374 157.805 241.1 157.565 240.78 157.565C240.437 157.565 240.163 157.805 240.163 158.125ZM251.382 162.057C251.382 160.525 250.49 159.931 249.244 159.931C248.421 159.931 247.747 160.251 247.29 160.856C246.981 160.262 246.364 159.931 245.541 159.931C244.741 159.931 244.055 160.331 243.723 160.856V160.056H242.763V166H243.723V162.034C243.941 161.519 244.512 160.834 245.358 160.834C246.135 160.834 246.592 161.337 246.592 162.045V166H247.553V161.919C247.85 161.291 248.398 160.834 249.187 160.834C250.101 160.834 250.421 161.485 250.421 162.354V166H251.382V162.057ZM257.293 164.297C256.938 164.811 256.287 165.2 255.567 165.2C254.355 165.2 253.452 164.537 253.395 163.337H258.081C258.127 163.074 258.138 162.811 258.138 162.617C258.138 160.971 256.961 159.919 255.395 159.919C253.418 159.919 252.366 161.268 252.366 163.017C252.366 164.903 253.646 166.103 255.532 166.103C256.504 166.103 257.35 165.703 257.91 164.868L257.293 164.297ZM255.327 160.799C256.39 160.799 257.064 161.405 257.121 162.468H253.383C253.532 161.497 254.218 160.799 255.327 160.799ZM267.227 164.297C266.872 164.811 266.221 165.2 265.501 165.2C264.289 165.2 263.386 164.537 263.329 163.337H268.015C268.061 163.074 268.073 162.811 268.073 162.617C268.073 160.971 266.895 159.919 265.329 159.919C263.352 159.919 262.3 161.268 262.3 163.017C262.3 164.903 263.581 166.103 265.467 166.103C266.438 166.103 267.284 165.703 267.844 164.868L267.227 164.297ZM265.261 160.799C266.324 160.799 266.998 161.405 267.055 162.468H263.318C263.466 161.497 264.152 160.799 265.261 160.799ZM274.141 160.056H272.975L271.249 162.24L269.534 160.056H268.334L270.586 162.937L268.209 166H269.352L271.215 163.611L273.055 166H274.255L271.866 162.925L274.141 160.056ZM274.988 168.286H275.949V165.497C276.383 165.931 277 166.103 277.754 166.103C279.515 166.103 280.715 164.743 280.715 162.925C280.715 161.165 279.629 159.919 277.869 159.919C277.16 159.919 276.383 160.159 275.949 160.799V160.056H274.988V168.286ZM277.766 160.822C278.966 160.822 279.698 161.668 279.698 162.994C279.698 164.285 278.852 165.2 277.674 165.2C276.977 165.2 276.314 164.926 275.949 164.274V162.057C276.189 161.451 276.829 160.822 277.766 160.822ZM286.37 164.297C286.015 164.811 285.364 165.2 284.644 165.2C283.432 165.2 282.529 164.537 282.472 163.337H287.158C287.204 163.074 287.216 162.811 287.216 162.617C287.216 160.971 286.038 159.919 284.472 159.919C282.495 159.919 281.443 161.268 281.443 163.017C281.443 164.903 282.724 166.103 284.61 166.103C285.581 166.103 286.427 165.703 286.987 164.868L286.37 164.297ZM284.404 160.799C285.467 160.799 286.141 161.405 286.198 162.468H282.461C282.609 161.497 283.295 160.799 284.404 160.799ZM288.282 166H289.243V161.862C289.38 161.245 289.848 160.834 290.363 160.834C290.728 160.834 290.934 160.948 291.071 161.131L291.677 160.468C291.414 160.136 291.037 159.931 290.466 159.931C290.008 159.931 289.448 160.091 289.243 160.514V160.056H288.282V166ZM292.449 166H293.409V160.056H292.449V166ZM292.323 158.125C292.323 158.468 292.586 158.719 292.94 158.719C293.26 158.719 293.535 158.468 293.535 158.125C293.535 157.805 293.26 157.565 292.94 157.565C292.597 157.565 292.323 157.805 292.323 158.125ZM299.519 164.297C299.164 164.811 298.513 165.2 297.793 165.2C296.581 165.2 295.678 164.537 295.621 163.337H300.307C300.353 163.074 300.365 162.811 300.365 162.617C300.365 160.971 299.187 159.919 297.621 159.919C295.644 159.919 294.592 161.268 294.592 163.017C294.592 164.903 295.873 166.103 297.759 166.103C298.73 166.103 299.576 165.703 300.136 164.868L299.519 164.297ZM297.553 160.799C298.616 160.799 299.29 161.405 299.347 162.468H295.61C295.758 161.497 296.444 160.799 297.553 160.799ZM301.431 166H302.392V162.034C302.712 161.314 303.409 160.834 304.14 160.834C305.306 160.834 305.878 161.417 305.878 162.731V166H306.838V162.617C306.838 160.731 305.981 159.931 304.426 159.931C303.569 159.931 302.78 160.239 302.392 160.834V160.056H301.431V166ZM312.768 164.285C312.403 164.834 311.82 165.2 311.1 165.2C309.751 165.2 308.848 164.32 308.848 163.017C308.848 161.737 309.751 160.822 310.974 160.822C311.705 160.822 312.208 161.074 312.62 161.634L313.363 161.131C312.963 160.399 312.014 159.919 310.951 159.919C309.077 159.919 307.831 161.268 307.831 163.017C307.831 164.903 309.122 166.103 311.008 166.103C311.957 166.103 312.997 165.646 313.454 164.777L312.768 164.285ZM318.785 164.297C318.43 164.811 317.779 165.2 317.059 165.2C315.847 165.2 314.944 164.537 314.887 163.337H319.573C319.619 163.074 319.63 162.811 319.63 162.617C319.63 160.971 318.453 159.919 316.887 159.919C314.91 159.919 313.858 161.268 313.858 163.017C313.858 164.903 315.138 166.103 317.024 166.103C317.996 166.103 318.842 165.703 319.402 164.868L318.785 164.297ZM316.819 160.799C317.882 160.799 318.556 161.405 318.613 162.468H314.876C315.024 161.497 315.71 160.799 316.819 160.799Z" fill="#F64343"/>
<path d="M3.83439 85.1024L4.65735 85.3195C5.11455 84.8509 5.6289 84.6337 6.429 84.6337C7.78917 84.6337 8.64642 85.3081 8.64642 86.3825C8.64642 87.3198 7.97205 88.1313 6.60045 88.1313C5.36601 88.1313 4.56591 87.4569 4.2573 86.7597L3.3429 87.1483C3.86868 88.4171 5.13741 89.1029 6.60045 89.1029C8.36067 89.1029 9.69798 87.9484 9.69798 86.3482C9.69798 84.828 8.62356 83.6736 6.70332 83.6736C5.8575 83.6736 5.22885 83.8679 4.88595 84.1194L5.18313 81.9705H9.33222V80.999H4.30302L3.83439 85.1024Z" fill="#636363"/>
<path d="M3.03429 6.26773L3.40005 7.12498L5.44602 6.17629V13H6.429V4.95328H5.77749L3.03429 6.26773ZM8.00098 8.9995C8.00098 11.3655 9.21256 13.0914 11.4186 13.0914C13.7388 13.0914 14.8018 11.3655 14.8018 8.9995C14.8018 6.4849 13.716 4.90756 11.3957 4.90756C9.08683 4.90756 8.00098 6.63349 8.00098 8.9995ZM9.05254 8.9995C9.05254 7.07926 9.7612 5.87911 11.3957 5.87911C13.053 5.87911 13.7503 7.0564 13.7503 8.9995C13.7503 10.9426 13.0645 12.1199 11.4186 12.1199C9.93265 12.1199 9.05254 10.9426 9.05254 8.9995ZM19.6217 11.3769C19.6217 11.9942 19.0959 12.1999 18.4101 12.1999C17.4957 12.1999 16.6842 11.7884 16.3299 11.1598L15.5641 11.697C15.987 12.5428 17.0271 13.1029 18.2501 13.1029C19.6217 13.1029 20.6276 12.5657 20.6276 11.3655C20.6276 9.04522 16.8557 9.82246 16.8557 8.57659C16.8557 8.05081 17.53 7.82221 18.1358 7.82221C18.9131 7.82221 19.5303 8.14225 19.8503 8.57659L20.5247 7.94794C20.1246 7.36501 19.3474 6.91924 18.3073 6.91924C16.8557 6.91924 15.8384 7.55932 15.8384 8.62231C15.8384 10.8169 19.6217 9.97105 19.6217 11.3769ZM26.2519 11.2969C25.8976 11.8113 25.2461 12.1999 24.526 12.1999C23.3144 12.1999 22.4114 11.537 22.3543 10.3368H27.0406C27.0863 10.0739 27.0977 9.81103 27.0977 9.61672C27.0977 7.9708 25.9205 6.91924 24.3545 6.91924C22.3772 6.91924 21.3256 8.26798 21.3256 10.0168C21.3256 11.9027 22.6058 13.1029 24.4917 13.1029C25.4633 13.1029 26.3091 12.7028 26.8691 11.8684L26.2519 11.2969ZM24.286 7.79935C25.349 7.79935 26.0233 8.40514 26.0805 9.46813H22.3429C22.4915 8.49658 23.1773 7.79935 24.286 7.79935ZM32.6592 11.2855C32.2935 11.8341 31.7106 12.1999 30.9905 12.1999C29.6417 12.1999 28.7388 11.3198 28.7388 10.0168C28.7388 8.73661 29.6417 7.82221 30.8647 7.82221C31.5963 7.82221 32.0992 8.07367 32.5107 8.63374L33.2536 8.13082C32.8536 7.3993 31.9049 6.91924 30.8419 6.91924C28.9674 6.91924 27.7215 8.26798 27.7215 10.0168C27.7215 11.9027 29.0131 13.1029 30.899 13.1029C31.8477 13.1029 32.8878 12.6457 33.345 11.777L32.6592 11.2855Z" fill="#636363"/>
<path d="M4.40589 134.639C4.58877 133.851 5.20599 132.902 6.56616 132.902C7.46913 132.902 8.23494 133.302 8.23494 134.411C8.23494 136.022 6.56616 137.097 5.09169 138.068L3.35433 139.223V140H9.58368V139.051H5.16027L6.04038 138.503C7.41198 137.645 9.2865 136.297 9.2865 134.308C9.2865 132.891 8.31495 131.908 6.63474 131.908C4.84023 131.908 3.84582 133.016 3.5715 134.342L4.40589 134.639Z" fill="#636363"/>
<path d="M3.49149 161.999C3.49149 164.366 4.70307 166.091 6.90906 166.091C9.22935 166.091 10.2923 164.366 10.2923 161.999C10.2923 159.485 9.20649 157.908 6.8862 157.908C4.57734 157.908 3.49149 159.633 3.49149 161.999ZM4.54305 161.999C4.54305 160.079 5.25171 158.879 6.8862 158.879C8.54355 158.879 9.24078 160.056 9.24078 161.999C9.24078 163.943 8.55498 165.12 6.90906 165.12C5.42316 165.12 4.54305 163.943 4.54305 161.999Z" fill="#636363"/>
<defs>
<clipPath id="clip0_1294_3082">
<rect width="327" height="171" rx="4" fill="white"/>
</clipPath>
</defs>
</svg>
