<svg width="472" height="222" viewBox="0 0 472 222" fill="none" xmlns="http://www.w3.org/2000/svg">
<path d="M13.0429 180.583L13.5002 181.655L16.0581 180.469V189H17.287V178.94H16.4725L13.0429 180.583ZM19.6953 189H20.9957V185.413L22.0675 184.384L26.383 189H28.0978L23.0392 183.527L27.7549 178.997H26.0544L20.9957 183.827V178.997H19.6953V189Z" fill="#636363"/>
<rect x="20" y="167" width="1" height="8" fill="black" fill-opacity="0.1"/>
<path d="M60.7577 182.298C60.9863 181.312 61.758 180.126 63.4585 180.126C64.5874 180.126 65.5448 180.626 65.5448 182.012C65.5448 184.027 63.4585 185.37 61.6151 186.585L59.443 188.028V189H67.231V187.814H61.7008L62.8011 187.128C64.5159 186.056 66.8595 184.37 66.8595 181.884C66.8595 180.112 65.6449 178.883 63.5442 178.883C61.3007 178.883 60.0575 180.269 59.7145 181.926L60.7577 182.298ZM68.8073 189H70.1077V185.413L71.1794 184.384L75.495 189H77.2098L72.1512 183.527L76.8669 178.997H75.1663L70.1077 183.827V178.997H68.8073V189Z" fill="#636363"/>
<path d="M64.0143 217H65.3433L66.4436 214.471H71.3451L72.4597 217H73.8172L69.4302 206.968H68.4013L64.0143 217ZM68.8872 208.783L70.8592 213.327H66.9295L68.8872 208.783ZM74.71 217H75.9104V212.041C76.3105 211.141 77.1822 210.541 78.0968 210.541C79.5543 210.541 80.2688 211.27 80.2688 212.913V217H81.4692V212.77C81.4692 210.412 80.3974 209.412 78.454 209.412C77.3823 209.412 76.3962 209.798 75.9104 210.541V209.569H74.71V217ZM83.0173 219.829C83.2602 219.944 83.5318 220.001 83.8461 220.001C84.875 220.001 85.6467 219.386 86.6613 216.886L89.4907 209.569H88.176L86.0754 215.214L83.2888 209.569H81.8741L85.4752 216.728L85.2466 217.286C84.7321 218.486 84.3463 218.858 83.8033 218.858C83.6889 218.858 83.5889 218.829 83.4889 218.786L83.0173 219.829ZM98.2431 214.542C97.5572 215.314 96.5712 215.885 95.185 215.885C92.8558 215.885 91.2981 214.342 91.2981 211.998C91.2981 209.712 92.6986 208.112 95.0278 208.112C96.3425 208.112 97.2285 208.569 98.0002 209.341L98.8433 208.526C98.1716 207.626 96.7998 206.868 94.9993 206.868C91.8983 206.868 89.9406 209.126 89.9406 211.998C89.9406 215.114 91.9412 217.129 95.0993 217.129C96.7283 217.129 98.2288 216.428 98.9862 215.371L98.2431 214.542ZM100.708 211.355C101.394 210.841 102.08 210.527 102.923 210.527C104.48 210.527 104.909 211.398 104.909 212.742C104.537 212.627 103.723 212.527 103.166 212.527C101.022 212.527 99.6074 213.213 99.6074 214.828C99.6074 216.2 100.693 217.1 102.308 217.1C103.594 217.1 104.48 216.528 104.909 215.9V217H106.109V212.413C106.109 210.498 105.052 209.398 103.066 209.398C101.965 209.398 100.779 209.812 100.093 210.455L100.708 211.355ZM102.594 216.014C101.579 216.014 100.879 215.557 100.879 214.785C100.879 213.885 101.822 213.585 103.323 213.585C103.923 213.585 104.537 213.67 104.909 213.799V214.556C104.652 215.157 103.837 216.014 102.594 216.014ZM107.77 215.642C108.384 216.486 109.742 217.129 111.056 217.129C113.386 217.129 114.9 215.614 114.9 213.156C114.9 210.955 113.614 209.398 111.428 209.398C110.442 209.398 109.599 209.741 108.97 210.469V206.568H107.77V215.642ZM111.242 210.527C112.642 210.527 113.629 211.527 113.629 213.227C113.629 214.985 112.557 216 111.142 216C110.356 216 109.47 215.657 108.97 215.071V211.956C109.384 211.184 110.213 210.527 111.242 210.527ZM116.341 217H117.541V206.568H116.341V217ZM125.139 214.871C124.696 215.514 123.881 216 122.981 216C121.466 216 120.337 215.171 120.266 213.67H126.125C126.182 213.342 126.196 213.013 126.196 212.77C126.196 210.712 124.724 209.398 122.767 209.398C120.294 209.398 118.98 211.084 118.98 213.27C118.98 215.628 120.58 217.129 122.938 217.129C124.153 217.129 125.21 216.628 125.91 215.585L125.139 214.871ZM122.681 210.498C124.01 210.498 124.853 211.255 124.924 212.584H120.252C120.437 211.37 121.295 210.498 122.681 210.498ZM131.929 217H133.129V206.568H131.929V217ZM135.554 211.355C136.24 210.841 136.925 210.527 137.769 210.527C139.326 210.527 139.755 211.398 139.755 212.742C139.383 212.627 138.569 212.527 138.011 212.527C135.868 212.527 134.453 213.213 134.453 214.828C134.453 216.2 135.539 217.1 137.154 217.1C138.44 217.1 139.326 216.528 139.755 215.9V217H140.955V212.413C140.955 210.498 139.898 209.398 137.911 209.398C136.811 209.398 135.625 209.812 134.939 210.455L135.554 211.355ZM137.44 216.014C136.425 216.014 135.725 215.557 135.725 214.785C135.725 213.885 136.668 213.585 138.169 213.585C138.769 213.585 139.383 213.67 139.755 213.799V214.556C139.498 215.157 138.683 216.014 137.44 216.014ZM141.829 210.712H143.373V214.299C143.373 216.128 144.187 217.1 145.645 217.1C146.574 217.1 147.288 216.814 147.746 216.314L147.203 215.428C146.802 215.742 146.374 215.957 145.859 215.957C144.973 215.957 144.573 215.457 144.573 213.985V210.712H147.131V209.569H144.573V207.669H143.373V209.569H141.829V210.712ZM154.151 214.871C153.708 215.514 152.894 216 151.994 216C150.479 216 149.35 215.171 149.278 213.67H155.137C155.195 213.342 155.209 213.013 155.209 212.77C155.209 210.712 153.737 209.398 151.779 209.398C149.307 209.398 147.992 211.084 147.992 213.27C147.992 215.628 149.593 217.129 151.951 217.129C153.165 217.129 154.223 216.628 154.923 215.585L154.151 214.871ZM151.693 210.498C153.022 210.498 153.866 211.255 153.937 212.584H149.264C149.45 211.37 150.307 210.498 151.693 210.498ZM156.543 217H157.743V212.041C158.143 211.141 159.015 210.541 159.929 210.541C161.387 210.541 162.101 211.27 162.101 212.913V217H163.302V212.77C163.302 210.412 162.23 209.412 160.287 209.412C159.215 209.412 158.229 209.798 157.743 210.541V209.569H156.543V217ZM170.716 214.856C170.259 215.542 169.53 216 168.63 216C166.944 216 165.815 214.899 165.815 213.27C165.815 211.67 166.944 210.527 168.473 210.527C169.387 210.527 170.016 210.841 170.531 211.541L171.459 210.912C170.959 209.998 169.773 209.398 168.444 209.398C166.101 209.398 164.543 211.084 164.543 213.27C164.543 215.628 166.158 217.129 168.516 217.129C169.702 217.129 171.002 216.557 171.574 215.471L170.716 214.856ZM172.651 219.829C172.894 219.944 173.165 220.001 173.48 220.001C174.508 220.001 175.28 219.386 176.295 216.886L179.124 209.569H177.809L175.709 215.214L172.922 209.569H171.508L175.109 216.728L174.88 217.286C174.366 218.486 173.98 218.858 173.437 218.858C173.322 218.858 173.222 218.829 173.122 218.786L172.651 219.829Z" fill="#F64343"/>
<path d="M270.014 217H271.343L272.444 214.471H277.345L278.46 217H279.817L275.43 206.968H274.401L270.014 217ZM274.887 208.783L276.859 213.327H272.929L274.887 208.783ZM286.12 214.856C285.663 215.542 284.934 216 284.034 216C282.347 216 281.219 214.899 281.219 213.27C281.219 211.67 282.347 210.527 283.876 210.527C284.791 210.527 285.42 210.841 285.934 211.541L286.863 210.912C286.363 209.998 285.177 209.398 283.848 209.398C281.504 209.398 279.947 211.084 279.947 213.27C279.947 215.628 281.562 217.129 283.919 217.129C285.105 217.129 286.406 216.557 286.977 215.471L286.12 214.856ZM287.181 210.712H288.724V214.299C288.724 216.128 289.539 217.1 290.996 217.1C291.925 217.1 292.639 216.814 293.097 216.314L292.554 215.428C292.154 215.742 291.725 215.957 291.21 215.957C290.325 215.957 289.924 215.457 289.924 213.985V210.712H292.482V209.569H289.924V207.669H288.724V209.569H287.181V210.712ZM294.125 217H295.325V209.569H294.125V217ZM293.967 207.154C293.967 207.583 294.296 207.897 294.739 207.897C295.139 207.897 295.482 207.583 295.482 207.154C295.482 206.754 295.139 206.454 294.739 206.454C294.31 206.454 293.967 206.754 293.967 207.154ZM296.804 213.27C296.804 215.514 298.434 217.129 300.734 217.129C303.078 217.129 304.693 215.514 304.693 213.27C304.693 211.012 303.078 209.398 300.734 209.398C298.405 209.398 296.804 211.012 296.804 213.27ZM298.076 213.27C298.076 211.613 299.205 210.527 300.734 210.527C302.263 210.527 303.421 211.627 303.421 213.27C303.421 214.899 302.32 216 300.734 216C299.177 216 298.076 214.856 298.076 213.27ZM306.025 217H307.225V212.041C307.625 211.141 308.497 210.541 309.411 210.541C310.869 210.541 311.583 211.27 311.583 212.913V217H312.784V212.77C312.784 210.412 311.712 209.412 309.769 209.412C308.697 209.412 307.711 209.798 307.225 210.541V209.569H306.025V217ZM326.669 214.542C325.983 215.314 324.997 215.885 323.611 215.885C321.282 215.885 319.724 214.342 319.724 211.998C319.724 209.712 321.124 208.112 323.454 208.112C324.768 208.112 325.654 208.569 326.426 209.341L327.269 208.526C326.597 207.626 325.226 206.868 323.425 206.868C320.324 206.868 318.366 209.126 318.366 211.998C318.366 215.114 320.367 217.129 323.525 217.129C325.154 217.129 326.655 216.428 327.412 215.371L326.669 214.542ZM329.134 211.355C329.82 210.841 330.505 210.527 331.349 210.527C332.906 210.527 333.335 211.398 333.335 212.742C332.963 212.627 332.149 212.527 331.591 212.527C329.448 212.527 328.033 213.213 328.033 214.828C328.033 216.2 329.119 217.1 330.734 217.1C332.02 217.1 332.906 216.528 333.335 215.9V217H334.535V212.413C334.535 210.498 333.478 209.398 331.491 209.398C330.391 209.398 329.205 209.812 328.519 210.455L329.134 211.355ZM331.02 216.014C330.005 216.014 329.305 215.557 329.305 214.785C329.305 213.885 330.248 213.585 331.749 213.585C332.349 213.585 332.963 213.67 333.335 213.799V214.556C333.078 215.157 332.263 216.014 331.02 216.014ZM336.195 215.642C336.81 216.486 338.167 217.129 339.482 217.129C341.811 217.129 343.326 215.614 343.326 213.156C343.326 210.955 342.04 209.398 339.854 209.398C338.868 209.398 338.025 209.741 337.396 210.469V206.568H336.195V215.642ZM339.668 210.527C341.068 210.527 342.054 211.527 342.054 213.227C342.054 214.985 340.983 216 339.568 216C338.782 216 337.896 215.657 337.396 215.071V211.956C337.81 211.184 338.639 210.527 339.668 210.527ZM344.767 217H345.967V206.568H344.767V217ZM353.565 214.871C353.122 215.514 352.307 216 351.407 216C349.892 216 348.763 215.171 348.692 213.67H354.551C354.608 213.342 354.622 213.013 354.622 212.77C354.622 210.712 353.15 209.398 351.192 209.398C348.72 209.398 347.406 211.084 347.406 213.27C347.406 215.628 349.006 217.129 351.364 217.129C352.579 217.129 353.636 216.628 354.336 215.585L353.565 214.871ZM351.107 210.498C352.436 210.498 353.279 211.255 353.35 212.584H348.677C348.863 211.37 349.721 210.498 351.107 210.498ZM360.354 217H361.555V206.568H360.354V217ZM363.979 211.355C364.665 210.841 365.351 210.527 366.194 210.527C367.752 210.527 368.181 211.398 368.181 212.742C367.809 212.627 366.995 212.527 366.437 212.527C364.294 212.527 362.879 213.213 362.879 214.828C362.879 216.2 363.965 217.1 365.58 217.1C366.866 217.1 367.752 216.528 368.181 215.9V217H369.381V212.413C369.381 210.498 368.324 209.398 366.337 209.398C365.237 209.398 364.051 209.812 363.365 210.455L363.979 211.355ZM365.866 216.014C364.851 216.014 364.151 215.557 364.151 214.785C364.151 213.885 365.094 213.585 366.594 213.585C367.195 213.585 367.809 213.67 368.181 213.799V214.556C367.923 215.157 367.109 216.014 365.866 216.014ZM370.255 210.712H371.799V214.299C371.799 216.128 372.613 217.1 374.071 217.1C375 217.1 375.714 216.814 376.171 216.314L375.628 215.428C375.228 215.742 374.8 215.957 374.285 215.957C373.399 215.957 372.999 215.457 372.999 213.985V210.712H375.557V209.569H372.999V207.669H371.799V209.569H370.255V210.712ZM382.577 214.871C382.134 215.514 381.32 216 380.419 216C378.905 216 377.776 215.171 377.704 213.67H383.563C383.62 213.342 383.635 213.013 383.635 212.77C383.635 210.712 382.163 209.398 380.205 209.398C377.733 209.398 376.418 211.084 376.418 213.27C376.418 215.628 378.019 217.129 380.377 217.129C381.591 217.129 382.649 216.628 383.349 215.585L382.577 214.871ZM380.119 210.498C381.448 210.498 382.291 211.255 382.363 212.584H377.69C377.876 211.37 378.733 210.498 380.119 210.498ZM384.968 217H386.169V212.041C386.569 211.141 387.441 210.541 388.355 210.541C389.813 210.541 390.527 211.27 390.527 212.913V217H391.728V212.77C391.728 210.412 390.656 209.412 388.712 209.412C387.641 209.412 386.655 209.798 386.169 210.541V209.569H384.968V217ZM399.142 214.856C398.685 215.542 397.956 216 397.056 216C395.37 216 394.241 214.899 394.241 213.27C394.241 211.67 395.37 210.527 396.899 210.527C397.813 210.527 398.442 210.841 398.956 211.541L399.885 210.912C399.385 209.998 398.199 209.398 396.87 209.398C394.527 209.398 392.969 211.084 392.969 213.27C392.969 215.628 394.584 217.129 396.942 217.129C398.128 217.129 399.428 216.557 400 215.471L399.142 214.856ZM401.077 219.829C401.32 219.944 401.591 220.001 401.905 220.001C402.934 220.001 403.706 219.386 404.721 216.886L407.55 209.569H406.235L404.135 215.214L401.348 209.569H399.933L403.534 216.728L403.306 217.286C402.791 218.486 402.406 218.858 401.863 218.858C401.748 218.858 401.648 218.829 401.548 218.786L401.077 219.829Z" fill="#0057FF"/>
<rect x="68" y="167" width="1" height="8" fill="black" fill-opacity="0.1"/>
<path d="M108.6 181.912C108.958 180.998 109.815 180.083 111.458 180.083C112.73 180.083 113.573 180.612 113.573 181.626C113.573 182.569 112.587 183.284 111.001 183.284H110.115V184.47H111.23C112.645 184.47 113.802 184.856 113.802 186.128C113.802 187.271 112.916 187.9 111.544 187.9C109.729 187.9 108.901 186.985 108.415 185.942L107.257 186.442C107.743 188.028 109.215 189.129 111.458 189.129C113.531 189.129 115.117 188.057 115.117 186.113C115.117 184.527 114.131 183.798 113.13 183.727C114.274 183.398 114.888 182.541 114.888 181.383C114.888 179.84 113.473 178.868 111.516 178.868C109.358 178.868 108.043 179.954 107.529 181.426L108.6 181.912ZM116.877 189H118.177V185.413L119.249 184.384L123.565 189H125.28L120.221 183.527L124.937 178.997H123.236L118.177 183.827V178.997H116.877V189Z" fill="#636363"/>
<rect x="116" y="167" width="1" height="8" fill="black" fill-opacity="0.1"/>
<path d="M161.273 189H162.517V186.957H164.374V185.799H162.517V178.997H161.416L155.157 186.128V186.957H161.273V189ZM156.872 185.799L161.273 180.998V185.799H156.872ZM165.659 189H166.959V185.413L168.031 184.384L172.346 189H174.061L169.002 183.527L173.718 178.997H172.018L166.959 183.827V178.997H165.659V189Z" fill="#636363"/>
<rect x="164" y="167" width="1" height="8" fill="black" fill-opacity="0.1"/>
<path d="M204.043 184.127L205.072 184.399C205.644 183.813 206.287 183.541 207.287 183.541C208.988 183.541 210.059 184.384 210.059 185.728C210.059 186.899 209.216 187.914 207.501 187.914C205.958 187.914 204.958 187.071 204.572 186.199L203.429 186.685C204.086 188.271 205.672 189.129 207.501 189.129C209.702 189.129 211.374 187.685 211.374 185.685C211.374 183.784 210.031 182.341 207.63 182.341C206.572 182.341 205.787 182.584 205.358 182.898L205.729 180.212H210.917V178.997H204.629L204.043 184.127ZM213.045 189H214.345V185.413L215.417 184.384L219.732 189H221.447L216.388 183.527L221.104 178.997H219.404L214.345 183.827V178.997H213.045V189Z" fill="#636363"/>
<rect x="212" y="167" width="1" height="8" fill="black" fill-opacity="0.1"/>
<path d="M251.614 184.27C251.614 187.414 253.329 189.129 255.987 189.129C258.202 189.129 259.946 187.728 259.946 185.656C259.946 183.67 258.517 182.312 256.173 182.312C254.773 182.312 253.458 182.927 252.886 183.984C252.858 181.455 254.315 180.097 256.002 180.097C257.216 180.097 258.088 180.626 258.631 181.483L259.603 180.826C259.06 179.64 257.759 178.868 256.059 178.868C253.658 178.868 251.614 180.669 251.614 184.27ZM253.043 185.485C253.215 184.599 254.287 183.541 256.102 183.541C257.559 183.541 258.631 184.256 258.631 185.713C258.631 187.028 257.502 187.9 255.973 187.9C254.315 187.9 253.301 186.814 253.043 185.485ZM261.561 189H262.861V185.413L263.933 184.384L268.249 189H269.963L264.905 183.527L269.62 178.997H267.92L262.861 183.827V178.997H261.561V189Z" fill="#636363"/>
<rect x="260" y="167" width="1" height="8" fill="black" fill-opacity="0.1"/>
<path d="M299.286 180.212H305.345L300.543 189H301.901L306.874 179.812V178.997H299.286V180.212ZM308.221 189H309.522V185.413L310.593 184.384L314.909 189H316.624L311.565 183.527L316.281 178.997H314.58L309.522 183.827V178.997H308.221V189Z" fill="#636363"/>
<rect x="308" y="167" width="1" height="8" fill="black" fill-opacity="0.1"/>
<path d="M351.559 183.298C350.215 183.298 349.272 182.598 349.272 181.669C349.272 180.64 350.13 180.054 351.744 180.054C353.402 180.054 354.259 180.626 354.259 181.669C354.259 182.641 353.245 183.298 352.002 183.298H351.559ZM351.973 184.427C353.516 184.427 354.588 185.07 354.588 186.185C354.588 187.271 353.631 187.943 351.759 187.943C349.915 187.943 348.943 187.228 348.943 186.171C348.943 185.185 350.058 184.427 351.616 184.427H351.973ZM351.773 189.129C354.302 189.129 355.888 188.071 355.888 186.242C355.888 185.042 355.345 184.17 353.988 183.756C354.974 183.298 355.574 182.598 355.574 181.583C355.574 179.954 354.216 178.868 351.759 178.868C349.329 178.868 347.957 179.954 347.957 181.583C347.957 182.527 348.443 183.441 349.601 183.827C348.415 184.227 347.629 185.113 347.629 186.299C347.629 188.071 349.229 189.129 351.773 189.129ZM357.589 189H358.889V185.413L359.961 184.384L364.276 189H365.991L360.933 183.527L365.648 178.997H363.948L358.889 183.827V178.997H357.589V189Z" fill="#636363"/>
<rect x="356" y="167" width="1" height="8" fill="black" fill-opacity="0.1"/>
<path d="M403.931 183.813C403.931 180.626 402.345 178.868 399.801 178.868C397.272 178.868 395.572 180.269 395.572 182.512C395.572 184.57 397.186 185.942 399.401 185.942C401.073 185.942 402.202 185.056 402.645 184.056C402.802 186.242 401.473 187.9 399.63 187.9C398.515 187.9 397.472 187.442 396.886 186.642L395.857 187.357C396.472 188.371 397.729 189.129 399.458 189.129C402.116 189.129 403.931 187.299 403.931 183.813ZM402.431 182.469C402.245 183.513 401.273 184.713 399.63 184.713C397.987 184.713 396.886 183.898 396.886 182.469C396.886 180.969 397.958 180.097 399.659 180.097C401.416 180.097 402.245 181.283 402.431 182.469ZM405.589 189H406.889V185.413L407.961 184.384L412.276 189H413.991L408.933 183.527L413.648 178.997H411.948L406.889 183.827V178.997H405.589V189Z" fill="#636363"/>
<rect x="404" y="167" width="1" height="8" fill="black" fill-opacity="0.1"/>
<path d="M439.043 180.583L439.5 181.655L442.058 180.469V189H443.287V178.94H442.472L439.043 180.583ZM445.252 183.998C445.252 186.957 446.767 189.114 449.525 189.114C452.426 189.114 453.755 186.957 453.755 183.998C453.755 180.855 452.397 178.883 449.496 178.883C446.61 178.883 445.252 181.04 445.252 183.998ZM446.567 183.998C446.567 181.598 447.453 180.097 449.496 180.097C451.569 180.097 452.44 181.569 452.44 183.998C452.44 186.428 451.583 187.9 449.525 187.9C447.667 187.9 446.567 186.428 446.567 183.998ZM455.408 189H456.708V185.413L457.78 184.384L462.096 189H463.811L458.752 183.527L463.468 178.997H461.767L456.708 183.827V178.997H455.408V189Z" fill="#636363"/>
<rect x="451" y="167" width="1" height="8" fill="black" fill-opacity="0.1"/>
<rect width="472" height="171" rx="4" fill="#EFF9FF"/>
<rect y="136" width="472" height="35" fill="#FFE2E2"/>
<rect y="17" width="472" height="1" fill="black" fill-opacity="0.1"/>
<rect y="34" width="472" height="1" fill="black" fill-opacity="0.1"/>
<rect y="51" width="472" height="1" fill="black" fill-opacity="0.1"/>
<rect y="68" width="472" height="1" fill="black" fill-opacity="0.1"/>
<rect y="85" width="472" height="1" fill="black" fill-opacity="0.1"/>
<rect y="102" width="472" height="1" fill="black" fill-opacity="0.1"/>
<rect y="119" width="472" height="1" fill="black" fill-opacity="0.1"/>
<rect y="136" width="472" height="1" fill="black" fill-opacity="0.1"/>
<rect y="153" width="472" height="1" fill="black" fill-opacity="0.1"/>
<path d="M20 162.5L68.5 157L116.5 156L164.5 154.5L212.5 151L260.5 150H308.5L356.5 149L404.5 145.5L452 144.5H464" stroke="#F64343" stroke-width="2"/>
<path d="M20.5 160L68.5 141L116.5 129.5L164.5 122L212.5 105L260.5 89L308.5 74L356.5 65L404.5 49L451.5 14.5L463 5.5" stroke="#0057FF" stroke-width="2"/>
<rect x="0.5" y="0.5" width="471" height="170" rx="3.5" stroke="black" stroke-opacity="0.1"/>
<path d="M340.278 132V123.999H339.272V130.125L334.38 123.999H333.557V132H334.563V125.896L339.466 132H340.278ZM341.493 129.017C341.493 130.811 342.796 132.103 344.637 132.103C346.511 132.103 347.803 130.811 347.803 129.017C347.803 127.211 346.511 125.919 344.637 125.919C342.773 125.919 341.493 127.211 341.493 129.017ZM342.511 129.017C342.511 127.691 343.414 126.822 344.637 126.822C345.86 126.822 346.785 127.702 346.785 129.017C346.785 130.32 345.905 131.2 344.637 131.2C343.391 131.2 342.511 130.285 342.511 129.017ZM348.239 126.971H349.474V129.84C349.474 131.303 350.125 132.08 351.291 132.08C352.034 132.08 352.606 131.851 352.971 131.451L352.537 130.743C352.217 130.994 351.874 131.166 351.463 131.166C350.754 131.166 350.434 130.766 350.434 129.588V126.971H352.48V126.056H350.434V124.536H349.474V126.056H348.239V126.971ZM357.095 132H358.055V127.862C358.192 127.245 358.66 126.834 359.175 126.834C359.541 126.834 359.746 126.948 359.883 127.131L360.489 126.468C360.226 126.136 359.849 125.931 359.278 125.931C358.82 125.931 358.26 126.091 358.055 126.514V126.056H357.095V132ZM365.384 130.297C365.03 130.811 364.378 131.2 363.658 131.2C362.447 131.2 361.544 130.537 361.486 129.337H366.173C366.218 129.074 366.23 128.811 366.23 128.617C366.23 126.971 365.053 125.919 363.487 125.919C361.509 125.919 360.458 127.268 360.458 129.017C360.458 130.903 361.738 132.103 363.624 132.103C364.595 132.103 365.441 131.703 366.001 130.868L365.384 130.297ZM363.418 126.799C364.481 126.799 365.155 127.405 365.213 128.468H361.475C361.624 127.497 362.309 126.799 363.418 126.799ZM367.754 127.485C368.303 127.074 368.851 126.822 369.526 126.822C370.771 126.822 371.114 127.519 371.114 128.594C370.817 128.502 370.166 128.422 369.72 128.422C368.005 128.422 366.874 128.971 366.874 130.263C366.874 131.36 367.742 132.08 369.034 132.08C370.063 132.08 370.771 131.623 371.114 131.12V132H372.074V128.331C372.074 126.799 371.229 125.919 369.64 125.919C368.76 125.919 367.811 126.251 367.262 126.765L367.754 127.485ZM369.263 131.211C368.451 131.211 367.891 130.846 367.891 130.228C367.891 129.508 368.645 129.268 369.846 129.268C370.326 129.268 370.817 129.337 371.114 129.44V130.045C370.909 130.526 370.257 131.211 369.263 131.211ZM373.494 132H374.454V123.656H373.494V132ZM378.734 126.971H379.969V129.84C379.969 131.303 380.62 132.08 381.786 132.08C382.529 132.08 383.101 131.851 383.466 131.451L383.032 130.743C382.712 130.994 382.369 131.166 381.958 131.166C381.249 131.166 380.929 130.766 380.929 129.588V126.971H382.975V126.056H380.929V124.536H379.969V126.056H378.734V126.971ZM384.288 132H385.248V126.056H384.288V132ZM384.163 124.125C384.163 124.468 384.426 124.719 384.78 124.719C385.1 124.719 385.374 124.468 385.374 124.125C385.374 123.805 385.1 123.565 384.78 123.565C384.437 123.565 384.163 123.805 384.163 124.125ZM395.382 128.057C395.382 126.525 394.49 125.931 393.244 125.931C392.421 125.931 391.747 126.251 391.29 126.856C390.981 126.262 390.364 125.931 389.541 125.931C388.741 125.931 388.055 126.331 387.724 126.856V126.056H386.763V132H387.724V128.034C387.941 127.519 388.512 126.834 389.358 126.834C390.135 126.834 390.592 127.337 390.592 128.045V132H391.553V127.919C391.85 127.291 392.398 126.834 393.187 126.834C394.101 126.834 394.421 127.485 394.421 128.354V132H395.382V128.057ZM401.293 130.297C400.938 130.811 400.287 131.2 399.567 131.2C398.355 131.2 397.452 130.537 397.395 129.337H402.081C402.127 129.074 402.138 128.811 402.138 128.617C402.138 126.971 400.961 125.919 399.395 125.919C397.418 125.919 396.366 127.268 396.366 129.017C396.366 130.903 397.646 132.103 399.532 132.103C400.504 132.103 401.35 131.703 401.91 130.868L401.293 130.297ZM399.327 126.799C400.39 126.799 401.064 127.405 401.121 128.468H397.383C397.532 127.497 398.218 126.799 399.327 126.799ZM411.227 130.297C410.872 130.811 410.221 131.2 409.501 131.2C408.289 131.2 407.386 130.537 407.329 129.337H412.015C412.061 129.074 412.073 128.811 412.073 128.617C412.073 126.971 410.895 125.919 409.329 125.919C407.352 125.919 406.3 127.268 406.3 129.017C406.3 130.903 407.581 132.103 409.467 132.103C410.438 132.103 411.284 131.703 411.844 130.868L411.227 130.297ZM409.261 126.799C410.324 126.799 410.998 127.405 411.055 128.468H407.318C407.466 127.497 408.152 126.799 409.261 126.799ZM418.141 126.056H416.975L415.249 128.24L413.535 126.056H412.334L414.586 128.937L412.209 132H413.352L415.215 129.611L417.055 132H418.255L415.866 128.925L418.141 126.056ZM418.988 134.286H419.949V131.497C420.383 131.931 421 132.103 421.754 132.103C423.515 132.103 424.715 130.743 424.715 128.925C424.715 127.165 423.629 125.919 421.869 125.919C421.16 125.919 420.383 126.159 419.949 126.799V126.056H418.988V134.286ZM421.766 126.822C422.966 126.822 423.698 127.668 423.698 128.994C423.698 130.285 422.852 131.2 421.674 131.2C420.977 131.2 420.314 130.926 419.949 130.274V128.057C420.189 127.451 420.829 126.822 421.766 126.822ZM430.37 130.297C430.015 130.811 429.364 131.2 428.644 131.2C427.432 131.2 426.529 130.537 426.472 129.337H431.158C431.204 129.074 431.216 128.811 431.216 128.617C431.216 126.971 430.038 125.919 428.472 125.919C426.495 125.919 425.443 127.268 425.443 129.017C425.443 130.903 426.724 132.103 428.61 132.103C429.581 132.103 430.427 131.703 430.987 130.868L430.37 130.297ZM428.404 126.799C429.467 126.799 430.141 127.405 430.198 128.468H426.461C426.609 127.497 427.295 126.799 428.404 126.799ZM432.282 132H433.243V127.862C433.38 127.245 433.848 126.834 434.363 126.834C434.728 126.834 434.934 126.948 435.071 127.131L435.677 126.468C435.414 126.136 435.037 125.931 434.466 125.931C434.008 125.931 433.448 126.091 433.243 126.514V126.056H432.282V132ZM436.449 132H437.409V126.056H436.449V132ZM436.323 124.125C436.323 124.468 436.586 124.719 436.94 124.719C437.26 124.719 437.535 124.468 437.535 124.125C437.535 123.805 437.26 123.565 436.94 123.565C436.597 123.565 436.323 123.805 436.323 124.125ZM443.519 130.297C443.164 130.811 442.513 131.2 441.793 131.2C440.581 131.2 439.678 130.537 439.621 129.337H444.307C444.353 129.074 444.365 128.811 444.365 128.617C444.365 126.971 443.187 125.919 441.621 125.919C439.644 125.919 438.592 127.268 438.592 129.017C438.592 130.903 439.873 132.103 441.759 132.103C442.73 132.103 443.576 131.703 444.136 130.868L443.519 130.297ZM441.553 126.799C442.616 126.799 443.29 127.405 443.347 128.468H439.61C439.758 127.497 440.444 126.799 441.553 126.799ZM445.431 132H446.392V128.034C446.712 127.314 447.409 126.834 448.14 126.834C449.306 126.834 449.878 127.417 449.878 128.731V132H450.838V128.617C450.838 126.731 449.981 125.931 448.426 125.931C447.569 125.931 446.78 126.239 446.392 126.834V126.056H445.431V132ZM456.768 130.285C456.403 130.834 455.82 131.2 455.1 131.2C453.751 131.2 452.848 130.32 452.848 129.017C452.848 127.737 453.751 126.822 454.974 126.822C455.705 126.822 456.208 127.074 456.62 127.634L457.363 127.131C456.963 126.399 456.014 125.919 454.951 125.919C453.077 125.919 451.831 127.268 451.831 129.017C451.831 130.903 453.122 132.103 455.008 132.103C455.957 132.103 456.997 131.646 457.454 130.777L456.768 130.285ZM462.785 130.297C462.43 130.811 461.779 131.2 461.059 131.2C459.847 131.2 458.944 130.537 458.887 129.337H463.573C463.619 129.074 463.63 128.811 463.63 128.617C463.63 126.971 462.453 125.919 460.887 125.919C458.91 125.919 457.858 127.268 457.858 129.017C457.858 130.903 459.138 132.103 461.024 132.103C461.996 132.103 462.842 131.703 463.402 130.868L462.785 130.297ZM460.819 126.799C461.882 126.799 462.556 127.405 462.613 128.468H458.876C459.024 127.497 459.71 126.799 460.819 126.799Z" fill="#0057FF"/>
<path d="M354.734 166V162.868H356.814L359.191 166H360.46L357.9 162.662C359.054 162.422 359.854 161.542 359.854 160.399C359.854 159.142 359.191 157.999 356.757 157.999H353.694V166H354.734ZM356.722 158.971C358.277 158.971 358.791 159.565 358.791 160.399C358.791 161.314 358.003 161.897 356.791 161.897H354.734V158.971H356.722ZM365.384 164.297C365.03 164.811 364.378 165.2 363.658 165.2C362.446 165.2 361.544 164.537 361.486 163.337H366.173C366.218 163.074 366.23 162.811 366.23 162.617C366.23 160.971 365.053 159.919 363.487 159.919C361.509 159.919 360.458 161.268 360.458 163.017C360.458 164.903 361.738 166.103 363.624 166.103C364.595 166.103 365.441 165.703 366.001 164.868L365.384 164.297ZM363.418 160.799C364.481 160.799 365.155 161.405 365.213 162.468H361.475C361.624 161.497 362.309 160.799 363.418 160.799ZM367.754 161.485C368.302 161.074 368.851 160.822 369.526 160.822C370.771 160.822 371.114 161.519 371.114 162.594C370.817 162.502 370.166 162.422 369.72 162.422C368.005 162.422 366.874 162.971 366.874 164.263C366.874 165.36 367.742 166.08 369.034 166.08C370.063 166.08 370.771 165.623 371.114 165.12V166H372.074V162.331C372.074 160.799 371.229 159.919 369.64 159.919C368.76 159.919 367.811 160.251 367.262 160.765L367.754 161.485ZM369.263 165.211C368.451 165.211 367.891 164.846 367.891 164.228C367.891 163.508 368.645 163.268 369.846 163.268C370.326 163.268 370.817 163.337 371.114 163.44V164.045C370.909 164.526 370.257 165.211 369.263 165.211ZM373.494 166H374.454V157.656H373.494V166ZM378.734 160.971H379.969V163.84C379.969 165.303 380.62 166.08 381.786 166.08C382.529 166.08 383.101 165.851 383.466 165.451L383.032 164.743C382.712 164.994 382.369 165.166 381.958 165.166C381.249 165.166 380.929 164.766 380.929 163.588V160.971H382.975V160.056H380.929V158.536H379.969V160.056H378.734V160.971ZM384.288 166H385.248V160.056H384.288V166ZM384.163 158.125C384.163 158.468 384.425 158.719 384.78 158.719C385.1 158.719 385.374 158.468 385.374 158.125C385.374 157.805 385.1 157.565 384.78 157.565C384.437 157.565 384.163 157.805 384.163 158.125ZM395.382 162.057C395.382 160.525 394.49 159.931 393.244 159.931C392.421 159.931 391.747 160.251 391.29 160.856C390.981 160.262 390.364 159.931 389.541 159.931C388.741 159.931 388.055 160.331 387.723 160.856V160.056H386.763V166H387.723V162.034C387.941 161.519 388.512 160.834 389.358 160.834C390.135 160.834 390.592 161.337 390.592 162.045V166H391.553V161.919C391.85 161.291 392.398 160.834 393.187 160.834C394.101 160.834 394.421 161.485 394.421 162.354V166H395.382V162.057ZM401.293 164.297C400.938 164.811 400.287 165.2 399.567 165.2C398.355 165.2 397.452 164.537 397.395 163.337H402.081C402.127 163.074 402.138 162.811 402.138 162.617C402.138 160.971 400.961 159.919 399.395 159.919C397.418 159.919 396.366 161.268 396.366 163.017C396.366 164.903 397.646 166.103 399.532 166.103C400.504 166.103 401.35 165.703 401.91 164.868L401.293 164.297ZM399.327 160.799C400.39 160.799 401.064 161.405 401.121 162.468H397.383C397.532 161.497 398.218 160.799 399.327 160.799ZM411.227 164.297C410.872 164.811 410.221 165.2 409.501 165.2C408.289 165.2 407.386 164.537 407.329 163.337H412.015C412.061 163.074 412.073 162.811 412.073 162.617C412.073 160.971 410.895 159.919 409.329 159.919C407.352 159.919 406.3 161.268 406.3 163.017C406.3 164.903 407.581 166.103 409.467 166.103C410.438 166.103 411.284 165.703 411.844 164.868L411.227 164.297ZM409.261 160.799C410.324 160.799 410.998 161.405 411.055 162.468H407.318C407.466 161.497 408.152 160.799 409.261 160.799ZM418.141 160.056H416.975L415.249 162.24L413.534 160.056H412.334L414.586 162.937L412.209 166H413.352L415.215 163.611L417.055 166H418.255L415.866 162.925L418.141 160.056ZM418.988 168.286H419.949V165.497C420.383 165.931 421 166.103 421.754 166.103C423.515 166.103 424.715 164.743 424.715 162.925C424.715 161.165 423.629 159.919 421.869 159.919C421.16 159.919 420.383 160.159 419.949 160.799V160.056H418.988V168.286ZM421.766 160.822C422.966 160.822 423.698 161.668 423.698 162.994C423.698 164.285 422.852 165.2 421.674 165.2C420.977 165.2 420.314 164.926 419.949 164.274V162.057C420.189 161.451 420.829 160.822 421.766 160.822ZM430.37 164.297C430.015 164.811 429.364 165.2 428.644 165.2C427.432 165.2 426.529 164.537 426.472 163.337H431.158C431.204 163.074 431.216 162.811 431.216 162.617C431.216 160.971 430.038 159.919 428.472 159.919C426.495 159.919 425.443 161.268 425.443 163.017C425.443 164.903 426.724 166.103 428.61 166.103C429.581 166.103 430.427 165.703 430.987 164.868L430.37 164.297ZM428.404 160.799C429.467 160.799 430.141 161.405 430.198 162.468H426.461C426.609 161.497 427.295 160.799 428.404 160.799ZM432.282 166H433.243V161.862C433.38 161.245 433.848 160.834 434.363 160.834C434.728 160.834 434.934 160.948 435.071 161.131L435.677 160.468C435.414 160.136 435.037 159.931 434.466 159.931C434.008 159.931 433.448 160.091 433.243 160.514V160.056H432.282V166ZM436.449 166H437.409V160.056H436.449V166ZM436.323 158.125C436.323 158.468 436.586 158.719 436.94 158.719C437.26 158.719 437.535 158.468 437.535 158.125C437.535 157.805 437.26 157.565 436.94 157.565C436.597 157.565 436.323 157.805 436.323 158.125ZM443.519 164.297C443.164 164.811 442.513 165.2 441.793 165.2C440.581 165.2 439.678 164.537 439.621 163.337H444.307C444.353 163.074 444.365 162.811 444.365 162.617C444.365 160.971 443.187 159.919 441.621 159.919C439.644 159.919 438.592 161.268 438.592 163.017C438.592 164.903 439.873 166.103 441.759 166.103C442.73 166.103 443.576 165.703 444.136 164.868L443.519 164.297ZM441.553 160.799C442.616 160.799 443.29 161.405 443.347 162.468H439.61C439.758 161.497 440.444 160.799 441.553 160.799ZM445.431 166H446.392V162.034C446.712 161.314 447.409 160.834 448.14 160.834C449.306 160.834 449.878 161.417 449.878 162.731V166H450.838V162.617C450.838 160.731 449.981 159.931 448.426 159.931C447.569 159.931 446.78 160.239 446.392 160.834V160.056H445.431V166ZM456.768 164.285C456.403 164.834 455.82 165.2 455.1 165.2C453.751 165.2 452.848 164.32 452.848 163.017C452.848 161.737 453.751 160.822 454.974 160.822C455.705 160.822 456.208 161.074 456.62 161.634L457.363 161.131C456.963 160.399 456.014 159.919 454.951 159.919C453.077 159.919 451.831 161.268 451.831 163.017C451.831 164.903 453.122 166.103 455.008 166.103C455.957 166.103 456.997 165.646 457.454 164.777L456.768 164.285ZM462.785 164.297C462.43 164.811 461.779 165.2 461.059 165.2C459.847 165.2 458.944 164.537 458.887 163.337H463.573C463.619 163.074 463.63 162.811 463.63 162.617C463.63 160.971 462.453 159.919 460.887 159.919C458.91 159.919 457.858 161.268 457.858 163.017C457.858 164.903 459.138 166.103 461.024 166.103C461.996 166.103 462.842 165.703 463.402 164.868L462.785 164.297ZM460.819 160.799C461.882 160.799 462.556 161.405 462.613 162.468H458.876C459.024 161.497 459.71 160.799 460.819 160.799Z" fill="#F64343"/>
<path d="M3.83439 85.1024L4.65735 85.3195C5.11455 84.8509 5.6289 84.6337 6.429 84.6337C7.78917 84.6337 8.64642 85.3081 8.64642 86.3825C8.64642 87.3198 7.97205 88.1313 6.60045 88.1313C5.36601 88.1313 4.56591 87.4569 4.2573 86.7597L3.3429 87.1483C3.86868 88.4171 5.13741 89.1029 6.60045 89.1029C8.36067 89.1029 9.69798 87.9484 9.69798 86.3482C9.69798 84.828 8.62356 83.6736 6.70332 83.6736C5.8575 83.6736 5.22885 83.8679 4.88595 84.1194L5.18313 81.9705H9.33222V80.999H4.30302L3.83439 85.1024Z" fill="#636363"/>
<path d="M3.03429 6.26773L3.40005 7.12498L5.44602 6.17629V13H6.429V4.95328H5.77749L3.03429 6.26773ZM8.00098 8.9995C8.00098 11.3655 9.21256 13.0914 11.4186 13.0914C13.7388 13.0914 14.8018 11.3655 14.8018 8.9995C14.8018 6.4849 13.716 4.90756 11.3957 4.90756C9.08683 4.90756 8.00098 6.63349 8.00098 8.9995ZM9.05254 8.9995C9.05254 7.07926 9.7612 5.87911 11.3957 5.87911C13.053 5.87911 13.7503 7.0564 13.7503 8.9995C13.7503 10.9426 13.0645 12.1199 11.4186 12.1199C9.93265 12.1199 9.05254 10.9426 9.05254 8.9995ZM19.6217 11.3769C19.6217 11.9942 19.0959 12.1999 18.4101 12.1999C17.4957 12.1999 16.6842 11.7884 16.3299 11.1598L15.5641 11.697C15.987 12.5428 17.0271 13.1029 18.2501 13.1029C19.6217 13.1029 20.6276 12.5657 20.6276 11.3655C20.6276 9.04522 16.8557 9.82246 16.8557 8.57659C16.8557 8.05081 17.53 7.82221 18.1358 7.82221C18.9131 7.82221 19.5303 8.14225 19.8503 8.57659L20.5247 7.94794C20.1246 7.36501 19.3474 6.91924 18.3073 6.91924C16.8557 6.91924 15.8384 7.55932 15.8384 8.62231C15.8384 10.8169 19.6217 9.97105 19.6217 11.3769ZM26.2519 11.2969C25.8976 11.8113 25.2461 12.1999 24.526 12.1999C23.3144 12.1999 22.4114 11.537 22.3543 10.3368H27.0406C27.0863 10.0739 27.0977 9.81103 27.0977 9.61672C27.0977 7.9708 25.9205 6.91924 24.3545 6.91924C22.3772 6.91924 21.3256 8.26798 21.3256 10.0168C21.3256 11.9027 22.6058 13.1029 24.4917 13.1029C25.4633 13.1029 26.3091 12.7028 26.8691 11.8684L26.2519 11.2969ZM24.286 7.79935C25.349 7.79935 26.0233 8.40514 26.0805 9.46813H22.3429C22.4915 8.49658 23.1773 7.79935 24.286 7.79935ZM32.6592 11.2855C32.2935 11.8341 31.7106 12.1999 30.9905 12.1999C29.6417 12.1999 28.7388 11.3198 28.7388 10.0168C28.7388 8.73661 29.6417 7.82221 30.8647 7.82221C31.5963 7.82221 32.0992 8.07367 32.5107 8.63374L33.2536 8.13082C32.8536 7.3993 31.9049 6.91924 30.8419 6.91924C28.9674 6.91924 27.7215 8.26798 27.7215 10.0168C27.7215 11.9027 29.0131 13.1029 30.899 13.1029C31.8477 13.1029 32.8878 12.6457 33.345 11.777L32.6592 11.2855Z" fill="#636363"/>
<path d="M4.40589 134.639C4.58877 133.851 5.20599 132.902 6.56616 132.902C7.46913 132.902 8.23494 133.302 8.23494 134.411C8.23494 136.022 6.56616 137.097 5.09169 138.068L3.35433 139.223V140H9.58368V139.051H5.16027L6.04038 138.503C7.41198 137.645 9.2865 136.297 9.2865 134.308C9.2865 132.891 8.31495 131.908 6.63474 131.908C4.84023 131.908 3.84582 133.016 3.5715 134.342L4.40589 134.639Z" fill="#636363"/>
<path d="M3.49149 161.999C3.49149 164.366 4.70307 166.091 6.90906 166.091C9.22935 166.091 10.2923 164.366 10.2923 161.999C10.2923 159.485 9.20649 157.908 6.8862 157.908C4.57734 157.908 3.49149 159.633 3.49149 161.999ZM4.54305 161.999C4.54305 160.079 5.25171 158.879 6.8862 158.879C8.54355 158.879 9.24078 160.056 9.24078 161.999C9.24078 163.943 8.55498 165.12 6.90906 165.12C5.42316 165.12 4.54305 163.943 4.54305 161.999Z" fill="#636363"/>
</svg>
