<svg width="64" height="64" viewBox="0 0 64 64" fill="none" xmlns="http://www.w3.org/2000/svg">
<path d="M31.9277 16C36.346 16 39.9277 12.4183 39.9277 8C39.9277 3.58172 36.346 0 31.9277 0C27.5095 0 23.9277 3.58172 23.9277 8C23.9277 12.4183 27.5095 16 31.9277 16Z" fill="#FFB795"/>
<path d="M31.9277 64C36.346 64 39.9277 60.4183 39.9277 56C39.9277 51.5817 36.346 48 31.9277 48C27.5095 48 23.9277 51.5817 23.9277 56C23.9277 60.4183 27.5095 64 31.9277 64Z" fill="#7477F1"/>
<path fill-rule="evenodd" clip-rule="evenodd" d="M38.7897 20.1155C37.4736 22.4906 37.3999 25.4771 38.8565 28C40.3117 30.5205 42.9314 31.9495 45.6436 32C42.9314 32.0504 40.3117 33.4795 38.8565 36C37.3999 38.5228 37.4736 41.5093 38.7897 43.8844L38.7701 43.8517C37.367 41.5425 34.8278 40 31.9283 40C29.0288 40 26.4895 41.5425 25.0865 43.8517L25.0669 43.8844C26.3829 41.5093 26.4566 38.5228 25.0001 36C23.5448 33.4794 20.9252 32.0504 18.2129 31.9999C20.9252 31.9495 23.5448 30.5205 25.0001 28C26.4566 25.4771 26.3829 22.4906 25.0669 20.1155L25.0865 20.1482C26.4895 22.4574 29.0288 24 31.9283 24C34.8278 24 37.367 22.4574 38.7701 20.1482L38.7897 20.1155Z" fill="#828683"/>
<path d="M45 24C47.2092 27.8263 52.1019 29.1373 55.9282 26.9282C59.7546 24.719 61.0656 19.8263 58.8564 16C56.6473 12.1736 51.7546 10.8626 47.9282 13.0718C44.1019 15.2809 42.7909 20.1736 45 24Z" fill="#FFB1B1"/>
<path d="M5.00004 48C7.20918 51.8263 12.1019 53.1373 15.9282 50.9282C19.7546 48.719 21.0656 43.8263 18.8564 40C16.6473 36.1736 11.7546 34.8626 7.92824 37.0718C4.1019 39.2809 2.7909 44.1736 5.00004 48Z" fill="#5473EF"/>
<path d="M18.8564 24C21.0655 20.1737 19.7545 15.281 15.9282 13.0718C12.1019 10.8627 7.20914 12.1737 5 16C2.79086 19.8264 4.10186 24.7191 7.9282 26.9282C11.7545 29.1374 16.6473 27.8264 18.8564 24Z" fill="#3365FF"/>
<path d="M58.8564 48C61.0655 44.1737 59.7545 39.281 55.9282 37.0718C52.1019 34.8627 47.2091 36.1737 45 40C42.7909 43.8264 44.1019 48.7191 47.9282 50.9282C51.7545 53.1374 56.6473 51.8264 58.8564 48Z" fill="#B38ECB"/>
</svg>
