<svg width="20" height="20" viewBox="0 0 20 20" fill="none" xmlns="http://www.w3.org/2000/svg">
<path fill-rule="evenodd" clip-rule="evenodd" d="M0 20C1 13 5 15 5 15C5 15 7 19 0 20ZM3 13L0 13L3 7L5.30547 6.23151C7.48734 3.07342 11.7341 -1.0897e-05 20 0C20 8.26587 16.9266 12.5126 13.7685 14.6945L13 17L7 20V17L5 15L3 13ZM16 6C16 7.10457 15.1046 8 14 8C12.8954 8 12 7.10457 12 6C12 4.89543 12.8954 4 14 4C15.1046 4 16 4.89543 16 6ZM11 10C11.5523 10 12 9.55229 12 9C12 8.44771 11.5523 8 11 8C10.4477 8 10 8.44771 10 9C10 9.55229 10.4477 10 11 10ZM10 11C10 11.5523 9.55229 12 9 12C8.44771 12 8 11.5523 8 11C8 10.4477 8.44771 10 9 10C9.55229 10 10 10.4477 10 11Z" fill="#F32B2B"/>
</svg>
