<svg width="390" height="211" viewBox="0 0 390 211" xmlns="http://www.w3.org/2000/svg" xmlns:xlink="http://www.w3.org/1999/xlink"><title>Group 5</title><defs><linearGradient x1="50%" y1="58.988%" x2="50%" y2="100%" id="m"><stop stop-color="#FFF" offset="0%"/><stop stop-color="#FFF" stop-opacity="0" offset="100%"/></linearGradient><path id="a" d="M3.6 10h17.2v6H3.6z"/><mask id="n" x="0" y="0" width="17.2" height="6" fill="#fff"><use xlink:href="#a"/></mask><circle id="b" cx="18.2" cy="6.2" r="3.4"/><mask id="o" x="0" y="0" width="6.8" height="6.8" fill="#fff"><use xlink:href="#b"/></mask><ellipse id="c" cx="20.6" cy="10.6" rx="5.4" ry="5.4"/><mask id="p" x="0" y="0" width="10.8" height="10.8" fill="#fff"><use xlink:href="#c"/></mask><ellipse id="d" cx="3.4" cy="12.6" rx="3.4" ry="3.4"/><mask id="q" x="0" y="0" width="6.8" height="6.8" fill="#fff"><use xlink:href="#d"/></mask><circle id="e" cx="7.2" cy="8.4" r="4.4"/><mask id="r" x="0" y="0" width="8.8" height="8.8" fill="#fff"><use xlink:href="#e"/></mask><ellipse id="f" cx="12.6" cy="5.4" rx="5.4" ry="5.4"/><mask id="s" x="0" y="0" width="10.8" height="10.8" fill="#fff"><use xlink:href="#f"/></mask><path id="g" d="M2.631 7.18H15.2v4.308H2.631z"/><mask id="t" x="0" y="0" width="12.569" height="4.308" fill="#fff"><use xlink:href="#g"/></mask><ellipse id="h" cx="13.3" cy="4.452" rx="2.485" ry="2.441"/><mask id="u" x="0" y="0" width="4.969" height="4.883" fill="#fff"><use xlink:href="#h"/></mask><ellipse id="i" cx="15.054" cy="7.611" rx="3.946" ry="3.877"/><mask id="v" x="0" y="0" width="7.892" height="7.755" fill="#fff"><use xlink:href="#i"/></mask><ellipse id="j" cx="2.485" cy="9.047" rx="2.485" ry="2.441"/><mask id="w" x="0" y="0" width="4.969" height="4.883" fill="#fff"><use xlink:href="#j"/></mask><ellipse id="k" cx="5.262" cy="6.031" rx="3.215" ry="3.159"/><mask id="x" x="0" y="0" width="6.431" height="6.319" fill="#fff"><use xlink:href="#k"/></mask><ellipse id="l" cx="9.208" cy="3.877" rx="3.946" ry="3.877"/><mask id="y" x="0" y="0" width="7.892" height="7.755" fill="#fff"><use xlink:href="#l"/></mask></defs><g fill="none" fill-rule="evenodd"><path d="M26 181.5h348" stroke-opacity=".2" stroke="#000"/><path d="M26 166.5h348M26 151.5h348M26 136.5h348M26 121.5h348M26 106.5h348M26 91.5h348M26 76.5h348M26 61.5h348M26 46.5h348M26 31.5h348" stroke-opacity=".1" stroke="#000"/><text font-family="Stem-Regular, Stem" font-size="13" fill="#9E9E9E" transform="translate(5 -25)"><tspan x="30" y="229">1K</tspan></text><g stroke-opacity=".05" stroke="#000" stroke-linecap="square"><path d="M42.5 192.5V22.497M357.5 192.5V22.497M322.5 192.5V22.497M287.5 192.5V22.497M252.5 192.5V22.497M217.5 192.5V22.497M182.5 192.5V22.497M147.5 192.5V22.497M112.5 192.5V22.497M77.5 192.5V22.497"/></g><text font-family="Stem-Regular, Stem" font-size="11" fill="#9E9E9E" transform="translate(5 -25)"><tspan x="4.52" y="209">0</tspan></text><text font-family="Stem-Regular, Stem" font-size="11" fill="#9E9E9E" transform="translate(5 -25)"><tspan x="7.655" y="194">1</tspan></text><text font-family="Stem-Regular, Stem" font-size="11" fill="#9E9E9E" transform="translate(5 -25)"><tspan x="5.268" y="179">2</tspan></text><text font-family="Stem-Regular, Stem" font-size="11" fill="#9E9E9E" transform="translate(5 -25)"><tspan x="5.213" y="164">3</tspan></text><text font-family="Stem-Regular, Stem" font-size="11" fill="#9E9E9E" transform="translate(5 -25)"><tspan x="4.608" y="149">4</tspan></text><text font-family="Stem-Regular, Stem" font-size="11" fill="#9E9E9E" transform="translate(5 -25)"><tspan x="5.081" y="134">5</tspan></text><text font-family="Stem-Regular, Stem" font-size="11" fill="#9E9E9E" transform="translate(5 -25)"><tspan x="4.685" y="119">6</tspan></text><text font-family="Stem-Regular, Stem" font-size="11" fill="#9E9E9E" transform="translate(5 -25)"><tspan x="5.719" y="104">7</tspan></text><text font-family="Stem-Regular, Stem" font-size="11" fill="#9E9E9E" transform="translate(5 -25)"><tspan x="4.663" y="89">8</tspan></text><text font-family="Stem-Regular, Stem" font-size="11" fill="#9E9E9E" transform="translate(5 -25)"><tspan x="4.663" y="74">9</tspan></text><text font-family="Stem-Regular, Stem" font-size="11" fill="#9E9E9E" transform="translate(5 -25)"><tspan x=".175" y="59">10</tspan></text><text font-family="Stem-Regular, Stem" font-size="13" fill="#9E9E9E" transform="translate(5 -25)"><tspan x="64" y="229">2K</tspan></text><text font-family="Stem-Regular, Stem" font-size="13" fill="#9E9E9E" transform="translate(5 -25)"><tspan x="100" y="229">3K</tspan></text><text font-family="Stem-Regular, Stem" font-size="13" fill="#9E9E9E" transform="translate(5 -25)"><tspan x="134" y="229">4K</tspan></text><text font-family="Stem-Regular, Stem" font-size="13" fill="#9E9E9E" transform="translate(5 -25)"><tspan x="169" y="229">5K</tspan></text><text font-family="Stem-Regular, Stem" font-size="13" fill="#9E9E9E" transform="translate(5 -25)"><tspan x="204" y="229">6K</tspan></text><text font-family="Stem-Regular, Stem" font-size="13" fill="#9E9E9E" transform="translate(5 -25)"><tspan x="239" y="229">7K</tspan></text><text font-family="Stem-Regular, Stem" font-size="13" fill="#9E9E9E" transform="translate(5 -25)"><tspan x="274" y="229">8K</tspan></text><text font-family="Stem-Regular, Stem" font-size="13" fill="#9E9E9E" transform="translate(5 -25)"><tspan x="309" y="229">9K</tspan></text><text font-family="Stem-Regular, Stem" font-size="13" fill="#9E9E9E" transform="translate(5 -25)"><tspan x="341.5" y="229">10K</tspan></text><path stroke="#7ED321" stroke-width="2" stroke-linecap="round" d="M42.5 179l35-2 35-4 35-2 35-2 35-1 35-1 35-1 35-3 35-1"/><path stroke="#F64242" stroke-width="2" stroke-linecap="round" d="M42.5 178l35-5 35-1 35-1 35-3 35-1h35l35-1 35-3 35-1"/><path stroke="#F6A623" stroke-width="2" stroke-linecap="round" d="M42.5 162l35-18 35-11 35-7 35-17 35-16 35-14 35-9 35-16 35-33 28.366-44.625"/><path fill="url(#m)" d="M331 0h54v56h-54z" transform="translate(5 -25)"/><g transform="translate(329 2)" fill="#FFF"><use stroke="#CFE6FF" mask="url(#n)" stroke-width="2" xlink:href="#a"/><use stroke="#CFE6FF" mask="url(#o)" stroke-width="2" xlink:href="#b"/><use stroke="#CFE6FF" mask="url(#p)" stroke-width="2" xlink:href="#c"/><use stroke="#CFE6FF" mask="url(#q)" stroke-width="2" xlink:href="#d"/><path d="M3.6 9.6l15.826-4.633L20.8 15H3.6z"/><use stroke="#CFE6FF" mask="url(#r)" stroke-width="2" xlink:href="#e"/><use stroke="#CFE6FF" mask="url(#s)" stroke-width="2" xlink:href="#f"/><path d="M7.2 6.8l11.114-2.237L20.4 13.6l-17.112-.79z"/></g><g transform="matrix(-1 0 0 1 382 12.5)" fill="#FFF"><use stroke="#CFE6FF" mask="url(#t)" stroke-width="2" xlink:href="#g"/><use stroke="#CFE6FF" mask="url(#u)" stroke-width="2" xlink:href="#h"/><use stroke="#CFE6FF" mask="url(#v)" stroke-width="2" xlink:href="#i"/><use stroke="#CFE6FF" mask="url(#w)" stroke-width="2" xlink:href="#j"/><path d="M2.63 6.893l11.566-3.327L15.2 10.5H2.63z"/><use stroke="#CFE6FF" mask="url(#x)" stroke-width="2" xlink:href="#k"/><use stroke="#CFE6FF" mask="url(#y)" stroke-width="2" xlink:href="#l"/><path d="M5.703 4.883l8.122-1.607 1.525 6.49-12.505-.567z"/></g></g></svg>