<svg width="65" height="64" viewBox="0 0 65 64" fill="none" xmlns="http://www.w3.org/2000/svg">
<path d="M38.1309 13C35.765 10.5347 32.4367 9 28.75 9C21.5703 9 15.75 14.8203 15.75 22C15.75 22.9638 15.8549 23.9031 16.0539 24.8071C10.6317 26.7373 6.75 31.9153 6.75 38C6.75 45.732 13.018 52 20.75 52H47.75C53.8251 52 58.75 47.0751 58.75 41C58.75 38.0769 57.6098 35.4201 55.75 33.4501" stroke="black" stroke-width="4" stroke-linecap="round"/>
<path fill-rule="evenodd" clip-rule="evenodd" d="M46.75 14H44.75L44.0209 16.1874C43.0929 16.3918 42.2253 16.7574 41.449 17.2533L39.386 16.2218L37.9718 17.636L39.0033 19.6991C38.5074 20.4753 38.1418 21.3429 37.9374 22.2709L35.75 23V25L37.9374 25.7291C38.1418 26.657 38.5073 27.5244 39.0031 28.3006L37.9715 30.3639L39.3857 31.7781L41.4488 30.7465C42.2251 31.2425 43.0928 31.6082 44.0209 31.8126L44.75 34H46.75L47.4791 31.8126C48.4071 31.6082 49.2747 31.2426 50.0509 30.7467L52.1139 31.7782L53.5281 30.364L52.4966 28.301C52.9926 27.5247 53.3582 26.6572 53.5626 25.7291L55.75 25V23L53.5626 22.2709C53.3581 21.3427 52.9925 20.475 52.4965 19.6987L53.5278 17.636L52.1136 16.2218L50.0508 17.2532C49.2745 16.7574 48.4071 16.3918 47.4791 16.1874L46.75 14ZM45.75 29C48.5114 29 50.75 26.7614 50.75 24C50.75 21.2386 48.5114 19 45.75 19C42.9886 19 40.75 21.2386 40.75 24C40.75 26.7614 42.9886 29 45.75 29Z" fill="black"/>
</svg>
