<svg width="64" height="64" viewBox="0 0 64 64" fill="none" xmlns="http://www.w3.org/2000/svg">
<path fill-rule="evenodd" clip-rule="evenodd" d="M31.103 33.5535C30.3454 34.8656 28.9116 35.6371 27.3992 35.5463C21.5927 35.1978 17.7242 37.7381 15.1711 40.4949C13.8733 41.8962 12.9412 43.3356 12.3359 44.4271C12.0357 44.9684 11.8227 45.4117 11.6907 45.7044C11.6324 45.8334 11.5903 45.9323 11.5637 45.9964L30.2542 56.7873C30.2964 56.7323 30.361 56.6464 30.4436 56.5314C30.631 56.2707 30.9084 55.8646 31.2271 55.334C31.8697 54.264 32.6503 52.7371 33.215 50.9125C34.3258 47.3231 34.5916 42.7027 31.3865 37.8484C30.5517 36.584 30.5029 34.9565 31.2604 33.6444L32.8968 30.8101C33.6543 29.498 35.0882 28.7265 36.6006 28.8173C42.407 29.1658 46.2755 26.6255 48.8287 23.8687C50.1265 22.4674 51.0585 21.028 51.6638 19.9365C51.9641 19.3952 52.177 18.9519 52.3091 18.6593C52.3674 18.5302 52.4095 18.4313 52.436 18.3673L33.7456 7.57632C33.7034 7.63133 33.6388 7.71724 33.5561 7.83224C33.3687 8.09295 33.0913 8.49901 32.7726 9.02966C32.1301 10.0996 31.3495 11.6265 30.7848 13.4511C29.674 17.0406 29.4082 21.661 32.6133 26.5153C33.4481 27.7796 33.4969 29.4071 32.7393 30.7192L31.103 33.5535ZM32.3966 2.17868L34.3284 3.294L55.8532 15.7214L57.785 16.8367L57.845 16.8713L59.2621 17.6895C60.0448 18.1414 60.3129 19.1422 59.8611 19.9248C59.6307 20.3238 59.2577 20.589 58.8438 20.6934C58.4456 20.7938 58.0095 20.7453 57.6257 20.5238L56.2086 19.7056C56.2086 19.7056 56.1988 19.7318 56.1788 19.7819C56.1374 19.8857 56.0525 20.0917 55.9211 20.3794C55.6314 21.0133 55.1158 22.0433 54.3424 23.2469C51.7219 27.3252 46.1414 33.3972 36.3609 32.8101L34.7245 35.6444C40.1232 43.8211 37.6549 51.6898 35.4333 55.9984C34.7776 57.2701 34.1434 58.2316 33.7393 58.7994C33.5559 59.057 33.4199 59.2336 33.3507 59.3213C33.3173 59.3637 33.2995 59.3853 33.2995 59.3853L34.7167 60.2035C35.1004 60.425 35.3604 60.7785 35.4726 61.1735C35.5892 61.5842 35.5459 62.0398 35.3156 62.4388C34.8637 63.2215 33.863 63.4896 33.0803 63.0377L31.6632 62.2196L31.6032 62.1849L29.6714 61.0696L8.14653 48.6422L6.21475 47.5269L6.15478 47.4923L4.73765 46.6741C3.95498 46.2222 3.68682 45.2215 4.13869 44.4388C4.36903 44.0398 4.742 43.7746 5.156 43.6702C5.55417 43.5698 5.9903 43.6183 6.37401 43.8398L7.79114 44.658C7.79114 44.658 7.80097 44.6318 7.82095 44.5817C7.86232 44.478 7.94724 44.2719 8.07868 43.9843C8.36834 43.3504 8.88394 42.3204 9.65736 41.1167C12.2779 37.0384 17.8583 30.9664 27.6389 31.5535L29.2752 28.7192C23.8765 20.5425 26.3448 12.6738 28.5665 8.36519C29.2222 7.09354 29.8564 6.13202 30.2605 5.56422C30.4439 5.30658 30.5799 5.13 30.649 5.0423C30.6824 4.99994 30.7002 4.97832 30.7002 4.97832L29.2831 4.16014C28.8994 3.93861 28.6394 3.58514 28.5272 3.19013C28.4106 2.77941 28.4538 2.32378 28.6841 1.92482C29.136 1.14216 30.1368 0.874004 30.9195 1.32587L32.3366 2.14406L32.3966 2.17868ZM33.7425 15.0299C34.2783 15.1638 34.604 15.7068 34.47 16.2426C34.0107 18.0797 34.0289 19.8221 34.8942 21.5528C35.1412 22.0468 34.941 22.6474 34.447 22.8944C33.953 23.1414 33.3524 22.9412 33.1054 22.4472C31.9707 20.1778 31.989 17.9203 32.5298 15.7574C32.6637 15.2216 33.2067 14.8959 33.7425 15.0299ZM34.9999 14C35.8283 14 36.4999 13.3284 36.4999 12.5C36.4999 11.6716 35.8283 11 34.9999 11C34.1715 11 33.4999 11.6716 33.4999 12.5C33.4999 13.3284 34.1715 14 34.9999 14Z" fill="black"/>
<path fill-rule="evenodd" clip-rule="evenodd" d="M31.103 33.5535C30.3454 34.8656 28.9116 35.6371 27.3992 35.5463C21.5927 35.1978 17.7242 37.7381 15.1711 40.4949C13.8733 41.8962 12.9412 43.3356 12.3359 44.4271C12.0357 44.9684 11.8227 45.4117 11.6907 45.7044C11.6324 45.8334 11.5903 45.9323 11.5637 45.9964L30.2542 56.7873C30.2964 56.7323 30.361 56.6464 30.4436 56.5314C30.631 56.2707 30.9084 55.8646 31.2271 55.334C31.8697 54.264 32.6503 52.7371 33.215 50.9125C34.3258 47.3231 34.5916 42.7027 31.3865 37.8484C30.5517 36.584 30.5029 34.9565 31.2604 33.6444L32.8968 30.8101C33.6543 29.498 35.0882 28.7265 36.6006 28.8173C42.407 29.1658 46.2755 26.6255 48.8287 23.8687C50.1265 22.4674 51.0585 21.028 51.6638 19.9365C51.9641 19.3952 52.177 18.9519 52.3091 18.6593C52.3674 18.5302 52.4095 18.4313 52.436 18.3673L33.7456 7.57632C33.7034 7.63133 33.6388 7.71724 33.5561 7.83224C33.3687 8.09295 33.0913 8.49901 32.7726 9.02966C32.1301 10.0996 31.3495 11.6265 30.7848 13.4511C29.674 17.0406 29.4082 21.661 32.6133 26.5153C33.4481 27.7796 33.4969 29.4071 32.7393 30.7192L31.103 33.5535ZM32.3966 2.17868L34.3284 3.294L55.8532 15.7214L57.785 16.8367L57.845 16.8713L59.2621 17.6895C60.0448 18.1414 60.3129 19.1422 59.8611 19.9248C59.6307 20.3238 59.2577 20.589 58.8438 20.6934C58.4456 20.7938 58.0095 20.7453 57.6257 20.5238L56.2086 19.7056C56.2086 19.7056 56.1988 19.7318 56.1788 19.7819C56.1374 19.8857 56.0525 20.0917 55.9211 20.3794C55.6314 21.0133 55.1158 22.0433 54.3424 23.2469C51.7219 27.3252 46.1414 33.3972 36.3609 32.8101L34.7245 35.6444C40.1232 43.8211 37.6549 51.6898 35.4333 55.9984C34.7776 57.2701 34.1434 58.2316 33.7393 58.7994C33.5559 59.057 33.4199 59.2336 33.3507 59.3213C33.3173 59.3637 33.2995 59.3853 33.2995 59.3853L34.7167 60.2035C35.1004 60.425 35.3604 60.7785 35.4726 61.1735C35.5892 61.5842 35.5459 62.0398 35.3156 62.4388C34.8637 63.2215 33.863 63.4896 33.0803 63.0377L31.6632 62.2196L31.6032 62.1849L29.6714 61.0696L8.14653 48.6422L6.21475 47.5269L6.15478 47.4923L4.73765 46.6741C3.95498 46.2222 3.68682 45.2215 4.13869 44.4388C4.36903 44.0398 4.742 43.7746 5.156 43.6702C5.55417 43.5698 5.9903 43.6183 6.37401 43.8398L7.79114 44.658C7.79114 44.658 7.80097 44.6318 7.82095 44.5817C7.86232 44.478 7.94724 44.2719 8.07868 43.9843C8.36834 43.3504 8.88394 42.3204 9.65736 41.1167C12.2779 37.0384 17.8583 30.9664 27.6389 31.5535L29.2752 28.7192C23.8765 20.5425 26.3448 12.6738 28.5665 8.36519C29.2222 7.09354 29.8564 6.13202 30.2605 5.56422C30.4439 5.30658 30.5799 5.13 30.649 5.0423C30.6824 4.99994 30.7002 4.97832 30.7002 4.97832L29.2831 4.16014C28.8994 3.93861 28.6394 3.58514 28.5272 3.19013C28.4106 2.77941 28.4538 2.32378 28.6841 1.92482C29.136 1.14216 30.1368 0.874004 30.9195 1.32587L32.3366 2.14406L32.3966 2.17868ZM33.7425 15.0299C34.2783 15.1638 34.604 15.7068 34.47 16.2426C34.0107 18.0797 34.0289 19.8221 34.8942 21.5528C35.1412 22.0468 34.941 22.6474 34.447 22.8944C33.953 23.1414 33.3524 22.9412 33.1054 22.4472C31.9707 20.1778 31.989 17.9203 32.5298 15.7574C32.6637 15.2216 33.2067 14.8959 33.7425 15.0299ZM34.9999 14C35.8283 14 36.4999 13.3284 36.4999 12.5C36.4999 11.6716 35.8283 11 34.9999 11C34.1715 11 33.4999 11.6716 33.4999 12.5C33.4999 13.3284 34.1715 14 34.9999 14Z" fill="black" fill-opacity="0.2"/>
</svg>
