<svg width="40" height="32" viewBox="0 0 40 32" fill="none" xmlns="http://www.w3.org/2000/svg">
<path fill-rule="evenodd" clip-rule="evenodd" d="M40 20C40 8.9543 31.0457 0 20 0C8.9543 0 0 8.9543 0 20C0 24.5024 1.48778 28.6574 3.99853 32H4H6.58336H33.4166H36H36.0015C38.5122 28.6574 40 24.5024 40 20ZM34.9689 30C36.8835 27.1398 38 23.7003 38 20C38 10.0589 29.9411 2 20 2C10.0589 2 2 10.0589 2 20C2 23.7003 3.11654 27.1398 5.0311 30H34.9689ZM20 26C21.1046 26 22 25.1046 22 24C22 22.9746 21.2284 22.1295 20.2341 22.0136L18.0136 24.2341C18.1295 25.2284 18.9746 26 20 26ZM21.8226 20.4251L21.8138 20.4339C23.1113 21.0952 24 22.4438 24 24C24 26.2091 22.2091 28 20 28C18.4438 28 17.0952 27.1113 16.4339 25.8138L16.4251 25.8226L11.8445 16.553L12.5516 15.8459L21.8226 20.4251ZM9 23.5C9 24.6046 8.10457 25.5 7 25.5C5.89543 25.5 5 24.6046 5 23.5C5 22.3954 5.89543 21.5 7 21.5C8.10457 21.5 9 22.3954 9 23.5ZM33 25.5C34.1046 25.5 35 24.6046 35 23.5C35 22.3954 34.1046 21.5 33 21.5C31.8954 21.5 31 22.3954 31 23.5C31 24.6046 31.8954 25.5 33 25.5ZM9 16.5C9 17.6046 8.10457 18.5 7 18.5C5.89543 18.5 5 17.6046 5 16.5C5 15.3954 5.89543 14.5 7 14.5C8.10457 14.5 9 15.3954 9 16.5ZM33 18.5C34.1046 18.5 35 17.6046 35 16.5C35 15.3954 34.1046 14.5 33 14.5C31.8954 14.5 31 15.3954 31 16.5C31 17.6046 31.8954 18.5 33 18.5ZM18.5 7C18.5 8.10457 17.6046 9 16.5 9C15.3954 9 14.5 8.10457 14.5 7C14.5 5.89543 15.3954 5 16.5 5C17.6046 5 18.5 5.89543 18.5 7ZM10.5 12.5C11.6046 12.5 12.5 11.6046 12.5 10.5C12.5 9.39543 11.6046 8.5 10.5 8.5C9.39543 8.5 8.5 9.39543 8.5 10.5C8.5 11.6046 9.39543 12.5 10.5 12.5ZM31.5 10.5C31.5 11.6046 30.6046 12.5 29.5 12.5C28.3954 12.5 27.5 11.6046 27.5 10.5C27.5 9.39543 28.3954 8.5 29.5 8.5C30.6046 8.5 31.5 9.39543 31.5 10.5ZM23.5 9C24.6046 9 25.5 8.10457 25.5 7C25.5 5.89543 24.6046 5 23.5 5C22.3954 5 21.5 5.89543 21.5 7C21.5 8.10457 22.3954 9 23.5 9Z" fill="white"/>
</svg>
