<?xml version="1.0" encoding="UTF-8"?>
<svg class="sprite" width="500px" height="500px" viewBox="0 0 500 500" version="1.1" xmlns="http://www.w3.org/2000/svg" xmlns:xlink="http://www.w3.org/1999/xlink">
    <!-- Generator: Sketch 55.2 (78181) - https://sketchapp.com -->
    <title>Artboard</title>
    <desc>Created with Sketch.</desc>
    <defs>
        <linearGradient x1="0%" y1="10.2291666%" x2="100%" y2="10.2291666%" id="linearGradient-1">
            <stop stop-color="#F22B2B" offset="0%"></stop>
            <stop stop-color="#FF5E5E" offset="100%"></stop>
        </linearGradient>
        <linearGradient x1="50.9139573%" y1="7.38900791%" x2="50%" y2="100%" id="linearGradient-2">
            <stop stop-color="#D9D8DC" offset="0%"></stop>
            <stop stop-color="#FFFFFF" stop-opacity="0.385275136" offset="100%"></stop>
        </linearGradient>
        <linearGradient x1="58.4889171%" y1="7.69121524%" x2="50%" y2="100%" id="linearGradient-3">
            <stop stop-color="#8D67AF" stop-opacity="0.671931612" offset="0%"></stop>
            <stop stop-color="#9F8DAF" offset="100%"></stop>
        </linearGradient>
        <linearGradient x1="54.2330909%" y1="31.4346391%" x2="54.2330921%" y2="98.2279808%" id="linearGradient-4">
            <stop stop-color="#26053D" stop-opacity="0.761633832" offset="0%"></stop>
            <stop stop-color="#B7B4B4" stop-opacity="0.277683424" offset="100%"></stop>
        </linearGradient>
        <linearGradient x1="21.6252492%" y1="-14.9077137%" x2="50%" y2="124.102395%" id="linearGradient-5">
            <stop stop-color="#91739F" stop-opacity="0.459550498" offset="0%"></stop>
            <stop stop-color="#32054F" stop-opacity="0.539911685" offset="100%"></stop>
        </linearGradient>
        <linearGradient x1="68.2991825%" y1="96.4102284%" x2="25.404732%" y2="21.2268885%" id="linearGradient-6">
            <stop stop-color="#463D49" stop-opacity="0.331182065" offset="0%"></stop>
            <stop stop-color="#340A50" stop-opacity="0.821388134" offset="100%"></stop>
        </linearGradient>
        <linearGradient x1="60.3891017%" y1="7.41856094%" x2="50%" y2="100%" id="linearGradient-7">
            <stop stop-color="#715383" stop-opacity="0.145238904" offset="0%"></stop>
            <stop stop-color="#F4F4F4" stop-opacity="0.23363904" offset="100%"></stop>
        </linearGradient>
        <linearGradient x1="80.2552921%" y1="72.6651407%" x2="35.7020947%" y2="50%" id="linearGradient-8">
            <stop stop-color="#A5A1A8" stop-opacity="0.356091486" offset="0%"></stop>
            <stop stop-color="#370C50" stop-opacity="0.581974638" offset="100%"></stop>
        </linearGradient>
    </defs>
    <g id="Artboard" stroke="none" stroke-width="1" fill="none" fill-rule="evenodd">
        <g class="sprite--go" id="Go" transform="translate(100.000000, 0.000000)" fill-rule="nonzero">
            <path d="M78,22.118034 L41,40.618034 L41,87.263932 L78,68.763932 L78,22.118034 Z M76.645898,20.559017 L40,2.23606798 L3.35410197,20.559017 L40,38.881966 L76.645898,20.559017 Z M2,22.118034 L2,68.763932 L39,87.263932 L39,40.618034 L2,22.118034 Z M0,20 L40,0 L80,20 L80,70 L40,90 L0,70 L0,20 Z M23,20 L27,18 L41,25 L37,27 L23,20 Z M37,13 L41,11 L55,18 L51,20 L37,13 Z" id="Rectangle-9" fill="#363636"></path>
            <g id="go-9192ee98c4a9c19c96b7f69825b3445638c3a4b6129c936012acf74390bfe240" transform="translate(51.000000, 35.000000)">
                <path d="M1.01587302,24.9624617 C0.942851657,24.9970134 0.870602521,25.0073149 0.804884005,24.9925454 C0.651776457,24.9383266 0.55893501,24.7498422 0.562637363,24.5007422 C0.464395521,24.4767843 0.398049108,24.3727182 0.386813187,24.2249573 C0.415168418,23.843622 0.558122219,23.4465399 0.777533578,23.139655 C1.19905726,22.5421446 1.7103046,22.127863 2.21929182,21.971348 L2.27789988,21.9447578 L2.27789988,22.026809 C2.2860646,22.3351619 2.27953846,22.6505941 2.25836386,22.971057 C2.25836386,23.0640485 2.25836386,23.1515699 2.25836386,23.2445613 C2.23882784,23.6800914 2.18021978,23.7723226 2.02393162,23.8979307 C1.94055329,23.9718991 1.86152702,24.0612274 1.78949939,24.162924 C1.56468484,24.5080459 1.2976418,24.7840331 1.01587302,24.9624617 Z" id="Path" fill="#010101"></path>
                <path d="M2.00830281,22.2530556 C1.59796658,22.4303379 1.19605173,22.784934 0.85958486,23.2665313 C0.682896625,23.5175181 0.564202025,23.8364539 0.531379731,24.1484279 C0.541167359,24.248292 0.59281934,24.3120585 0.664224664,24.3124303 L0.703296703,24.2947035 L0.703296703,24.3548744 C0.691809923,24.553308 0.754242386,24.7122801 0.867399267,24.7727295 C1.16699603,24.701868 1.47178181,24.4393843 1.6996337,24.0560033 C1.7811509,23.9389968 1.87068605,23.8357005 1.96532357,23.7494782 C2.06691087,23.6541577 2.09035409,23.6325815 2.10598291,23.2863454 C2.10598291,23.193354 2.10598291,23.1058326 2.10598291,23.0128412 C2.12427332,22.7318224 2.13209898,22.454374 2.12942613,22.1816923 L2.00830281,22.2366453 L2.00830281,22.2530556 Z" id="Path" fill="#F6D2A2"></path>
                <path d="M0.632967033,24.3867827 C0.744647352,24.3014988 0.846569624,24.1753501 0.926007326,24.0240881" id="Path" fill="#C7B199"></path>
                <path d="M0.56300681,24.4951764 C0.54414369,24.4794909 0.535951892,24.4467167 0.541517189,24.4091996 C0.547082485,24.3716825 0.565559374,24.3351223 0.58998779,24.3132907 L0.636874237,24.2920185 C0.719437088,24.2277501 0.794320088,24.1327804 0.851770452,24.0194784 C0.867125455,23.9841749 0.892112344,23.9581226 0.917318799,23.951135 C0.942525253,23.9441474 0.964121812,23.9572862 0.973973259,23.9856021 C0.983824706,24.0139179 0.980434373,24.0531091 0.965079365,24.0884125 C0.891218495,24.2407459 0.792982473,24.3693615 0.683760684,24.4567293 L0.636874237,24.4780014 C0.608538617,24.5070758 0.58186993,24.5108619 0.56300681,24.4951764 Z" id="Path" fill="#010101"></path>
                <path d="M15.6561661,33.3629635 C15.3318681,33.4827455 15.0661783,33.1602108 14.8083028,32.8560112 C14.6301218,32.5739208 14.3878175,32.3917418 14.1050061,32.3272304 L14.0112332,32.3314841 L14.0698413,32.1681418 C14.3604874,31.3872363 14.8225068,30.7156009 15.3553114,30.2994598 L15.3826618,30.2870511 L15.406105,30.276415 C15.769475,30.4288207 16.5196581,31.0074404 16.5157661,31.8406592 C16.5111631,32.1773547 16.376248,32.5428736 16.1641026,32.7933697 C16.0430352,33.0443251 15.8718963,33.2437311 15.6874237,33.348782 L15.6561661,33.3629635 Z" id="Path" fill="#010101"></path>
                <path d="M14.9098901,32.6786394 C15.0807185,32.9939859 15.3471074,33.1664317 15.6600733,33.1642878 C15.8096573,33.0874553 15.9504184,32.9309718 16.0507937,32.7299057 C16.224517,32.532187 16.3361365,32.2365861 16.3399267,31.9641974 C16.3399267,31.296847 15.7382173,30.7329167 15.3201465,30.5451576 C14.8747498,30.9075547 14.4885314,31.4712295 14.237851,32.124737 C14.4989947,32.2245005 14.7290917,32.4124495 14.9098901,32.6786394 Z" id="Path" fill="#F6D2A2"></path>
                <path d="M16.1211233,32.8785102 C16.0945815,32.8902946 16.0704041,32.8801085 16.0586081,32.8521723 C16.0172826,32.7498437 15.9807599,32.6422366 15.9492063,32.5298415 C15.9016654,32.3038121 15.8133464,32.1153232 15.6913309,31.979488 C15.6632783,31.9544522 15.6624037,31.8923985 15.6893773,31.8408871 C15.7163509,31.7893757 15.7609584,31.767913 15.789011,31.7929487 C15.9239216,31.9379377 16.0228854,32.1401803 16.0781441,32.3838217 C16.1087634,32.4892086 16.1439799,32.5900977 16.1836386,32.6860448 C16.2006449,32.7266908 16.1867124,32.7915282 16.152381,32.8315083 L16.1211233,32.8785102 Z" id="Path" fill="#010101"></path>
                <path d="M3.14529915,39.3125908 C2.99715968,39.3126941 2.8746092,39.2203889 2.80537241,39.056557 C2.72879275,39.0905183 2.65731367,39.0698493 2.61391941,39.0011961 C2.14505495,38.1800716 2.94212454,37.0362226 3.46959707,36.2772526 L3.65323565,36.0079538 C4.39169719,35.4650539 4.86056166,36.1056656 5.23565324,36.6247191 L5.34114774,36.7737798 L5.22393162,36.8269602 C4.84688835,37.1241408 4.50372881,37.5551722 4.23540904,38.0686107 C4.05545362,38.3818688 3.85907485,38.6762463 3.64932845,38.9471623 C3.53332668,39.0896465 3.40290312,39.1958792 3.27032967,39.2558645 C3.22883359,39.2823764 3.18679522,39.301449 3.14529915,39.3125908 Z" id="Path" fill="#010101"></path>
                <path d="M2.8014652,38.8340562 C2.82849423,38.8134917 2.85648745,38.8007913 2.88351648,38.7968299 L2.9030525,38.7879665 L2.93431013,38.8613064 C2.98565114,38.9943243 3.08012895,39.0718841 3.1960928,39.0762121 C3.33356848,39.0427718 3.47369142,38.9321174 3.58681319,38.767662 C3.789451,38.5061437 3.97927183,38.2220855 4.15335775,37.9198541 C4.41709009,37.4311353 4.73990284,37.0090133 5.09499389,36.6885356 C4.73553114,36.1952119 4.31355311,35.6755503 3.7001221,36.1179636 L3.52429792,36.372777 C2.98510379,37.1644154 2.31697192,38.1130139 2.7037851,38.8072621 C2.721351,38.841017 2.75156961,38.855511 2.78583639,38.846617 L2.8014652,38.8340562 Z" id="Path" fill="#F6D2A2"></path>
                <path d="M2.79193123,39.017965 C2.77778762,38.9979805 2.77403223,38.9651186 2.78192918,38.930441 C2.81073794,38.6546001 2.88895085,38.3718007 3.00854701,38.1110443 C3.06511009,37.9767806 3.11479009,37.8389311 3.15702076,37.6990671 C3.17320493,37.6418771 3.21518848,37.600788 3.25079365,37.607292 C3.28639882,37.6137959 3.30214265,37.66543 3.28595849,37.7226199 C3.24058798,37.8753637 3.18698193,38.0259856 3.12576313,38.1727357 C3.02259801,38.4053818 2.95652932,38.6562151 2.93431013,38.899597 C2.93347323,38.9282377 2.92399538,38.9589299 2.90829213,38.9838514 C2.89258888,39.0087729 2.87217707,39.0255164 2.85225885,39.0298148 C2.82872555,39.0423987 2.80607485,39.0379495 2.79193123,39.017965 Z" id="Path" fill="#010101"></path>
                <path d="M17.3909646,16.9861498 C17.318937,16.9498104 17.2399107,16.9321898 17.1565324,16.9338781 C17.0002442,16.9282042 16.9416361,16.8891533 16.9221001,16.4932304 C16.9221001,16.400239 16.9221001,16.3127176 16.9221001,16.2197261 C16.9009255,15.9184768 16.8943994,15.6089664 16.9025641,15.2932049 L16.9025641,15.1619229 L16.9611722,15.1353327 C17.4701594,14.8299974 17.9814067,14.7803779 18.4029304,14.9954016 C18.6223418,15.1031947 18.7652956,15.3705618 18.7936508,15.7261678 C18.7824149,15.8841241 18.7160685,16.0483923 18.6178266,16.161494 C18.621529,16.4072345 18.5286875,16.6799624 18.37558,16.8731096 C18.3012128,16.9555379 18.2190711,17.0135425 18.1372405,17.041414 C17.8687041,17.122376 17.6119496,17.1033625 17.3909646,16.9861498 Z" id="Path" fill="#010101"></path>
                <path d="M17.0236874,16.1134655 C17.0236874,16.206457 17.0236874,16.2939783 17.0236874,16.3869698 C17.0236874,16.720645 17.0588523,16.715631 17.1643468,16.7224695 C17.2589843,16.7228186 17.3485194,16.7448716 17.4300366,16.7879102 C17.6576206,16.9653448 17.9626386,16.9512579 18.2622711,16.7494746 C18.3754279,16.5863476 18.4378604,16.3707249 18.4263736,16.1827143 L18.4263736,16.1170733 L18.4654457,16.0993465 C18.536851,16.0341821 18.588503,15.9235471 18.5982906,15.8148018 C18.5654683,15.5326105 18.4467737,15.3213771 18.2700855,15.2307155 C17.8999229,15.0338447 17.4520673,15.0595461 17.0002442,15.3035888 C16.9976087,15.5786782 17.0054343,15.8490229 17.0236874,16.1134655 Z" id="Path" fill="#F6D2A2"></path>
                <path d="M18.4927961,16.2510403 L18.4459096,16.2723124 C18.3364984,16.2732275 18.2408119,16.2209535 18.1724054,16.1228958 C18.1486686,16.0898599 18.1547912,16.0246316 18.1860806,15.9772042 C18.21737,15.9297769 18.2619775,15.9181103 18.2857143,15.9511462 C18.3431646,16.0123182 18.4180476,16.0393398 18.5006105,16.0286915 L18.5474969,16.0074193 C18.5906547,15.9984125 18.6195184,16.0428696 18.6119658,16.1067171 C18.6044132,16.1705646 18.5633043,16.2296247 18.5201465,16.2386315 L18.4927961,16.2510403 Z" id="Path" fill="#010101"></path>
                <g id="Group-18" transform="translate(0.913508, 0.549286)">
                    <path d="M1.45816458,12.1475698 L1.40346373,12.1747808 C0.598579724,12.2579065 0.102364828,11.8373988 0.00859193405,10.9924223 C-0.0592036129,10.0373958 0.278188933,8.91215136 0.879898405,8.08651111 C1.5357206,7.17940835 2.37845633,6.79922679 3.00541733,7.12763034 L3.06011819,7.14965009 L1.45816458,12.1475698 Z" id="Path" fill="#010101"></path>
                    <path d="M1.84888497,7.36927373 C1.52824836,7.52935359 1.21465501,7.81649007 0.946320872,8.19569138 C0.389373236,8.95659698 0.0760852427,9.99600547 0.137529663,10.8790513 C0.223488149,11.6294536 0.661094987,12.0134748 1.3761133,11.9586427 L2.86085079,7.2980067 C2.56052348,7.18443643 2.21477673,7.21272763 1.86060659,7.37985306 L1.84888497,7.36927373 Z" id="Path" fill="#74CDDD"></path>
                    <path d="M1.54021587,10.6024797 C1.14949547,10.5233398 0.895527221,10.2722408 1.12214505,9.55780006 C1.34876287,8.84335931 1.72385445,8.76070111 2.09894602,8.84761556 L1.54021587,10.6024797 Z" id="Path" fill="#010101"></path>
                    <path d="M15.5983355,4.67591545 L13.8791658,1.37385383 L13.9299595,1.29935569 C14.5151535,0.351541954 15.3261331,-0.147035931 15.9812415,0.0382588548 C16.59748,0.236976017 16.9584877,1.00477305 16.9150632,2.02432624 C16.8759912,2.59077123 16.6650022,3.63111262 15.6530364,4.62135401 L15.5983355,4.67591545 Z" id="Path" fill="#010101"></path>
                    <path d="M14.0667116,1.33525978 L15.6608508,4.40413339 C16.2523608,3.88530553 16.6907502,2.96949681 16.7744039,2.07788717 C16.8161143,1.13279679 16.4820306,0.420694737 15.9109118,0.23734701 C15.3268744,0.0591279949 14.5984767,0.492766959 14.0667116,1.33525978 Z" id="Path" fill="#74CDDD"></path>
                    <path d="M15.2252615,3.05376731 C15.6159818,2.58589864 15.8699501,2.08212589 15.6433323,1.59314783 C15.4167144,1.10416978 15.0416229,1.39469123 14.6665313,1.85478532 L15.2252615,3.05376731 Z" id="Path" fill="#010101"></path>
                </g>
                <path d="M9.36947497,36.2136221 L8.88498168,36.4576848 C7.72032705,36.9985726 6.569641,37.2564065 5.48180708,37.220233 C4.37426605,37.216122 3.42687477,36.6434233 2.78192918,35.5881549 C1.60976801,33.5311076 1.82075702,29.7708052 2.0004884,26.4529154 C2.04737485,25.6197238 2.09035409,24.826791 2.10989011,24.0948985 C2.13059416,22.5538924 2.08361792,21.0466532 1.96923077,19.5818238 C1.80512821,16.9294474 1.63321123,14.1880161 2.28962149,11.1168378 C2.71781825,8.9544369 3.71013993,6.84898015 5.02466422,5.31376577 C6.07960928,4.0602878 7.36898657,2.99503981 9.26398046,1.83257678 C12.0537241,0.399898018 14.8043956,-0.438739302 16.2188034,2.72704589 C17.1252747,5.38836131 17.1369963,8.73014888 17.1526252,11.9605665 C17.1526252,13.1749255 17.1526252,14.427575 17.2151404,15.6213822 C17.2151404,15.993348 17.246398,16.355038 17.2659341,16.7226326 C17.4300366,20.1900517 17.6175824,24.1270289 16.4493284,27.9757056 C14.9880342,32.7925138 11.3152625,35.2334352 9.36947497,36.2136221 Z" id="Path" fill="#010101"></path>
                <path d="M9.2952381,1.98640346 C6.35311355,3.81857889 3.48522589,6.14942601 2.43028083,11.0842715 C1.78168498,14.1132227 1.95360195,16.8327737 2.11379731,19.4488277 C2.22856989,20.9207429 2.27554629,22.4352949 2.25445665,23.9837828 C2.23492063,24.7211454 2.18803419,25.5160464 2.14505495,26.3527399 C1.96532357,29.6378091 1.75433455,33.3707611 2.8991453,35.3814152 C3.37973138,36.2333379 4.92698413,38.008442 8.88888889,36.1931524 C10.6041514,35.4166134 14.7496947,33.0547991 16.3125763,27.9242524 C17.4612943,24.1291775 17.2776557,20.2230527 17.1135531,16.7775139 C17.1135531,16.3946079 17.0783883,16.0348863 17.0627595,15.6762635 C17.0197802,14.5054356 17.0002442,13.2571572 17.0002442,12.0427982 C17.0002442,8.82638795 16.976801,5.49050513 16.0781441,2.87995407 C15.5000941,1.50596283 14.47677,0.742094826 13.2297924,0.75364834 C11.9584287,0.831929078 10.6276927,1.24882403 9.2952381,1.98640346 Z" id="Path" fill="#74CDDD"></path>
                <g id="Group-17" transform="translate(4.444444, 5.354386)">
                    <path d="M6.04483563,12.0656322 L6.02529961,12.0751305 C5.77277805,12.1429843 5.55848717,12.0133723 5.45875505,11.7324608 C5.42630233,11.3063269 5.42630233,10.8609205 5.45875505,10.40323 C5.45875505,10.2008369 5.48219827,9.97610562 5.48610547,9.76634272 L5.48610547,9.60224016 L6.54105053,9.54335038 L6.54105053,9.63634183 C6.54105053,9.81138456 6.54105053,9.99736747 6.56058655,10.1738521 C6.59585038,10.5471755 6.59585038,10.942307 6.56058655,11.3499205 L6.56058655,11.3772709 C6.47784938,11.6066194 6.3439523,11.8058982 6.18940218,11.9297039 L6.06827886,12.0542343 L6.04483563,12.0656322 Z" id="Path" fill="#010101"></path>
                    <path d="M6.02920682,11.8708377 L6.13860853,11.7574764 C6.25635629,11.6605453 6.35856826,11.5089186 6.42383441,11.3343571 C6.45484308,10.9559006 6.45484308,10.5886442 6.42383441,10.24034 C6.42383441,10.0707674 6.42383441,9.90666481 6.40429839,9.75206053 L5.62285761,9.79831633 C5.62285761,9.96788898 5.62285761,10.1374616 5.59941439,10.3129621 C5.56480097,10.7529924 5.56087375,11.1819214 5.58769277,11.593191 C5.67096009,11.8118144 5.83479307,11.9144242 6.02920682,11.8708377 Z" id="Path" fill="#FFFFFF"></path>
                    <path d="M4.72810792,12.5690638 C4.39599558,12.4625003 4.18891378,11.4636949 4.42334601,10.5292028 L4.42334601,10.4854421 L5.59550718,9.49981904 L5.59550718,9.6311011 C5.59550718,9.84443443 5.59550718,10.0577678 5.56815676,10.2734585 C5.53634011,10.7180882 5.53634011,11.150707 5.56815676,11.5643987 L5.56815676,11.6026893 L5.56815676,11.6355098 C5.43968042,12.0332431 5.2014369,12.3741644 4.93128252,12.5468883 C4.85982987,12.5825659 4.78955673,12.5902446 4.72810792,12.5690638 Z" id="Path" fill="#010101"></path>
                    <path d="M4.54446933,10.6070656 C4.37645956,11.3287507 4.5093045,12.2651881 4.80234479,12.3579277 C5.0133338,12.4249189 5.24776603,12.015555 5.4118686,11.6403849 C5.38214327,11.2255299 5.38214327,10.7932042 5.4118686,10.3494447 C5.4118686,10.1908122 5.4118686,10.0212396 5.43531182,9.84573909 L4.54446933,10.6070656 Z" id="Path" fill="#FFFFFF"></path>
                    <path d="M6.27926787,9.8073794 C6.08604884,9.76775577 5.87664871,9.7879251 5.66192965,9.86684115 C5.43815429,9.97551648 5.21696938,10.15021 5.0133338,10.379107 C4.57572696,10.8052017 4.07951207,11.2871416 3.79819339,10.7182758 C3.65629288,10.4301283 3.65629288,9.99568736 3.79819339,9.56955782 C3.95232836,9.07704027 4.24582478,8.6528813 4.57963417,8.44022509 L6.45899925,7.4116192 C6.92004931,7.46096417 7.44752183,7.70228851 7.53738752,8.23842551 C7.56487983,8.51118946 7.50657576,8.8288393 7.37631233,9.11598872 C7.2460489,9.40313814 7.05543917,9.63418761 6.84971964,9.75430326 C6.65109382,9.82772426 6.45746411,9.84574001 6.27926787,9.8073794 Z" id="Path" fill="#231F20"></path>
                    <path d="M5.67755846,9.66231945 C5.90857145,9.57624987 6.1339474,9.55390742 6.34178313,9.5964721 C6.69343148,9.63336639 6.97084296,9.65712336 7.25216164,9.09368152 C7.38270888,8.8622839 7.44309914,8.58340767 7.412357,8.35391532 C7.33421292,7.88866056 6.83799803,7.67042958 6.43164882,7.62730995 L4.614799,8.61458119 C4.33092147,8.80129325 4.08243372,9.16357786 3.95057434,9.58299264 C3.83307057,9.93800788 3.83307057,10.2995014 3.95057434,10.5402576 C4.17328496,10.9789858 4.57181976,10.6047082 4.99770498,10.1952526 C5.21155064,9.95727348 5.44326758,9.77563193 5.67755846,9.66231945 Z" id="Path" fill="#F6D2A2"></path>
                    <path d="M6.54886494,7.13818354 C6.76766835,8.18052081 4.59526298,9.49929314 4.50539729,8.52554931 C4.46241805,7.17892415 6.33006152,6.09584628 6.54886494,7.13818354 Z" id="Path" fill="#010101"></path>
                    <path d="M10.5303057,1.58670851 C9.9090603,-1.84731471 5.72444491,1.22106205 5.89245468,4.96843671" id="Path" fill="#FFFFFF"></path>
                    <path d="M7.30295529,6.7770202 C6.51403155,6.79519755 5.94155443,6.11304252 5.82603221,5.0171411 C5.77293407,4.14881226 5.99464382,3.15759048 6.43555602,2.29207696 C6.85369517,1.48819698 7.40436343,0.83499815 7.99843759,0.43819783 C8.54290464,0.0528414154 9.10058763,-0.0836870017 9.58476237,0.0498438455 C10.1071182,0.222997609 10.4750649,0.762097842 10.5967282,1.53253403 C10.811254,2.48622908 10.5779661,3.73640049 9.99501878,4.75704673 C9.4908771,5.60320506 8.84810089,6.2402995 8.18598337,6.55009131 C7.88564864,6.69787747 7.58720828,6.77457349 7.30295529,6.7770202 Z" id="Path" fill="#010101"></path>
                    <path d="M7.34984174,6.57371152 C8.22915571,6.55786824 9.19807739,5.8299841 9.9090603,4.65114683 C10.4459487,3.69641995 10.6614951,2.53650055 10.4677905,1.64445342 C10.2183868,0.218522225 9.13264931,-0.239435613 8.02188081,0.612782805 C6.81034244,1.34702388 5.89934604,3.25410705 5.96278435,4.92330275 C6.07189191,5.95131211 6.60942415,6.59090203 7.34984174,6.57371152 Z" id="Path" fill="#FFFFFF"></path>
                    <path d="M7.08415187,5.26425558 C7.46178247,5.08065424 7.76791256,4.45915109 7.76791256,3.87608945 C7.76791256,3.2930278 7.46178247,2.96920125 7.08415187,3.15280259 C6.70652127,3.33640394 6.40039119,3.95790708 6.40039119,4.54096873 C6.40039119,5.12403037 6.70652127,5.44785693 7.08415187,5.26425558 Z" id="Oval" fill="#010101"></path>
                    <path d="M7.39282098,4.56717428 C7.48129443,4.52415911 7.55301634,4.36928543 7.55301634,4.22125424 C7.55301634,4.07322304 7.48129443,3.98809074 7.39282098,4.03110591 C7.30434753,4.07412108 7.23262562,4.22899476 7.23262562,4.37702595 C7.23262562,4.52505715 7.30434753,4.61018946 7.39282098,4.56717428 Z" id="Oval" fill="#FFFFFF"></path>
                    <path d="M4.74373673,5.2643712 C4.56009815,1.03228747 -0.499730913,4.30738355 0.129328916,8.44324848" id="Path" fill="#FFFFFF"></path>
                    <path d="M1.12566591,9.91712703 C0.590778341,9.77137331 0.205416604,9.25199996 0.0668136539,8.49005322 C-0.141267691,7.44855163 0.145748795,6.10139963 0.801367988,5.04231977 C1.59148678,3.81413285 2.643753,3.11473019 3.55985395,3.20885559 C4.30749907,3.30298796 4.79597951,4.09130113 4.8101592,5.22660698 C4.89221048,7.10124414 3.80600779,8.74524569 2.76669155,9.50217788 C2.62024567,9.59844658 2.47263254,9.67935922 2.32517751,9.74418933 C1.90724545,9.95177618 1.49507509,10.0112002 1.12566591,9.91712703 Z" id="Path" fill="#010101"></path>
                    <path d="M2.75887715,9.33093445 C3.74349253,8.63341795 4.77108716,7.08355225 4.69294308,5.32188723 C4.6833055,4.25150622 4.22466011,3.50706039 3.52078191,3.41930513 C2.64975775,3.33095486 1.64971814,3.99660789 0.899048086,5.16440105 C0.289363487,6.15329649 0.0199659346,7.4072221 0.207472995,8.38337504 C0.488839826,9.82857846 1.62439353,10.2503088 2.75887715,9.33093445 Z" id="Path" fill="#FFFFFF"></path>
                    <path d="M1.26241805,8.35730577 C1.64652232,8.17055698 1.95790035,7.54650231 1.95790035,6.96344067 C1.95790035,6.38037903 1.64652232,6.05910398 1.26241805,6.24585278 C0.878313784,6.43260158 0.566935754,7.05665624 0.566935754,7.63971788 C0.566935754,8.22277953 0.878313784,8.54405457 1.26241805,8.35730577 Z" id="Oval" fill="#010101"></path>
                    <path d="M1.57890157,7.65642516 C1.66953291,7.61236084 1.74300413,7.45663666 1.74300413,7.30860546 C1.74300413,7.16057427 1.66953291,7.07629246 1.57890157,7.12035679 C1.48827022,7.16442111 1.414799,7.32014529 1.414799,7.46817649 C1.414799,7.61620768 1.48827022,7.70048948 1.57890157,7.65642516 Z" id="Oval" fill="#FFFFFF"></path>
                </g>
            </g>
            <g class="sprite--go--cog" id="For-GO" transform="translate(353.000000, 250.000000)">
                <path class="sprite-cog-frame" d="M8.84,9 L59.84,9 L59.84,60 L8.84,60 L8.84,9 Z M9.84,10 L9.84,59 L58.84,59 L58.84,10 L9.84,10 Z M8.84,9 L21.84,9 L21.84,22 L8.84,22 L8.84,9 Z M45.84,46 L59.84,46 L59.84,60 L45.84,60 L45.84,46 Z" id="Rectangle" fill="#FF00C8" fill-rule="nonzero"></path>
                <path class="sprite--go--cog-big" d="M28.5497088,24 C27.6871378,26.8885976 25.0057198,29.0004135 21.8404888,29.0004135 C21.2821699,29.0004135 20.7388989,28.9346927 20.2180062,28.8105803 L15.9375019,36.2246313 C17.7562862,36.9823426 19.7503446,37.4009097 21.8402407,37.4009097 C29.6543759,37.4009097 36.1281993,31.5505255 37.1114679,24 L28.5497088,24 Z M16.756293,17.1935565 L12.476972,9.78155515 C8.809209,12.599179 6.44069555,17.0285059 6.44069555,22.0004548 C6.44069555,26.9722393 8.80905238,31.4014378 12.4766082,34.219075 L16.7561448,26.8067003 C15.5693946,25.5518805 14.8406955,23.8595154 14.8406955,22.0002067 C14.8406955,20.1408207 15.5694553,18.4483921 16.756293,17.1935565 Z M28.5495853,20 L37.1113494,20 C36.1276793,12.4499143 29.6540621,6.6 21.8402407,6.6 C19.7505067,6.6 17.7565957,7.01850206 15.9379253,7.77610201 L20.2182161,15.1897831 C20.7390448,15.0657032 21.2822449,15 21.8404888,15 C25.0055688,15 27.6868819,17.1116143 28.5495853,20 Z M19.7894566,40.8912001 C18.9440641,40.8000455 18.1151001,40.6531989 17.3063192,40.454414 L15.2628544,43.0177726 L13.3696504,42.3287027 L13.4520731,39.0470677 C12.6971002,38.6739917 11.9703092,38.2522039 11.275833,37.7858365 L8.47104516,39.5004917 L6.92769111,38.2054638 L8.13059063,35.1421275 C7.55144232,34.5381251 7.01169171,33.8960602 6.51551734,33.2201106 L3.29181307,33.8723931 L2.28446026,32.1276069 L4.45660966,29.6671443 C4.11840672,28.9032325 3.82912528,28.1130217 3.59276384,27.3005097 L0.349849962,26.8123088 L-1.88293825e-13,24.828211 L2.88194093,23.259454 C2.85458816,22.843294 2.84069555,22.423519 2.84069555,22.0005612 C2.84069555,21.5772362 2.85461228,21.1570996 2.88201218,20.7405848 L-1.88293825e-13,19.171789 L0.349849962,17.1876912 L3.59310531,16.6994389 C3.82948098,15.8870746 4.11875829,15.0970065 4.45694059,14.3332306 L2.28446026,11.8723931 L3.29181307,10.1276069 L6.51623466,10.7800345 C7.0123012,10.1043217 7.55191567,9.46247507 8.13090329,8.85866873 L6.92769111,5.79453616 L8.47104516,4.49950834 L11.2767079,6.21469834 C11.9709281,5.74855845 12.6974351,5.32696357 13.4521009,4.95404088 L13.3696504,1.6712973 L15.2628544,0.982227388 L17.3070673,3.54652448 C18.1154866,3.34786349 18.9440691,3.20109395 19.7890656,3.10996433 L20.8333427,0 L22.8480484,0 L23.8923598,3.11006662 C24.7373106,3.2012255 25.5658431,3.34800779 26.3742105,3.54666657 L28.4185367,0.982227388 L30.3117407,1.6712973 L30.2292852,4.95423924 C30.9839039,5.32713668 31.7103635,5.7486945 32.4045383,6.21478691 L35.2103459,4.49950834 L36.7537,5.79453616 L35.5504503,8.85876419 C36.1294297,9.46254649 36.6690354,10.1043653 37.1650938,10.7800472 L40.389578,10.1276069 L41.3969308,11.8723931 L39.2244373,14.3332455 C39.5626231,15.0970165 39.8519024,15.8870793 40.0882794,16.6994379 L43.3315411,17.1876912 L43.6813911,19.171789 L40.7993788,20.7405849 C40.8267788,21.1570997 40.8406955,21.5772363 40.8406955,22.0005612 C40.8406955,22.423519 40.8268029,22.843294 40.7994501,23.2594539 L43.6813911,24.828211 L43.3315411,26.8123088 L40.0886209,27.3005107 C39.8522581,28.113017 39.5629747,28.9032225 39.2247683,29.6671294 L41.3969308,32.1276069 L40.389578,33.8723931 L37.1658111,33.220098 C36.6696449,33.8960166 36.1299031,34.5380537 35.550763,35.142032 L36.7537,38.2054638 L35.2103459,39.5004917 L32.4054132,37.7857479 C31.7109824,38.2520679 30.9842388,38.6738186 30.229313,39.0468693 L30.3117407,42.3287027 L28.4185367,43.0177726 L26.3749586,40.4542719 C25.5662296,40.6530546 24.7373156,40.799914 23.8919688,40.8910979 L22.8480484,44 L20.8333427,44 L19.7894566,40.8912001 Z M21.8406069,25.0001772 C23.49482,25.0001772 24.8406955,23.6543017 24.8406955,22.0000886 C24.8406955,20.3458755 23.49482,19 21.8406069,19 C20.1865711,19 18.8406955,20.3458755 18.8406955,22.0000886 C18.8406955,23.6543017 20.1865711,25.0001772 21.8406069,25.0001772 Z" id="Mask" fill="#000000"></path>
                <path class="sprite--go--cog-small" d="M37.9414672,47.5416175 C38.3981971,51.3757822 41.4479255,54.4257732 45.2816175,54.8828645 L45.2816175,49.3704327 C44.4304901,49.0686213 43.7547262,48.3928209 43.4529458,47.5416175 L37.9414672,47.5416175 Z M37.9415263,45.5416175 L43.4530087,45.5416175 C43.75482,44.6904976 44.4305491,44.0147701 45.2816175,43.7129796 L45.2816175,38.2008668 C41.4480909,38.6579384 38.3984602,41.7076859 37.9415263,45.5416175 Z M54.6230997,45.5416175 C54.1661239,41.7073539 51.115976,38.6574102 47.2816175,38.2007481 L47.2816175,43.7130104 C48.1327085,44.014816 48.8084191,44.6905265 49.1102247,45.5416175 L54.6230997,45.5416175 Z M54.6231588,47.5416175 L49.1102876,47.5416175 C48.8085129,48.392792 48.1327676,49.0685753 47.2816175,49.3704019 L47.2816175,54.8829831 C51.1161414,54.4263013 54.1663871,51.3761142 54.6231588,47.5416175 Z M44.2229199,58.3655246 C43.5096021,58.2416412 42.8176782,58.0545447 42.1531505,57.8102364 L39.6476429,60.0319986 L37.9155921,59.0319986 L38.5883788,55.7442577 C38.0419673,55.2866156 37.5367569,54.7813129 37.0792081,54.2348091 L33.7912365,54.9076429 L32.7912365,53.1755921 L35.0137091,50.6692835 C34.7696886,50.0051365 34.5828006,49.3136314 34.4590347,48.6007566 L31.2816175,47.5416175 L31.2816175,45.5416175 L34.4591654,44.4824349 C34.5829633,43.7696467 34.7698684,43.0782259 35.0138932,42.4141593 L32.7912365,39.9076429 L33.7912365,38.1755921 L37.0797148,38.8485297 C37.5371644,38.3022167 38.0422453,37.7970831 38.5885026,37.3395825 L37.9155921,34.0512365 L39.6476429,33.0512365 L42.1537156,35.2734998 C42.8179925,35.0293218 43.5096421,34.8423114 44.2226691,34.7184628 L45.2816175,31.5416175 L47.2816175,31.5416175 L48.3405116,34.7182998 C49.0536679,34.842101 49.7454386,35.0290749 50.4098282,35.273226 L52.9155921,33.0512365 L54.6476429,34.0512365 L53.974918,37.338676 C54.5215386,37.796351 55.0269391,38.3017127 55.4846556,38.8482973 L58.7719986,38.1755921 L59.7719986,39.9076429 L57.5503201,42.4130561 C57.7946033,43.0776129 57.9816786,43.7695701 58.1055454,44.4829268 L61.2816175,45.5416175 L61.2816175,47.5416175 L58.105676,48.6002647 C57.9818413,49.313708 57.7947832,50.0057495 57.5505043,50.6703867 L59.7719986,53.1755921 L58.7719986,54.9076429 L55.4851624,54.2350415 C55.0273467,54.781817 54.5218167,55.2873477 53.9750418,55.7451642 L54.6476429,59.0319986 L52.9155921,60.0319986 L50.4103933,57.8105102 C49.745753,58.0547916 49.0537079,58.2418517 48.3402608,58.3656877 L47.2816175,61.5416175 L45.2816175,61.5416175 L44.2229199,58.3655246 Z" id="Mask" fill="#000000"></path>
            </g>
        </g>
        <g class="sprite--rails" id="Rails" transform="translate(200.000000, 0.000000)">
            <path d="M78,22.118034 L41,40.618034 L41,87.263932 L78,68.763932 L78,22.118034 Z M76.645898,20.559017 L40,2.23606798 L3.35410197,20.559017 L40,38.881966 L76.645898,20.559017 Z M2,22.118034 L2,68.763932 L39,87.263932 L39,40.618034 L2,22.118034 Z M0,20 L40,0 L80,20 L80,70 L40,90 L0,70 L0,20 Z M23,20 L27,18 L41,25 L37,27 L23,20 Z M37,13 L41,11 L55,18 L51,20 L37,13 Z" id="Rectangle-9" fill="#363636" fill-rule="nonzero"></path>
            <path d="M49.3628731,72.0903377 L49.3628731,78.4295315 L50.6895796,77.7693176 L50.6895796,76.1182692 L51.8970039,76.9888759 L53.932665,75.9758622 L52.3179738,74.8115979 C52.3179738,74.8115979 53.4795721,74.2105516 53.5674052,72.1196632 C53.5674052,70.2413937 52.404459,70.576742 51.061354,71.2451163 L49.3628731,72.0903377 Z M50.7527027,73.1182002 L51.8970039,72.5487573 L51.8970039,73.6780186 L50.7527027,74.2474615 L50.7527027,73.1182002 Z M56.4951001,68.5668345 C55.7686238,68.9231522 54.7611266,69.5066449 54.7611266,71.1749402 L54.7611266,75.5808388 L56.1228765,74.9031861 L56.1228765,73.825118 L57.4426193,73.1683695 L57.4426193,74.2207041 L58.8115576,73.5394743 L58.8115576,68.9197689 C58.8115576,67.4707556 57.490467,68.0715064 56.7828602,68.4236354 C56.6943532,68.4676795 56.5988824,68.5160102 56.4951001,68.5668345 Z M56.1439924,70.3326525 L57.421728,69.6968082 L57.421728,71.4335436 L56.1439924,72.069388 L56.1439924,70.3326525 Z M60.1760031,66.7391995 L61.5849269,66.0380716 L61.5849269,72.1024101 L60.1760031,72.803538 L60.1760031,66.7391995 Z M63.0605678,65.3842284 L63.0605678,71.4485669 L66.4512397,69.7612543 L66.4512397,68.1512698 L64.4477017,69.1482979 L64.4477017,64.6671153 L63.0605678,65.3842284 Z M70.9430826,61.4079663 L70.9430826,63.0447792 L68.6751467,64.1733805 L68.6751467,64.7636078 L69.6437818,64.2815823 C70.1498891,64.0297263 71.2070311,63.4768282 71.2070311,65.4090285 C71.2070311,67.3409551 70.4805549,67.8097882 69.0053632,68.5438933 L67.2219695,69.4313701 L67.2219695,67.9552545 L69.2695364,66.9363162 C69.8859405,66.6295727 69.9200854,66.3678394 69.9200854,66.1548539 C69.9200854,65.9418683 69.6049196,65.9993305 68.9638054,66.3183705 C68.3226912,66.6374106 67.1339118,66.8451753 67.1339118,65.3425049 C67.1339118,63.8398345 67.7503159,62.9694186 68.9833488,62.3558199 C70.2163817,61.7422211 70.9430826,61.4079663 70.9430826,61.4079663 Z M50.5979277,69.6809602 L62.3118524,63.8517164 C62.3118524,63.8517164 59.7137001,57.9532349 60.374133,51.0236724 C61.0347907,44.0939982 65.3062646,38.9627542 67.7283015,37.4355249 C70.1501137,35.9081336 71.471429,37.0754888 71.471429,37.0754888 L72,35.8463539 C72,35.8463539 68.5210457,33.2842158 64.1172606,35.9588747 C59.7134754,38.6332599 56.6750344,43.6872015 54.7815685,48.922837 C52.887878,54.1588581 51.7869317,57.711793 51.038441,62.5922784 C50.2899503,67.4727637 50.5979277,69.6809602 50.5979277,69.6809602 Z M48.2641732,63.6509054 L50.5541235,62.725977 L50.1576391,65.71372 L48,66.4654918 L48.2641732,63.6509054 Z M51.8752141,55.9505623 L52.4918429,53.5508094 L50.4660658,53.5928042 L49.8056328,56.1753266 L51.8752141,55.9505623 Z M54.7375397,47.3347629 L55.9265437,45.0260497 L54.3853087,44.5586349 L53.1522759,46.8356013 L54.7375397,47.3347629 Z M57.8640384,39.1243459 L58.9209558,40.1547156 L60.374133,38.4118084 L59.3172156,37.4887528 L57.8640384,39.1243459 Z M63.0165389,34.7893325 L63.2807121,36.2144721 L65.0863449,35.2622714 L64.9100048,33.9546678 L63.0165389,34.7893325 Z M69.1376744,33.4068905 L69.0936456,34.3946271 L70.3266785,34.5858837 L70.5908517,33.9715091 L69.1376744,33.4068905 Z M68.8732766,37.6708757 L68.8732766,38.4757311 L70.0622806,38.0450137 L70.0622806,37.4008556 L68.8732766,37.6708757 Z M65.0863449,40.2529219 L65.6587201,41.2558572 L66.4954932,40.0345954 L66.3193778,39.2634503 L65.0863449,40.2529219 Z M63.2804875,42.8154927 L64.1612894,43.9871603 L63.6327184,45.3769926 L62.3556566,44.2954768 L63.2804875,42.8154927 Z M61.5193328,48.1459829 L60.9467329,49.8262843 L62.443939,50.6378252 L62.7961699,48.691314 L61.5193328,48.1459829 Z M60.9027041,53.3364484 L60.8146463,55.2585385 L62.6640833,55.3042964 L62.5760256,53.5768877 L60.9027041,53.3364484 Z M61.4310505,59.728365 L61.8715638,61.441351 L64.2053183,60.4409672 L63.3685452,58.7642023 L61.4310505,59.728365 Z" id="Combined-Shape" fill="#F64343"></path>
            <text class="sprite--rails--text" id="Rails-Application-+" font-family="Stem Text" font-size="13" font-weight="normal" line-spacing="16" fill="#9E9E9E">
                <tspan x="-12" y="110">Rails Application</tspan>
                <tspan x="-4" y="126">+ ActionCable</tspan>
                <tspan class="i-anycable-text" x="6" y="142">+ AnyCable</tspan>
            </text>
            <g class="sprite--rails--cog" id="For-Rails" transform="translate(615.000000, 259.000000)">
                <path class="sprite-cog-frame" d="M0.84,0 L51.84,0 L51.84,51 L0.84,51 L0.84,0 Z M1.84,1 L1.84,50 L50.84,50 L50.84,1 L1.84,1 Z" id="Rectangle" fill="#FF00C8" fill-rule="nonzero"></path>
                <path class="sprite--rails--cog-big" d="M33.0497088,27.5 C32.1871378,30.3885976 29.5057198,32.5004135 26.3404888,32.5004135 C25.7821699,32.5004135 25.2388989,32.4346927 24.7180062,32.3105803 L20.4375019,39.7246313 C22.2562862,40.4823426 24.2503446,40.9009097 26.3402407,40.9009097 C34.1543759,40.9009097 40.6281993,35.0505255 41.6114679,27.5 L33.0497088,27.5 Z M21.256293,20.6935565 L16.976972,13.2815552 C13.309209,16.099179 10.9406955,20.5285059 10.9406955,25.5004548 C10.9406955,30.4722393 13.3090524,34.9014378 16.9766082,37.719075 L21.2561448,30.3067003 C20.0693946,29.0518805 19.3406955,27.3595154 19.3406955,25.5002067 C19.3406955,23.6408207 20.0694553,21.9483921 21.256293,20.6935565 Z M33.0495853,23.5 L41.6113494,23.5 C40.6276793,15.9499143 34.1540621,10.1 26.3402407,10.1 C24.2505067,10.1 22.2565957,10.5185021 20.4379253,11.276102 L24.7182161,18.6897831 C25.2390448,18.5657032 25.7822449,18.5 26.3404888,18.5 C29.5055688,18.5 32.1868819,20.6116143 33.0495853,23.5 Z M24.2894566,44.3912001 C23.4440641,44.3000455 22.6151001,44.1531989 21.8063192,43.954414 L19.7628544,46.5177726 L17.8696504,45.8287027 L17.9520731,42.5470677 C17.1971002,42.1739917 16.4703092,41.7522039 15.775833,41.2858365 L12.9710452,43.0004917 L11.4276911,41.7054638 L12.6305906,38.6421275 C12.0514423,38.0381251 11.5116917,37.3960602 11.0155173,36.7201106 L7.79181307,37.3723931 L6.78446026,35.6276069 L8.95660966,33.1671443 C8.61840672,32.4032325 8.32912528,31.6130217 8.09276384,30.8005097 L4.84984996,30.3123088 L4.5,28.328211 L7.38194093,26.759454 C7.35458816,26.343294 7.34069555,25.923519 7.34069555,25.5005612 C7.34069555,25.0772362 7.35461228,24.6570996 7.38201218,24.2405848 L4.5,22.671789 L4.84984996,20.6876912 L8.09310531,20.1994389 C8.32948098,19.3870746 8.61875829,18.5970065 8.95694059,17.8332306 L6.78446026,15.3723931 L7.79181307,13.6276069 L11.0162347,14.2800345 C11.5123012,13.6043217 12.0519157,12.9624751 12.6309033,12.3586687 L11.4276911,9.29453616 L12.9710452,7.99950834 L15.7767079,9.71469834 C16.4709281,9.24855845 17.1974351,8.82696357 17.9521009,8.45404088 L17.8696504,5.1712973 L19.7628544,4.48222739 L21.8070673,7.04652448 C22.6154866,6.84786349 23.4440691,6.70109395 24.2890656,6.60996433 L25.3333427,3.5 L27.3480484,3.5 L28.3923598,6.61006662 C29.2373106,6.7012255 30.0658431,6.84800779 30.8742105,7.04666657 L32.9185367,4.48222739 L34.8117407,5.1712973 L34.7292852,8.45423924 C35.4839039,8.82713668 36.2103635,9.2486945 36.9045383,9.71478691 L39.7103459,7.99950834 L41.2537,9.29453616 L40.0504503,12.3587642 C40.6294297,12.9625465 41.1690354,13.6043653 41.6650938,14.2800472 L44.889578,13.6276069 L45.8969308,15.3723931 L43.7244373,17.8332455 C44.0626231,18.5970165 44.3519024,19.3870793 44.5882794,20.1994379 L47.8315411,20.6876912 L48.1813911,22.671789 L45.2993788,24.2405849 C45.3267788,24.6570997 45.3406955,25.0772363 45.3406955,25.5005612 C45.3406955,25.923519 45.3268029,26.343294 45.2994501,26.7594539 L48.1813911,28.328211 L47.8315411,30.3123088 L44.5886209,30.8005107 C44.3522581,31.613017 44.0629747,32.4032225 43.7247683,33.1671294 L45.8969308,35.6276069 L44.889578,37.3723931 L41.6658111,36.720098 C41.1696449,37.3960166 40.6299031,38.0380537 40.050763,38.642032 L41.2537,41.7054638 L39.7103459,43.0004917 L36.9054132,41.2857479 C36.2109824,41.7520679 35.4842388,42.1738186 34.729313,42.5468693 L34.8117407,45.8287027 L32.9185367,46.5177726 L30.8749586,43.9542719 C30.0662296,44.1530546 29.2373156,44.299914 28.3919688,44.3910979 L27.3480484,47.5 L25.3333427,47.5 L24.2894566,44.3912001 Z M26.3406069,28.5001772 C27.99482,28.5001772 29.3406955,27.1543017 29.3406955,25.5000886 C29.3406955,23.8458755 27.99482,22.5 26.3406069,22.5 C24.6865711,22.5 23.3406955,23.8458755 23.3406955,25.5000886 C23.3406955,27.1543017 24.6865711,28.5001772 26.3406069,28.5001772 Z" id="Mask" fill="#000000"></path>
            </g>
        </g>
        <g class="sprite--elixir" id="Elixir" transform="translate(300.000000, 0.000000)" fill-rule="nonzero">
            <path d="M78,22.118034 L41,40.618034 L41,87.263932 L78,68.763932 L78,22.118034 Z M76.645898,20.559017 L40,2.23606798 L3.35410197,20.559017 L40,38.881966 L76.645898,20.559017 Z M2,22.118034 L2,68.763932 L39,87.263932 L39,40.618034 L2,22.118034 Z M0,20 L40,0 L80,20 L80,70 L40,90 L0,70 L0,20 Z M23,20 L27,18 L41,25 L37,27 L23,20 Z M37,13 L41,11 L55,18 L51,20 L37,13 Z" id="Rectangle-9" fill="#363636"></path>
            <g id="elixir" transform="translate(52.000000, 38.000000)">
                <path d="M9.22023145,-4.48918479 C7.32527394,-2.51365073 5.49601141,1.40242308 3.73244379,7.25903667 C1.08709236,16.043957 -2.32950623,28.3563208 2.37517771,34.4014647 C4.55170616,37.1981303 8.14542568,37.6946455 12.8616446,31.7066457 C16.6503882,26.8962253 17.7040826,17.9988401 16.3438676,14.7450757 C13.5380176,8.03321396 10.6913585,7.45457228 9.92907855,2.80349266 C9.4208919,-0.297227059 9.18460956,-2.72811955 9.22023145,-4.48918479 Z" id="Path" fill="url(#linearGradient-2)"></path>
                <path d="M9.22023145,-4.5896873 C7.31566021,-2.59874566 5.48639764,1.31732816 3.73244379,7.15853416 C1.10151302,15.9203432 -2.32950623,28.2558183 2.37517771,34.3009622 C4.55170616,37.0976278 8.0991759,36.5799172 10.0675911,33.2923507 C11.3508338,31.1491315 12.2235941,29.2813295 12.72643,26.0136377 C13.2863273,22.3751302 12.8567403,18.0679859 12.5623843,16.1378367 C12.1899089,13.6954441 12.0679951,10.8713547 12.1966426,7.66556823 C12.151312,7.60365965 12.1174387,7.55730442 12.0950229,7.52650253 C11.0702431,6.11833783 10.2794643,4.84088168 9.92907855,2.70299015 C9.4208919,-0.397729571 9.18460956,-2.82862206 9.22023145,-4.5896873 Z" id="Path" fill="url(#linearGradient-3)"></path>
                <path d="M7.64321608,-2.49499793 C5.86925605,0.538332817 4.55027594,4.79835951 3.68627575,10.2850821 C2.39027548,18.5151661 2.24983937,25.5775233 2.70691749,29.416074 C3.59299054,36.8573321 8.18668206,37.5542288 12.8985291,31.5295968 C15.798263,27.8219575 17.0060196,22.3706816 16.9420341,17.140724 C16.8757814,11.7254495 9.99967213,8.9871794 8.78192065,5.0487713 C7.97008637,2.42316588 7.59051818,-0.0914238588 7.64321608,-2.49499793 Z" id="Path" fill="url(#linearGradient-4)"></path>
                <path d="M12.1405826,9.47280486 C14.2681015,12.5873396 14.7318599,15.2638306 13.5318577,17.5022778 C11.7318543,20.8599487 7.33009649,24.6636509 4.59173804,23.0587801 C2.76616574,21.9888662 2.07543547,18.081612 2.51954722,11.3370175 C1.76595096,14.123458 1.12877727,16.8830564 0.608026171,19.6158127 C0.08727507,22.348569 -0.0647936631,25.011995 0.151819971,27.6060906 C0.804440328,29.3015674 2.39119724,29.8587522 4.91209072,29.2776451 C8.69343092,28.4059845 12.272377,26.114215 14.6738628,23.0603583 C16.2748533,21.0244539 17.0321118,19.4158304 16.9456382,18.2344878 C17.0034136,16.3972813 16.6392282,14.857868 15.853082,13.6162481 C15.0669358,12.3746281 13.8294361,10.9934803 12.1405826,9.47280486 Z" id="Path-2" fill="url(#linearGradient-5)"></path>
                <path d="M3.82661872,9.45630871 C3.80883485,12.4824339 4.3155091,15.0974543 5.34664145,17.3013701 C6.89333998,20.6072438 8.69877306,23.735379 11.4004427,25.726018 C13.2015558,27.0531105 14.6407182,27.0534294 15.7179301,25.7269744 C14.8331557,28.5937381 13.8923809,30.2519781 12.8956056,30.7016944 C11.4004427,31.3762688 9.57733811,31.286899 6.65626178,27.3719099 C4.70887759,24.7619171 3.37666885,22.0382058 2.65963555,19.2007758 C2.77334183,17.8761316 2.89391489,16.5530899 3.02135472,15.2316509 C3.14879455,13.9102118 3.41721589,11.9850978 3.82661872,9.45630871 Z" id="Path-3" fill="url(#linearGradient-6)"></path>
                <path d="M8.39600595,11.3132896 C8.56126977,13.6886195 9.18591508,17.3082468 8.39600595,20.3208311 C7.60609688,23.3334153 3.9575809,29.8859954 4.96471498,33.5486144 C5.97184906,37.2112335 8.42624468,35.0493004 9.96582684,32.3599642 C11.505409,29.6706279 12.3295064,26.1369369 12.5121728,23.8502179 C12.6948393,21.563499 12.075131,17.6488572 11.8735807,14.0751727 C11.7392139,11.6927165 11.8303803,9.54688309 12.1470802,7.63767261 L11.6753161,6.96445469 L8.89853579,7.09334371 C8.45334005,8.32308762 8.28583013,9.72973625 8.39600595,11.3132896 Z" id="Path-7" fill="url(#linearGradient-7)"></path>
                <path d="M9.38720099,-1.35655199 C8.48847203,-0.325907768 7.63697045,1.25183837 6.83269612,3.37668651 C5.62628471,6.56395866 5.01183002,8.42019609 5.46665085,13.3156831 C5.76986474,16.5793411 5.98689293,19.6127923 6.11773542,22.4160369 L10.0069364,3.16997615 C9.86395575,2.35980359 9.74503576,1.62301184 9.65017648,0.959600867 C9.55531727,0.296189864 9.46765877,-0.47586109 9.38720099,-1.35655199 Z" id="Path-5" fill="url(#linearGradient-8)"></path>
                <path d="M9.99947857,3.13930293 C9.01218361,4.51509655 8.24716077,6.70518815 7.70440991,9.70957787 C7.16165912,12.7139675 6.66511399,16.7829822 6.21477442,21.9166218 C6.81541611,18.494395 7.21384912,16.0339876 7.41007349,14.5353996 C7.70440991,12.2875176 7.80494732,9.26652048 8.58647447,6.85906702 C9.10749257,5.25409805 9.57849398,4.01417666 9.99947857,3.13930293 Z" id="Path-6" fill-opacity="0.316321332" fill="#330A4C"></path>
                <path d="M5.42807634,34.7083372 C7.05281383,34.2517486 7.9023969,34.1431256 7.97682553,34.3824681 C8.08846846,34.7414819 7.77115677,35.2795067 6.86928078,35.4752631 C6.26803006,35.6057674 5.78762859,35.3501254 5.42807634,34.7083372 Z" id="Path-4" fill="#FFFFFF"></path>
                <path d="M6.24433052,0.214183758 C5.35066638,2.29549967 4.57629684,4.41553671 3.9212219,6.57429488 C3.26614696,8.73305301 2.79807573,10.3332476 2.51700821,11.3748784 C2.42989447,12.0905506 2.38737507,13.1035474 2.38944998,14.4138685 C2.39152489,15.7241897 2.46560196,17.1452559 2.6116812,18.6770673 C2.73957536,15.4705899 3.13109871,12.2245412 3.78625126,8.93892134 C4.44140381,5.6533015 5.26076357,2.74505564 6.24433052,0.214183758 Z" id="Path-9" fill-opacity="0.60326087" fill="#EDEDED"></path>
            </g>
            <g class="sprite--elixir--cog" id="For-Elixir" transform="translate(443.000000, 259.000000)">
                <path class="sprite-cog-frame" d="M0,0 L51,0 L51,51 L0,51 L0,0 Z M1,1 L1,50 L50,50 L50,1 L1,1 Z M0,0 L12,0 L12,12 L0,12 L0,0 Z M38,38 L51,38 L51,51 L38,51 L38,38 Z" id="Rectangle" fill="#FF00C8" fill-rule="nonzero"></path>
                <path class="sprite--elixir--cog-big" d="M44.7097088,40 C43.8471378,42.8885976 41.1657198,45.0004135 38.0004888,45.0004135 C37.4421699,45.0004135 36.8988989,44.9346927 36.3780062,44.8105803 L32.0975019,52.2246313 C33.9162862,52.9823426 35.9103446,53.4009097 38.0002407,53.4009097 C45.8143759,53.4009097 52.2881993,47.5505255 53.2714679,40 L44.7097088,40 Z M32.916293,33.1935565 L28.636972,25.7815552 C24.969209,28.599179 22.6006955,33.0285059 22.6006955,38.0004548 C22.6006955,42.9722393 24.9690524,47.4014378 28.6366082,50.219075 L32.9161448,42.8067003 C31.7293946,41.5518805 31.0006955,39.8595154 31.0006955,38.0002067 C31.0006955,36.1408207 31.7294553,34.4483921 32.916293,33.1935565 Z M44.7095853,36 L53.2713494,36 C52.2876793,28.4499143 45.8140621,22.6 38.0002407,22.6 C35.9105067,22.6 33.9165957,23.0185021 32.0979253,23.776102 L36.3782161,31.1897831 C36.8990448,31.0657032 37.4422449,31 38.0004888,31 C41.1655688,31 43.8468819,33.1116143 44.7095853,36 Z M35.9494566,56.8912001 C35.1040641,56.8000455 34.2751001,56.6531989 33.4663192,56.454414 L31.4228544,59.0177726 L29.5296504,58.3287027 L29.6120731,55.0470677 C28.8571002,54.6739917 28.1303092,54.2522039 27.435833,53.7858365 L24.6310452,55.5004917 L23.0876911,54.2054638 L24.2905906,51.1421275 C23.7114423,50.5381251 23.1716917,49.8960602 22.6755173,49.2201106 L19.4518131,49.8723931 L18.4444603,48.1276069 L20.6166097,45.6671443 C20.2784067,44.9032325 19.9891253,44.1130217 19.7527638,43.3005097 L16.50985,42.8123088 L16.16,40.828211 L19.0419409,39.259454 C19.0145882,38.843294 19.0006955,38.423519 19.0006955,38.0005612 C19.0006955,37.5772362 19.0146123,37.1570996 19.0420122,36.7405848 L16.16,35.171789 L16.50985,33.1876912 L19.7531053,32.6994389 C19.989481,31.8870746 20.2787583,31.0970065 20.6169406,30.3332306 L18.4444603,27.8723931 L19.4518131,26.1276069 L22.6762347,26.7800345 C23.1723012,26.1043217 23.7119157,25.4624751 24.2909033,24.8586687 L23.0876911,21.7945362 L24.6310452,20.4995083 L27.4367079,22.2146983 C28.1309281,21.7485584 28.8574351,21.3269636 29.6121009,20.9540409 L29.5296504,17.6712973 L31.4228544,16.9822274 L33.4670673,19.5465245 C34.2754866,19.3478635 35.1040691,19.2010939 35.9490656,19.1099643 L36.9933427,16 L39.0080484,16 L40.0523598,19.1100666 C40.8973106,19.2012255 41.7258431,19.3480078 42.5342105,19.5466666 L44.5785367,16.9822274 L46.4717407,17.6712973 L46.3892852,20.9542392 C47.1439039,21.3271367 47.8703635,21.7486945 48.5645383,22.2147869 L51.3703459,20.4995083 L52.9137,21.7945362 L51.7104503,24.8587642 C52.2894297,25.4625465 52.8290354,26.1043653 53.3250938,26.7800472 L56.549578,26.1276069 L57.5569308,27.8723931 L55.3844373,30.3332455 C55.7226231,31.0970165 56.0119024,31.8870793 56.2482794,32.6994379 L59.4915411,33.1876912 L59.8413911,35.171789 L56.9593788,36.7405849 C56.9867788,37.1570997 57.0006955,37.5772363 57.0006955,38.0005612 C57.0006955,38.423519 56.9868029,38.843294 56.9594501,39.2594539 L59.8413911,40.828211 L59.4915411,42.8123088 L56.2486209,43.3005107 C56.0122581,44.113017 55.7229747,44.9032225 55.3847683,45.6671294 L57.5569308,48.1276069 L56.549578,49.8723931 L53.3258111,49.220098 C52.8296449,49.8960166 52.2899031,50.5380537 51.710763,51.142032 L52.9137,54.2054638 L51.3703459,55.5004917 L48.5654132,53.7857479 C47.8709824,54.2520679 47.1442388,54.6738186 46.389313,55.0468693 L46.4717407,58.3287027 L44.5785367,59.0177726 L42.5349586,56.4542719 C41.7262296,56.6530546 40.8973156,56.799914 40.0519688,56.8910979 L39.0080484,60 L36.9933427,60 L35.9494566,56.8912001 Z M38.0006069,41.0001772 C39.65482,41.0001772 41.0006955,39.6543017 41.0006955,38.0000886 C41.0006955,36.3458755 39.65482,35 38.0006069,35 C36.3465711,35 35.0006955,36.3458755 35.0006955,38.0000886 C35.0006955,39.6543017 36.3465711,41.0001772 38.0006069,41.0001772 Z" id="Mask" fill="#000000"></path>
                <path d="M6.16081518,12.0999185 C6.16027243,12.0666774 6.16,12.0333705 6.16,12 C6.16,8.6862915 8.8462915,6 12.16,6 C13.6851026,6 15.077305,6.56901364 16.1358901,7.50632391 L16.1434824,7.49836838 L42.4469138,32.6006618 L41.7565176,33.3240932 L18.0103204,10.6622588 C18.108273,11.0924234 18.16,11.540171 18.16,12 C18.16,15.3137085 15.4737085,18 12.16,18 C10.0730292,18 8.23492154,16.9344907 7.16,15.3177951 L7.16,39.7638935 C7.69075649,39.2888536 8.39164556,39 9.16,39 C10.8168542,39 12.16,40.3431458 12.16,42 C12.16,42.7683544 11.8711464,43.4692435 11.3961065,44 L38,44 L38,45 L8.95289322,45 L8.94533099,44.9924378 C7.45957204,44.8873907 6.2726093,43.700428 6.16756223,42.214669 L6.16,42.2071068 L6.16,12.1 Z M12.16,15 C13.8168542,15 15.16,13.6568542 15.16,12 C15.16,10.3431458 13.8168542,9 12.16,9 C10.5031458,9 9.16,10.3431458 9.16,12 C9.16,13.6568542 10.5031458,15 12.16,15 Z" id="Oval" fill="#000000" fill-rule="nonzero"></path>
            </g>
        </g>
        <g class="sprite--arrows" id="Arrows" transform="translate(64.000000, 160.000000)" fill="#83A8C2" fill-rule="nonzero">
            <path d="M127.164135,147.205902 L134.084223,144.977525 C134.347073,144.892883 134.628771,145.037349 134.713413,145.3002 C134.798055,145.56305 134.653589,145.844748 134.390738,145.92939 L125.653774,148.742831 C125.282643,148.862341 124.923608,148.529954 125.014199,148.150726 L127.146834,139.223136 C127.210994,138.95455 127.480738,138.788831 127.749323,138.852991 C128.017908,138.917151 128.183628,139.186894 128.119468,139.45548 L126.430304,146.526621 L130.537394,142.090478 C136.061897,135.789328 139.446342,128.564129 141.344096,119.857013 C142.786314,113.239949 143.233148,107.746562 143.706824,95.231989 C144.220491,81.660825 144.748457,75.7009646 146.535619,68.5295604 C148.901917,59.0342366 153.191555,51.2161194 160.192508,44.560063 L160.192582,44.5599771 L160.192752,44.5597774 L160.19336,44.5590663 L160.195536,44.556524 L160.203671,44.5470405 L160.234626,44.5111404 C160.28135,44.4572233 160.28135,44.4572233 160.351651,44.376896 C160.477835,44.2331195 160.62062,44.073113 160.77726,43.9008951 C161.224955,43.4086808 161.694752,42.9163493 162.165155,42.4557347 C162.276843,42.3463709 162.387479,42.2398961 162.496894,42.1365681 C162.697661,41.9469704 163.014114,41.9560249 163.203711,42.1567917 C163.393309,42.3575586 163.384255,42.6740116 163.183488,42.8636093 C163.078557,42.9627023 162.972258,43.0650033 162.864789,43.1702361 C162.409533,43.6160193 161.952639,44.0948281 161.517031,44.5737543 C161.364516,44.7414355 161.225652,44.8970496 161.103245,45.0365224 C161.035434,45.1140054 161.035434,45.1140054 160.990987,45.1652952 L160.962191,45.19869 L160.955086,45.2069729 L160.953413,45.2089274 L160.953071,45.2093268 L160.953015,45.2093929 L160.917357,45.2470225 C154.025356,51.8031371 149.828232,59.4526415 147.505942,68.7713714 C145.741143,75.8530382 145.217147,81.768088 144.706108,95.2698118 C144.230183,107.843825 143.780227,113.375589 142.321158,120.069968 C140.389213,128.933957 136.932722,136.312962 131.280265,142.759777 L127.164135,147.205902 L127.164135,147.205902 Z" id="Line"></path>
            <path d="M2.16418344,43.194084 L6.28065933,47.6399557 C11.9371513,54.0879869 15.4092952,61.4725632 17.3682129,70.3464288 C18.8476791,77.0483868 19.3172539,82.587571 19.8397609,95.1793095 C20.3598155,107.711947 20.8261553,113.21297 22.288659,119.838089 C24.2131417,128.555964 27.6133864,135.787625 33.1424828,142.090701 L37.249981,146.526661 L35.5603197,139.45564 C35.4961407,139.187059 35.6618412,138.917304 35.930422,138.853125 C36.1990029,138.788946 36.468758,138.954647 36.532937,139.223228 L38.6662003,148.150668 C38.7568176,148.52989 38.3978065,148.862301 38.0266673,148.742818 L29.2895045,145.929992 C29.0266482,145.845369 28.8821618,145.563681 28.9667853,145.300824 C29.0514088,145.037968 29.3330969,144.893481 29.5959533,144.978105 L36.5161982,147.205995 L32.3997223,142.760124 C26.7432303,136.312092 23.2710865,128.927516 21.3121688,120.053651 C19.8327026,113.351693 19.3631278,107.812508 18.8406208,95.2207698 C18.3205662,82.6881321 17.8542264,77.1871089 16.3917226,70.5619903 C14.46724,61.8441149 11.0669953,54.6124542 5.53789891,48.3093782 L1.43040067,43.873418 L3.12006202,50.9444393 C3.18424096,51.2130201 3.01854048,51.4827752 2.74995963,51.5469542 C2.48137877,51.6111331 2.21162366,51.4454326 2.14744472,51.1768518 L0.0141813679,42.2494116 C-0.0764358833,41.8701898 0.282575178,41.5377779 0.653714387,41.6572618 L9.39087714,44.4700873 C9.65373352,44.5547107 9.79821983,44.8363988 9.71359635,45.0992552 C9.62897287,45.3621116 9.34728479,45.5065979 9.0844284,45.4219744 L2.16418344,43.194084 L2.16418344,43.194084 Z" id="Line"></path>
            <path d="M135.931438,4.50008868 L129.59506,0.935876445 C129.354381,0.800494542 129.269021,0.495636995 129.404403,0.254958057 C129.539785,0.0142791178 129.844643,-0.0710809952 130.085321,0.0643009078 L138.085321,4.56430091 C138.425147,4.75545294 138.425147,5.24472441 138.085321,5.43587644 L130.085321,9.93587644 C129.844643,10.0712583 129.539785,9.98589823 129.404403,9.7452193 C129.269021,9.50454036 129.354381,9.19968281 129.59506,9.06430091 L135.931438,5.50008868 L26.3401908,5.50008868 C26.0640485,5.50008868 25.8401908,5.27623105 25.8401908,5.00008868 C25.8401908,4.7239463 26.0640485,4.50008868 26.3401908,4.50008868 L135.931438,4.50008868 L135.931438,4.50008868 Z" id="Line"></path>
        </g>
        <g class="sprite--client" id="Client-Applications" transform="translate(212.000000, 120.000000)">
            <path d="M78,22.118034 L41,40.618034 L41,87.263932 L78,68.763932 L78,22.118034 Z M76.645898,20.559017 L40,2.23606798 L3.35410197,20.559017 L40,38.881966 L76.645898,20.559017 Z M2,22.118034 L2,68.763932 L39,87.263932 L39,40.618034 L2,22.118034 Z M0,20 L40,0 L80,20 L80,70 L40,90 L0,70 L0,20 Z" id="Rectangle-9" fill="#363636" fill-rule="nonzero"></path>
            <path d="M59.9996161,70.60257 C52.8321274,74.1215689 47,69.9032901 47,61.1992355 C47,52.495181 52.8321274,42.5501404 59.9996161,39.0311414 C67.1678726,35.5117654 73,39.7300443 73,48.4340988 C73,57.1381533 67.1678726,67.083194 59.9996161,70.60257 Z M51.8261034,68.51129 C52.3879672,67.7046963 53.1763177,66.8882273 54.0400189,65.9937229 C55.3508078,64.6359424 56.9825748,62.9462115 56.9825748,61.8925874 L56.9825748,60.4585396 C56.5180011,60.2138976 55.7309135,59.5840038 55.6072831,58.1164809 C55.2310169,57.8704414 54.606722,57.2986185 54.606722,56.2114275 C54.606722,55.5512807 54.8217313,54.9133117 55.0106323,54.4821025 C54.8954488,53.830954 54.6789037,52.4556698 54.6789037,51.3684788 C54.6789037,47.7264824 56.7675655,44.347614 59.9996161,42.7607845 C60.9272276,42.305358 62.0537228,42.0543874 62.6810892,42.5622307 C64.146224,42.1561882 65.3210963,43.6856808 65.3210963,46.1435156 C65.3210963,47.7202222 65.0930329,49.1291771 64.9555805,49.8381603 C65.1083907,50.077358 65.2734871,50.4625065 65.2734871,51.0033048 C65.2734871,52.2256953 64.7651437,53.2659594 64.2905874,53.9213328 C64.1562066,55.4940851 63.4489796,56.8128821 63.0174252,57.4853719 L63.0174252,58.9296762 C63.0174252,59.8257229 64.3550902,59.7713112 65.6489855,59.7188083 C66.6170585,59.6791077 67.7486498,59.7763836 68.4471437,60.1141945 C67.9863786,60.7288237 64.9893678,66.2947467 60,68.744361 C55.0106322,71.1939754 52.3879672,68.8887228 51.8261034,68.51129 Z" id="Combined-Shape" fill="#F64343"></path>
            <text id="Client-Applications-Text" font-family="Stem Text" font-size="13" font-weight="normal" line-spacing="16" fill="#9E9E9E">
                <tspan x="22" y="111">Client</tspan>
                <tspan x="2" y="127">Applications</tspan>
            </text>
        </g>
        <g class="sprite--ws" id="WS-Server" transform="translate(0.000000, 120.000000)">
            <path d="M78,22.118034 L41,40.618034 L41,87.263932 L78,68.763932 L78,22.118034 Z M76.645898,20.559017 L40,2.23606798 L3.35410197,20.559017 L40,38.881966 L76.645898,20.559017 Z M2,22.118034 L2,68.763932 L39,87.263932 L39,40.618034 L2,22.118034 Z M0,20 L40,0 L80,20 L80,70 L40,90 L0,70 L0,20 Z" id="Rectangle-9" fill="#363636" fill-rule="nonzero"></path>
            <path d="M66.7932406,49.1654098 L66.7932406,58.4454098 L70.4254473,56.6405153 L70.4254473,45.4455946 L66.389662,42.2954775 L63.7952286,46.8989736 L66.7932406,49.1654098 Z M52.2644135,67.2853055 L56.3001988,70.5090735 L74,61.7137936 L70.4254473,58.9236899 L57.7992048,65.1978471 L54.8011928,62.7841093 L52.2644135,67.2853055 Z M62.584493,49.0472718 L63.7952286,46.8989736 L57.5685885,42.0387928 L45,48.284301 L48.5745527,51.0744047 L56.0695825,47.3500191 L58.72167,49.3464453 L54.8011928,56.2291887 L52.2067594,54.2041134 L52.2067594,51.6999864 L48.5745527,53.5048809 L48.5745527,57.9239285 L54.8011928,62.7841093 L56.1272366,60.5048621 L58.6640159,62.4849357 L63.7375746,59.9638132 L58.6640159,55.9300151 L59.9900596,53.5771171 L65.0059642,57.5659135 L65.0059642,51.0109929 L62.584493,49.0472718 Z" id="a" fill="#F64343"></path>
            <text id="WS-Server-Text" font-family="Stem Text" font-size="13" font-weight="normal" line-spacing="14" fill="#9E9E9E">
                <tspan x="7.5" y="112">WS Server</tspan>
            </text>
        </g>
        <g class="sprite--cloud" id="Cloud" transform="translate(400.000000, 0.000000)">
            <path d="M123.708777,24.0904567 L109.941583,17.2068593 L33.4823229,55.6231275 L47.2495176,62.5067248 L123.708777,24.0904567 Z M125.941583,25.2068593 L49.4823229,63.6231275 L80,78.881966 L156.645898,40.559017 L125.941583,25.2068593 Z M107.708777,16.0904567 L80,2.23606798 L3.35410197,40.559017 L31.2495176,54.5067248 L107.708777,16.0904567 Z M48.456396,65.346232 L48.456396,106.111771 L30.5,97.1090385 L30.5,56.368034 L2,42.118034 L2,138.763932 L79,177.263932 L79,80.618034 L48.456396,65.346232 Z M46.456396,64.346232 L32.5,57.368034 L32.5,95.8744797 L46.456396,102.871747 L46.456396,64.346232 Z M158,42.118034 L81,80.618034 L81,177.263932 L158,138.763932 L158,42.118034 Z M0,40 L80,0 L160,40 L160,140 L80,180 L0,140 L0,40 Z M49.310447,57.0392037 L42.802383,53.8018478 L44.9480777,52.7320439 C47.847665,51.286363 50.312153,51.52073 52.0135469,52.3670673 C53.8729937,53.2920262 54.1527579,54.6249166 51.3111623,56.0416839 L49.310447,57.0392037 Z M46.2768461,53.4122769 L45.6486021,53.7255078 L49.4604682,55.6216734 L50.0887121,55.3084425 C51.780138,54.4651287 51.6757407,53.7393204 50.4671003,53.1380972 C49.3700266,52.5923714 48.035929,52.5352305 46.2768461,53.4122769 Z M52.6771394,52.1195543 C50.7990981,51.1853459 50.8386566,49.6839869 52.8007107,48.7057428 C54.7337689,47.7419555 57.7119896,47.683144 59.6458143,48.6451012 C61.5610446,49.5978088 61.4649665,51.0903065 59.5319083,52.0540938 C57.5988501,53.017881 54.6109642,53.0815115 52.6771394,52.1195543 Z M54.2332513,51.3437055 C55.4418918,51.9449288 57.1128023,51.8711819 58.1373232,51.3603746 C59.2005052,50.8302916 59.2983429,50.0221732 58.0897025,49.4209499 C56.881062,48.8197267 55.1811556,48.9079304 54.1952959,49.3994619 C53.170775,49.9102692 53.0246108,50.7424823 54.2332513,51.3437055 Z M71.9948852,45.72916 L70.8350503,46.3074324 L63.7001644,46.0217622 L67.5585166,47.9410518 L66.0990577,48.6687112 L59.5909937,45.4313553 L60.7411633,44.8579018 L67.8950118,45.1433778 L64.0273623,43.2194635 L65.4868213,42.4918041 L71.9948852,45.72916 Z M69.6590559,43.6526831 C67.7810146,42.7184747 67.8205731,41.2171156 69.7826272,40.2388715 C71.7156854,39.2750843 74.6939061,39.2162728 76.6277308,40.1782299 C78.542961,41.1309375 78.446883,42.6234353 76.5138248,43.5872225 C74.5807666,44.5510098 71.5928806,44.6146403 69.6590559,43.6526831 Z M71.2151678,42.8768343 C72.4238082,43.4780576 74.0947188,43.4043107 75.1192397,42.8935034 C76.1824217,42.3634204 76.2802594,41.5553019 75.0716189,40.9540787 C73.8629785,40.3528555 72.163072,40.4410592 71.1772123,40.9325907 C70.1526915,41.4433979 70.0065273,42.2756111 71.2151678,42.8768343 Z M75.0117565,39.085579 L73.6636575,38.4149839 L79.5014934,35.5043463 L80.8495923,36.1749415 L78.6749018,37.2592022 L83.8348668,39.8259629 L82.3367467,40.5728981 L77.1767817,38.0061373 L75.0117565,39.085579 Z M85.3264928,35.8411872 C83.4484515,34.9069788 83.48801,33.4056198 85.4500641,32.4273757 C87.3831223,31.4635884 90.361343,31.4047769 92.2951677,32.3667341 C94.2103979,33.3194417 94.1143199,34.8119394 92.1812617,35.7757267 C90.2482034,36.7395139 87.2603175,36.8031444 85.3264928,35.8411872 Z M86.8826047,35.0653384 C88.0912451,35.6665617 89.7621557,35.5928148 90.7866765,35.0820075 C91.8498586,34.5519245 91.9476963,33.7438061 90.7390558,33.1425828 C89.5304154,32.5413596 87.8305089,32.6295633 86.8446492,33.1210948 C85.8201284,33.6319021 85.6739642,34.4641152 86.8826047,35.0653384 Z M97.9655224,32.7806779 L96.4674023,33.5276131 L89.9593383,30.2902571 L92.7622728,28.8927656 C95.062612,27.7458587 96.8043157,28.0442656 97.8734977,28.5761169 C98.9705713,29.1218426 99.3609745,30.0476819 97.2249452,31.1126668 L95.9201309,31.7632232 L97.9655224,32.7806779 Z M94.1490329,29.544085 L92.8055574,30.2139172 L94.5720319,31.0926281 L95.8575157,30.4517095 C96.7950489,29.9842727 96.8566254,29.6202037 96.3080886,29.3473409 C95.7967407,29.0929772 95.0962314,29.0718292 94.1490329,29.544085 Z M103.010804,30.2651931 L96.5027404,27.0278372 L101.673671,24.4497063 L103.02177,25.1203014 L99.3489595,26.9514972 L100.5576,27.5527205 L103.988778,25.8419981 L105.290391,26.4894693 L101.859213,28.2001917 L103.160826,28.8476629 L106.920624,26.9730966 L108.268723,27.6436918 L103.010804,30.2651931 Z M115.179406,24.1981522 L114.019571,24.7764246 L106.884685,24.4907545 L110.743037,26.410044 L109.283578,27.1377034 L102.775514,23.9003475 L103.925684,23.3268941 L111.079532,23.6123701 L107.211883,21.6884557 L108.671342,20.9607963 L115.179406,24.1981522 Z" id="Rectangle-9" fill="#363636" fill-rule="nonzero"></path>
            <g id="Group-15" transform="translate(100.158459, 81.658670)">
                <path d="M18.1828846,24.7221093 C17.4779434,22.4165846 17.046911,20.3490326 16.9404582,18.4562697 C16.7975306,15.9149731 17.2532747,13.6186052 18.4543486,11.884394 C19.5895646,10.2452741 20.8172796,9.84462068 21.9860818,10.4854033 C22.7542673,10.9065525 23.4994768,11.7672172 24.2367494,12.9977912 C24.5498771,13.5787528 24.7903061,14.1333256 24.9608283,14.4768844 C25.0407713,13.732586 25.0825711,12.985344 25.0825711,12.2429992 C25.0825711,5.7391358 21.8740426,2.07405096 17.9161222,4.05680305 C13.9582018,6.03955514 10.7496733,12.9193163 10.7496733,19.4231796 C10.7496733,25.927043 13.9582018,29.5921278 17.9161222,27.6093758 C18.2614251,27.4363935 18.601024,27.226138 18.9332859,26.9821108 C18.656231,26.2034591 18.4070517,25.4552528 18.1828846,24.7221093 Z" id="Path" fill="#FFD100"></path>
                <path d="M34.7096484,51.3701274 C38.7458789,49.0191853 42.5535017,43.2941067 44.6211871,36.0088601 C42.6776192,32.3603846 41.3113617,28.5919057 40.3360622,24.5122159 C39.9252671,22.7938552 39.5919038,21.0622707 39.2816921,19.1223104 C39.162528,18.377098 39.0512983,17.6324737 38.9174433,16.6974007 C38.9027466,16.5947336 38.6690001,14.9450894 38.6030929,14.492531 C38.0530018,10.7152705 37.610053,9.02274635 36.7562123,7.89515929 C34.9992047,5.57484449 31.733533,5.59789223 26.9190055,8.12626273 C27.243819,10.3995684 27.1088287,12.5417163 26.9732842,14.455792 C28.5134345,14.6200147 30.0809023,14.9228887 31.6757772,15.3641714 L32.041183,15.4652747 L33.3696092,20.3189273 L33.2848327,20.8939748 C32.5900185,25.6069671 31.7979128,28.2792459 30.4202431,28.9694006 C28.9229483,29.7194825 26.6791025,26.5515562 25.6827976,23.3693788 C24.8144678,20.5959511 23.9615579,18.2995899 22.8992248,16.3618698 C21.477969,13.7694664 20.2874835,13.1167961 19.4734168,14.2922139 C18.6478244,15.4842733 18.8087468,18.3455209 20.0600039,22.4377835 C20.3617619,23.4246896 20.7158325,24.4523041 21.1295684,25.5598934 C21.5241321,26.6161576 23.0313216,30.3610815 23.2413702,30.9879778 C23.6883917,32.3221267 23.8107269,33.6760352 23.8270739,36.0071303 C23.8279763,36.1358083 23.8285256,36.2378788 23.8296356,36.4671762 C23.844213,39.478651 23.9919354,40.5592876 24.7036821,41.5545564 C25.0870983,42.0907055 25.7200316,42.6955421 26.6995311,43.4847309 C27.1767781,43.8692518 29.1860765,45.4078154 29.6574907,45.7823956 C31.5388497,47.2773014 32.8402092,48.5268874 33.8370091,49.928058 C34.171483,50.3982174 34.4627386,50.877241 34.7096484,51.3701274 Z" id="Path" fill="#FFDBBC"></path>
                <path d="M17.9161222,30.974029 C12.8273674,33.5232817 8.7021165,28.8110297 8.7021165,20.4489197 C8.7021165,12.0868097 12.8273674,3.24140249 17.9161222,0.692149804 C21.5805917,-1.14359566 24.7454264,0.786185961 26.2299636,5.13283002 C31.9334265,1.97178531 35.9641868,1.82606224 38.2765525,4.87978623 C39.4368968,6.41214382 39.978795,8.48275691 40.6015453,12.7589396 C40.6688759,13.2212726 40.9037349,14.8787681 40.917392,14.9741725 C41.0482188,15.8880915 41.1562473,16.6112859 41.2712207,17.3302909 C41.5664515,19.1765654 41.8815084,20.8130611 42.2681684,22.4304646 C43.2395372,26.4937118 44.6251441,30.2317379 46.6477762,33.8817555 L47,34.5173745 L46.735523,35.5474056 C44.305906,45.0097822 39.3433067,52.4366669 34.141431,55.0425884 L33.5352332,55.346268 L33.2437618,54.618851 C33.0160505,54.0505584 32.6959225,53.4778566 32.2860119,52.901658 C31.3957427,51.6502345 30.1758275,50.4788525 28.3897941,49.0596913 C27.9314186,48.6954715 25.9175651,47.15342 25.4251586,46.756685 C24.3519817,45.8920197 23.6446125,45.2160515 23.1552317,44.5317273 C22.0302522,42.9586153 21.8003298,41.2766603 21.7821432,37.519582 C21.7810525,37.2942563 21.7805173,37.1948267 21.779652,37.071437 C21.7664342,35.1865716 21.6785336,34.2137577 21.3893218,33.3505964 C21.2662458,32.9832722 20.5157774,31.0997455 19.9273007,29.6047631 C19.2799353,30.1659004 18.6069061,30.6279752 17.9161222,30.974029 Z M18.1828846,24.7221093 C17.4779434,22.4165846 17.046911,20.3490326 16.9404582,18.4562697 C16.7975306,15.9149731 17.2532747,13.6186052 18.4543486,11.884394 C19.5895646,10.2452741 20.8172796,9.84462068 21.9860818,10.4854033 C22.7542673,10.9065525 23.4994768,11.7672172 24.2367494,12.9977912 C24.5498771,13.5787528 24.7903061,14.1333256 24.9608283,14.4768844 C25.0407713,13.732586 25.0825711,12.985344 25.0825711,12.2429992 C25.0825711,5.7391358 21.8740426,2.07405096 17.9161222,4.05680305 C13.9582018,6.03955514 10.7496733,12.9193163 10.7496733,19.4231796 C10.7496733,25.927043 13.9582018,29.5921278 17.9161222,27.6093758 C18.2614251,27.4363935 18.601024,27.226138 18.9332859,26.9821108 C18.656231,26.2034591 18.4070517,25.4552528 18.1828846,24.7221093 Z M34.7096484,51.3701274 C38.7458789,49.0191853 42.5535017,43.2941067 44.6211871,36.0088601 C42.6776192,32.3603846 41.3113617,28.5919057 40.3360622,24.5122159 C39.9252671,22.7938552 39.5919038,21.0622707 39.2816921,19.1223104 C39.162528,18.377098 39.0512983,17.6324737 38.9174433,16.6974007 C38.9027466,16.5947336 38.6690001,14.9450894 38.6030929,14.492531 C38.0530018,10.7152705 37.610053,9.02274635 36.7562123,7.89515929 C34.9992047,5.57484449 31.733533,5.59789223 26.9190055,8.12626273 C27.243819,10.3995684 27.1088287,12.5417163 26.9732842,14.455792 C28.5134345,14.6200147 30.0809023,14.9228887 31.6757772,15.3641714 L32.041183,15.4652747 L33.3696092,20.3189273 L33.2848327,20.8939748 C32.5900185,25.6069671 31.7979128,28.2792459 30.4202431,28.9694006 C28.9229483,29.7194825 26.6791025,26.5515562 25.6827976,23.3693788 C24.8144678,20.5959511 23.9615579,18.2995899 22.8992248,16.3618698 C21.477969,13.7694664 20.2874835,13.1167961 19.4734168,14.2922139 C18.6478244,15.4842733 18.8087468,18.3455209 20.0600039,22.4377835 C20.3617619,23.4246896 20.7158325,24.4523041 21.1295684,25.5598934 C21.5241321,26.6161576 23.0313216,30.3610815 23.2413702,30.9879778 C23.6883917,32.3221267 23.8107269,33.6760352 23.8270739,36.0071303 C23.8279763,36.1358083 23.8285256,36.2378788 23.8296356,36.4671762 C23.844213,39.478651 23.9919354,40.5592876 24.7036821,41.5545564 C25.0870983,42.0907055 25.7200316,42.6955421 26.6995311,43.4847309 C27.1767781,43.8692518 29.1860765,45.4078154 29.6574907,45.7823956 C31.5388497,47.2773014 32.8402092,48.5268874 33.8370091,49.928058 C34.171483,50.3982174 34.4627386,50.877241 34.7096484,51.3701274 Z M30.4352175,18.7456807 C29.1070999,18.3954323 27.8009083,18.1454785 26.5167008,17.9956627 C26.9069649,19.0530071 27.2071128,19.9579672 27.5536798,21.0648951 C27.8872956,22.1304573 28.527041,23.4172334 29.19842,24.3651056 C29.5324968,24.836765 29.8543698,25.1958969 30.127079,25.4033632 C30.209573,25.4661213 30.2842206,25.5123492 30.3484328,25.5424201 C30.3953509,25.4209558 30.4497607,25.2602832 30.5086852,25.0614933 C30.740229,24.2803481 30.9804728,23.1194998 31.2175249,21.6039863 L30.4352175,18.7456807 Z M3.07133524,8.1287653 C4.76758685,7.27901441 6.14267047,8.84976505 6.14267047,11.6371351 L6.14267047,31.8250545 C6.14267047,34.6124245 4.76758685,37.5608936 3.07133524,38.4106445 C1.37508362,39.2603954 -2.84217094e-14,37.6896447 -2.84217094e-14,34.9022747 L-2.84217094e-14,14.7143553 C-2.84217094e-14,11.9269853 1.37508362,8.9785162 3.07133524,8.1287653 Z" id="Shape" fill="#363636" fill-rule="nonzero"></path>
            </g>
             <text id="Cloud-Text" font-family="Stem Text" font-size="13" font-weight="normal" line-spacing="14" fill="#9E9E9E">
                <tspan x="26" y="200">Commercial SaaS</tspan>
            </text>
        </g>
        <g class="sprite--node--cog" id="For-node" transform="translate(523.000000, 255.000000)">
            <path d="M3.84,4 L54.84,4 L54.84,55 L3.84,55 L3.84,4 Z M4.84,5 L4.84,54 L53.84,54 L53.84,5 L4.84,5 Z M3.84,4 L17.84,4 L17.84,18 L3.84,18 L3.84,4 Z M41.84,42 L54.84,42 L54.84,55 L41.84,55 L41.84,42 Z" id="Rectangle" fill="#FF00C8" fill-rule="nonzero"></path>
            <path d="M48.5497088,44 C47.6871378,46.8885976 45.0057198,49.0004135 41.8404888,49.0004135 C41.2821699,49.0004135 40.7388989,48.9346927 40.2180062,48.8105803 L35.9375019,56.2246313 C37.7562862,56.9823426 39.7503446,57.4009097 41.8402407,57.4009097 C49.6543759,57.4009097 56.1281993,51.5505255 57.1114679,44 L48.5497088,44 Z M36.756293,37.1935565 L32.476972,29.7815552 C28.809209,32.599179 26.4406955,37.0285059 26.4406955,42.0004548 C26.4406955,46.9722393 28.8090524,51.4014378 32.4766082,54.219075 L36.7561448,46.8067003 C35.5693946,45.5518805 34.8406955,43.8595154 34.8406955,42.0002067 C34.8406955,40.1408207 35.5694553,38.4483921 36.756293,37.1935565 Z M48.5495853,40 L57.1113494,40 C56.1276793,32.4499143 49.6540621,26.6 41.8402407,26.6 C39.7505067,26.6 37.7565957,27.0185021 35.9379253,27.776102 L40.2182161,35.1897831 C40.7390448,35.0657032 41.2822449,35 41.8404888,35 C45.0055688,35 47.6868819,37.1116143 48.5495853,40 Z M39.7894566,60.8912001 C38.9440641,60.8000455 38.1151001,60.6531989 37.3063192,60.454414 L35.2628544,63.0177726 L33.3696504,62.3287027 L33.4520731,59.0470677 C32.6971002,58.6739917 31.9703092,58.2522039 31.275833,57.7858365 L28.4710452,59.5004917 L26.9276911,58.2054638 L28.1305906,55.1421275 C27.5514423,54.5381251 27.0116917,53.8960602 26.5155173,53.2201106 L23.2918131,53.8723931 L22.2844603,52.1276069 L24.4566097,49.6671443 C24.1184067,48.9032325 23.8291253,48.1130217 23.5927638,47.3005097 L20.34985,46.8123088 L20,44.828211 L22.8819409,43.259454 C22.8545882,42.843294 22.8406955,42.423519 22.8406955,42.0005612 C22.8406955,41.5772362 22.8546123,41.1570996 22.8820122,40.7405848 L20,39.171789 L20.34985,37.1876912 L23.5931053,36.6994389 C23.829481,35.8870746 24.1187583,35.0970065 24.4569406,34.3332306 L22.2844603,31.8723931 L23.2918131,30.1276069 L26.5162347,30.7800345 C27.0123012,30.1043217 27.5519157,29.4624751 28.1309033,28.8586687 L26.9276911,25.7945362 L28.4710452,24.4995083 L31.2767079,26.2146983 C31.9709281,25.7485584 32.6974351,25.3269636 33.4521009,24.9540409 L33.3696504,21.6712973 L35.2628544,20.9822274 L37.3070673,23.5465245 C38.1154866,23.3478635 38.9440691,23.2010939 39.7890656,23.1099643 L40.8333427,20 L42.8480484,20 L43.8923598,23.1100666 C44.7373106,23.2012255 45.5658431,23.3480078 46.3742105,23.5466666 L48.4185367,20.9822274 L50.3117407,21.6712973 L50.2292852,24.9542392 C50.9839039,25.3271367 51.7103635,25.7486945 52.4045383,26.2147869 L55.2103459,24.4995083 L56.7537,25.7945362 L55.5504503,28.8587642 C56.1294297,29.4625465 56.6690354,30.1043653 57.1650938,30.7800472 L60.389578,30.1276069 L61.3969308,31.8723931 L59.2244373,34.3332455 C59.5626231,35.0970165 59.8519024,35.8870793 60.0882794,36.6994379 L63.3315411,37.1876912 L63.6813911,39.171789 L60.7993788,40.7405849 C60.8267788,41.1570997 60.8406955,41.5772363 60.8406955,42.0005612 C60.8406955,42.423519 60.8268029,42.843294 60.7994501,43.2594539 L63.6813911,44.828211 L63.3315411,46.8123088 L60.0886209,47.3005107 C59.8522581,48.113017 59.5629747,48.9032225 59.2247683,49.6671294 L61.3969308,52.1276069 L60.389578,53.8723931 L57.1658111,53.220098 C56.6696449,53.8960166 56.1299031,54.5380537 55.550763,55.142032 L56.7537,58.2054638 L55.2103459,59.5004917 L52.4054132,57.7857479 C51.7109824,58.2520679 50.9842388,58.6738186 50.229313,59.0468693 L50.3117407,62.3287027 L48.4185367,63.0177726 L46.3749586,60.4542719 C45.5662296,60.6530546 44.7373156,60.799914 43.8919688,60.8910979 L42.8480484,64 L40.8333427,64 L39.7894566,60.8912001 Z M41.8406069,45.0001772 C43.49482,45.0001772 44.8406955,43.6543017 44.8406955,42.0000886 C44.8406955,40.3458755 43.49482,39 41.8406069,39 C40.1865711,39 38.8406955,40.3458755 38.8406955,42.0000886 C38.8406955,43.6543017 40.1865711,45.0001772 41.8406069,45.0001772 Z" id="Mask" fill="#000000"></path>
            <path d="M8.94146722,18.5416175 C9.39819711,22.3757822 12.4479255,25.4257732 16.2816175,25.8828645 L16.2816175,20.3704327 C15.4304901,20.0686213 14.7547262,19.3928209 14.4529458,18.5416175 L8.94146722,18.5416175 Z M8.94152634,16.5416175 L14.4530087,16.5416175 C14.75482,15.6904976 15.4305491,15.0147701 16.2816175,14.7129796 L16.2816175,9.20086679 C12.4480909,9.65793837 9.39846022,12.7076859 8.94152634,16.5416175 Z M25.6230997,16.5416175 C25.1661239,12.7073539 22.115976,9.65741022 18.2816175,9.20074812 L18.2816175,14.7130104 C19.1327085,15.014816 19.8084191,15.6905265 20.1102247,16.5416175 L25.6230997,16.5416175 Z M25.6231588,18.5416175 L20.1102876,18.5416175 C19.8085129,19.392792 19.1327676,20.0685753 18.2816175,20.3704019 L18.2816175,25.8829831 C22.1161414,25.4263013 25.1663871,22.3761142 25.6231588,18.5416175 Z M15.2229199,29.3655246 C14.5096021,29.2416412 13.8176782,29.0545447 13.1531505,28.8102364 L10.6476429,31.0319986 L8.91559214,30.0319986 L9.58837876,26.7442577 C9.04196733,26.2866156 8.53675692,25.7813129 8.0792081,25.2348091 L4.79123649,25.9076429 L3.79123649,24.1755921 L6.01370907,21.6692835 C5.76968857,21.0051365 5.58280061,20.3136314 5.4590347,19.6007566 L2.28161755,18.5416175 L2.28161755,16.5416175 L5.45916535,15.4824349 C5.58296326,14.7696467 5.76986844,14.0782259 6.01389322,13.4141593 L3.79123649,10.9076429 L4.79123649,9.17559214 L8.07971477,9.84852965 C8.53716445,9.30221672 9.04224535,8.79708308 9.58850259,8.33958251 L8.91559214,5.05123649 L10.6476429,4.05123649 L13.1537156,6.27349978 C13.8179925,6.02932183 14.5096421,5.84231143 15.2226691,5.71846285 L16.2816175,2.54161755 L18.2816175,2.54161755 L19.3405116,5.71829978 C20.0536679,5.84210098 20.7454386,6.02907487 21.4098282,6.27322602 L23.9155921,4.05123649 L25.6476429,5.05123649 L24.974918,8.33867603 C25.5215386,8.79635097 26.0269391,9.30171268 26.4846556,9.84829733 L29.7719986,9.17559214 L30.7719986,10.9076429 L28.5503201,13.4130561 C28.7946033,14.0776129 28.9816786,14.7695701 29.1055454,15.4829268 L32.2816175,16.5416175 L32.2816175,18.5416175 L29.105676,19.6002647 C28.9818413,20.313708 28.7947832,21.0057495 28.5505043,21.6703867 L30.7719986,24.1755921 L29.7719986,25.9076429 L26.4851624,25.2350415 C26.0273467,25.781817 25.5218167,26.2873477 24.9750418,26.7451642 L25.6476429,30.0319986 L23.9155921,31.0319986 L21.4103933,28.8105102 C20.745753,29.0547916 20.0537079,29.2418517 19.3402608,29.3656877 L18.2816175,32.5416175 L16.2816175,32.5416175 L15.2229199,29.3655246 Z" id="Mask" fill="#000000" transform="translate(17.281618, 17.541618) rotate(-8.000000) translate(-17.281618, -17.541618) "></path>
        </g>
        <g class="sprite--logo" id="Logo">
            <g id="Final">
                <g id="Normal">
                    <g id="Group">
                        <g class="sprite--logo--leg" id="Leg" transform="translate(26.000000, 69.666667)">
                            <path d="M2,1.32457764 C2,0.224843777 2.79631805,-0.26850764 3.79535615,0.23101141 L8.20464385,2.43565525 C9.19619167,2.93142917 10,4.23323085 10,5.32457764 L10,29.342089 C10,30.4418229 9.20368195,30.9351743 8.20464385,30.4356552 L3.79535615,28.2310114 C2.80380833,27.7352375 2,26.4334358 2,25.342089 L2,1.32457764 Z M3.85064042,24.9686095 C4.42537161,26.5476704 5.85134465,27.4783185 7.03564037,27.0472701 C8.21993608,26.6162217 8.71408576,24.9867061 8.13935458,23.4076452 C7.5646234,21.8285842 6.13865035,20.8979361 4.95435464,21.3289845 C3.77005892,21.7600329 3.27590924,23.3895485 3.85064042,24.9686095 Z" id="Combined-Shape" fill="#4A4A4A"></path>
                            <polygon id="Rectangle-5" fill="#4A4A4A" points="9.30000305 2.57333119 7.30000305 3.57333119 7.30000305 31.5733312 9.30000305 30.5733312"></polygon>
                            <polygon id="Path-6" fill="#4A4A4A" points="3.1640625 20.6674397 2.93615723 25.0710042 5.77941895 28.6509603 2.10302734 28.5424397 0.549926758 24.3981526 0.931030273 20.7759603"></polygon>
                            <path d="M0,2.32457764 C0,1.22484377 0.796318054,0.731492363 1.79535615,1.23101141 L6.20464385,3.43565525 C7.19619167,3.93142917 8,5.23323085 8,6.32457764 L8,30.342089 C8,31.4418229 7.20368195,31.9351743 6.20464385,31.4356552 L1.79535615,29.2310114 C0.80380833,28.7352375 0,27.4334358 0,26.342089 L0,2.32457764 Z M1.85064042,25.9686095 C2.42537161,27.5476704 3.85134465,28.4783185 5.03564037,28.0472701 C6.21993608,27.6162217 6.71408576,25.9867061 6.13935458,24.4076452 C5.5646234,22.8285842 4.13865035,21.8979361 2.95435464,22.3289845 C1.77005892,22.7600329 1.27590924,24.3895485 1.85064042,25.9686095 Z" id="Combined-Shape" fill="#000000"></path>
                        </g>
                        <g class="sprite--logo--leg" id="Leg" transform="translate(42.000000, 61.666667)">
                            <path d="M2,1.32457764 C2,0.224843777 2.79631805,-0.26850764 3.79535615,0.23101141 L8.20464385,2.43565525 C9.19619167,2.93142917 10,4.23323085 10,5.32457764 L10,29.342089 C10,30.4418229 9.20368195,30.9351743 8.20464385,30.4356552 L3.79535615,28.2310114 C2.80380833,27.7352375 2,26.4334358 2,25.342089 L2,1.32457764 Z M3.85064042,24.9686095 C4.42537161,26.5476704 5.85134465,27.4783185 7.03564037,27.0472701 C8.21993608,26.6162217 8.71408576,24.9867061 8.13935458,23.4076452 C7.5646234,21.8285842 6.13865035,20.8979361 4.95435464,21.3289845 C3.77005892,21.7600329 3.27590924,23.3895485 3.85064042,24.9686095 Z" id="Combined-Shape" fill="#4A4A4A"></path>
                            <polygon id="Rectangle-5" fill="#4A4A4A" points="9.30000305 2.57333119 7.30000305 3.57333119 7.30000305 31.5733312 9.30000305 30.5733312"></polygon>
                            <polygon id="Path-6" fill="#4A4A4A" points="3.1640625 20.6674397 2.93615723 25.0710042 5.77941895 28.6509603 2.10302734 28.5424397 0.549926758 24.3981526 0.931030273 20.7759603"></polygon>
                            <path d="M0,2.32457764 C0,1.22484377 0.796318054,0.731492363 1.79535615,1.23101141 L6.20464385,3.43565525 C7.19619167,3.93142917 8,5.23323085 8,6.32457764 L8,30.342089 C8,31.4418229 7.20368195,31.9351743 6.20464385,31.4356552 L1.79535615,29.2310114 C0.80380833,28.7352375 0,27.4334358 0,26.342089 L0,2.32457764 Z M1.85064042,25.9686095 C2.42537161,27.5476704 3.85134465,28.4783185 5.03564037,28.0472701 C6.21993608,27.6162217 6.71408576,25.9867061 6.13935458,24.4076452 C5.5646234,22.8285842 4.13865035,21.8979361 2.95435464,22.3289845 C1.77005892,22.7600329 1.27590924,24.3895485 1.85064042,25.9686095 Z" id="Combined-Shape" fill="#000000"></path>
                        </g>
                        <polygon id="Combined-Shape" fill="#F32B2B" points="0 20 40 39.9980297 40 89.9999964 0 70"></polygon>
                        <polygon id="Combined-Shape" fill="#FF5E5E" transform="translate(60.000000, 54.999998) scale(-1, 1) translate(-60.000000, -54.999998) " points="40 20 80 39.9980297 80 89.9999964 40 70"></polygon>
                        <path d="M58,65 C58,65 58,67.5 61,69 C64,70.5 64,68 64,68 L64,64 L58,61 L58,65 Z M51.1809221,45.0260604 C51.9364922,47.101972 53.8111469,48.325448 55.3680806,47.7587705 C56.9250143,47.192093 57.5746479,45.0498512 56.8190779,42.9739396 C56.0635078,40.898028 54.1888531,39.674552 52.6319194,40.2412295 C51.0749857,40.807907 50.4253521,42.9501488 51.1809221,45.0260604 Z M67.1809221,53.0260604 C67.9364922,55.101972 69.8111469,56.325448 71.3680806,55.7587705 C72.9250143,55.192093 73.5746479,53.0498512 72.8190779,50.9739396 C72.0635078,48.898028 70.1888531,47.674552 68.6319194,48.2412295 C67.0749857,48.807907 66.4253521,50.9501488 67.1809221,53.0260604 Z" id="Combined-Shape" fill="#000000" transform="translate(62.000000, 54.791006) scale(-1, 1) translate(-62.000000, -54.791006) "></path>
                        <path d="M24,40.5024733 C24,39.9488226 24.398159,39.3009205 24.8877296,39.0561352 L27.1122704,37.9438648 C27.6025499,37.6987251 28,37.955761 28,38.5024733 L28,48.4975267 C28,49.0511774 27.601841,49.6990795 27.1122704,49.9438648 L24.8877296,51.0561352 C24.3974501,51.3012749 24,51.044239 24,50.4975267 L24,40.5024733 Z M10,47.5024733 C10,46.9488226 10.398159,46.3009205 10.8877296,46.0561352 L13.1122704,44.9438648 C13.6025499,44.6987251 14,44.955761 14,45.5024733 L14,55.4975267 C14,56.0511774 13.601841,56.6990795 13.1122704,56.9438648 L10.8877296,58.0561352 C10.3974501,58.3012749 10,58.044239 10,57.4975267 L10,47.5024733 Z M16,65.4792899 C16,65.4792899 16,62.9792899 19,61.4792899 C22,59.9792899 22,62.4792899 22,62.4792899 L22,66.4792899 L16,69.4792899 L16,65.4792899 Z" id="Combined-Shape" fill="#000000" transform="translate(19.000000, 53.665024) scale(-1, 1) translate(-19.000000, -53.665024) "></path>
                        <polygon id="Rectangle-2" fill="url(#linearGradient-1)" transform="translate(40.000000, 12.000000) scale(1, -1) translate(-40.000000, -12.000000) " points="0 0 40 19.9994016 80 0 80 4 39.9981059 24 0 4"></polygon>
                        <path d="M32,29 C34.209139,29 36,27.6568542 36,26 C36,24.3431458 34.209139,23 32,23 C29.790861,23 28,24.3431458 28,26 C28,27.6568542 29.790861,29 32,29 Z M48,21 C50.209139,21 52,19.6568542 52,18 C52,16.3431458 50.209139,15 48,15 C45.790861,15 44,16.3431458 44,18 C44,19.6568542 45.790861,21 48,21 Z" id="Combined-Shape" fill="#000000"></path>
                    </g>
                </g>
            </g>
        </g>
    </g>
</svg>