<svg class="sprite" width="500" height="500" xmlns="http://www.w3.org/2000/svg"><defs><linearGradient x1="0%" y1="10.229%" x2="100%" y2="10.229%" id="h"><stop stop-color="#F22B2B" offset="0%"/><stop stop-color="#FF5E5E" offset="100%"/></linearGradient><linearGradient x1="50.914%" y1="7.389%" x2="50%" y2="100%" id="a"><stop stop-color="#D9D8DC" offset="0%"/><stop stop-color="#FFF" stop-opacity=".385" offset="100%"/></linearGradient><linearGradient x1="58.489%" y1="7.691%" x2="50%" y2="100%" id="b"><stop stop-color="#8D67AF" stop-opacity=".672" offset="0%"/><stop stop-color="#9F8DAF" offset="100%"/></linearGradient><linearGradient x1="54.233%" y1="31.435%" x2="54.233%" y2="98.228%" id="c"><stop stop-color="#26053D" stop-opacity=".762" offset="0%"/><stop stop-color="#B7B4B4" stop-opacity=".278" offset="100%"/></linearGradient><linearGradient x1="21.625%" y1="-14.908%" x2="50%" y2="124.102%" id="d"><stop stop-color="#91739F" stop-opacity=".46" offset="0%"/><stop stop-color="#32054F" stop-opacity=".54" offset="100%"/></linearGradient><linearGradient x1="68.299%" y1="96.41%" x2="25.405%" y2="21.227%" id="e"><stop stop-color="#463D49" stop-opacity=".331" offset="0%"/><stop stop-color="#340A50" stop-opacity=".821" offset="100%"/></linearGradient><linearGradient x1="60.389%" y1="7.419%" x2="50%" y2="100%" id="f"><stop stop-color="#715383" stop-opacity=".145" offset="0%"/><stop stop-color="#F4F4F4" stop-opacity=".234" offset="100%"/></linearGradient><linearGradient x1="80.255%" y1="72.665%" x2="35.702%" y2="50%" id="g"><stop stop-color="#A5A1A8" stop-opacity=".356" offset="0%"/><stop stop-color="#370C50" stop-opacity=".582" offset="100%"/></linearGradient></defs><g fill="none" fill-rule="evenodd"><g class="sprite--go" transform="translate(-1000.000000, 0.000000)" fill-rule="nonzero"><path d="M78 22.118l-37 18.5v46.646l37-18.5V22.118zm-1.354-1.559L40 2.236 3.354 20.56 40 38.882l36.646-18.323zM2 22.118v46.646l37 18.5V40.618l-37-18.5zM0 20L40 0l40 20v50L40 90 0 70V20zm23 0l4-2 14 7-4 2-14-7zm14-7l4-2 14 7-4 2-14-7z" fill="#363636"/><g transform="translate(51.000000, 35.000000)"><path d="M1.016 24.962a.325.325 0 0 1-.211.03c-.153-.054-.246-.242-.242-.491-.099-.024-.165-.128-.176-.276.028-.381.171-.778.39-1.085.422-.598.933-1.012 1.442-1.169l.059-.026v.082c.008.308.002.624-.02.944v.274c-.02.435-.078.527-.234.653a1.556 1.556 0 0 0-.235.265 2.652 2.652 0 0 1-.773.8z" fill="#010101"/><path d="M2.008 22.253c-.41.177-.812.532-1.148 1.014a1.92 1.92 0 0 0-.329.881c.01.1.062.164.133.164l.04-.017v.06c-.012.198.05.357.163.418.3-.071.605-.334.833-.717.081-.117.17-.22.265-.307.102-.095.125-.116.141-.463v-.273c.018-.281.026-.559.023-.831l-.12.055v.016z" fill="#F6D2A2"/><path d="M.633 24.387c.112-.086.214-.212.293-.363" fill="#C7B199"/><path d="M.563 24.495c-.019-.016-.027-.048-.021-.086a.165.165 0 0 1 .048-.096l.047-.021a.81.81 0 0 0 .215-.273c.015-.035.04-.06.065-.068.026-.007.047.006.057.035a.149.149 0 0 1-.009.102 1.07 1.07 0 0 1-.281.369l-.047.021c-.028.03-.055.033-.074.017zM15.656 33.363c-.324.12-.59-.203-.848-.507-.178-.282-.42-.464-.703-.529l-.094.004.059-.163c.29-.78.753-1.452 1.285-1.869l.028-.012.023-.01c.363.152 1.114.73 1.11 1.564-.005.336-.14.702-.352.952-.121.251-.292.45-.477.556l-.03.014z" fill="#010101"/><path d="M14.91 32.679c.17.315.437.487.75.485.15-.077.29-.233.39-.434a1.24 1.24 0 0 0 .29-.766c0-.667-.602-1.231-1.02-1.419-.445.363-.831.926-1.082 1.58.261.1.491.287.672.554z" fill="#F6D2A2"/><path d="M16.121 32.879c-.026.011-.05.001-.062-.027a3.094 3.094 0 0 1-.11-.322 1.18 1.18 0 0 0-.258-.55c-.028-.026-.029-.088-.002-.14.027-.05.072-.072.1-.047.135.145.234.347.29.59.03.106.065.207.105.303.017.04.003.106-.032.146l-.03.047zM3.145 39.313c-.148 0-.27-.093-.34-.256-.076.034-.148.013-.191-.056-.469-.82.328-1.965.856-2.724l.183-.269c.739-.543 1.208.098 1.583.617l.105.149-.117.053c-.377.297-.72.728-.989 1.242-.18.313-.376.607-.586.878a1.08 1.08 0 0 1-.379.309.451.451 0 0 1-.125.057z" fill="#010101"/><path d="M2.801 38.834a.181.181 0 0 1 .083-.037l.02-.009.03.073c.052.133.146.21.262.215.138-.033.278-.144.39-.308.203-.262.393-.546.567-.848a4.61 4.61 0 0 1 .942-1.231c-.36-.494-.781-1.013-1.395-.571l-.176.255c-.539.791-1.207 1.74-.82 2.434.017.034.048.049.082.04l.015-.013z" fill="#F6D2A2"/><path d="M2.792 39.018c-.014-.02-.018-.053-.01-.088a2.65 2.65 0 0 1 .227-.819c.056-.134.106-.272.148-.412.016-.057.058-.098.094-.092.035.007.051.058.035.116a4.495 4.495 0 0 1-.16.45 2.34 2.34 0 0 0-.192.727c0 .028-.01.059-.026.084-.015.025-.036.042-.056.046-.023.012-.046.008-.06-.012zM17.391 16.986a.493.493 0 0 0-.234-.052c-.157-.006-.215-.045-.235-.44v-.274a9.663 9.663 0 0 1-.02-.927v-.131l.06-.027c.508-.305 1.02-.355 1.44-.14.22.108.363.376.392.731a.772.772 0 0 1-.176.435 1.17 1.17 0 0 1-.242.712.587.587 0 0 1-.239.168.965.965 0 0 1-.746-.055z" fill="#010101"/><path d="M17.024 16.113v.274c0 .334.035.329.14.335.095 0 .185.023.266.066.228.177.533.163.832-.039a.94.94 0 0 0 .164-.566v-.066l.04-.018a.456.456 0 0 0 .132-.284c-.033-.282-.151-.494-.328-.584-.37-.197-.818-.171-1.27.073-.002.275.005.545.024.81z" fill="#F6D2A2"/><path d="M18.493 16.251l-.047.021a.324.324 0 0 1-.274-.15c-.023-.032-.017-.097.014-.145.031-.047.076-.059.1-.026a.243.243 0 0 0 .215.078l.046-.022c.044-.009.073.036.065.1-.008.064-.049.123-.092.132l-.027.012z" fill="#010101"/><g transform="translate(0.913508, 0.549286)"><path d="M1.458 12.148l-.055.027c-.804.083-1.3-.338-1.394-1.183-.068-.955.27-2.08.87-2.905.657-.908 1.5-1.288 2.126-.96l.055.023-1.602 4.998z" fill="#010101"/><path d="M1.849 7.37c-.32.16-.634.446-.903.826-.557.76-.87 1.8-.808 2.683.085.75.523 1.134 1.238 1.08l1.485-4.661c-.3-.114-.646-.085-1 .082l-.012-.01z" fill="#74CDDD"/><path d="M1.54 10.602c-.39-.079-.644-.33-.418-1.044.227-.715.602-.797.977-.71l-.559 1.754zM15.598 4.676L13.88 1.374l.051-.075c.585-.947 1.396-1.446 2.051-1.26.616.198.977.966.934 1.985-.039.567-.25 1.607-1.262 2.597l-.055.055z" fill="#010101"/><path d="M14.067 1.335l1.594 3.07c.591-.52 1.03-1.436 1.113-2.327.042-.945-.292-1.657-.863-1.84-.584-.179-1.313.255-1.844 1.097z" fill="#74CDDD"/><path d="M15.225 3.054c.391-.468.645-.972.418-1.46-.226-.49-.601-.2-.976.26l.558 1.2z" fill="#010101"/></g><path d="M9.37 36.214l-.485.244c-1.165.54-2.315.798-3.403.762-1.108-.004-2.055-.577-2.7-1.632C1.61 33.531 1.82 29.771 2 26.453c.047-.833.09-1.626.11-2.358a49.48 49.48 0 0 0-.14-4.513c-.165-2.653-.337-5.394.32-8.465.428-2.163 1.42-4.268 2.735-5.803C6.08 4.06 7.369 2.995 9.264 1.833c2.79-1.433 5.54-2.272 6.955.894.906 2.661.918 6.003.934 9.234 0 1.214 0 2.467.062 3.66 0 .372.031.734.05 1.102.165 3.467.353 7.404-.816 11.253-1.461 4.817-5.134 7.257-7.08 8.238z" fill="#010101"/><path d="M9.295 1.986C6.353 3.82 3.485 6.15 2.43 11.084c-.648 3.03-.476 5.749-.316 8.365.115 1.472.162 2.986.14 4.535-.02.737-.066 1.532-.109 2.369-.18 3.285-.39 7.018.754 9.028.48.852 2.028 2.627 5.99.812 1.715-.776 5.86-3.138 7.424-8.269 1.148-3.795.965-7.7.8-11.146 0-.383-.035-.743-.05-1.102-.043-1.17-.063-2.419-.063-3.633 0-3.217-.023-6.552-.922-9.163C15.5 1.506 14.477.742 13.23.754c-1.272.078-2.602.495-3.935 1.232z" fill="#74CDDD"/><g transform="translate(4.444444, 5.354386)"><path d="M6.045 12.066l-.02.01c-.252.067-.467-.063-.566-.344a9.083 9.083 0 0 1 0-1.329c0-.202.023-.427.027-.637v-.164l1.055-.059v.093c0 .175 0 .361.02.538.035.373.035.768 0 1.176v.027c-.083.23-.217.429-.372.553l-.12.124-.024.012z" fill="#010101"/><path d="M6.03 11.87l.109-.113c.117-.096.22-.248.285-.423a6.442 6.442 0 0 0 0-1.094c0-.17 0-.333-.02-.488l-.781.046c0 .17 0 .34-.024.515-.034.44-.038.869-.011 1.28.083.219.247.321.441.278z" fill="#FFF"/><path d="M4.728 12.57c-.332-.107-.54-1.106-.305-2.04v-.045L5.596 9.5v.131c0 .213 0 .427-.028.642a8.739 8.739 0 0 0 0 1.291V11.636c-.128.397-.367.738-.637.91a.26.26 0 0 1-.203.023z" fill="#010101"/><path d="M4.544 10.607c-.168.722-.035 1.658.258 1.75.211.068.446-.341.61-.717a9.353 9.353 0 0 1 0-1.29c0-.16 0-.329.023-.504l-.89.761z" fill="#FFF"/><path d="M6.28 9.807a1.126 1.126 0 0 0-.618.06 2.146 2.146 0 0 0-.649.512c-.437.426-.933.908-1.215.34-.142-.289-.142-.723 0-1.15.154-.492.448-.916.782-1.129l1.879-1.028c.461.049.989.29 1.078.826.028.273-.03.59-.16.878-.131.287-.322.518-.527.638a1.019 1.019 0 0 1-.57.053z" fill="#231F20"/><path d="M5.678 9.662c.23-.086.456-.108.664-.066.351.037.629.061.91-.502.13-.232.191-.51.16-.74-.078-.465-.574-.684-.98-.727l-1.817.988c-.284.186-.533.549-.664.968-.118.355-.118.717 0 .957.222.439.62.065 1.047-.345.214-.238.445-.42.68-.533z" fill="#F6D2A2"/><path d="M6.549 7.138C6.768 8.181 4.595 9.5 4.505 8.526 4.462 7.179 6.33 6.096 6.55 7.138z" fill="#010101"/><path d="M10.53 1.587c-.62-3.434-4.806-.366-4.638 3.381" fill="#FFF"/><path d="M7.303 6.777c-.789.018-1.361-.664-1.477-1.76-.053-.868.169-1.86.61-2.725.418-.804.968-1.457 1.562-1.854C8.543.053 9.101-.084 9.585.05c.522.173.89.712 1.012 1.483.214.953-.019 2.203-.602 3.224-.504.846-1.147 1.483-1.809 1.793-.3.148-.599.225-.883.227z" fill="#010101"/><path d="M7.35 6.574c.88-.016 1.848-.744 2.56-1.923.536-.955.751-2.114.558-3.007C10.218.22 9.133-.239 8.022.613c-1.212.734-2.123 2.641-2.06 4.31.11 1.028.647 1.668 1.388 1.65z" fill="#FFF"/><path d="M7.084 5.264c.378-.183.684-.805.684-1.388 0-.583-.306-.907-.684-.723-.377.183-.684.805-.684 1.388 0 .583.307.907.684.723z" fill="#010101"/><path d="M7.393 4.567c.088-.043.16-.198.16-.346 0-.148-.072-.233-.16-.19-.089.043-.16.198-.16.346 0 .148.071.233.16.19zM4.744 5.264C4.56 1.032-.5 4.307.129 8.444" fill="#FFF"/><path d="M1.126 9.917C.59 9.771.206 9.252.066 8.49-.14 7.45.147 6.101.802 5.042c.79-1.228 1.843-1.927 2.759-1.833.747.094 1.236.882 1.25 2.018.082 1.874-1.004 3.518-2.043 4.275a3.016 3.016 0 0 1-.442.242c-.418.208-.83.267-1.2.173z" fill="#010101"/><path d="M2.759 9.33c.984-.697 2.012-2.246 1.934-4.008-.01-1.07-.468-1.815-1.172-1.903-.871-.088-1.871.578-2.622 1.745-.61.99-.879 2.243-.692 3.22.282 1.445 1.417 1.866 2.552.947z" fill="#FFF"/><path d="M1.262 8.357c.385-.186.696-.81.696-1.394 0-.583-.311-.904-.696-.717-.384.187-.695.81-.695 1.394 0 .583.311.904.695.717z" fill="#010101"/><path d="M1.579 7.656c.09-.044.164-.2.164-.347 0-.148-.073-.233-.164-.189-.09.044-.164.2-.164.348 0 .148.073.232.164.188z" fill="#FFF"/></g></g><g class="sprite--go--cog" transform="translate(0.000000, 0.000000)"><path class="sprite-cog-frame" d="M8.84 9h51v51h-51V9zm1 1v49h49V10h-49zm-1-1h13v13h-13V9zm37 37h14v14h-14V46z" fill="#FF00C8"/><path class="sprite--go--cog-big" d="M28.55 24c-.863 2.889-3.544 5-6.71 5a6.993 6.993 0 0 1-1.622-.19l-4.28 7.415A15.314 15.314 0 0 0 21.84 37.4c7.814 0 14.288-5.85 15.271-13.401H28.55zm-11.794-6.806l-4.279-7.412C8.809 12.599 6.441 17.029 6.441 22c0 4.972 2.368 9.401 6.036 12.22l4.28-7.413A6.975 6.975 0 0 1 14.84 22c0-1.86.728-3.552 1.915-4.806zM28.55 20h8.561c-.983-7.55-7.457-13.4-15.27-13.4-2.09 0-4.084.419-5.903 1.176l4.28 7.414A6.993 6.993 0 0 1 21.84 15c3.166 0 5.847 2.112 6.71 5zm-8.76 20.891a18.881 18.881 0 0 1-2.484-.437l-2.043 2.564-1.893-.69.082-3.28a19.011 19.011 0 0 1-2.176-1.262L8.47 39.5l-1.543-1.295 1.203-3.063a19.152 19.152 0 0 1-1.615-1.922l-3.224.652-1.008-1.744 2.173-2.46a18.856 18.856 0 0 1-.864-2.367L.35 26.812 0 24.828l2.882-1.569a19.193 19.193 0 0 1 0-2.518L0 19.17l.35-1.983 3.243-.489c.236-.812.526-1.602.864-2.366l-2.173-2.46 1.008-1.745 3.224.652a19.153 19.153 0 0 1 1.615-1.921L6.928 5.795 8.47 4.5l2.806 1.715c.694-.466 1.42-.888 2.175-1.261l-.082-3.283 1.893-.689 2.044 2.565a18.881 18.881 0 0 1 2.482-.437L20.833 0h2.015l1.044 3.11c.845.091 1.674.238 2.482.437L28.42.982l1.893.69-.083 3.282c.755.373 1.481.795 2.176 1.26L35.21 4.5l1.544 1.295-1.204 3.064a19.152 19.152 0 0 1 1.615 1.921l3.225-.652 1.007 1.744-2.173 2.461c.339.764.628 1.554.864 2.366l3.244.489.35 1.984-2.883 1.569a19.193 19.193 0 0 1 0 2.518l2.882 1.57-.35 1.983-3.242.489a18.855 18.855 0 0 1-.864 2.366l2.172 2.46-1.007 1.745-3.224-.652a19.152 19.152 0 0 1-1.615 1.922l1.203 3.063L35.21 39.5l-2.805-1.714c-.694.466-1.42.888-2.176 1.26l.083 3.283-1.893.689-2.044-2.564c-.809.2-1.638.346-2.483.437L22.848 44h-2.015l-1.044-3.109zm2.05-15.89c1.655 0 3-1.347 3-3 0-1.655-1.345-3.001-3-3.001-1.653 0-3 1.346-3 3s1.347 3 3 3z" fill="#000"/><path class="sprite--go--cog-small" d="M37.941 47.542a8.417 8.417 0 0 0 7.34 7.34V49.37a3.015 3.015 0 0 1-1.828-1.828H37.94zm0-2h5.512a3.015 3.015 0 0 1 1.829-1.829v-5.512a8.418 8.418 0 0 0-7.34 7.34zm16.682 0a8.418 8.418 0 0 0-7.341-7.341v5.512a3.015 3.015 0 0 1 1.828 1.829h5.513zm0 2H49.11a3.015 3.015 0 0 1-1.828 1.828v5.513a8.418 8.418 0 0 0 7.341-7.341zm-10.4 10.824a11.894 11.894 0 0 1-2.07-.556l-2.505 2.222-1.732-1 .672-3.288a12.108 12.108 0 0 1-1.509-1.51l-3.288.674-1-1.732 2.223-2.507a11.896 11.896 0 0 1-.555-2.068l-3.177-1.06v-2l3.177-1.059c.124-.712.31-1.404.555-2.068l-2.223-2.506 1-1.732 3.289.673c.457-.547.962-1.052 1.509-1.51l-.673-3.288 1.732-1 2.506 2.222a11.894 11.894 0 0 1 2.069-.555l1.059-3.176h2l1.059 3.176c.713.124 1.404.311 2.069.555l2.506-2.222 1.732 1-.673 3.288c.547.457 1.052.963 1.51 1.51l3.287-.673 1 1.732-2.222 2.505c.245.665.432 1.357.556 2.07l3.176 1.059v2L58.106 48.6c-.124.714-.311 1.406-.555 2.07l2.221 2.506-1 1.732-3.287-.673a12.108 12.108 0 0 1-1.51 1.51l.673 3.287-1.732 1-2.506-2.221c-.664.244-1.356.43-2.07.555l-1.058 3.176h-2l-1.06-3.176z" fill="#000"/></g></g><g class="sprite--rails" transform="translate(-2000.000000, 0.000000)"><path d="M78 22.118l-37 18.5v46.646l37-18.5V22.118zm-1.354-1.559L40 2.236 3.354 20.56 40 38.882l36.646-18.323zM2 22.118v46.646l37 18.5V40.618l-37-18.5zM0 20L40 0l40 20v50L40 90 0 70V20zm23 0l4-2 14 7-4 2-14-7zm14-7l4-2 14 7-4 2-14-7z" fill="#363636" fill-rule="nonzero"/><path d="M49.363 72.09v6.34l1.327-.66v-1.652l1.207.87 2.036-1.012-1.615-1.164s1.162-.601 1.25-2.692c0-1.879-1.164-1.543-2.507-.875l-1.698.845zm1.39 1.028l1.144-.57v1.13l-1.144.57v-1.13zm5.742-4.551c-.726.356-1.734.94-1.734 2.608v4.406l1.362-.678v-1.078l1.32-.657v1.053l1.369-.682v-4.62c0-1.448-1.322-.847-2.03-.495l-.287.143zm-.351 1.766l1.278-.636v1.737l-1.278.635v-1.736zm4.032-3.594l1.409-.7v6.063l-1.409.702v-6.065zm2.885-1.355v6.065l3.39-1.688v-1.61l-2.003.997v-4.48l-1.387.716zm7.882-3.976v1.637l-2.268 1.128v.59l.969-.481c.506-.252 1.563-.805 1.563 1.127s-.726 2.4-2.202 3.135l-1.783.887v-1.476l2.048-1.019c.616-.306.65-.568.65-.781 0-.213-.315-.156-.956.163-.641.32-1.83.527-1.83-.975 0-1.503.616-2.374 1.85-2.987 1.232-.614 1.96-.948 1.96-.948zm-20.345 8.273l11.714-5.83s-2.598-5.898-1.938-12.827c.66-6.93 4.932-12.061 7.354-13.588 2.422-1.528 3.743-.36 3.743-.36l.529-1.23s-3.479-2.562-7.883.113c-4.404 2.674-7.442 7.728-9.335 12.964-1.894 5.236-2.995 8.789-3.744 13.67-.748 4.88-.44 7.088-.44 7.088zm-2.334-6.03l2.29-.925-.396 2.988-2.158.751.264-2.814zm3.611-7.7l.617-2.4-2.026.042-.66 2.582 2.07-.224zm2.863-8.616l1.189-2.309-1.542-.467-1.233 2.277 1.586.499zm3.126-8.21l1.057 1.03 1.453-1.743-1.057-.923-1.453 1.635zm5.153-4.336l.264 1.425 1.805-.952-.176-1.307-1.893.834zm6.12-1.382l-.043.988 1.233.19.264-.613-1.453-.565zm-.264 4.264v.805l1.19-.431v-.644l-1.19.27zm-3.787 2.582l.573 1.003.836-1.221-.176-.772-1.233.99zm-1.806 2.562l.881 1.172-.528 1.39-1.277-1.082.924-1.48zm-1.76 5.331l-.573 1.68 1.497.812.352-1.947-1.277-.545zm-.617 5.19l-.088 1.923 1.85.045-.089-1.727-1.673-.24zm.528 6.392l.44 1.713 2.334-1-.836-1.677-1.938.964z" fill="#F64343"/><text class="sprite--rails--text" font-family="Stem Text" font-size="13" fill="#9E9E9E"><tspan x="-12" y="110">Rails Application</tspan> <tspan x="-4" y="126">+ ActionCable</tspan> <tspan class="sprite--rails--text--anycable" x="6" y="142">+ AnyCable</tspan></text><text class="sprite--rails--cluster" font-family="Stem Text" font-size="13" fill="#9E9E9E"><tspan x="5" y="110">Your cluster</tspan></text><g class="sprite--rails--cog" transform="translate(0.000000, 0.000000)"><path class="sprite-cog-frame" d="M.84 0h51v51h-51V0zm1 1v49h49V1h-49z" fill="#FF00C8" fill-rule="nonzero"/><path class="sprite--rails--cog-big" d="M33.05 27.5c-.863 2.889-3.544 5-6.71 5a6.993 6.993 0 0 1-1.622-.19l-4.28 7.415A15.314 15.314 0 0 0 26.34 40.9c7.814 0 14.288-5.85 15.271-13.401H33.05zm-11.794-6.806l-4.279-7.412c-3.668 2.817-6.036 7.247-6.036 12.218 0 4.972 2.368 9.401 6.036 12.22l4.28-7.413A6.975 6.975 0 0 1 19.34 25.5c0-1.86.728-3.552 1.915-4.806zM33.05 23.5h8.561c-.983-7.55-7.457-13.4-15.27-13.4-2.09 0-4.084.419-5.903 1.176l4.28 7.414a6.993 6.993 0 0 1 1.622-.19c3.166 0 5.847 2.112 6.71 5zm-8.76 20.891a18.881 18.881 0 0 1-2.484-.437l-2.043 2.564-1.893-.69.082-3.28a19.011 19.011 0 0 1-2.176-1.262L12.97 43l-1.543-1.295 1.203-3.063a19.153 19.153 0 0 1-1.615-1.922l-3.224.652-1.008-1.744 2.173-2.46a18.856 18.856 0 0 1-.864-2.367l-3.243-.489-.35-1.984 2.882-1.569a19.193 19.193 0 0 1 0-2.518L4.5 22.67l.35-1.983 3.243-.489c.236-.812.526-1.602.864-2.366l-2.173-2.46 1.008-1.745 3.224.652a19.153 19.153 0 0 1 1.615-1.921l-1.203-3.064L12.97 8l2.806 1.715c.694-.466 1.42-.888 2.175-1.261l-.082-3.283 1.893-.689 2.044 2.565a18.881 18.881 0 0 1 2.482-.437l1.044-3.11h2.015l1.044 3.11c.845.091 1.674.238 2.482.437l2.045-2.565 1.893.69-.083 3.282c.755.373 1.481.795 2.176 1.26L39.71 8l1.544 1.295-1.204 3.064a19.152 19.152 0 0 1 1.615 1.921l3.225-.652 1.007 1.744-2.173 2.461c.339.764.628 1.554.864 2.366l3.244.489.35 1.984-2.883 1.569a19.193 19.193 0 0 1 0 2.518l2.882 1.57-.35 1.983-3.242.489a18.855 18.855 0 0 1-.864 2.366l2.172 2.46-1.007 1.745-3.224-.652a19.152 19.152 0 0 1-1.615 1.922l1.203 3.063L39.71 43l-2.805-1.714c-.694.466-1.42.888-2.176 1.26l.083 3.283-1.893.689-2.044-2.564c-.809.2-1.638.346-2.483.437L27.348 47.5h-2.015l-1.044-3.109zm2.05-15.89c1.655 0 3-1.347 3-3 0-1.655-1.345-3.001-3-3.001-1.653 0-3 1.346-3 3s1.347 3 3 3z" fill="#000"/></g></g><g class="sprite--elixir" transform="translate(-1000.000000, 0.000000)" fill-rule="nonzero"><path d="M78 22.118l-37 18.5v46.646l37-18.5V22.118zm-1.354-1.559L40 2.236 3.354 20.56 40 38.882l36.646-18.323zM2 22.118v46.646l37 18.5V40.618l-37-18.5zM0 20L40 0l40 20v50L40 90 0 70V20zm23 0l4-2 14 7-4 2-14-7zm14-7l4-2 14 7-4 2-14-7z" fill="#363636"/><g transform="translate(52.000000, 38.000000)"><path d="M9.22-4.49C7.325-2.513 5.496 1.403 3.732 7.26 1.087 16.044-2.33 28.356 2.375 34.401c2.177 2.797 5.77 3.294 10.487-2.694 3.788-4.81 4.842-13.708 3.482-16.962-2.806-6.712-5.653-7.29-6.415-11.942-.508-3.1-.744-5.531-.709-7.292z" fill="url(#a)"/><path d="M9.22-4.59C7.316-2.599 5.486 1.317 3.732 7.16 1.102 15.92-2.33 28.256 2.375 34.3c2.177 2.797 5.724 2.279 7.693-1.009 1.283-2.143 2.156-4.01 2.658-7.278.56-3.639.13-7.946-.164-9.876-.372-2.443-.494-5.267-.365-8.472l-.102-.14c-1.025-1.408-1.816-2.685-2.166-4.823-.508-3.1-.744-5.532-.709-7.293z" fill="url(#b)"/><path d="M7.643-2.495C5.87.538 4.55 4.798 3.686 10.285c-1.296 8.23-1.436 15.293-.98 19.131.887 7.441 5.48 8.138 10.193 2.114 2.9-3.708 4.107-9.16 4.043-14.39C16.876 11.726 10 8.988 8.782 5.05 7.97 2.423 7.59-.091 7.643-2.495z" fill="url(#c)"/><path d="M12.14 9.473c2.128 3.114 2.592 5.79 1.392 8.03-1.8 3.357-6.202 7.16-8.94 5.556-1.826-1.07-2.517-4.977-2.072-11.722a112.062 112.062 0 0 0-1.912 8.279c-.52 2.733-.673 5.396-.456 7.99.652 1.696 2.24 2.253 4.76 1.672 3.781-.872 7.36-3.164 9.762-6.218 1.6-2.036 2.358-3.644 2.272-4.826.057-1.837-.307-3.376-1.093-4.618-.786-1.241-2.024-2.623-3.712-4.143z" fill="url(#d)"/><path d="M3.827 9.456c-.018 3.026.489 5.641 1.52 7.845 1.546 3.306 3.352 6.434 6.053 8.425 1.802 1.327 3.24 1.327 4.318.001-.885 2.867-1.826 4.525-2.822 4.975-1.496.674-3.319.585-6.24-3.33-1.947-2.61-3.28-5.334-3.996-8.171.113-1.325.234-2.648.361-3.97.128-1.32.396-3.246.806-5.775z" fill="url(#e)"/><path d="M8.396 11.313c.165 2.376.79 5.995 0 9.008-.79 3.012-4.438 9.565-3.431 13.228 1.007 3.662 3.461 1.5 5-1.189 1.54-2.69 2.365-6.223 2.547-8.51.183-2.287-.437-6.201-.638-9.775-.135-2.382-.044-4.528.273-6.437l-.472-.674-2.776.13c-.446 1.23-.613 2.636-.503 4.22z" fill="url(#f)"/><path d="M9.387-1.357c-.899 1.031-1.75 2.609-2.554 4.734-1.207 3.187-1.821 5.043-1.366 9.939.303 3.263.52 6.297.65 9.1l3.89-19.246A69.098 69.098 0 0 1 9.65.96a46.44 46.44 0 0 1-.263-2.317z" fill="url(#g)"/><path d="M10 3.14c-.988 1.375-1.753 3.565-2.296 6.57-.542 3.004-1.039 7.073-1.49 12.207.601-3.423 1-5.883 1.196-7.382.294-2.247.395-5.268 1.176-7.676.521-1.605.992-2.845 1.413-3.72z" fill-opacity=".316" fill="#330A4C"/><path d="M5.428 34.708c1.625-.456 2.474-.565 2.549-.326.111.36-.206.898-1.108 1.093-.601.13-1.081-.125-1.44-.767z" fill="#FFF"/><path d="M6.244.214a61.012 61.012 0 0 0-2.323 6.36 178.211 178.211 0 0 0-1.404 4.8c-.087.717-.13 1.73-.128 3.04.003 1.31.077 2.731.223 4.263.128-3.206.52-6.452 1.174-9.738.655-3.286 1.475-6.194 2.458-8.725z" fill-opacity=".603" fill="#EDEDED"/></g><g class="sprite--elixir--cog" transform="translate(0.000000, 0.000000)"><path class="sprite-cog-frame" d="M0 0h51v51H0V0zm1 1v49h49V1H1zM0 0h12v12H0V0zm38 38h13v13H38V38z" fill="#FF00C8"/><path class="sprite--elixir--cog-big" d="M44.71 40c-.863 2.889-3.544 5-6.71 5a6.993 6.993 0 0 1-1.622-.19l-4.28 7.415A15.314 15.314 0 0 0 38 53.4c7.814 0 14.288-5.85 15.271-13.401H44.71zm-11.794-6.806l-4.279-7.412c-3.668 2.817-6.036 7.247-6.036 12.218 0 4.972 2.368 9.401 6.036 12.22l4.28-7.413A6.975 6.975 0 0 1 31 38c0-1.86.728-3.552 1.915-4.806zM44.71 36h8.561c-.983-7.55-7.457-13.4-15.27-13.4-2.09 0-4.084.419-5.903 1.176l4.28 7.414A6.993 6.993 0 0 1 38 31c3.166 0 5.847 2.112 6.71 5zm-8.76 20.891a18.881 18.881 0 0 1-2.484-.437l-2.043 2.564-1.893-.69.082-3.28a19.011 19.011 0 0 1-2.176-1.262L24.63 55.5l-1.543-1.295 1.203-3.063a19.153 19.153 0 0 1-1.615-1.922l-3.224.652-1.008-1.744 2.173-2.46a18.856 18.856 0 0 1-.864-2.367l-3.243-.489-.35-1.984 2.882-1.569a19.193 19.193 0 0 1 0-2.518l-2.882-1.57.35-1.983 3.243-.489c.236-.812.526-1.602.864-2.366l-2.173-2.46 1.008-1.745 3.224.652a19.153 19.153 0 0 1 1.615-1.921l-1.203-3.064L24.63 20.5l2.806 1.715c.694-.466 1.42-.888 2.175-1.261l-.082-3.283 1.893-.689 2.044 2.565a18.881 18.881 0 0 1 2.482-.437L36.993 16h2.015l1.044 3.11c.845.091 1.674.238 2.482.437l2.045-2.565 1.893.69-.083 3.282c.755.373 1.481.795 2.176 1.26L51.37 20.5l1.544 1.295-1.204 3.064a19.152 19.152 0 0 1 1.615 1.921l3.225-.652 1.007 1.744-2.173 2.461c.339.764.628 1.554.864 2.366l3.244.489.35 1.984-2.883 1.569a19.193 19.193 0 0 1 0 2.518l2.882 1.57-.35 1.983-3.242.489a18.855 18.855 0 0 1-.864 2.366l2.172 2.46-1.007 1.745-3.224-.652a19.152 19.152 0 0 1-1.615 1.922l1.203 3.063L51.37 55.5l-2.805-1.714c-.694.466-1.42.888-2.176 1.26l.083 3.283-1.893.689-2.044-2.564c-.809.2-1.638.346-2.483.437L39.008 60h-2.015l-1.044-3.109zM38 41.001c1.655 0 3-1.347 3-3C41 36.345 39.656 35 38 35c-1.653 0-3 1.346-3 3s1.347 3 3 3z" fill="#000"/><path d="M6.16 12.1V12a6 6 0 0 1 9.976-4.494l.007-.008 26.304 25.103-.69.723L18.01 10.662a6 6 0 0 1-10.85 4.656v24.446A3 3 0 0 1 11.396 44H38v1H8.953l-.008-.008a3 3 0 0 1-2.777-2.777l-.008-.008V12.1zm6 2.9a3 3 0 1 0 0-6 3 3 0 0 0 0 6z" fill="#000"/></g></g><g class="sprite--arrows" transform="translate(-640.000000, 160.000000)" fill="#83A8C2" fill-rule="nonzero"><path d="M127.164 147.206l6.92-2.228a.5.5 0 1 1 .307.951l-8.737 2.814a.5.5 0 0 1-.64-.592l2.133-8.928a.5.5 0 1 1 .972.232l-1.689 7.072 4.107-4.437c5.525-6.3 8.91-13.526 10.807-22.233 1.442-6.617 1.89-12.11 2.363-24.625.513-13.571 1.041-19.531 2.829-26.702 2.366-9.496 6.656-17.314 13.657-23.97l.003-.003.008-.01.03-.036.118-.134a36.191 36.191 0 0 1 2.145-2.24.5.5 0 1 1 .686.727l-.318.306a34 34 0 0 0-1.762 1.867l-.112.128-.029.034-.007.008-.002.002-.036.038c-6.892 6.556-11.089 14.206-13.411 23.524-1.765 7.082-2.289 12.997-2.8 26.499-.476 12.574-.926 18.106-2.385 24.8-1.932 8.864-5.388 16.243-11.04 22.69l-4.117 4.446zM2.164 43.194l4.117 4.446c5.656 6.448 9.128 13.833 11.087 22.706 1.48 6.702 1.95 12.242 2.472 24.833.52 12.533.986 18.034 2.449 24.66 1.924 8.717 5.324 15.949 10.853 22.252l4.108 4.436-1.69-7.071a.5.5 0 1 1 .973-.233l2.133 8.928a.5.5 0 0 1-.64.592l-8.736-2.813a.5.5 0 1 1 .306-.952l6.92 2.228-4.116-4.446c-5.657-6.448-9.129-13.832-11.088-22.706-1.48-6.702-1.949-12.241-2.471-24.833-.52-12.533-.987-18.034-2.45-24.659-1.924-8.718-5.324-15.95-10.853-22.253L1.43 43.873l1.69 7.071a.5.5 0 0 1-.973.233L.014 42.249a.5.5 0 0 1 .64-.592L9.39 44.47a.5.5 0 1 1-.307.952l-6.92-2.228zM135.931 4.5L129.595.936a.5.5 0 0 1 .49-.872l8 4.5a.5.5 0 0 1 0 .872l-8 4.5a.5.5 0 0 1-.49-.872l6.336-3.564H26.341a.5.5 0 0 1 0-1h109.59z"/></g><g class="sprite--client" transform="translate(212.000000, -1020.000000)"><path d="M78 22.118l-37 18.5v46.646l37-18.5V22.118zm-1.354-1.559L40 2.236 3.354 20.56 40 38.882l36.646-18.323zM2 22.118v46.646l37 18.5V40.618l-37-18.5zM0 20L40 0l40 20v50L40 90 0 70V20z" fill="#363636" fill-rule="nonzero"/><path d="M60 70.603c-7.168 3.519-13-.7-13-9.404s5.832-18.649 13-22.168c7.168-3.52 13 .699 13 9.403s-5.832 18.65-13 22.169zm-8.174-2.092c.562-.806 1.35-1.623 2.214-2.517 1.31-1.358 2.943-3.048 2.943-4.101v-1.434c-.465-.245-1.252-.875-1.376-2.343-.376-.246-1-.817-1-1.905 0-.66.215-1.298.404-1.729-.116-.651-.332-2.026-.332-3.114 0-3.642 2.089-7.02 5.32-8.607.928-.456 2.055-.707 2.682-.199 1.465-.406 2.64 1.124 2.64 3.582 0 1.576-.228 2.985-.365 3.694.152.24.317.625.317 1.165 0 1.223-.508 2.263-.982 2.918-.135 1.573-.842 2.892-1.274 3.564v1.445c0 .896 1.338.841 2.632.789.968-.04 2.1.057 2.798.395-.46.615-3.458 6.18-8.447 8.63-4.99 2.45-7.612.145-8.174-.233z" fill="#F64343"/><text font-family="Stem Text" font-size="13" fill="#9E9E9E"><tspan x="22" y="111">Client</tspan> <tspan x="2" y="127">Applications</tspan></text></g><g class="sprite--ws" transform="translate(-1000.000000, 120.000000)"><path d="M78 22.118l-37 18.5v46.646l37-18.5V22.118zm-1.354-1.559L40 2.236 3.354 20.56 40 38.882l36.646-18.323zM2 22.118v46.646l37 18.5V40.618l-37-18.5zM0 20L40 0l40 20v50L40 90 0 70V20z" fill="#363636" fill-rule="nonzero"/><path d="M66.793 49.165v9.28l3.632-1.804V45.446l-4.035-3.15-2.595 4.603 2.998 2.266zm-14.529 18.12L56.3 70.51 74 61.714l-3.575-2.79L57.8 65.198l-2.998-2.414-2.537 4.501zm10.32-18.238l1.211-2.148-6.226-4.86L45 48.284l3.575 2.79 7.495-3.724 2.652 1.996-3.92 6.883-2.595-2.025V51.7l-3.632 1.805v4.419l6.226 4.86 1.326-2.28 2.537 1.98 5.074-2.52-5.074-4.034 1.326-2.353 5.016 3.989V51.01l-2.422-1.964z" fill="#F64343"/><text font-family="Stem Text" font-size="13" fill="#9E9E9E"><tspan x="7.5" y="112">WS Server</tspan></text></g><g class="sprite--cloud" transform="translate(1500.000000, 0.000000)"><path d="M123.709 24.09l-13.767-6.883-76.46 38.416 13.768 6.884 76.459-38.417zm2.233 1.117l-76.46 38.416L80 78.882l76.646-38.323-30.704-15.352zm-18.233-9.117L80 2.236 3.354 40.56 31.25 54.507l76.459-38.417zM48.456 65.346v40.766L30.5 97.109V56.368L2 42.118v96.646l77 38.5V80.618L48.456 65.346zm-2-1L32.5 57.368v38.506l13.956 6.998V64.346zM158 42.118l-77 38.5v96.646l77-38.5V42.118zM0 40L80 0l80 40v100l-80 40-80-40V40zm49.31 17.04l-6.508-3.238 2.146-1.07c2.9-1.446 5.364-1.211 7.066-.365 1.859.925 2.139 2.258-.703 3.675l-2 .997zm-3.033-3.628l-.628.314 3.811 1.896.629-.314c1.691-.843 1.587-1.569.378-2.17-1.097-.546-2.431-.603-4.19.274zm6.4-1.292c-1.878-.935-1.838-2.436.124-3.414 1.933-.964 4.911-1.023 6.845-.06 1.915.952 1.819 2.444-.114 3.408s-4.921 1.028-6.855.066zm1.556-.776c1.209.6 2.88.527 3.904.016 1.064-.53 1.161-1.338-.047-1.94-1.209-.6-2.909-.512-3.895-.02-1.024.51-1.17 1.342.038 1.944zm17.762-5.615l-1.16.578-7.135-.285 3.859 1.92-1.46.727-6.508-3.238 1.15-.573 7.154.285-3.868-1.924 1.46-.727 6.508 3.237zm-2.336-2.076c-1.878-.935-1.838-2.436.124-3.414 1.933-.964 4.91-1.023 6.845-.06 1.915.952 1.819 2.444-.114 3.408s-4.921 1.028-6.855.066zm1.556-.776c1.209.601 2.88.527 3.904.017 1.063-.53 1.161-1.339-.047-1.94-1.209-.601-2.909-.513-3.895-.021-1.024.51-1.17 1.343.038 1.944zm3.797-3.791l-1.348-.671 5.837-2.91 1.349.67-2.175 1.084 5.16 2.567-1.498.747-5.16-2.567-2.165 1.08zm10.314-3.245c-1.878-.934-1.838-2.435.124-3.414 1.933-.963 4.911-1.022 6.845-.06 1.915.952 1.82 2.445-.114 3.409-1.933.964-4.92 1.027-6.855.065zm1.557-.776c1.208.602 2.88.528 3.904.017 1.063-.53 1.16-1.338-.048-1.94-1.209-.6-2.908-.512-3.894-.02-1.025.51-1.171 1.342.038 1.943zm11.083-2.284l-1.499.747-6.508-3.238 2.803-1.397c2.3-1.147 4.042-.849 5.111-.317 1.098.546 1.488 1.472-.648 2.537l-1.305.65 2.046 1.018zm-3.817-3.237l-1.343.67 1.766.879 1.286-.641c.937-.468.999-.832.45-1.105-.511-.254-1.212-.275-2.159.197zm8.862.721l-6.508-3.237 5.17-2.578 1.349.67-3.673 1.831 1.209.602 3.43-1.711 1.302.647-3.43 1.711 1.3.648 3.76-1.875 1.349.67-5.258 2.622zm12.168-6.067l-1.16.578-7.134-.285 3.858 1.919-1.46.728-6.507-3.238 1.15-.573 7.154.285-3.868-1.924 1.46-.727 6.507 3.237z" fill="#363636" fill-rule="nonzero"/><path d="M103.23 87.787c1.696-.85 3.071.721 3.071 3.509v24.188c0 2.787-1.375 5.736-3.071 6.585-1.696.85-3.072-.72-3.072-3.508V94.373c0-2.787 1.376-5.736 3.072-6.586z" fill="#363636" fill-rule="nonzero"/><g class="sprite--cloud--palm" transform="translate(112, 80)"><path d="M9.433 22.869c.047-.121.102-.282.16-.48.232-.782.472-1.943.71-3.458l-.783-2.859a28.16 28.16 0 0 0-3.918-.75c-2.744-.443-4.323-1.865-4.735-4.266C-.2 4.846 2.24 4.436 5.315 2.459 11.018-.7 15.049-.847 17.36 2.206c1.16 1.533 1.703 3.603 2.325 7.88.068.462.303 2.12.316 2.215.131.914.24 1.637.354 2.356.295 1.846.61 3.483.997 5.1.971 4.063 2.357 7.801 4.38 11.451l.352.636-.265 1.03c-2.43 9.462-7.392 16.89-12.594 19.495l-.606.304-.291-.728a8.318 8.318 0 0 0-.958-1.717c-.89-1.251-2.11-2.423-3.896-3.842-.459-.364 1.894-23.547 1.958-23.517z" fill="#363636" fill-rule="nonzero"/><path d="M13.795 48.697c4.036-2.351 7.843-8.076 9.911-15.362-1.943-3.648-3.31-7.416-4.285-11.496a71.152 71.152 0 0 1-1.054-5.39c-.12-.745-.23-1.49-.365-2.425-.014-.103-.248-1.752-.314-2.205-.55-3.777-.993-5.47-1.847-6.597-1.757-2.32-5.023-2.297-9.837.23C3.789 7 2.912 7.213 2.912 9.055c0 1.842.877 2.565 3.146 2.728 1.54.165 3.108.468 4.703.909l.365.1 1.328 4.855-.084.575c-.695 4.713-1.487 7.385-2.865 8.075-1.497.75-1.234 16.438-.763 16.813 1.882 1.495 3.183 2.745 4.18 4.146.334.47.626.949.873 1.442z" fill="#FFDBBC"/></g><g class="sprite--cloud--coin" transform="translate(100.000000, 83.000000)"><path d="M4.028 30.528C-.341 27.295-1.306 18.092 1.873 9.973c3.178-8.12 9.296-12.08 13.665-8.846 4.368 3.234 5.333 12.437 2.155 20.556-3.179 8.119-9.297 12.079-13.665 8.845z" fill="#363636"/><path d="M5.324 27.737c-3.467-2.706-4.282-10.232-1.82-16.81 2.463-6.576 7.27-9.715 10.737-7.008 3.467 2.706 4.282 10.231 1.82 16.809-2.462 6.577-7.27 9.715-10.737 7.01z" fill="#FFD100"/></g><path d="M104.16 87.557a1.984 1.984 0 0 0-.93.23c-1.696.85-3.072 3.799-3.072 6.586v24.188c0 2.787 1.376 4.358 3.072 3.508.324-.162.637-.401.93-.701V139H81V82h23.16v5.557z" fill="#FFF"/><g class="sprite--cloud--thumb" transform="translate(108, 87)"><path d="M9.602 8.322c.39 1.058.69 1.963 1.037 3.07.333 1.065.973 2.352 1.644 3.3.334.471.656.83.929 1.038.082.063.157.109.221.139.032-.08 5.494 3.254 16.387 10.005-2.43 9.462-7.392 16.89-12.594 19.495l-.606.304-.291-.728a8.318 8.318 0 0 0-.958-1.717c-.89-1.251-2.11-2.423-3.896-3.842-.459-.364-2.473-1.906-2.965-2.303-1.073-.864-1.78-1.54-2.27-2.225-1.125-1.573-1.355-3.255-1.373-7.012l-.002-.448c-.014-1.885-.102-2.858-.39-3.72-.124-.368-.874-2.252-1.463-3.747l-.965-2.585-.062-.013.033-.024a52.71 52.71 0 0 1-.75-2.26C.563 12.743.132 10.676.025 8.783-.118 6.242.338 3.945 1.54 2.21 2.674.571 3.902.171 5.071.812c.768.421 1.513 1.282 2.25 2.512.314.581.554 1.136.725 1.48l1.556 3.518z" fill="#363636" fill-rule="nonzero"/><path d="M17.795 41.697c4.036-2.351 7.843-8.076 9.911-15.362-1.943-3.648-3.31-7.416-4.285-11.496-.274-1.146-2.624-2.352-7.051-3.618-.695 4.713-1.487 7.385-2.865 8.075-1.497.75-3.741-2.418-4.737-5.6-.869-2.773-1.722-5.07-2.784-7.008-1.421-2.592-2.612-3.245-3.426-2.07-.825 1.193-.664 4.054.587 8.146a54.28 54.28 0 0 0 1.07 3.123c.394 1.056 1.901 4.8 2.111 5.428.447 1.334.57 2.688.586 5.019l.003.46c.014 3.011.162 4.092.874 5.087.383.536 1.016 1.141 1.995 1.93.478.385 2.487 1.923 2.958 2.298 1.882 1.495 3.183 2.745 4.18 4.146.334.47.626.949.873 1.442z" fill="#FFDBBC"/></g><text font-family="Stem Text" font-size="13" fill="#9E9E9E"><tspan x="26" y="200">Commercial SaaS</tspan></text></g><g class="sprite--vs" transform="translate(-1300.000000, 0.000000)"><path class="sprite--vs--bg" fill="#fff" d="M0-50h80v60H0z"/><text class="sprite--vs--text" font-family="Stem Text" font-size="50" font-weight="bold" fill="#f64343"><tspan x="0" y="0">VS</tspan></text></g><g class="sprite--node--cog" transform="translate(-2523.000000, 255.000000)"><path d="M3.84 4h51v51h-51V4zm1 1v49h49V5h-49zm-1-1h14v14h-14V4zm38 38h13v13h-13V42z" fill="#FF00C8" fill-rule="nonzero"/><path d="M48.55 44c-.863 2.889-3.544 5-6.71 5a6.993 6.993 0 0 1-1.622-.19l-4.28 7.415A15.314 15.314 0 0 0 41.84 57.4c7.814 0 14.288-5.85 15.271-13.401H48.55zm-11.794-6.806l-4.279-7.412c-3.668 2.817-6.036 7.247-6.036 12.218 0 4.972 2.368 9.401 6.036 12.22l4.28-7.413A6.975 6.975 0 0 1 34.84 42c0-1.86.728-3.552 1.915-4.806zM48.55 40h8.561c-.983-7.55-7.457-13.4-15.27-13.4-2.09 0-4.084.419-5.903 1.176l4.28 7.414A6.993 6.993 0 0 1 41.84 35c3.166 0 5.847 2.112 6.71 5zm-8.76 20.891a18.881 18.881 0 0 1-2.484-.437l-2.043 2.564-1.893-.69.082-3.28a19.011 19.011 0 0 1-2.176-1.262L28.47 59.5l-1.543-1.295 1.203-3.063a19.153 19.153 0 0 1-1.615-1.922l-3.224.652-1.008-1.744 2.173-2.46a18.856 18.856 0 0 1-.864-2.367l-3.243-.489-.35-1.984 2.882-1.569a19.193 19.193 0 0 1 0-2.518L20 39.17l.35-1.983 3.243-.489c.236-.812.526-1.602.864-2.366l-2.173-2.46 1.008-1.745 3.224.652a19.153 19.153 0 0 1 1.615-1.921l-1.203-3.064L28.47 24.5l2.806 1.715c.694-.466 1.42-.888 2.175-1.261l-.082-3.283 1.893-.689 2.044 2.565a18.881 18.881 0 0 1 2.482-.437L40.833 20h2.015l1.044 3.11c.845.091 1.674.238 2.482.437l2.045-2.565 1.893.69-.083 3.282c.755.373 1.481.795 2.176 1.26L55.21 24.5l1.544 1.295-1.204 3.064a19.152 19.152 0 0 1 1.615 1.921l3.225-.652 1.007 1.744-2.173 2.461c.339.764.628 1.554.864 2.366l3.244.489.35 1.984-2.883 1.569a19.193 19.193 0 0 1 0 2.518l2.882 1.57-.35 1.983-3.242.489a18.855 18.855 0 0 1-.864 2.366l2.172 2.46-1.007 1.745-3.224-.652a19.152 19.152 0 0 1-1.615 1.922l1.203 3.063L55.21 59.5l-2.805-1.714c-.694.466-1.42.888-2.176 1.26l.083 3.283-1.893.689-2.044-2.564c-.809.2-1.638.346-2.483.437L42.848 64h-2.015l-1.044-3.109zm2.05-15.89c1.655 0 3-1.347 3-3 0-1.655-1.345-3.001-3-3.001-1.653 0-3 1.346-3 3s1.347 3 3 3z" fill="#000"/><path d="M9.162 19.693a8.417 8.417 0 0 0 8.29 6.248l-.767-5.459a3.015 3.015 0 0 1-2.065-1.556l-5.458.767zm-.278-1.98l5.457-.768a3.015 3.015 0 0 1 1.557-2.065L15.13 9.42a8.418 8.418 0 0 0-6.247 8.291zm16.519-2.323a8.418 8.418 0 0 0-8.292-6.247l.767 5.458c.885.18 1.648.756 2.066 1.557l5.459-.768zm.278 1.981l-5.46.767a3.015 3.015 0 0 1-1.555 2.066l.767 5.459a8.418 8.418 0 0 0 6.248-8.292zM16.89 29.537a11.894 11.894 0 0 1-2.127-.262l-2.172 2.549-1.855-.75.209-3.349a12.108 12.108 0 0 1-1.705-1.284l-3.162 1.124-1.231-1.576 1.852-2.792a11.896 11.896 0 0 1-.837-1.97l-3.294-.608-.279-1.98 3-1.491c.023-.723.112-1.434.261-2.126L3 12.85l.75-1.855 3.35.21c.377-.606.806-1.176 1.284-1.705L7.259 6.337l1.576-1.231 2.79 1.852a11.894 11.894 0 0 1 1.972-.838l.607-3.293 1.98-.279 1.491 2.999c.723.023 1.434.112 2.126.261l2.173-2.549 1.854.75-.209 3.349c.605.377 1.176.807 1.705 1.284l3.162-1.123 1.231 1.576-1.85 2.79c.333.624.615 1.283.837 1.972l3.292.607.279 1.98-2.998 1.49a11.896 11.896 0 0 1-.262 2.128l2.549 2.172-.75 1.854-3.348-.209a12.108 12.108 0 0 1-1.285 1.706l1.124 3.161-1.576 1.231-2.79-1.85c-.625.334-1.284.615-1.973.837l-.607 3.292-1.98.279-1.49-2.998z" fill="#000"/></g><g class="sprite--logo" transform="scale(2) translate(90, 0)"><g class="sprite--logo--leg" transform="translate(26.000000, 69.666667)"><path d="M2 1.325C2 .225 2.796-.27 3.795.23l4.41 2.205C9.196 2.93 10 4.233 10 5.325v24.017c0 1.1-.796 1.593-1.795 1.094l-4.41-2.205C2.804 27.735 2 26.433 2 25.342V1.325zm1.85 23.644c.575 1.579 2.001 2.51 3.186 2.078 1.184-.43 1.678-2.06 1.103-3.64-.574-1.578-2-2.51-3.185-2.078-1.184.431-1.678 2.06-1.103 3.64z" fill="#4A4A4A"/><path fill="#4A4A4A" d="M9.3 2.573l-2 1v28l2-1zM3.164 20.667l-.228 4.404 2.843 3.58-3.676-.109L.55 24.398l.381-3.622z"/><path d="M0 2.325C0 1.225.796.73 1.795 1.23l4.41 2.205C7.196 3.93 8 5.233 8 6.325v24.017c0 1.1-.796 1.593-1.795 1.094l-4.41-2.205C.804 28.735 0 27.433 0 26.342V2.325zm1.85 23.644c.575 1.579 2.001 2.51 3.186 2.078 1.184-.43 1.678-2.06 1.103-3.64-.574-1.578-2-2.51-3.185-2.078-1.184.431-1.678 2.06-1.103 3.64z" fill="#000"/></g><g class="sprite--logo--leg" transform="translate(42.000000, 61.666667)"><path d="M2 1.325C2 .225 2.796-.27 3.795.23l4.41 2.205C9.196 2.93 10 4.233 10 5.325v24.017c0 1.1-.796 1.593-1.795 1.094l-4.41-2.205C2.804 27.735 2 26.433 2 25.342V1.325zm1.85 23.644c.575 1.579 2.001 2.51 3.186 2.078 1.184-.43 1.678-2.06 1.103-3.64-.574-1.578-2-2.51-3.185-2.078-1.184.431-1.678 2.06-1.103 3.64z" fill="#4A4A4A"/><path fill="#4A4A4A" d="M9.3 2.573l-2 1v28l2-1zM3.164 20.667l-.228 4.404 2.843 3.58-3.676-.109L.55 24.398l.381-3.622z"/><path d="M0 2.325C0 1.225.796.73 1.795 1.23l4.41 2.205C7.196 3.93 8 5.233 8 6.325v24.017c0 1.1-.796 1.593-1.795 1.094l-4.41-2.205C.804 28.735 0 27.433 0 26.342V2.325zm1.85 23.644c.575 1.579 2.001 2.51 3.186 2.078 1.184-.43 1.678-2.06 1.103-3.64-.574-1.578-2-2.51-3.185-2.078-1.184.431-1.678 2.06-1.103 3.64z" fill="#000"/></g><path fill="#F32B2B" d="M0 20l40 19.998V90L0 70z"/><path fill="#FF5E5E" d="M80 20L40 39.998V90l40-20z"/><path d="M66 65s0 2.5-3 4-3-1-3-1v-4l6-3v4zm6.82-19.974c-.756 2.076-2.631 3.3-4.188 2.733-1.557-.567-2.207-2.71-1.451-4.785.755-2.076 2.63-3.3 4.187-2.733 1.557.567 2.207 2.71 1.451 4.785zm-16 8c-.756 2.076-2.631 3.3-4.188 2.733-1.557-.567-2.207-2.71-1.451-4.785.755-2.076 2.63-3.3 4.187-2.733 1.557.567 2.207 2.71 1.451 4.785zM14 40.502c0-.553-.398-1.201-.888-1.446l-2.224-1.112c-.49-.245-.888.012-.888.558v9.996c0 .553.398 1.201.888 1.446l2.224 1.112c.49.245.888-.012.888-.558v-9.996zm14 7c0-.553-.398-1.201-.888-1.446l-2.224-1.112c-.49-.245-.888.012-.888.558v9.996c0 .553.398 1.201.888 1.446l2.224 1.112c.49.245.888-.012.888-.558v-9.996zM22 65.48s0-2.5-3-4-3 1-3 1v4l6 3v-4z" fill="#000"/><path fill="url(#h)" transform="translate(40.000000, 12.000000) scale(1, -1) translate(-40.000000, -12.000000)" d="M0 0l40 20L80 0v4L39.998 24 0 4z"/><path d="M32 29c2.21 0 4-1.343 4-3s-1.79-3-4-3-4 1.343-4 3 1.79 3 4 3zm16-8c2.21 0 4-1.343 4-3s-1.79-3-4-3-4 1.343-4 3 1.79 3 4 3z" fill="#000"/></g></g></svg>