<svg width="64" height="64" viewBox="0 0 64 64" fill="none" xmlns="http://www.w3.org/2000/svg">
<path d="M12.4199 20C11.5317 18.8157 11.0875 18.2235 10.5957 18.013C9.96312 17.7421 9.23572 17.8155 8.66992 18.2073C8.23012 18.5119 7.91322 19.1808 7.27952 20.5187L1.27609 33.1925C1.1179 33.5265 1.0388 33.6935 1.01539 33.8259C0.925483 34.3346 1.23772 34.828 1.73588 34.9645C1.86561 35 2.05038 35 2.41992 35H21.4199C23.4199 35 25.4199 35 27.4199 35H46.4199C46.7894 35 46.9742 35 47.1039 34.9645C47.6021 34.828 47.9143 34.3346 47.8244 33.8259C47.801 33.6935 47.7219 33.5265 47.5637 33.1925L41.5603 20.5187C40.9266 19.1808 40.6097 18.5119 40.1699 18.2073C39.6041 17.8155 38.8767 17.7421 38.2441 18.013C37.7523 18.2235 37.3081 18.8157 36.4199 20" stroke="black" stroke-width="2" stroke-linecap="round"/>
<path fill-rule="evenodd" clip-rule="evenodd" d="M23.4199 36L1.41992 35V38.4118C1.41992 39.8871 1.41992 40.6247 1.50623 41.2434C2.06189 45.2268 5.19312 48.358 9.17652 48.9137C9.79522 49 10.5328 49 12.0081 49C13.3195 49 13.9752 49 14.5252 48.9233C18.066 48.4294 20.8493 45.6461 21.3432 42.1053C21.4199 41.5553 21.4199 40.8996 21.4199 39.5882V39C21.4199 37 21.9199 36 23.4199 36ZM47.4199 35L25.4199 36C26.9199 36 27.4199 37 27.4199 39V39.5882C27.4199 40.8996 27.4199 41.5553 27.4966 42.1053C27.9905 45.6461 30.7738 48.4294 34.3146 48.9233C34.8646 49 35.5203 49 36.8317 49C38.307 49 39.0446 49 39.6633 48.9137C43.6467 48.358 46.7779 45.2268 47.3336 41.2434C47.4199 40.6247 47.4199 39.8871 47.4199 38.4118V35ZM6.41992 42H8.41992V44H6.41992V42ZM6.41992 42H4.41992V40H6.41992V42ZM10.4199 44V46H8.41992V44H10.4199ZM10.4199 42V44H12.4199V46H14.4199V44H12.4199V42H10.4199ZM10.4199 42V40H8.41992V42H10.4199ZM31.4199 42H33.4199V44H31.4199V42ZM31.4199 42H29.4199V40H31.4199V42ZM35.4199 44V46H33.4199V44H35.4199ZM35.4199 42V44H37.4199V46H39.4199V44H37.4199V42H35.4199ZM35.4199 42V40H33.4199V42H35.4199Z" fill="black"/>
</svg>
