<svg height="20" viewBox="0 0 20 20" width="20" 
  xmlns="http://www.w3.org/2000/svg">
  <path d="m12.612115 15.40137.101953.1312.114359.124284 2.685959 2.686614c-1.580787 1.04688-3.476391 1.656532-5.514386 1.656532s-3.933599-.609652-5.514386-1.656532l2.685959-2.686614.101665-.109423c.040592-.047058.078631-.095558.114117-.145318.788746.383086 1.675611.597887 2.612645.597887.903739 0 1.76081-.199807 2.529449-.557655zm2.243425-1.949025.032222.028379.061985.05481 2.793859 2.792391-.000606.000075.035175.035961c.390524.390524.390524 1.023689 0 1.414214-.390525.390524-1.02369.390524-1.414214 0l-.035021-.0354c-.000338.000277-.000677.000554-.001015.000831l-2.792391-2.793859-.055821-.061264.000287-.001483-.027655-.03146c-.305025-.392291-.277295-.959522.083189-1.320006s.927715-.388214 1.320006-.083189zm-8.391074.083189c.370711.37071.389519.960065.056426 1.352962-.001283-.000497-.000944-.000255-.000605-.000013l-.055821.061264-2.792391 2.793859-.001075-.000606-.034961.035175c-.390524.390524-1.023689.390524-1.414214 0-.390524-.390525-.390524-1.02369 0-1.414214l.0354-.035021c-.000277-.000338-.000554-.000677-.000831-.001015l2.793859-2.792391.061264-.055821.000483.000287.03246-.027655c.392291-.305025.959522-.277295 1.320006.083189zm-4.807934-9.04992 2.686614 2.685959.109423.101665c.047058.040592.095558.078631.145318.114117-.383086.788746-.597887 1.675611-.597887 2.612645 0 .936638.214619 1.823149.597362 2.613038l-.127001.098556-.127215.116833-2.686614 2.685959c-1.04688-1.580787-1.656532-3.476391-1.656532-5.514386s.609652-3.933599 1.656532-5.514386zm16.686936 0c1.04688 1.580787 1.656532 3.476391 1.656532 5.514386s-.609652 3.933599-1.656532 5.514386l-2.686614-2.685959-.109423-.101665c-.047058-.040592-.095558-.078631-.145318-.114117.383086-.788746.597887-1.675611.597887-2.612645 0-.936638-.214619-1.823149-.597362-2.613038l.127001-.098556.127215-.116833zm-.565293-2.263789c.390524.390525.390524 1.02369 0 1.414214l-.0354.035021c.000277.000338.000554.000677.000831.001015l-2.793859 2.792391-.061264.055821-.001483-.001287-.03146.028655c-.392291.305025-.959522.277295-1.320006-.083189-.390524-.390524-.390524-1.023689 0-1.414213l.682466-.683253 2.109925-2.110606.000075-.000394.035961-.034175c.390524-.390524 1.023689-.390524 1.414214 0zm-14.142136 0 .035021.0354c.000338-.000277.000677-.000554.001015-.000831l2.792391 2.793859.055821.061264-.001287.000483.028655.03246c.305025.392291.277295.959522-.083189 1.320006-.390524.390524-1.023689.390524-1.414213 0l-.648253-.648466-2.145606-2.143925-.000394-.001075-.034175-.034961c-.390524-.390524-.390524-1.023689 0-1.414214.390525-.390524 1.02369-.390524 1.414214 0zm6.363961-2.221825c2.037995 0 3.933599.609652 5.514386 1.656532l-2.685959 2.686614-.101665.109423c-.040592.047058-.078631.095558-.114117.145318-.788746-.383086-1.675611-.597887-2.612645-.597887-.936638 0-1.823149.214619-2.613038.597362l-.101145-.13009-.114244-.124126-2.685959-2.686614c1.580787-1.04688 3.476391-1.656532 5.514386-1.656532z" fill="currentColor"/>
</svg>
