<svg width="24" height="24" viewBox="0 0 24 24" fill="none" xmlns="http://www.w3.org/2000/svg">
<path fill-rule="evenodd" clip-rule="evenodd" d="M23 5.11696C22.1893 5.47471 21.3196 5.71759 20.4071 5.8259C21.3393 5.26794 22.0548 4.38177 22.3895 3.32821C21.5165 3.84678 20.5515 4.22095 19.5242 4.42444C18.7004 3.54811 17.5287 3 16.229 3C13.7379 3 11.7161 5.02178 11.7161 7.5129C11.7161 7.86737 11.7555 8.21199 11.8343 8.54021C8.0828 8.35313 4.75802 6.55453 2.53275 3.82381C2.14546 4.49008 1.92227 5.26466 1.92227 6.09175C1.92227 7.65732 2.71983 9.03909 3.93093 9.84649C3.19245 9.82351 2.49664 9.62002 1.88617 9.28196C1.88617 9.30166 1.88617 9.31807 1.88617 9.33776C1.88617 11.5236 3.44189 13.3485 5.50634 13.762C5.1289 13.8638 4.72848 13.9196 4.31822 13.9196C4.02611 13.9196 3.74385 13.89 3.46815 13.8375C4.04252 15.6296 5.70983 16.9358 7.68238 16.972C6.13651 18.1831 4.1935 18.9051 2.07653 18.9051C1.71222 18.9051 1.35447 18.8821 1 18.8428C2.99552 20.1228 5.36849 20.8711 7.91869 20.8711C16.2192 20.8711 20.7583 13.9951 20.7583 8.03148C20.7583 7.83455 20.755 7.64091 20.7452 7.44726C21.6281 6.81053 22.3928 6.01626 22.9967 5.1104L23 5.11696Z" fill="#F64343"/>
</svg>
