<?xml version="1.0" encoding="utf-8"?>
<!-- Generator: Adobe Illustrator 23.0.1, SVG Export Plug-In . SVG Version: 6.00 Build 0)  -->
<svg version="1.1" xmlns="http://www.w3.org/2000/svg" xmlns:xlink="http://www.w3.org/1999/xlink" x="0px" y="0px"
	 viewBox="0 0 396 180" style="enable-background:new 0 0 396 180;" xml:space="preserve">
<style type="text/css">
	.st0{display:none;}
	.st1{display:inline;}
	.st2{fill:#FFFFFF;}
	.st3{fill:url(#SVGID_1_);}
	.st4{fill:url(#SVGID_2_);}
	.st5{fill:#81848A;}
	.st6{fill:url(#SVGID_3_);}
	.st7{fill:url(#SVGID_4_);}
	.st8{fill:#A1A1A4;}
</style>
<g id="LOGO_x5F_CMYK" class="st0">
	<g class="st1">
		<g>
			<polygon class="st2" points="285,62.5 294.7,81.9 377.1,36.5 			"/>
			<linearGradient id="SVGID_1_" gradientUnits="userSpaceOnUse" x1="271.9883" y1="49.52" x2="377.1094" y2="49.52">
				<stop  offset="0" style="stop-color:#E3173E"/>
				<stop  offset="0.1723" style="stop-color:#E32140"/>
				<stop  offset="0.3853" style="stop-color:#E53848"/>
				<stop  offset="0.6197" style="stop-color:#E75255"/>
				<stop  offset="0.8677" style="stop-color:#EB7069"/>
				<stop  offset="1" style="stop-color:#ED8076"/>
			</linearGradient>
			<polygon class="st3" points="272,36.5 285,62.5 377.1,36.5 			"/>
			<linearGradient id="SVGID_2_" gradientUnits="userSpaceOnUse" x1="294.6856" y1="89.0632" x2="377.1094" y2="89.0632">
				<stop  offset="0" style="stop-color:#E3173E"/>
				<stop  offset="0.1723" style="stop-color:#E32140"/>
				<stop  offset="0.3853" style="stop-color:#E53848"/>
				<stop  offset="0.6197" style="stop-color:#E75255"/>
				<stop  offset="0.8677" style="stop-color:#EB7069"/>
				<stop  offset="1" style="stop-color:#ED8076"/>
			</linearGradient>
			<polygon class="st4" points="377.1,36.5 294.7,81.9 324.5,141.6 			"/>
		</g>
		<g>
			<g>
				<path class="st5" d="M59.2,62.7h9.2L94,122.3H81.9l-5.6-13.6H50.5l-5.4,13.6H33.2L59.2,62.7z M72.6,99.6l-9.2-24.3l-9.4,24.3
					H72.6z"/>
				<path class="st5" d="M141.4,81.9v36.8c0,14.6-7.1,23.8-22.8,23.8c-7.5,0-14.3-1.6-20-6.6l6.1-8.3c4,3.7,8.3,5.8,13.9,5.8
					c9.8,0,12.8-5.6,12.8-13.6v-3h-0.2c-2.9,4-8.2,5.9-13.2,5.9c-12.1,0-20.1-9.3-20.1-20.7c0-12,7.5-21.2,20-21.2
					c5.6,0,10.9,2.2,13.9,7.1h0.2v-6.1H141.4z M107.8,102c0,6.4,5.1,11.7,11.9,11.7c7.5,0,12-5.1,12-11.9c0-7-4.6-11.9-12-11.9
					C112.7,90,107.8,94.8,107.8,102z"/>
				<path class="st5" d="M159.7,105.6c0.7,6,5.2,9.6,10.9,9.6c5.1,0,8.3-2.4,10.9-5.5l7.2,5.5c-4.7,5.8-10.7,8.1-17.1,8.1
					c-12.2,0-22-8.5-22-21.2c0-12.7,9.8-21.2,22-21.2c11.3,0,19,7.9,19,22v2.8H159.7z M180.4,98c-0.1-5.9-4-9.6-10.3-9.6
					c-6,0-9.7,3.8-10.4,9.6H180.4z"/>
				<path class="st5" d="M198.9,81.9H209v6.4h0.2c2.2-4.6,6.7-7.4,12-7.4c1.3,0,2.5,0.2,3.6,0.6v9.8c-1.7-0.4-3.3-0.8-4.9-0.8
					c-9.5,0-10.9,8-10.9,10.2v21.6h-10.1V81.9z"/>
				<path class="st5" d="M250.1,80.9c12.2,0,22,8.5,22,21.2c0,12.7-9.8,21.2-22,21.2c-12.2,0-22-8.5-22-21.2
					C228.1,89.4,237.9,80.9,250.1,80.9z M250.1,114.2c7.4,0,11.9-5.8,11.9-12.1c0-6.3-4.5-12.1-11.9-12.1c-7.4,0-11.9,5.8-11.9,12.1
					C238.3,108.4,242.7,114.2,250.1,114.2z"/>
			</g>
			<g>
				<path class="st5" d="M277.7,120.6c0,1.5-1.3,2.6-2.8,2.6c-1.6,0-2.9-1.2-2.9-2.6c0-1.4,1.3-2.6,2.9-2.6
					C276.5,118,277.7,119.1,277.7,120.6z M272.7,120.6c0,1.2,0.9,2.1,2.2,2.1c1.2,0,2.1-0.9,2.1-2.1c0-1.1-0.9-2.1-2.1-2.1
					C273.7,118.5,272.7,119.5,272.7,120.6z M274.5,121.9h-0.6v-2.6c0.3,0,0.6-0.1,1.1-0.1c0.5,0,0.8,0.1,0.9,0.2
					c0.2,0.1,0.3,0.3,0.3,0.6c0,0.3-0.2,0.5-0.6,0.6v0c0.3,0.1,0.4,0.3,0.5,0.6c0.1,0.4,0.2,0.5,0.2,0.6h-0.7
					c-0.1-0.1-0.1-0.3-0.2-0.6c0-0.3-0.2-0.4-0.6-0.4h-0.3V121.9z M274.5,120.5h0.3c0.4,0,0.6-0.1,0.6-0.4c0-0.2-0.2-0.4-0.6-0.4
					c-0.2,0-0.3,0-0.4,0V120.5z"/>
			</g>
		</g>
	</g>
</g>
<g id="Layer_2">
	<g>
		<g>
			<polygon class="st2" points="285.3,62.3 294.9,81.6 377.1,36.3 			"/>
			<linearGradient id="SVGID_3_" gradientUnits="userSpaceOnUse" x1="272.3037" y1="49.3091" x2="377.1094" y2="49.3091">
				<stop  offset="0" style="stop-color:#E31837"/>
				<stop  offset="0.1723" style="stop-color:#E32239"/>
				<stop  offset="0.3853" style="stop-color:#E53841"/>
				<stop  offset="0.6197" style="stop-color:#E7524F"/>
				<stop  offset="0.8677" style="stop-color:#EB7064"/>
				<stop  offset="1" style="stop-color:#ED8072"/>
			</linearGradient>
			<polygon class="st6" points="272.3,36.3 285.3,62.3 377.1,36.3 			"/>
			<linearGradient id="SVGID_4_" gradientUnits="userSpaceOnUse" x1="294.9356" y1="88.7339" x2="377.1094" y2="88.7339">
				<stop  offset="0" style="stop-color:#E31837"/>
				<stop  offset="0.1723" style="stop-color:#E32239"/>
				<stop  offset="0.3853" style="stop-color:#E53841"/>
				<stop  offset="0.6197" style="stop-color:#E7524F"/>
				<stop  offset="0.8677" style="stop-color:#EB7064"/>
				<stop  offset="1" style="stop-color:#ED8072"/>
			</linearGradient>
			<polygon class="st7" points="377.1,36.3 294.9,81.6 324.7,141.1 			"/>
		</g>
		<g>
			<g>
				<path class="st8" d="M60.1,62.4h9.2l25.6,59.5H82.8l-5.5-13.6H51.5l-5.4,13.6H34.2L60.1,62.4z M73.5,99.2L64.4,75l-9.3,24.2
					H73.5z"/>
				<path class="st8" d="M142.1,81.6v36.7c0,14.5-7.1,23.8-22.8,23.8c-7.5,0-14.3-1.6-20-6.6l6.1-8.2c4,3.7,8.2,5.8,13.9,5.8
					c9.7,0,12.8-5.5,12.8-13.5v-2.9h-0.2c-2.9,3.9-8.1,5.9-13.2,5.9c-12.1,0-20.1-9.2-20.1-20.7c0-11.9,7.5-21.2,19.9-21.2
					c5.6,0,10.9,2.2,13.9,7h0.2v-6H142.1z M108.6,101.6c0,6.4,5,11.7,11.8,11.7c7.5,0,12-5.1,12-11.8c0-7-4.6-11.8-11.9-11.8
					C113.5,89.6,108.6,94.5,108.6,101.6z"/>
				<path class="st8" d="M160.3,105.2c0.7,6,5.2,9.6,10.8,9.6c5,0,8.3-2.4,10.8-5.5l7.2,5.5c-4.7,5.8-10.7,8.1-17,8.1
					c-12.2,0-21.9-8.5-21.9-21.2c0-12.7,9.7-21.2,21.9-21.2c11.3,0,18.9,7.9,18.9,21.9v2.8H160.3z M181,97.7
					c-0.1-5.9-3.9-9.6-10.2-9.6c-6,0-9.7,3.8-10.4,9.6H181z"/>
				<path class="st8" d="M199.4,81.6h10.1V88h0.2c2.2-4.6,6.6-7.4,11.9-7.4c1.3,0,2.4,0.2,3.6,0.6v9.7c-1.7-0.4-3.3-0.8-4.9-0.8
					c-9.5,0-10.8,8-10.8,10.2v21.6h-10.1V81.6z"/>
				<path class="st8" d="M250.5,80.6c12.2,0,21.9,8.5,21.9,21.2c0,12.7-9.7,21.2-21.9,21.2c-12.2,0-21.9-8.5-21.9-21.2
					C228.6,89,238.3,80.6,250.5,80.6z M250.5,113.8c7.4,0,11.8-5.8,11.8-12.1c0-6.3-4.4-12.1-11.8-12.1c-7.4,0-11.8,5.8-11.8,12.1
					C238.7,108,243.1,113.8,250.5,113.8z"/>
			</g>
		</g>
	</g>
	<g>
		<path class="st8" d="M279.9,118.9c0,2.4-2.1,4.4-4.7,4.4c-2.6,0-4.7-1.9-4.7-4.4c0-2.4,2.1-4.3,4.8-4.3
			C277.8,114.7,279.9,116.5,279.9,118.9z M271.7,118.9c0,1.9,1.5,3.5,3.6,3.5c2,0,3.5-1.5,3.5-3.4c0-1.9-1.5-3.4-3.5-3.4
			C273.2,115.5,271.7,117.1,271.7,118.9z M274.5,121.2h-1.1v-4.3c0.4-0.1,1-0.1,1.8-0.1c0.9,0,1.2,0.1,1.5,0.3
			c0.3,0.2,0.5,0.5,0.5,0.9c0,0.5-0.4,0.9-0.9,1v0c0.5,0.1,0.7,0.5,0.8,1.1c0.1,0.7,0.3,0.9,0.3,1h-1.1c-0.1-0.2-0.2-0.5-0.4-1
			c-0.1-0.4-0.4-0.7-0.9-0.7h-0.5V121.2z M274.5,118.8h0.5c0.6,0,1.1-0.2,1.1-0.6c0-0.4-0.3-0.7-1-0.7c-0.3,0-0.5,0-0.6,0V118.8z"/>
	</g>
</g>
</svg>
