<?xml version="1.0"?>
<svg xmlns="http://www.w3.org/2000/svg" viewBox="0 0 491 505">
  <path d="M466.6 89.2h-38.7c-6.6 0-12 5.4-12 12v148.6l-3.6-4.7c-25.8-34-57.8-50.5-97.7-50.5-66.2 0-133.1 51.2-133.1 149.1v1.1c0 96.9 68.6 149.1 133.1 149.1 40.1 0 72-17.6 97.7-53.8l3.6-5.1v40.8c0 6.6 5.4 12 12 12h38.7c6.6 0 12-5.4 12-12V101.2c0-6.6-5.3-12-12-12zM244.8 344.9v-1.1c0-55.2 36.1-95.2 85.8-95.2 49.2 0 86.4 40.9 86.4 95.2v1.1c0 53.4-37.9 95.2-86.4 95.2-48.9 0-85.8-41-85.8-95.2z" fill="#FFF"/>
  <path fill="#2C90ED" d="M98.8 276.3c-1.4-16.7-1-37 7-64.7 6.7-22.4 22.5-47 41-64.4 18.1-17 42.5-30.2 69.3-36.4 25.3-5.8 46.7-5.3 62.7-3.5 2.3.1 4 1.1 5 2.1 1.7 1.8 2 5.7 1 6.6-.8.8-3 1.6-5.1 1.8-35 2.2-72.7 21.2-108.7 55.1-33.2 31.2-56.8 70.7-61.3 105-.3 2.1-1.1 4-2.1 5-1 .9-5.1.6-6.7-1.2-1.1-1.2-2-2.9-2.1-5.4zm-88.3-39.9c-1.9-22.2-1.4-49.2 9.3-86.2 8.9-29.8 30-62.7 54.6-85.8C98.5 41.7 131 24.1 166.7 16c33.7-7.7 62.2-7.1 83.5-4.7 3.1.1 5.3 1.4 6.6 2.8 2.2 2.4 2.6 7.5 1.3 8.8-1.1 1-3.9 2.2-6.8 2.4-46.7 3-96.9 28.2-144.8 73.4-44.2 41.6-75.7 94.2-81.7 139.8-.3 2.8-1.4 5.4-2.8 6.6-1.3 1.2-6.7.8-9-1.6-1.2-1.4-2.4-3.7-2.5-7.1z"/>
</svg>
