<svg width="104" height="32" viewBox="0 0 104 32" fill="none" xmlns="http://www.w3.org/2000/svg">
<g clip-path="url(#clip0_1_3513)">
<path d="M10.0825 11.2949V8.19631H6.34875V3.75073H2.61505V8.19631H0V11.2949H2.61505H6.34875H10.0825Z" fill="#00D9A5"/>
<path d="M8.32664 21.8258C7.09384 21.8258 6.34668 21.2281 6.34668 19.8832V13.2646H2.61505V20.2941C2.61505 23.5796 4.70709 25.1486 7.65628 25.1486C8.81437 25.1486 9.82303 24.9244 10.456 24.5509V21.1534C9.93303 21.527 9.0738 21.8258 8.32664 21.8258Z" fill="#00D9A5"/>
<path d="M22.1822 24.7749V23.841C21.6218 24.4013 19.9407 25.0738 18.0749 25.0738C14.6774 25.0738 11.8756 23.0564 11.8756 19.659C11.8756 16.523 14.6754 14.3189 18.3364 14.3189C19.8307 14.3189 21.5098 14.8419 22.1822 15.3275V13.9826C22.1822 12.3015 21.1362 10.9961 19.0089 10.9961C17.5146 10.9961 16.5806 11.6312 16.1718 12.7893H12.5854C13.0711 9.95215 15.684 7.82275 19.0836 7.82275C23.2656 7.82275 25.7312 10.1369 25.7312 13.91V24.777H22.1822V24.7749ZM22.1822 18.9865C21.7713 17.9405 20.277 17.3054 18.7847 17.3054C17.1036 17.3054 15.3499 18.0152 15.3499 19.659C15.3499 21.3401 17.1057 22.0499 18.7847 22.0499C20.279 22.0499 21.7713 21.4148 22.1822 20.3688V18.9865Z" fill="#00D9A5"/>
<path d="M31.8538 19.9951C32.2647 21.3773 33.4975 22.0871 35.1392 22.0871C36.8576 22.0871 37.9763 21.4146 37.9763 20.1071C37.9763 19.2105 37.4159 18.7249 36.0337 18.3887L32.5989 17.5668C30.2453 17.0064 28.4916 15.7363 28.4916 13.0112C28.4916 10.0247 31.144 7.82056 34.7656 7.82056C38.6487 7.82056 40.8529 9.68845 41.4132 12.7124H37.7542C37.418 11.629 36.4467 10.8818 34.7303 10.8818C33.4228 10.8818 32.0779 11.4795 32.0779 12.7871C32.0779 13.5342 32.6009 14.0199 33.7964 14.3187L37.3059 15.1406C40.1431 15.8131 41.5627 17.4194 41.5627 19.8456C41.5627 23.131 38.8376 25.1484 35.1018 25.1484C31.2187 25.1484 28.5289 23.2057 28.0433 19.9951H31.8538Z" fill="#00D9A5"/>
<path d="M49.5551 17.7184L48.0234 19.2874V24.777H44.2897V0.502686H48.0234V14.9913L54.5216 8.19424H59.3014L52.2428 15.3649L59.5629 24.7749H55.0446L49.5551 17.7184Z" fill="#00D9A5"/>
<path d="M66.6567 11.2949H70.3925V8.19631H66.6567V3.75073H62.923V8.19631H60.3101V11.2949H62.923V11.297H66.6567V11.2949Z" fill="black"/>
<path d="M68.6367 21.8258C67.4039 21.8258 66.6567 21.2281 66.6567 19.8832V13.2646H62.923V20.2941C62.923 23.5796 65.0151 25.1486 67.9643 25.1486C69.1224 25.1486 70.131 24.9244 70.764 24.5509V21.1534C70.2431 21.527 69.3839 21.8258 68.6367 21.8258Z" fill="black"/>
<path d="M82.4902 24.7749V23.841C81.9298 24.4013 80.2487 25.0738 78.3829 25.0738C74.9854 25.0738 72.1836 23.0564 72.1836 19.659C72.1836 16.523 74.9834 14.3189 78.6444 14.3189C80.1387 14.3189 81.8178 14.8419 82.4902 15.3275V13.9826C82.4902 12.3015 81.4442 10.9961 79.3169 10.9961C77.8226 10.9961 76.8886 11.6312 76.4797 12.7893H72.8955C73.3811 9.95215 75.9941 7.82275 79.3937 7.82275C83.5757 7.82275 86.0413 10.1369 86.0413 13.91V24.777H82.4902V24.7749ZM82.4902 18.9865C82.0793 17.9405 80.585 17.3054 79.0927 17.3054C77.4116 17.3054 75.6579 18.0152 75.6579 19.659C75.6579 21.3401 77.4137 22.0499 79.0927 22.0499C80.587 22.0499 82.0813 21.4148 82.4902 20.3688V18.9865Z" fill="black"/>
<path d="M100.266 22.909C99.5191 23.8055 97.9127 24.6274 96.0469 24.6274C91.1551 24.6274 88.3533 20.5949 88.3533 16.2261C88.3533 11.8573 91.153 7.82471 96.0469 7.82471C97.9148 7.82471 99.5191 8.64658 100.266 9.54317V8.19829H104V23.3967C104 28.9983 100.602 31.4992 96.1963 31.4992C91.977 31.4992 89.2499 29.2951 88.8389 25.6734H92.4606C92.8341 27.504 94.1417 28.4379 96.1943 28.4379C98.9567 28.4379 100.264 26.7568 100.264 23.6582V22.909H100.266ZM100.266 13.088C99.6312 11.9673 98.2489 11.108 96.682 11.108C93.8075 11.108 92.1638 13.2748 92.1638 16.224C92.1638 19.1732 93.8075 21.3399 96.682 21.3399C98.251 21.3399 99.6312 20.4807 100.266 19.36V13.088Z" fill="black"/>
</g>
<defs>
<clipPath id="clip0_1_3513">
<rect width="104" height="30.9945" fill="white" transform="translate(0 0.502686)"/>
</clipPath>
</defs>
</svg>
