<svg xmlns="http://www.w3.org/2000/svg" viewBox="496.26 384.74 131.32 23.44"><defs><clipPath id="a"><path d="M-415.662 297.324h841.89v-595.276h-841.89z"/></clipPath><clipPath id="b"><path d="M-422.236 289.047h841.89V-306.23h-841.89z"/></clipPath><clipPath id="c"><path d="M-465.702 297.324h841.89v-595.276h-841.89z"/></clipPath></defs><path d="M496.262 385.396h7.073l5.188 14.62 4.906-14.62h5.752l5.093 14.62 5.095-14.62h6.885l-9.008 22.165h-5.943l-5.045-14.148-5.047 14.148h-5.894z" fill="#231f20"/><path d="M0 0c0 2.547-1.839 4.457-4.28 4.457-2.44 0-4.28-1.946-4.28-4.457 0-2.546 1.84-4.492 4.28-4.492C-1.839-4.492 0-2.582 0 0m-13.547-.035c0 5.057 3.679 8.807 8.348 8.807 2.44 0 4.209-1.097 5.376-2.476v1.981h4.81V-8.347H.177v1.98c-1.238-1.414-3.007-2.44-5.376-2.44-4.705 0-8.348 3.714-8.348 8.772" clip-path="url(#a)" transform="matrix(1.33333 0 0 -1.33333 554.216 396.432)" fill="#231f20"/><path d="M0 0h5.306l3.89-10.965L12.875 0h4.315l3.82-10.965L24.83 0h5.164l-6.756-16.624h-4.457L14.997-6.013l-3.784-10.611H6.791z" clip-path="url(#b)" transform="matrix(1.33333 0 0 -1.33333 562.982 385.396)" fill="#231f20"/><path d="M0 0c0 2.547-1.839 4.457-4.28 4.457-2.441 0-4.28-1.946-4.28-4.457 0-2.546 1.839-4.492 4.28-4.492C-1.839-4.492 0-2.582 0 0m-13.547-.035c0 5.057 3.679 8.807 8.348 8.807 2.44 0 4.209-1.097 5.376-2.476v1.981h4.81V-8.347H.177v1.98c-1.239-1.414-3.007-2.44-5.376-2.44-4.704 0-8.348 3.714-8.348 8.772" clip-path="url(#c)" transform="matrix(1.33333 0 0 -1.33333 620.936 396.432)" fill="#231f20"/></svg>