<svg width="64" height="64" viewBox="0 0 64 64" fill="none" xmlns="http://www.w3.org/2000/svg">
<rect width="64" height="64" fill="white"/>
<rect width="64" height="64" fill="#3300FF"/>
<rect width="64" height="64" fill="url(#paint0_linear_1101_72693)"/>
<rect width="64" height="64" fill="url(#paint1_linear_1101_72693)" fill-opacity="0.9"/>
<rect width="64" height="64" fill="url(#paint2_linear_1101_72693)" fill-opacity="0.5"/>
<rect width="64" height="64" fill="url(#paint3_linear_1101_72693)" fill-opacity="0.8"/>
<rect width="64" height="64" fill="url(#paint4_linear_1101_72693)" fill-opacity="0.5"/>
<path fill-rule="evenodd" clip-rule="evenodd" d="M55.4894 23.7158H52.5265C52.4633 23.7158 52.4065 23.7616 52.3956 23.8249L50.4211 33.9987C50.4058 34.0816 50.4691 34.158 50.552 34.158H53.5149C53.5782 34.158 53.6349 34.1122 53.6458 34.0489L55.6203 23.8751C55.6378 23.7922 55.5745 23.7158 55.4894 23.7158ZM53.2604 39.8613C54.1713 38.9504 54.1713 37.4737 53.2604 36.5629C52.3496 35.652 50.8728 35.652 49.962 36.5629C49.0512 37.4737 49.0512 38.9504 49.962 39.8613C50.8728 40.7721 52.3496 40.7721 53.2604 39.8613ZM19.1448 23.7223H22.6859C22.7928 23.7223 22.8561 23.8445 22.7906 23.9296C21.7106 25.3761 15.3943 33.8045 15.3943 33.8045C15.3943 33.8045 14.3775 39.2939 14.2183 40.1274C14.2052 40.1885 14.1528 40.2321 14.0895 40.2321H10.9805C10.8997 40.2321 10.8365 40.1579 10.8517 40.0772C11.0481 38.9972 12.0234 33.6976 12.0234 33.6976L11.9426 33.4881L11.9426 33.4881L11.9426 33.4881L11.9426 33.4881C11.9361 33.4685 11.9295 33.4488 11.923 33.4314C11.2575 31.7165 9.90045 28.2299 9.90045 28.2299C9.90045 28.2299 8.54773 24.7412 8.227 23.9056C8.19427 23.8183 8.25754 23.7288 8.34918 23.7288H11.419C11.5063 23.7288 11.587 23.7812 11.6197 23.8641C12.4706 25.963 13.3325 28.0881 14.2183 30.2678C15.0796 29.0979 15.9309 27.9412 16.7772 26.7913L16.779 26.7888L16.7811 26.786C17.5135 25.7909 18.2421 24.8008 18.9703 23.8118C19.0095 23.755 19.075 23.7223 19.1448 23.7223ZM34.1711 27.8529H31.1035C31.0315 27.8529 30.9726 27.903 30.9595 27.9729L30.7086 29.4063C30.6998 29.3889 30.6889 29.3714 30.678 29.3539C30.5668 29.1707 30.126 28.5314 29.2315 28.0798C29.2148 28.0718 29.1983 28.0635 29.1818 28.0553C29.1488 28.0388 29.1159 28.0223 29.0809 28.0078C28.8191 27.8987 28.5551 27.8114 28.2889 27.7416C27.1413 27.4383 25.974 27.4863 24.8133 27.8529C20.43 29.2361 19.1624 34.215 20.6548 37.4398C22.182 40.7409 26.5478 41.7532 29.2468 39.0412L29.0831 40.0449C29.0678 40.1343 29.1377 40.215 29.2271 40.215H32.094C32.166 40.215 32.2249 40.1627 32.238 40.0929C32.8018 36.8146 33.3642 33.5521 33.9275 30.2845L34.3173 28.023C34.3304 27.9336 34.2628 27.8529 34.1711 27.8529ZM28.6402 36.7394C26.7464 38.3845 23.8642 37.2783 23.5609 34.8063C23.3318 32.9496 24.4162 31.0929 26.2795 30.639C26.5151 30.5801 26.7529 30.5539 26.9864 30.5539C28.3893 30.5583 29.6635 31.5663 29.9013 33.015C30.1391 34.4659 29.7748 35.7532 28.6402 36.7394ZM45.8808 27.857H49.243C49.3412 27.857 49.4045 27.9617 49.3565 28.0512C48.6517 29.3777 44.4343 37.2126 42.2503 41.2163C41.5739 42.4534 40.723 43.5617 39.595 44.4366C38.2445 45.4861 36.6976 45.881 35.0088 45.7981C34.9434 45.7937 34.8954 45.7348 34.9063 45.6694L34.9302 45.5268C35.014 45.028 35.1081 44.4679 35.1877 44.0003C35.2104 43.8659 35.2348 43.7324 35.2594 43.5986C35.2727 43.5261 35.286 43.4535 35.299 43.3806L35.3972 42.8221C35.4081 42.761 35.4583 42.7152 35.5216 42.713C35.5826 42.7108 35.6568 42.7086 35.7266 42.7086C36.1434 42.7064 36.523 42.6279 36.9223 42.5123C37.5856 42.3181 38.0394 41.8643 38.4386 41.3384V41.3406C38.4488 41.3261 38.4609 41.3096 38.4731 41.2931C38.4791 41.2849 38.4852 41.2766 38.491 41.2686L38.4932 41.2664C38.5216 41.2294 38.7856 40.8366 38.8336 40.7428C39.0037 40.457 39.1434 40.1974 39.1434 40.1974L38.9536 39.4141C38.9526 39.4093 38.9516 39.4049 38.9507 39.4008C38.9495 39.3955 38.9482 39.3906 38.947 39.3857C38.0808 35.9319 36.4772 29.1595 36.2176 28.0315C36.2001 27.9508 36.2612 27.8723 36.3463 27.8723H39.4401C39.499 27.8723 39.5514 27.9137 39.5645 27.9726C39.6702 28.4506 40.1336 30.559 40.5747 32.5661C40.9711 34.37 41.3496 36.092 41.4343 36.4752C41.5325 36.2963 43.2408 32.945 44.035 31.3741L45.763 27.929C45.787 27.8854 45.8306 27.857 45.8808 27.857Z" fill="white"/>
<defs>
<linearGradient id="paint0_linear_1101_72693" x1="64" y1="5.99052" x2="63.1925" y2="40.4865" gradientUnits="userSpaceOnUse">
<stop stop-color="#FF72DE" stop-opacity="0.37"/>
<stop offset="0.489583" stop-color="#A660DE" stop-opacity="0.7"/>
<stop offset="1" stop-color="#FF4DD5"/>
</linearGradient>
<linearGradient id="paint1_linear_1101_72693" x1="64" y1="27.5261" x2="-2.13333" y2="27.5261" gradientUnits="userSpaceOnUse">
<stop stop-color="#60BCFF"/>
<stop offset="0.348958" stop-color="#0076FF" stop-opacity="0.7"/>
<stop offset="0.726893" stop-color="#1909CC" stop-opacity="0.774476"/>
<stop offset="0.973958" stop-color="#1A0019" stop-opacity="0.26"/>
</linearGradient>
<linearGradient id="paint2_linear_1101_72693" x1="9.6" y1="62.7488" x2="14.883" y2="31.8419" gradientUnits="userSpaceOnUse">
<stop offset="0.0729167" stop-color="#FA69D8"/>
<stop offset="1" stop-color="#9766E5" stop-opacity="0"/>
</linearGradient>
<linearGradient id="paint3_linear_1101_72693" x1="8.36923" y1="-8.70361e-08" x2="22.1307" y2="32.4455" gradientUnits="userSpaceOnUse">
<stop stop-color="#268AFF"/>
<stop offset="1" stop-color="#367DF9" stop-opacity="0"/>
</linearGradient>
<linearGradient id="paint4_linear_1101_72693" x1="45.2923" y1="43.0332" x2="42.6562" y2="68.9606" gradientUnits="userSpaceOnUse">
<stop stop-color="#FA3DD0" stop-opacity="0"/>
<stop offset="1" stop-color="#FF55D3"/>
</linearGradient>
</defs>
</svg>
